G04*
G04 #@! TF.GenerationSoftware,Altium Limited,Altium Designer,23.6.0 (18)*
G04*
G04 Layer_Color=8388736*
%FSLAX44Y44*%
%MOMM*%
G71*
G04*
G04 #@! TF.SameCoordinates,7D80C46A-954E-43A3-A214-DA6A50CC5AA0*
G04*
G04*
G04 #@! TF.FilePolarity,Negative*
G04*
G01*
G75*
%ADD23R,0.6000X2.0000*%
%ADD25R,0.6604X0.4318*%
%ADD26R,2.1804X1.6300*%
%ADD27R,1.6300X2.1804*%
%ADD38R,0.2794X0.6064*%
%ADD52R,1.3000X0.7500*%
%ADD53R,1.3000X0.4500*%
G04:AMPARAMS|DCode=54|XSize=1.01mm|YSize=0.61mm|CornerRadius=0.144mm|HoleSize=0mm|Usage=FLASHONLY|Rotation=0.000|XOffset=0mm|YOffset=0mm|HoleType=Round|Shape=RoundedRectangle|*
%AMROUNDEDRECTD54*
21,1,1.0100,0.3220,0,0,0.0*
21,1,0.7220,0.6100,0,0,0.0*
1,1,0.2880,0.3610,-0.1610*
1,1,0.2880,-0.3610,-0.1610*
1,1,0.2880,-0.3610,0.1610*
1,1,0.2880,0.3610,0.1610*
%
%ADD54ROUNDEDRECTD54*%
%ADD55R,1.1500X0.9500*%
%ADD56R,1.1000X1.1000*%
%ADD57R,0.9500X1.1500*%
G04:AMPARAMS|DCode=58|XSize=1.36mm|YSize=0.74mm|CornerRadius=0.2225mm|HoleSize=0mm|Usage=FLASHONLY|Rotation=90.000|XOffset=0mm|YOffset=0mm|HoleType=Round|Shape=RoundedRectangle|*
%AMROUNDEDRECTD58*
21,1,1.3600,0.2950,0,0,90.0*
21,1,0.9150,0.7400,0,0,90.0*
1,1,0.4450,0.1475,0.4575*
1,1,0.4450,0.1475,-0.4575*
1,1,0.4450,-0.1475,-0.4575*
1,1,0.4450,-0.1475,0.4575*
%
%ADD58ROUNDEDRECTD58*%
%ADD59R,1.0500X1.0500*%
%ADD60R,1.0500X1.6500*%
%ADD61R,1.6500X1.0500*%
G04:AMPARAMS|DCode=62|XSize=1.46mm|YSize=1.08mm|CornerRadius=0.1447mm|HoleSize=0mm|Usage=FLASHONLY|Rotation=0.000|XOffset=0mm|YOffset=0mm|HoleType=Round|Shape=RoundedRectangle|*
%AMROUNDEDRECTD62*
21,1,1.4600,0.7905,0,0,0.0*
21,1,1.1705,1.0800,0,0,0.0*
1,1,0.2895,0.5853,-0.3953*
1,1,0.2895,-0.5853,-0.3953*
1,1,0.2895,-0.5853,0.3953*
1,1,0.2895,0.5853,0.3953*
%
%ADD62ROUNDEDRECTD62*%
G04:AMPARAMS|DCode=63|XSize=1.46mm|YSize=3.39mm|CornerRadius=0.1733mm|HoleSize=0mm|Usage=FLASHONLY|Rotation=0.000|XOffset=0mm|YOffset=0mm|HoleType=Round|Shape=RoundedRectangle|*
%AMROUNDEDRECTD63*
21,1,1.4600,3.0435,0,0,0.0*
21,1,1.1135,3.3900,0,0,0.0*
1,1,0.3465,0.5568,-1.5218*
1,1,0.3465,-0.5568,-1.5218*
1,1,0.3465,-0.5568,1.5218*
1,1,0.3465,0.5568,1.5218*
%
%ADD63ROUNDEDRECTD63*%
%ADD64C,0.7500*%
%ADD65R,0.9500X0.9500*%
G04:AMPARAMS|DCode=66|XSize=0.7mm|YSize=0.65mm|CornerRadius=0.1375mm|HoleSize=0mm|Usage=FLASHONLY|Rotation=180.000|XOffset=0mm|YOffset=0mm|HoleType=Round|Shape=RoundedRectangle|*
%AMROUNDEDRECTD66*
21,1,0.7000,0.3750,0,0,180.0*
21,1,0.4250,0.6500,0,0,180.0*
1,1,0.2750,-0.2125,0.1875*
1,1,0.2750,0.2125,0.1875*
1,1,0.2750,0.2125,-0.1875*
1,1,0.2750,-0.2125,-0.1875*
%
%ADD66ROUNDEDRECTD66*%
%ADD67R,1.7000X5.7500*%
G04:AMPARAMS|DCode=68|XSize=0.91mm|YSize=0.8104mm|CornerRadius=0.1576mm|HoleSize=0mm|Usage=FLASHONLY|Rotation=270.000|XOffset=0mm|YOffset=0mm|HoleType=Round|Shape=RoundedRectangle|*
%AMROUNDEDRECTD68*
21,1,0.9100,0.4953,0,0,270.0*
21,1,0.5949,0.8104,0,0,270.0*
1,1,0.3151,-0.2477,-0.2975*
1,1,0.3151,-0.2477,0.2975*
1,1,0.3151,0.2477,0.2975*
1,1,0.3151,0.2477,-0.2975*
%
%ADD68ROUNDEDRECTD68*%
G04:AMPARAMS|DCode=69|XSize=1.45mm|YSize=0.91mm|CornerRadius=0.17mm|HoleSize=0mm|Usage=FLASHONLY|Rotation=90.000|XOffset=0mm|YOffset=0mm|HoleType=Round|Shape=RoundedRectangle|*
%AMROUNDEDRECTD69*
21,1,1.4500,0.5700,0,0,90.0*
21,1,1.1100,0.9100,0,0,90.0*
1,1,0.3400,0.2850,0.5550*
1,1,0.3400,0.2850,-0.5550*
1,1,0.3400,-0.2850,-0.5550*
1,1,0.3400,-0.2850,0.5550*
%
%ADD69ROUNDEDRECTD69*%
%ADD70R,3.6500X3.7000*%
%ADD71R,1.1500X1.2500*%
%ADD72R,1.5500X2.2500*%
%ADD73R,1.1000X1.1000*%
G04:AMPARAMS|DCode=74|XSize=1.45mm|YSize=0.91mm|CornerRadius=0.17mm|HoleSize=0mm|Usage=FLASHONLY|Rotation=0.000|XOffset=0mm|YOffset=0mm|HoleType=Round|Shape=RoundedRectangle|*
%AMROUNDEDRECTD74*
21,1,1.4500,0.5700,0,0,0.0*
21,1,1.1100,0.9100,0,0,0.0*
1,1,0.3400,0.5550,-0.2850*
1,1,0.3400,-0.5550,-0.2850*
1,1,0.3400,-0.5550,0.2850*
1,1,0.3400,0.5550,0.2850*
%
%ADD74ROUNDEDRECTD74*%
G04:AMPARAMS|DCode=75|XSize=0.91mm|YSize=0.8104mm|CornerRadius=0.1576mm|HoleSize=0mm|Usage=FLASHONLY|Rotation=0.000|XOffset=0mm|YOffset=0mm|HoleType=Round|Shape=RoundedRectangle|*
%AMROUNDEDRECTD75*
21,1,0.9100,0.4953,0,0,0.0*
21,1,0.5949,0.8104,0,0,0.0*
1,1,0.3151,0.2975,-0.2477*
1,1,0.3151,-0.2975,-0.2477*
1,1,0.3151,-0.2975,0.2477*
1,1,0.3151,0.2975,0.2477*
%
%ADD75ROUNDEDRECTD75*%
%ADD76R,1.2000X1.1500*%
G04:AMPARAMS|DCode=77|XSize=2.12mm|YSize=0.75mm|CornerRadius=0.225mm|HoleSize=0mm|Usage=FLASHONLY|Rotation=0.000|XOffset=0mm|YOffset=0mm|HoleType=Round|Shape=RoundedRectangle|*
%AMROUNDEDRECTD77*
21,1,2.1200,0.3000,0,0,0.0*
21,1,1.6700,0.7500,0,0,0.0*
1,1,0.4500,0.8350,-0.1500*
1,1,0.4500,-0.8350,-0.1500*
1,1,0.4500,-0.8350,0.1500*
1,1,0.4500,0.8350,0.1500*
%
%ADD77ROUNDEDRECTD77*%
%ADD78R,2.5600X3.2260*%
%ADD79C,2.0000*%
%ADD80R,2.0000X2.0000*%
%ADD81C,7.5240*%
G04:AMPARAMS|DCode=82|XSize=1.95mm|YSize=1.15mm|CornerRadius=0.325mm|HoleSize=0mm|Usage=FLASHONLY|Rotation=0.000|XOffset=0mm|YOffset=0mm|HoleType=Round|Shape=RoundedRectangle|*
%AMROUNDEDRECTD82*
21,1,1.9500,0.5000,0,0,0.0*
21,1,1.3000,1.1500,0,0,0.0*
1,1,0.6500,0.6500,-0.2500*
1,1,0.6500,-0.6500,-0.2500*
1,1,0.6500,-0.6500,0.2500*
1,1,0.6500,0.6500,0.2500*
%
%ADD82ROUNDEDRECTD82*%
%ADD83O,2.2500X1.1500*%
%ADD84C,0.8000*%
%ADD85C,1.6740*%
%ADD86C,1.8010*%
%ADD87R,1.8010X1.8010*%
%ADD88C,1.4500*%
%ADD89R,1.4500X1.4500*%
%ADD90R,2.0000X2.0000*%
%ADD91C,2.1500*%
%ADD92C,3.1500*%
%ADD93C,0.6000*%
%ADD94C,0.8612*%
G36*
X568305Y983459D02*
Y988849D01*
X574005D01*
Y983459D01*
X589502Y983459D01*
Y979141D01*
X584802D01*
Y976959D01*
X589502D01*
Y972641D01*
X584802D01*
Y970459D01*
X589502D01*
Y966141D01*
X584802D01*
Y963959D01*
X589502D01*
Y959641D01*
X574005Y959641D01*
Y954251D01*
X568305D01*
Y959641D01*
X566505D01*
Y983459D01*
X568305D01*
D02*
G37*
G36*
Y1027909D02*
Y1033299D01*
X574005D01*
Y1027909D01*
X589502Y1027909D01*
Y1023591D01*
X584802D01*
Y1021409D01*
X589502D01*
Y1017091D01*
X584802D01*
Y1014909D01*
X589502D01*
Y1010591D01*
X584802D01*
Y1008409D01*
X589502D01*
Y1004091D01*
X574005Y1004091D01*
Y998701D01*
X568305D01*
Y1004091D01*
X566505D01*
Y1027909D01*
X568305D01*
D02*
G37*
G36*
X840125Y972341D02*
Y966951D01*
X834425D01*
Y972341D01*
X818928Y972341D01*
Y976659D01*
X823628D01*
Y978841D01*
X818928D01*
Y983159D01*
X823628D01*
Y985341D01*
X818928D01*
Y989659D01*
X823628D01*
Y991841D01*
X818928D01*
Y996159D01*
X834425Y996159D01*
Y1001549D01*
X840125D01*
Y996159D01*
X841925D01*
Y972341D01*
X840125D01*
D02*
G37*
G36*
Y1019331D02*
Y1013941D01*
X834425D01*
Y1019331D01*
X818928Y1019331D01*
Y1023649D01*
X823628D01*
Y1025831D01*
X818928D01*
Y1030149D01*
X823628D01*
Y1032331D01*
X818928D01*
Y1036649D01*
X823628D01*
Y1038831D01*
X818928D01*
Y1043149D01*
X834425Y1043149D01*
Y1048539D01*
X840125D01*
Y1043149D01*
X841925D01*
Y1019331D01*
X840125D01*
D02*
G37*
G36*
X965815Y996159D02*
Y1001549D01*
X971515D01*
Y996159D01*
X987012Y996159D01*
Y991841D01*
X982312D01*
Y989659D01*
X987012D01*
Y985341D01*
X982312D01*
Y983159D01*
X987012D01*
Y978841D01*
X982312D01*
Y976659D01*
X987012D01*
Y972341D01*
X971515Y972341D01*
Y966951D01*
X965815D01*
Y972341D01*
X964015D01*
Y996159D01*
X965815D01*
D02*
G37*
G36*
Y1041879D02*
Y1047269D01*
X971515D01*
Y1041879D01*
X987012Y1041879D01*
Y1037561D01*
X982312D01*
Y1035379D01*
X987012D01*
Y1031061D01*
X982312D01*
Y1028879D01*
X987012D01*
Y1024561D01*
X982312D01*
Y1022379D01*
X987012D01*
Y1018061D01*
X971515Y1018061D01*
Y1012671D01*
X965815D01*
Y1018061D01*
X964015D01*
Y1041879D01*
X965815D01*
D02*
G37*
G36*
X1241445Y972341D02*
Y966951D01*
X1235745D01*
Y972341D01*
X1220248Y972341D01*
Y976659D01*
X1224948D01*
Y978841D01*
X1220248D01*
Y983159D01*
X1224948D01*
Y985341D01*
X1220248D01*
Y989659D01*
X1224948D01*
Y991841D01*
X1220248D01*
Y996159D01*
X1235745Y996159D01*
Y1001549D01*
X1241445D01*
Y996159D01*
X1243245D01*
Y972341D01*
X1241445D01*
D02*
G37*
G36*
Y1018061D02*
Y1012671D01*
X1235745D01*
Y1018061D01*
X1220248Y1018061D01*
Y1022379D01*
X1224948D01*
Y1024561D01*
X1220248D01*
Y1028879D01*
X1224948D01*
Y1031061D01*
X1220248D01*
Y1035379D01*
X1224948D01*
Y1037561D01*
X1220248D01*
Y1041879D01*
X1235745Y1041879D01*
Y1047269D01*
X1241445D01*
Y1041879D01*
X1243245D01*
Y1018061D01*
X1241445D01*
D02*
G37*
D23*
X977900Y643890D02*
D03*
X990600D02*
D03*
X1003300D02*
D03*
X1016000D02*
D03*
X1028700D02*
D03*
X1041400D02*
D03*
X1054100D02*
D03*
X1066800D02*
D03*
X1079500D02*
D03*
X1092200D02*
D03*
Y737890D02*
D03*
X1079500D02*
D03*
X1066800D02*
D03*
X1054100D02*
D03*
X1041400D02*
D03*
X1028700D02*
D03*
X1016000D02*
D03*
X1003300D02*
D03*
X990600D02*
D03*
X977900D02*
D03*
X584200Y645150D02*
D03*
X596900D02*
D03*
X609600D02*
D03*
X622300D02*
D03*
X635000D02*
D03*
X647700D02*
D03*
X660400D02*
D03*
X673100D02*
D03*
X685800D02*
D03*
X698500D02*
D03*
Y739150D02*
D03*
X685800D02*
D03*
X673100D02*
D03*
X660400D02*
D03*
X647700D02*
D03*
X635000D02*
D03*
X622300D02*
D03*
X609600D02*
D03*
X596900D02*
D03*
X584200D02*
D03*
D25*
X851630Y974500D02*
D03*
Y981000D02*
D03*
Y987500D02*
D03*
Y994000D02*
D03*
Y1021490D02*
D03*
Y1027990D02*
D03*
Y1034490D02*
D03*
Y1040990D02*
D03*
X1252950Y1039720D02*
D03*
Y1033220D02*
D03*
Y1026720D02*
D03*
Y1020220D02*
D03*
X954310D02*
D03*
Y1026720D02*
D03*
Y1033220D02*
D03*
Y1039720D02*
D03*
X1252950Y994000D02*
D03*
Y987500D02*
D03*
Y981000D02*
D03*
Y974500D02*
D03*
X954310D02*
D03*
Y981000D02*
D03*
Y987500D02*
D03*
Y994000D02*
D03*
X556800Y1006250D02*
D03*
Y1012750D02*
D03*
Y1019250D02*
D03*
Y1025750D02*
D03*
Y961800D02*
D03*
Y968300D02*
D03*
Y974800D02*
D03*
Y981300D02*
D03*
D26*
X1159032Y648970D02*
D03*
X1121888D02*
D03*
X768572Y650000D02*
D03*
X731428D02*
D03*
D27*
X934720Y709452D02*
D03*
Y672308D02*
D03*
X540000Y708572D02*
D03*
Y671428D02*
D03*
D38*
X395770Y908383D02*
D03*
X400770D02*
D03*
X405770D02*
D03*
X410770D02*
D03*
Y923337D02*
D03*
X405770D02*
D03*
X400770D02*
D03*
X395770D02*
D03*
Y1068117D02*
D03*
X400770D02*
D03*
X405770D02*
D03*
X410770D02*
D03*
Y1053163D02*
D03*
X405770D02*
D03*
X400770D02*
D03*
X395770D02*
D03*
D52*
X73440Y222090D02*
D03*
Y158090D02*
D03*
Y214090D02*
D03*
Y166090D02*
D03*
D53*
Y187590D02*
D03*
Y192590D02*
D03*
Y182590D02*
D03*
Y177590D02*
D03*
Y172590D02*
D03*
Y197590D02*
D03*
Y202590D02*
D03*
Y207590D02*
D03*
D54*
X95750Y195210D02*
D03*
Y190210D02*
D03*
Y185210D02*
D03*
X109550D02*
D03*
Y190210D02*
D03*
Y195210D02*
D03*
D55*
X868680Y1023620D02*
D03*
Y1038620D02*
D03*
X952500Y943730D02*
D03*
Y958730D02*
D03*
X935990Y970280D02*
D03*
Y955280D02*
D03*
X1254760Y943730D02*
D03*
Y958730D02*
D03*
X868680Y972700D02*
D03*
Y957700D02*
D03*
X850900Y943730D02*
D03*
Y958730D02*
D03*
X868680Y990720D02*
D03*
Y1005720D02*
D03*
X1272540Y1037470D02*
D03*
Y1022470D02*
D03*
X935990Y1022470D02*
D03*
Y1037470D02*
D03*
X1272540Y1004450D02*
D03*
Y989450D02*
D03*
X935990Y989450D02*
D03*
Y1004450D02*
D03*
X1272540Y956430D02*
D03*
Y971430D02*
D03*
X539750Y1007350D02*
D03*
Y1022350D02*
D03*
Y975600D02*
D03*
Y990600D02*
D03*
Y945000D02*
D03*
Y960000D02*
D03*
X554990Y927220D02*
D03*
Y942220D02*
D03*
X25730Y530980D02*
D03*
Y545980D02*
D03*
X185420Y736600D02*
D03*
Y751600D02*
D03*
X413430Y1088700D02*
D03*
Y1103700D02*
D03*
X382950Y1088700D02*
D03*
Y1103700D02*
D03*
X347390Y1088700D02*
D03*
Y1103700D02*
D03*
X339770Y953840D02*
D03*
Y938840D02*
D03*
X375330Y956380D02*
D03*
Y941380D02*
D03*
X410890Y956380D02*
D03*
Y941380D02*
D03*
X25730Y564000D02*
D03*
Y579000D02*
D03*
D56*
X773430Y688140D02*
D03*
Y675640D02*
D03*
X1109980Y725270D02*
D03*
Y737770D02*
D03*
X960120Y684630D02*
D03*
Y697130D02*
D03*
X1163320Y688240D02*
D03*
Y675740D02*
D03*
X715010Y727810D02*
D03*
Y740310D02*
D03*
X565150Y687170D02*
D03*
Y699670D02*
D03*
X426130Y927190D02*
D03*
Y914690D02*
D03*
X365170Y1089950D02*
D03*
Y1102450D02*
D03*
X393110Y955130D02*
D03*
Y942630D02*
D03*
X357550Y952590D02*
D03*
Y940090D02*
D03*
X428670Y1074510D02*
D03*
Y1062010D02*
D03*
X60020Y274320D02*
D03*
Y286820D02*
D03*
D57*
X1064140Y623570D02*
D03*
X1049140D02*
D03*
X1082040D02*
D03*
X1097040D02*
D03*
X988180D02*
D03*
X1003180D02*
D03*
X673100Y622300D02*
D03*
X688100D02*
D03*
X594480D02*
D03*
X609480D02*
D03*
X721240D02*
D03*
X706240D02*
D03*
X235040Y342900D02*
D03*
X220040D02*
D03*
X119590Y210820D02*
D03*
X104590D02*
D03*
X104590Y168910D02*
D03*
X119590D02*
D03*
X415850Y890460D02*
D03*
X400850D02*
D03*
X360210Y903160D02*
D03*
X375210D02*
D03*
X360210Y923480D02*
D03*
X375210D02*
D03*
X377630Y1070800D02*
D03*
X362630D02*
D03*
X377750Y1050480D02*
D03*
X362750D02*
D03*
X400850Y1037780D02*
D03*
X415850D02*
D03*
X253180Y186690D02*
D03*
X268180D02*
D03*
X179640Y143510D02*
D03*
X194640D02*
D03*
X155500Y893000D02*
D03*
X140500D02*
D03*
X147880Y862520D02*
D03*
X132880D02*
D03*
X99860D02*
D03*
X114860D02*
D03*
D58*
X1144500Y92550D02*
D03*
X1163500D02*
D03*
Y67450D02*
D03*
X1154000D02*
D03*
X1144500D02*
D03*
X614500D02*
D03*
X624000D02*
D03*
X633500D02*
D03*
Y92550D02*
D03*
X614500D02*
D03*
X884500Y67450D02*
D03*
X894000D02*
D03*
X903500D02*
D03*
Y92550D02*
D03*
X884500D02*
D03*
X1142720Y381150D02*
D03*
X1152220D02*
D03*
X1161720D02*
D03*
Y406250D02*
D03*
X1142720D02*
D03*
X639800Y406100D02*
D03*
X658800D02*
D03*
Y381000D02*
D03*
X649300D02*
D03*
X639800D02*
D03*
X890600Y406100D02*
D03*
X909600D02*
D03*
Y381000D02*
D03*
X900100D02*
D03*
X890600D02*
D03*
D59*
X70600Y410580D02*
D03*
X84600D02*
D03*
X98600D02*
D03*
Y396580D02*
D03*
Y382580D02*
D03*
X84600D02*
D03*
X70600D02*
D03*
Y396580D02*
D03*
X84600D02*
D03*
D60*
X7400Y499080D02*
D03*
X20100D02*
D03*
X32800D02*
D03*
X45500D02*
D03*
X58200D02*
D03*
X70900D02*
D03*
X83600D02*
D03*
X96300D02*
D03*
X109000D02*
D03*
X121700D02*
D03*
X134400D02*
D03*
X147100D02*
D03*
X159800D02*
D03*
X172500D02*
D03*
Y324080D02*
D03*
X159800D02*
D03*
X147100D02*
D03*
X134400D02*
D03*
X121700D02*
D03*
X109000D02*
D03*
X96300D02*
D03*
X83600D02*
D03*
X70900D02*
D03*
X58200D02*
D03*
X45500D02*
D03*
X32800D02*
D03*
X20100D02*
D03*
X7400D02*
D03*
D61*
X185000Y481430D02*
D03*
Y468730D02*
D03*
Y456030D02*
D03*
Y443330D02*
D03*
Y430630D02*
D03*
Y417930D02*
D03*
Y405230D02*
D03*
Y392530D02*
D03*
Y379830D02*
D03*
Y367130D02*
D03*
Y354430D02*
D03*
Y341730D02*
D03*
D62*
X105310Y292140D02*
D03*
Y269240D02*
D03*
Y246340D02*
D03*
D63*
X172210Y269240D02*
D03*
D64*
X384220Y763460D02*
D03*
X409620D02*
D03*
X357454Y763476D02*
D03*
X435020Y763460D02*
D03*
X850900Y982980D02*
D03*
Y975159D02*
D03*
Y967740D02*
D03*
X954310Y981000D02*
D03*
Y987500D02*
D03*
Y994000D02*
D03*
X1113790Y783590D02*
D03*
X1282700Y789940D02*
D03*
X1289050Y806450D02*
D03*
X121920Y324540D02*
D03*
X615466Y613520D02*
D03*
X453390Y607750D02*
D03*
X60960Y519430D02*
D03*
X184150Y354330D02*
D03*
X372110Y840740D02*
D03*
X1389380Y393700D02*
D03*
X408940Y209550D02*
D03*
Y227330D02*
D03*
Y200660D02*
D03*
Y236220D02*
D03*
Y218440D02*
D03*
X19050Y342900D02*
D03*
X1261110Y969010D02*
D03*
X1253490Y971550D02*
D03*
Y979170D02*
D03*
Y986790D02*
D03*
X955040Y1000760D02*
D03*
X556260Y971550D02*
D03*
Y980440D02*
D03*
Y989330D02*
D03*
X223520Y242570D02*
D03*
X233680D02*
D03*
X243840D02*
D03*
X254000D02*
D03*
X264160D02*
D03*
X194310Y302260D02*
D03*
Y324770D02*
D03*
Y309880D02*
D03*
Y317500D02*
D03*
X82550Y307340D02*
D03*
X96520Y313690D02*
D03*
X109220Y318770D02*
D03*
X185000Y468730D02*
D03*
X147320Y511810D02*
D03*
X205740D02*
D03*
X1028700Y588010D02*
D03*
X994410Y569310D02*
D03*
X608330Y563300D02*
D03*
X160020Y520700D02*
D03*
X205740Y521970D02*
D03*
X483870Y553500D02*
D03*
X595630Y586740D02*
D03*
X986790Y553500D02*
D03*
X134620Y518160D02*
D03*
X134791Y612153D02*
D03*
X988180Y623570D02*
D03*
X773070Y688500D02*
D03*
X706120Y544830D02*
D03*
Y603250D02*
D03*
X596900Y645160D02*
D03*
X977900Y610870D02*
D03*
X1254760Y796290D02*
D03*
X977900Y806450D02*
D03*
X1016000Y789940D02*
D03*
X1003300Y797560D02*
D03*
X960120Y783590D02*
D03*
X1028700Y709930D02*
D03*
X932180Y769620D02*
D03*
X1066800D02*
D03*
X920750Y775970D02*
D03*
X1092200D02*
D03*
X1121888Y648970D02*
D03*
X1109980Y725170D02*
D03*
X1016000Y643200D02*
D03*
X1158569Y648970D02*
D03*
X1272540Y1037590D02*
D03*
Y1004570D02*
D03*
X868680Y1005720D02*
D03*
Y1038620D02*
D03*
X768350Y648970D02*
D03*
X934720Y709138D02*
D03*
X849630Y764540D02*
D03*
X609600Y739140D02*
D03*
X730250Y650240D02*
D03*
X715010Y727710D02*
D03*
X565150Y699770D02*
D03*
X609480Y622300D02*
D03*
D65*
X10490Y530980D02*
D03*
Y545980D02*
D03*
X10491Y578999D02*
D03*
Y563999D02*
D03*
D66*
X131140Y189920D02*
D03*
Y180920D02*
D03*
X398190Y1100700D02*
D03*
Y1091700D02*
D03*
D67*
X454140Y941260D02*
D03*
X494640D02*
D03*
X456680Y1083500D02*
D03*
X497180D02*
D03*
D68*
X400730Y875220D02*
D03*
X414730D02*
D03*
X400730Y862520D02*
D03*
X414730D02*
D03*
X400730Y849820D02*
D03*
X414730D02*
D03*
D69*
X467930Y867600D02*
D03*
X485830D02*
D03*
X467930Y849820D02*
D03*
X485830D02*
D03*
X470470Y1020000D02*
D03*
X488370D02*
D03*
X417350D02*
D03*
X399450D02*
D03*
X417350Y1002220D02*
D03*
X399450D02*
D03*
X470470D02*
D03*
X488370D02*
D03*
X95820Y974280D02*
D03*
X113720D02*
D03*
X95820Y938720D02*
D03*
X113720D02*
D03*
X95820Y956500D02*
D03*
X113720D02*
D03*
D70*
X175940Y1034270D02*
D03*
Y944770D02*
D03*
D71*
X253430Y166370D02*
D03*
X267930D02*
D03*
D72*
X252150Y24350D02*
D03*
Y115350D02*
D03*
X297150D02*
D03*
Y24350D02*
D03*
X163250D02*
D03*
Y115350D02*
D03*
X208250D02*
D03*
Y24350D02*
D03*
D73*
X253160Y147320D02*
D03*
X265660D02*
D03*
D74*
X77800Y271770D02*
D03*
Y289670D02*
D03*
X37160Y271660D02*
D03*
Y289560D02*
D03*
D75*
X87960Y261000D02*
D03*
Y247000D02*
D03*
X36240Y921560D02*
D03*
Y935560D02*
D03*
D76*
X140500Y910780D02*
D03*
X155500D02*
D03*
X81840Y862520D02*
D03*
X66840D02*
D03*
X69140Y933640D02*
D03*
X54140D02*
D03*
D77*
X69910Y917130D02*
D03*
Y904430D02*
D03*
Y891730D02*
D03*
Y879030D02*
D03*
X119410D02*
D03*
Y891730D02*
D03*
Y904430D02*
D03*
Y917130D02*
D03*
D78*
X94660Y898080D02*
D03*
D79*
X27940Y816610D02*
D03*
Y791210D02*
D03*
X31750Y678180D02*
D03*
Y703580D02*
D03*
X1343660Y393700D02*
D03*
Y419100D02*
D03*
X916000Y25400D02*
D03*
X1177900Y28600D02*
D03*
X1228700D02*
D03*
X649300Y25400D02*
D03*
X700100D02*
D03*
X966800D02*
D03*
X1177620Y342900D02*
D03*
X1228420D02*
D03*
X719150D02*
D03*
X668350D02*
D03*
X922350D02*
D03*
X973150D02*
D03*
X33220Y1058460D02*
D03*
D80*
X27940Y765810D02*
D03*
X31750Y652780D02*
D03*
X1343660Y368300D02*
D03*
X33220Y1083860D02*
D03*
D81*
X1350000Y1070000D02*
D03*
X1100000Y500000D02*
D03*
X350000Y680000D02*
D03*
Y50000D02*
D03*
X1350000D02*
D03*
D82*
X25890Y233290D02*
D03*
Y146890D02*
D03*
D83*
X67690Y233290D02*
D03*
Y146890D02*
D03*
D84*
X62690Y161190D02*
D03*
Y218990D02*
D03*
D85*
X1365250Y175260D02*
D03*
Y193040D02*
D03*
Y212090D02*
D03*
Y229870D02*
D03*
Y247650D02*
D03*
D86*
X280340Y294640D02*
D03*
Y320040D02*
D03*
Y345440D02*
D03*
D87*
Y370840D02*
D03*
D88*
X736600Y688500D02*
D03*
X1130300D02*
D03*
D89*
X736600Y708500D02*
D03*
X1130300D02*
D03*
D90*
X890600Y25400D02*
D03*
X1152500Y28600D02*
D03*
X1203300D02*
D03*
X623900Y25400D02*
D03*
X674700D02*
D03*
X941400D02*
D03*
X1152220Y342900D02*
D03*
X1203020D02*
D03*
X693750D02*
D03*
X642950D02*
D03*
X896950D02*
D03*
X947750D02*
D03*
D91*
X32280Y71120D02*
D03*
X108280D02*
D03*
D92*
X292810Y788780D02*
D03*
X242010D02*
D03*
X140410D02*
D03*
X89610D02*
D03*
X291160Y1085040D02*
D03*
X240360D02*
D03*
X138760D02*
D03*
X87960D02*
D03*
D93*
X409620Y750744D02*
D03*
X453390Y770890D02*
D03*
X887730Y777240D02*
D03*
X215900Y294640D02*
D03*
X160020Y300990D02*
D03*
X172720Y299720D02*
D03*
X483870Y618540D02*
D03*
X387890Y849820D02*
D03*
X33350Y303530D02*
D03*
X297180Y232410D02*
D03*
X67310Y289560D02*
D03*
X182880Y496630D02*
D03*
X584200Y777180D02*
D03*
X698500Y789940D02*
D03*
X877570Y756920D02*
D03*
X104820Y917000D02*
D03*
X84500D02*
D03*
X89580D02*
D03*
X99740D02*
D03*
X94660D02*
D03*
X99740Y928560D02*
D03*
X89580D02*
D03*
X94660D02*
D03*
X104820D02*
D03*
X84500D02*
D03*
X725170Y769620D02*
D03*
X622300Y739140D02*
D03*
X596900D02*
D03*
X438830Y1056520D02*
D03*
X347390Y1113560D02*
D03*
X484073Y763460D02*
D03*
X582930Y789940D02*
D03*
X533400Y381000D02*
D03*
X401142Y1039828D02*
D03*
X84410Y192610D02*
D03*
X84658Y179832D02*
D03*
X202260Y406400D02*
D03*
Y436880D02*
D03*
X44780Y309880D02*
D03*
X265760Y133350D02*
D03*
X118440Y184900D02*
D03*
X138760Y195580D02*
D03*
X208810Y139296D02*
D03*
X207220Y862460D02*
D03*
X499790Y1124140D02*
D03*
X495980Y971740D02*
D03*
X427400Y941260D02*
D03*
X424860Y890460D02*
D03*
X426130Y1037780D02*
D03*
X333420Y903160D02*
D03*
X104820Y891730D02*
D03*
X94660D02*
D03*
X89580D02*
D03*
X99740D02*
D03*
X84500D02*
D03*
X99740Y896810D02*
D03*
X89580D02*
D03*
X94660D02*
D03*
X84500D02*
D03*
X104820D02*
D03*
X84500Y912050D02*
D03*
X89580D02*
D03*
X94660D02*
D03*
X99740D02*
D03*
X104820D02*
D03*
X84500Y906970D02*
D03*
X89580D02*
D03*
X94660D02*
D03*
X99740D02*
D03*
X104820D02*
D03*
X84500Y901890D02*
D03*
X89580D02*
D03*
X94660D02*
D03*
X99740D02*
D03*
X104820D02*
D03*
X84500Y886650D02*
D03*
X89580D02*
D03*
X94660D02*
D03*
X99740D02*
D03*
X104820D02*
D03*
Y881570D02*
D03*
X99740D02*
D03*
X94660D02*
D03*
X89580D02*
D03*
X84500D02*
D03*
Y876490D02*
D03*
X89580D02*
D03*
X94660D02*
D03*
X99740D02*
D03*
X104820D02*
D03*
X79420Y871410D02*
D03*
X84500D02*
D03*
X89580D02*
D03*
X94660D02*
D03*
X99740D02*
D03*
X104820D02*
D03*
D94*
X971550Y905510D02*
D03*
Y915670D02*
D03*
X981710Y905510D02*
D03*
X991870D02*
D03*
X971550Y925830D02*
D03*
X981710Y915670D02*
D03*
X971550Y946150D02*
D03*
X981710Y935990D02*
D03*
X991870Y925830D02*
D03*
X1012190Y905510D02*
D03*
X991870Y915670D02*
D03*
X1002030Y905510D02*
D03*
Y915670D02*
D03*
X981710Y925830D02*
D03*
X971550Y935990D02*
D03*
X1002030Y946150D02*
D03*
Y935990D02*
D03*
X1012190Y925830D02*
D03*
X1032510Y915670D02*
D03*
Y905510D02*
D03*
X991870Y946150D02*
D03*
X1012190Y935990D02*
D03*
X1042670Y905510D02*
D03*
X1022350Y915670D02*
D03*
X981710Y946150D02*
D03*
X1022350Y925830D02*
D03*
X1012190Y915670D02*
D03*
X1002030Y925830D02*
D03*
X991870Y935990D02*
D03*
X1022350Y905510D02*
D03*
X1083310Y915670D02*
D03*
X1073150Y905510D02*
D03*
X1093470D02*
D03*
X1123950Y905444D02*
D03*
X1254760Y1115060D02*
D03*
Y1092200D02*
D03*
Y1099820D02*
D03*
Y1107440D02*
D03*
X1263650Y1115060D02*
D03*
Y1092200D02*
D03*
Y1099820D02*
D03*
Y1107440D02*
D03*
X1272540Y1115060D02*
D03*
Y1092200D02*
D03*
Y1099820D02*
D03*
Y1107440D02*
D03*
X1281430Y1115060D02*
D03*
Y1092200D02*
D03*
Y1099820D02*
D03*
Y1107440D02*
D03*
X1299210Y1115060D02*
D03*
Y1092200D02*
D03*
Y1099820D02*
D03*
Y1107440D02*
D03*
X955040Y1090930D02*
D03*
Y1099820D02*
D03*
Y1107440D02*
D03*
Y1115060D02*
D03*
X857250D02*
D03*
X847090D02*
D03*
X867410D02*
D03*
X886460D02*
D03*
X876300D02*
D03*
X915670D02*
D03*
X895350D02*
D03*
X905510D02*
D03*
X944880D02*
D03*
X924560D02*
D03*
X934720D02*
D03*
X857250Y1107440D02*
D03*
X847090D02*
D03*
X867410D02*
D03*
X886460D02*
D03*
X876300D02*
D03*
X915670D02*
D03*
X895350D02*
D03*
X905510D02*
D03*
X944880D02*
D03*
X924560D02*
D03*
X934720D02*
D03*
X857250Y1099820D02*
D03*
X847090D02*
D03*
X867410D02*
D03*
X886460D02*
D03*
X876300D02*
D03*
X915670D02*
D03*
X895350D02*
D03*
X905510D02*
D03*
X944880D02*
D03*
X924560D02*
D03*
X934720D02*
D03*
Y1090930D02*
D03*
X924560D02*
D03*
X944880D02*
D03*
X905510D02*
D03*
X895350D02*
D03*
X915670D02*
D03*
X1290320Y1107440D02*
D03*
Y1099820D02*
D03*
Y1092200D02*
D03*
Y1115060D02*
D03*
X876300Y1090930D02*
D03*
X886460D02*
D03*
X971550Y1027430D02*
D03*
X1235710Y915604D02*
D03*
Y1037524D02*
D03*
Y1057844D02*
D03*
Y1047684D02*
D03*
Y1027364D02*
D03*
X1174750Y1068004D02*
D03*
X1215390D02*
D03*
X1144270D02*
D03*
X1123950D02*
D03*
X1134110D02*
D03*
X1154430D02*
D03*
X1235710D02*
D03*
X1225550D02*
D03*
X1113790D02*
D03*
X1205230D02*
D03*
X1164590D02*
D03*
X1184910D02*
D03*
X1195070D02*
D03*
X1225550Y1057844D02*
D03*
X1215390D02*
D03*
X1205230D02*
D03*
X1195070D02*
D03*
X1184910D02*
D03*
X1174750D02*
D03*
X1164590D02*
D03*
X1154430D02*
D03*
X1144270D02*
D03*
X1134110D02*
D03*
X1123950D02*
D03*
X1113790D02*
D03*
X1225550Y1047684D02*
D03*
X1215390D02*
D03*
X1205230D02*
D03*
X1195070D02*
D03*
X1184910D02*
D03*
X1174750D02*
D03*
X1164590D02*
D03*
X1154430D02*
D03*
X1144270D02*
D03*
X1134110D02*
D03*
X1123950D02*
D03*
X1113790D02*
D03*
X1225550Y1037524D02*
D03*
X1215390D02*
D03*
X1205230D02*
D03*
X1195070D02*
D03*
X1184910D02*
D03*
X1174750D02*
D03*
X1164590D02*
D03*
X1154430D02*
D03*
X1144270D02*
D03*
X1134110D02*
D03*
X1123950D02*
D03*
X1113790D02*
D03*
X1225550Y1027364D02*
D03*
X1215390D02*
D03*
X1205230D02*
D03*
X1195070D02*
D03*
X1184910D02*
D03*
X1174750D02*
D03*
X1164590D02*
D03*
X1154430D02*
D03*
X1144270D02*
D03*
X1134110D02*
D03*
X1123950D02*
D03*
X1113790D02*
D03*
X1235710Y1017204D02*
D03*
X1225550D02*
D03*
X1215390D02*
D03*
X1205230D02*
D03*
X1195070D02*
D03*
X1184910D02*
D03*
X1174750D02*
D03*
X1164590D02*
D03*
X1154430D02*
D03*
X1144270D02*
D03*
X1134110D02*
D03*
X1123950D02*
D03*
X1113790D02*
D03*
X1235710Y1007044D02*
D03*
X1225550D02*
D03*
X1215390D02*
D03*
X1205230D02*
D03*
X1195070D02*
D03*
X1184910D02*
D03*
X1174750D02*
D03*
X1164590D02*
D03*
X1154430D02*
D03*
X1144270D02*
D03*
X1134110D02*
D03*
X1123950D02*
D03*
X1113790D02*
D03*
X1235710Y996884D02*
D03*
X1225550D02*
D03*
X1215390D02*
D03*
X1205230D02*
D03*
X1195070D02*
D03*
X1184910D02*
D03*
X1174750D02*
D03*
X1164590D02*
D03*
X1154430D02*
D03*
X1144270D02*
D03*
X1134110D02*
D03*
X1123950D02*
D03*
X1113790D02*
D03*
X1235710Y986724D02*
D03*
X1225550D02*
D03*
X1215390D02*
D03*
X1205230D02*
D03*
X1195070D02*
D03*
X1184910D02*
D03*
X1174750D02*
D03*
X1164590D02*
D03*
X1154430D02*
D03*
X1144270D02*
D03*
X1134110D02*
D03*
X1123950D02*
D03*
X1113790D02*
D03*
X1235710Y976564D02*
D03*
X1225550D02*
D03*
X1215390D02*
D03*
X1205230D02*
D03*
X1195070D02*
D03*
X1184910D02*
D03*
X1174750D02*
D03*
X1164590D02*
D03*
X1154430D02*
D03*
X1144270D02*
D03*
X1134110D02*
D03*
X1123950D02*
D03*
X1113790D02*
D03*
X1235710Y966404D02*
D03*
X1225550D02*
D03*
X1215390D02*
D03*
X1205230D02*
D03*
X1195070D02*
D03*
X1184910D02*
D03*
X1174750D02*
D03*
X1164590D02*
D03*
X1154430D02*
D03*
X1144270D02*
D03*
X1134110D02*
D03*
X1123950D02*
D03*
X1113790D02*
D03*
X1235710Y956244D02*
D03*
X1225550D02*
D03*
X1215390D02*
D03*
X1205230D02*
D03*
X1195070D02*
D03*
X1184910D02*
D03*
X1174750D02*
D03*
X1164590D02*
D03*
X1154430D02*
D03*
X1144270D02*
D03*
X1134110D02*
D03*
X1123950D02*
D03*
X1113790D02*
D03*
X1235710Y946084D02*
D03*
X1225550D02*
D03*
X1215390D02*
D03*
X1205230D02*
D03*
X1195070D02*
D03*
X1184910D02*
D03*
X1174750D02*
D03*
X1164590D02*
D03*
X1154430D02*
D03*
X1144270D02*
D03*
X1134110D02*
D03*
X1123950D02*
D03*
X1113790D02*
D03*
X1235710Y935924D02*
D03*
X1225550D02*
D03*
X1215390D02*
D03*
X1205230D02*
D03*
X1195070D02*
D03*
X1184910D02*
D03*
X1174750D02*
D03*
X1164590D02*
D03*
X1154430D02*
D03*
X1144270D02*
D03*
X1134110D02*
D03*
X1123950D02*
D03*
X1113790D02*
D03*
X1235710Y925764D02*
D03*
X1225550D02*
D03*
X1215390D02*
D03*
X1205230D02*
D03*
X1195070D02*
D03*
X1184910D02*
D03*
X1174750D02*
D03*
X1164590D02*
D03*
X1154430D02*
D03*
X1144270D02*
D03*
X1134110D02*
D03*
X1123950D02*
D03*
X1113790D02*
D03*
X1225550Y915604D02*
D03*
X1215390D02*
D03*
X1205230D02*
D03*
X1195070D02*
D03*
X1184910D02*
D03*
X1174750D02*
D03*
X1164590D02*
D03*
X1154430D02*
D03*
X1144270D02*
D03*
X1134110D02*
D03*
X1123950D02*
D03*
X1235710Y905444D02*
D03*
X1225550D02*
D03*
X1215390D02*
D03*
X1205230D02*
D03*
X1195070D02*
D03*
X1184910D02*
D03*
X1174750D02*
D03*
X1164590D02*
D03*
X1154430D02*
D03*
X1144270D02*
D03*
X1134110D02*
D03*
X1113790D02*
D03*
Y915604D02*
D03*
X1052830Y905510D02*
D03*
X1062990D02*
D03*
X1083310D02*
D03*
X1042670Y915670D02*
D03*
X1052830D02*
D03*
X1062990D02*
D03*
X1073150D02*
D03*
X1032510Y925830D02*
D03*
X1042670D02*
D03*
X1052830D02*
D03*
X1062990D02*
D03*
X1073150D02*
D03*
X1083310D02*
D03*
X1093470D02*
D03*
X1022350Y935990D02*
D03*
X1032510D02*
D03*
X1042670D02*
D03*
X1052830D02*
D03*
X1062990D02*
D03*
X1073150D02*
D03*
X1083310D02*
D03*
X1093470D02*
D03*
X1012190Y946150D02*
D03*
X1022350D02*
D03*
X1032510D02*
D03*
X1042670D02*
D03*
X1052830D02*
D03*
X1062990D02*
D03*
X1073150D02*
D03*
X1083310D02*
D03*
X1093470D02*
D03*
X971550Y956310D02*
D03*
X981710D02*
D03*
X991870D02*
D03*
X1002030D02*
D03*
X1012190D02*
D03*
X1022350D02*
D03*
X1032510D02*
D03*
X1042670D02*
D03*
X1052830D02*
D03*
X1062990D02*
D03*
X1073150D02*
D03*
X1083310D02*
D03*
X1093470D02*
D03*
X971550Y966470D02*
D03*
X981710D02*
D03*
X991870D02*
D03*
X1002030D02*
D03*
X1012190D02*
D03*
X1022350D02*
D03*
X1032510D02*
D03*
X1042670D02*
D03*
X1052830D02*
D03*
X1062990D02*
D03*
X1073150D02*
D03*
X1083310D02*
D03*
X1093470D02*
D03*
X971550Y976630D02*
D03*
X981710D02*
D03*
X991870D02*
D03*
X1002030D02*
D03*
X1012190D02*
D03*
X1022350D02*
D03*
X1032510D02*
D03*
X1042670D02*
D03*
X1052830D02*
D03*
X1062990D02*
D03*
X1073150D02*
D03*
X1083310D02*
D03*
X1093470D02*
D03*
X971550Y986790D02*
D03*
X981710D02*
D03*
X991870D02*
D03*
X1002030D02*
D03*
X1012190D02*
D03*
X1022350D02*
D03*
X1032510D02*
D03*
X1042670D02*
D03*
X1052830D02*
D03*
X1062990D02*
D03*
X1073150D02*
D03*
X1083310D02*
D03*
X1093470D02*
D03*
X971550Y996950D02*
D03*
X981710D02*
D03*
X991870D02*
D03*
X1002030D02*
D03*
X1012190D02*
D03*
X1022350D02*
D03*
X1032510D02*
D03*
X1042670D02*
D03*
X1052830D02*
D03*
X1062990D02*
D03*
X1073150D02*
D03*
X1083310D02*
D03*
X1093470D02*
D03*
X971550Y1007110D02*
D03*
X981710D02*
D03*
X991870D02*
D03*
X1002030D02*
D03*
X1012190D02*
D03*
X1022350D02*
D03*
X1032510D02*
D03*
X1042670D02*
D03*
X1052830D02*
D03*
X1062990D02*
D03*
X1073150D02*
D03*
X1083310D02*
D03*
X1093470D02*
D03*
X971550Y1017270D02*
D03*
X981710D02*
D03*
X991870D02*
D03*
X1002030D02*
D03*
X1012190D02*
D03*
X1022350D02*
D03*
X1032510D02*
D03*
X1042670D02*
D03*
X1052830D02*
D03*
X1062990D02*
D03*
X1073150D02*
D03*
X1083310D02*
D03*
X1093470D02*
D03*
X981710Y1027430D02*
D03*
X991870D02*
D03*
X1002030D02*
D03*
X1012190D02*
D03*
X1022350D02*
D03*
X1032510D02*
D03*
X1042670D02*
D03*
X1052830D02*
D03*
X1062990D02*
D03*
X1073150D02*
D03*
X1083310D02*
D03*
X971550Y1037590D02*
D03*
X981710D02*
D03*
X991870D02*
D03*
X1002030D02*
D03*
X1012190D02*
D03*
X1022350D02*
D03*
X1032510D02*
D03*
X1042670D02*
D03*
X1052830D02*
D03*
X1062990D02*
D03*
X1073150D02*
D03*
X1083310D02*
D03*
X971550Y1047750D02*
D03*
X981710D02*
D03*
X991870D02*
D03*
X1002030D02*
D03*
X1012190D02*
D03*
X1022350D02*
D03*
X1032510D02*
D03*
X1042670D02*
D03*
X1052830D02*
D03*
X1062990D02*
D03*
X1073150D02*
D03*
X1083310D02*
D03*
X971550Y1057910D02*
D03*
X981710D02*
D03*
X991870D02*
D03*
X1002030D02*
D03*
X1012190D02*
D03*
X1022350D02*
D03*
X1032510D02*
D03*
X1042670D02*
D03*
X1052830D02*
D03*
X1062990D02*
D03*
X1073150D02*
D03*
X1083310D02*
D03*
X1052830Y1068070D02*
D03*
X1042670D02*
D03*
X1022350D02*
D03*
X1062990D02*
D03*
X971550D02*
D03*
X1083310D02*
D03*
X1093470D02*
D03*
X1012190D02*
D03*
X991870D02*
D03*
X981710D02*
D03*
X1002030D02*
D03*
X1073150D02*
D03*
X1032510D02*
D03*
X1093470Y1027430D02*
D03*
Y1047750D02*
D03*
Y1057910D02*
D03*
Y1037590D02*
D03*
Y915670D02*
D03*
X834390D02*
D03*
X535940Y1068070D02*
D03*
X525780D02*
D03*
X546100D02*
D03*
X556260D02*
D03*
X535940Y1060450D02*
D03*
X525780D02*
D03*
X546100D02*
D03*
X556260D02*
D03*
X535940Y1052830D02*
D03*
X525780D02*
D03*
X546100D02*
D03*
X556260D02*
D03*
X535940Y1075690D02*
D03*
X556260D02*
D03*
X525780D02*
D03*
X546100D02*
D03*
X535940Y1098550D02*
D03*
X525780D02*
D03*
X546100D02*
D03*
X556260D02*
D03*
X535940Y1090930D02*
D03*
X525780D02*
D03*
X546100D02*
D03*
X556260D02*
D03*
X535940Y1083310D02*
D03*
X525780D02*
D03*
X546100D02*
D03*
X556260D02*
D03*
X535940Y1106170D02*
D03*
X556260D02*
D03*
X525780D02*
D03*
X546100D02*
D03*
X867410Y1090930D02*
D03*
X847090D02*
D03*
X857250D02*
D03*
X834390Y1037590D02*
D03*
Y1057910D02*
D03*
Y1047750D02*
D03*
Y1027430D02*
D03*
X773430Y1068070D02*
D03*
X814070D02*
D03*
X742950D02*
D03*
X722630D02*
D03*
X681990D02*
D03*
X671830D02*
D03*
X661670D02*
D03*
X732790D02*
D03*
X753110D02*
D03*
X834390D02*
D03*
X824230D02*
D03*
X641350D02*
D03*
X712470D02*
D03*
X692150D02*
D03*
X803910D02*
D03*
X763270D02*
D03*
X783590D02*
D03*
X651510D02*
D03*
X580390D02*
D03*
X600710D02*
D03*
X590550D02*
D03*
X570230D02*
D03*
X793750D02*
D03*
X610870D02*
D03*
X621030D02*
D03*
X631190D02*
D03*
X824230Y1057910D02*
D03*
X814070D02*
D03*
X803910D02*
D03*
X793750D02*
D03*
X783590D02*
D03*
X773430D02*
D03*
X763270D02*
D03*
X753110D02*
D03*
X742950D02*
D03*
X732790D02*
D03*
X722630D02*
D03*
X712470D02*
D03*
X824230Y1047750D02*
D03*
X814070D02*
D03*
X803910D02*
D03*
X793750D02*
D03*
X783590D02*
D03*
X773430D02*
D03*
X763270D02*
D03*
X753110D02*
D03*
X742950D02*
D03*
X732790D02*
D03*
X722630D02*
D03*
X712470D02*
D03*
X824230Y1037590D02*
D03*
X814070D02*
D03*
X803910D02*
D03*
X793750D02*
D03*
X783590D02*
D03*
X773430D02*
D03*
X763270D02*
D03*
X753110D02*
D03*
X742950D02*
D03*
X732790D02*
D03*
X722630D02*
D03*
X712470D02*
D03*
X824230Y1027430D02*
D03*
X814070D02*
D03*
X803910D02*
D03*
X793750D02*
D03*
X783590D02*
D03*
X773430D02*
D03*
X763270D02*
D03*
X753110D02*
D03*
X742950D02*
D03*
X732790D02*
D03*
X722630D02*
D03*
X712470D02*
D03*
X834390Y1017270D02*
D03*
X824230D02*
D03*
X814070D02*
D03*
X803910D02*
D03*
X793750D02*
D03*
X783590D02*
D03*
X773430D02*
D03*
X763270D02*
D03*
X753110D02*
D03*
X742950D02*
D03*
X732790D02*
D03*
X722630D02*
D03*
X712470D02*
D03*
X834390Y1007110D02*
D03*
X824230D02*
D03*
X814070D02*
D03*
X803910D02*
D03*
X793750D02*
D03*
X783590D02*
D03*
X773430D02*
D03*
X763270D02*
D03*
X753110D02*
D03*
X742950D02*
D03*
X732790D02*
D03*
X722630D02*
D03*
X712470D02*
D03*
X834390Y996950D02*
D03*
X824230D02*
D03*
X814070D02*
D03*
X803910D02*
D03*
X793750D02*
D03*
X783590D02*
D03*
X773430D02*
D03*
X763270D02*
D03*
X753110D02*
D03*
X742950D02*
D03*
X732790D02*
D03*
X722630D02*
D03*
X712470D02*
D03*
X834390Y986790D02*
D03*
X824230D02*
D03*
X814070D02*
D03*
X803910D02*
D03*
X793750D02*
D03*
X783590D02*
D03*
X773430D02*
D03*
X763270D02*
D03*
X753110D02*
D03*
X742950D02*
D03*
X732790D02*
D03*
X722630D02*
D03*
X712470D02*
D03*
X834390Y976630D02*
D03*
X824230D02*
D03*
X814070D02*
D03*
X803910D02*
D03*
X793750D02*
D03*
X783590D02*
D03*
X773430D02*
D03*
X763270D02*
D03*
X753110D02*
D03*
X742950D02*
D03*
X732790D02*
D03*
X722630D02*
D03*
X712470D02*
D03*
X834390Y966470D02*
D03*
X824230D02*
D03*
X814070D02*
D03*
X803910D02*
D03*
X793750D02*
D03*
X783590D02*
D03*
X773430D02*
D03*
X763270D02*
D03*
X753110D02*
D03*
X742950D02*
D03*
X732790D02*
D03*
X722630D02*
D03*
X712470D02*
D03*
X834390Y956310D02*
D03*
X824230D02*
D03*
X814070D02*
D03*
X803910D02*
D03*
X793750D02*
D03*
X783590D02*
D03*
X773430D02*
D03*
X763270D02*
D03*
X753110D02*
D03*
X742950D02*
D03*
X732790D02*
D03*
X722630D02*
D03*
X712470D02*
D03*
X834390Y946150D02*
D03*
X824230D02*
D03*
X814070D02*
D03*
X803910D02*
D03*
X793750D02*
D03*
X783590D02*
D03*
X773430D02*
D03*
X763270D02*
D03*
X753110D02*
D03*
X742950D02*
D03*
X732790D02*
D03*
X722630D02*
D03*
X712470D02*
D03*
X834390Y935990D02*
D03*
X824230D02*
D03*
X814070D02*
D03*
X803910D02*
D03*
X793750D02*
D03*
X783590D02*
D03*
X773430D02*
D03*
X763270D02*
D03*
X753110D02*
D03*
X742950D02*
D03*
X732790D02*
D03*
X722630D02*
D03*
X712470D02*
D03*
X834390Y925830D02*
D03*
X824230D02*
D03*
X814070D02*
D03*
X803910D02*
D03*
X793750D02*
D03*
X783590D02*
D03*
X773430D02*
D03*
X763270D02*
D03*
X753110D02*
D03*
X742950D02*
D03*
X732790D02*
D03*
X722630D02*
D03*
X712470D02*
D03*
X824230Y915670D02*
D03*
X814070D02*
D03*
X803910D02*
D03*
X793750D02*
D03*
X783590D02*
D03*
X773430D02*
D03*
X763270D02*
D03*
X753110D02*
D03*
X742950D02*
D03*
X732790D02*
D03*
X722630D02*
D03*
X712470D02*
D03*
X834390Y905510D02*
D03*
X824230D02*
D03*
X814070D02*
D03*
X803910D02*
D03*
X793750D02*
D03*
X783590D02*
D03*
X773430D02*
D03*
X763270D02*
D03*
X753110D02*
D03*
X742950D02*
D03*
X732790D02*
D03*
X722630D02*
D03*
X712470D02*
D03*
X570230D02*
D03*
X580390D02*
D03*
X590550D02*
D03*
X600710D02*
D03*
X610870D02*
D03*
X621030D02*
D03*
X631190D02*
D03*
X641350D02*
D03*
X651510D02*
D03*
X661670D02*
D03*
X671830D02*
D03*
X681990D02*
D03*
X692150D02*
D03*
X570230Y915670D02*
D03*
X580390D02*
D03*
X590550D02*
D03*
X600710D02*
D03*
X610870D02*
D03*
X621030D02*
D03*
X631190D02*
D03*
X641350D02*
D03*
X651510D02*
D03*
X661670D02*
D03*
X671830D02*
D03*
X681990D02*
D03*
X692150D02*
D03*
X570230Y925830D02*
D03*
X580390D02*
D03*
X590550D02*
D03*
X600710D02*
D03*
X610870D02*
D03*
X621030D02*
D03*
X631190D02*
D03*
X641350D02*
D03*
X651510D02*
D03*
X661670D02*
D03*
X671830D02*
D03*
X681990D02*
D03*
X692150D02*
D03*
X570230Y935990D02*
D03*
X580390D02*
D03*
X590550D02*
D03*
X600710D02*
D03*
X610870D02*
D03*
X621030D02*
D03*
X631190D02*
D03*
X641350D02*
D03*
X651510D02*
D03*
X661670D02*
D03*
X671830D02*
D03*
X681990D02*
D03*
X692150D02*
D03*
X570230Y946150D02*
D03*
X580390D02*
D03*
X590550D02*
D03*
X600710D02*
D03*
X610870D02*
D03*
X621030D02*
D03*
X631190D02*
D03*
X641350D02*
D03*
X651510D02*
D03*
X661670D02*
D03*
X671830D02*
D03*
X681990D02*
D03*
X692150D02*
D03*
X570230Y956310D02*
D03*
X580390D02*
D03*
X590550D02*
D03*
X600710D02*
D03*
X610870D02*
D03*
X621030D02*
D03*
X631190D02*
D03*
X641350D02*
D03*
X651510D02*
D03*
X661670D02*
D03*
X671830D02*
D03*
X681990D02*
D03*
X692150D02*
D03*
X570230Y966470D02*
D03*
X580390D02*
D03*
X590550D02*
D03*
X600710D02*
D03*
X610870D02*
D03*
X621030D02*
D03*
X631190D02*
D03*
X641350D02*
D03*
X651510D02*
D03*
X661670D02*
D03*
X671830D02*
D03*
X681990D02*
D03*
X692150D02*
D03*
X570230Y976630D02*
D03*
X580390D02*
D03*
X590550D02*
D03*
X600710D02*
D03*
X610870D02*
D03*
X621030D02*
D03*
X631190D02*
D03*
X641350D02*
D03*
X651510D02*
D03*
X661670D02*
D03*
X671830D02*
D03*
X681990D02*
D03*
X692150D02*
D03*
X570230Y986790D02*
D03*
X580390D02*
D03*
X590550D02*
D03*
X600710D02*
D03*
X610870D02*
D03*
X621030D02*
D03*
X631190D02*
D03*
X641350D02*
D03*
X651510D02*
D03*
X661670D02*
D03*
X671830D02*
D03*
X681990D02*
D03*
X692150D02*
D03*
X570230Y996950D02*
D03*
X580390D02*
D03*
X590550D02*
D03*
X600710D02*
D03*
X610870D02*
D03*
X621030D02*
D03*
X631190D02*
D03*
X641350D02*
D03*
X651510D02*
D03*
X661670D02*
D03*
X671830D02*
D03*
X681990D02*
D03*
X692150D02*
D03*
X570230Y1007110D02*
D03*
X580390D02*
D03*
X590550D02*
D03*
X600710D02*
D03*
X610870D02*
D03*
X621030D02*
D03*
X631190D02*
D03*
X641350D02*
D03*
X651510D02*
D03*
X661670D02*
D03*
X671830D02*
D03*
X681990D02*
D03*
X692150D02*
D03*
X570230Y1017270D02*
D03*
X580390D02*
D03*
X590550D02*
D03*
X600710D02*
D03*
X610870D02*
D03*
X621030D02*
D03*
X631190D02*
D03*
X641350D02*
D03*
X651510D02*
D03*
X661670D02*
D03*
X671830D02*
D03*
X681990D02*
D03*
X692150D02*
D03*
X570230Y1027430D02*
D03*
X580390D02*
D03*
X590550D02*
D03*
X600710D02*
D03*
X610870D02*
D03*
X621030D02*
D03*
X631190D02*
D03*
X641350D02*
D03*
X651510D02*
D03*
X661670D02*
D03*
X671830D02*
D03*
X681990D02*
D03*
X692150D02*
D03*
X570230Y1037590D02*
D03*
X580390D02*
D03*
X590550D02*
D03*
X600710D02*
D03*
X610870D02*
D03*
X621030D02*
D03*
X631190D02*
D03*
X641350D02*
D03*
X651510D02*
D03*
X661670D02*
D03*
X671830D02*
D03*
X681990D02*
D03*
X692150D02*
D03*
X570230Y1047750D02*
D03*
X580390D02*
D03*
X590550D02*
D03*
X600710D02*
D03*
X610870D02*
D03*
X621030D02*
D03*
X631190D02*
D03*
X641350D02*
D03*
X651510D02*
D03*
X661670D02*
D03*
X671830D02*
D03*
X681990D02*
D03*
X692150D02*
D03*
X570230Y1057910D02*
D03*
X580390D02*
D03*
X590550D02*
D03*
X600710D02*
D03*
X610870D02*
D03*
X621030D02*
D03*
X631190D02*
D03*
X641350D02*
D03*
X651510D02*
D03*
X661670D02*
D03*
X671830D02*
D03*
X681990D02*
D03*
X692150D02*
D03*
M02*
