G04*
G04 #@! TF.GenerationSoftware,Altium Limited,Altium Designer,23.6.0 (18)*
G04*
G04 Layer_Physical_Order=2*
G04 Layer_Color=16711680*
%FSLAX44Y44*%
%MOMM*%
G71*
G04*
G04 #@! TF.SameCoordinates,7D80C46A-954E-43A3-A214-DA6A50CC5AA0*
G04*
G04*
G04 #@! TF.FilePolarity,Positive*
G04*
G01*
G75*
%ADD13C,0.1270*%
%ADD79C,2.0000*%
%ADD95C,0.3000*%
%ADD109C,0.6000*%
%ADD127C,1.0000*%
%ADD128C,1.8500*%
%ADD129R,1.8500X1.8500*%
%ADD130C,1.5240*%
G04:AMPARAMS|DCode=131|XSize=1.8mm|YSize=1mm|CornerRadius=0.25mm|HoleSize=0mm|Usage=FLASHONLY|Rotation=0.000|XOffset=0mm|YOffset=0mm|HoleType=Round|Shape=RoundedRectangle|*
%AMROUNDEDRECTD131*
21,1,1.8000,0.5000,0,0,0.0*
21,1,1.3000,1.0000,0,0,0.0*
1,1,0.5000,0.6500,-0.2500*
1,1,0.5000,-0.6500,-0.2500*
1,1,0.5000,-0.6500,0.2500*
1,1,0.5000,0.6500,0.2500*
%
%ADD131ROUNDEDRECTD131*%
%ADD132O,2.1000X1.0000*%
%ADD133C,0.6500*%
%ADD134C,1.6510*%
%ADD135R,1.6510X1.6510*%
%ADD136C,1.3000*%
%ADD137R,1.3000X1.3000*%
%ADD138R,1.8500X1.8500*%
%ADD139C,3.0000*%
%ADD140C,0.4500*%
%ADD141C,0.7112*%
%ADD142C,3.5000*%
%ADD143C,5.0000*%
G36*
X1393190Y753460D02*
X612598D01*
Y761541D01*
X612599Y761542D01*
X846590D01*
X847861Y760270D01*
X851399D01*
X853900Y762771D01*
Y766309D01*
X851399Y768810D01*
X847861D01*
X846590Y767538D01*
X728948D01*
X728690Y768162D01*
Y771078D01*
X726826Y772942D01*
X727106Y774212D01*
X885780D01*
X886272Y773720D01*
X889188D01*
X891250Y775782D01*
Y778698D01*
X889188Y780760D01*
X886272D01*
X885720Y780208D01*
X586150D01*
X585658Y780700D01*
X582742D01*
X580680Y778638D01*
Y775722D01*
X580447Y775158D01*
X566907D01*
X564787Y774280D01*
X563030Y772523D01*
X562152Y770403D01*
Y753460D01*
X486969D01*
Y761379D01*
X487593Y762002D01*
Y764918D01*
X485531Y766980D01*
X482615D01*
X480553Y764918D01*
Y762002D01*
X480973Y761581D01*
Y753460D01*
X411882D01*
X411078Y754264D01*
X408162D01*
X407358Y753460D01*
X8220D01*
Y1123460D01*
X343695D01*
X344401Y1122404D01*
X344392Y1122383D01*
Y1115540D01*
X343870Y1115018D01*
Y1112102D01*
X343755Y1111825D01*
X291160D01*
X240360D01*
X230110Y1109786D01*
X221420Y1103980D01*
X215614Y1095290D01*
X213575Y1085040D01*
X215614Y1074790D01*
X221420Y1066100D01*
X230110Y1060294D01*
X240360Y1058255D01*
X291160D01*
X434155Y1058255D01*
X435310Y1056985D01*
Y1055062D01*
X435832Y1054540D01*
Y1040779D01*
X435831Y1040778D01*
X428110D01*
X427588Y1041300D01*
X424672D01*
X422610Y1039238D01*
Y1036322D01*
X424672Y1034260D01*
X427588D01*
X428110Y1034782D01*
X437073D01*
X439193Y1035660D01*
X440950Y1037417D01*
X441828Y1039537D01*
Y1054540D01*
X442350Y1055062D01*
Y1057978D01*
X442465Y1058255D01*
X521150D01*
X522765Y1056640D01*
X520954Y1054829D01*
Y1050831D01*
X523781Y1048004D01*
X527779D01*
X530067Y1050292D01*
X530860Y1050700D01*
X531653Y1050292D01*
X533941Y1048004D01*
X537939D01*
X540227Y1050292D01*
X541020Y1050700D01*
X541813Y1050292D01*
X544101Y1048004D01*
X548099D01*
X550387Y1050292D01*
X551180Y1050700D01*
X551973Y1050292D01*
X554261Y1048004D01*
X558259D01*
X561086Y1050831D01*
Y1054829D01*
X559275Y1056640D01*
X561086Y1058451D01*
Y1062449D01*
X559275Y1064260D01*
X561086Y1066071D01*
Y1070069D01*
X559275Y1071880D01*
X561086Y1073691D01*
Y1077689D01*
X559790Y1078985D01*
X560046Y1080271D01*
X561086Y1081311D01*
Y1085309D01*
X560905Y1085490D01*
X560775Y1086142D01*
X561581Y1087123D01*
X844072D01*
X845091Y1086104D01*
X849089D01*
X850108Y1087123D01*
X854231D01*
X855251Y1086104D01*
X859249D01*
X860268Y1087123D01*
X864391D01*
X865411Y1086104D01*
X869409D01*
X870428Y1087123D01*
X873281D01*
X874301Y1086104D01*
X878299D01*
X879318Y1087123D01*
X883441D01*
X884461Y1086104D01*
X888459D01*
X889479Y1087123D01*
X892331D01*
X893351Y1086104D01*
X897349D01*
X898369Y1087123D01*
X902492D01*
X903511Y1086104D01*
X907509D01*
X908529Y1087123D01*
X912652D01*
X913671Y1086104D01*
X917669D01*
X918689Y1087123D01*
X921542D01*
X922561Y1086104D01*
X926559D01*
X927579Y1087123D01*
X931702D01*
X932721Y1086104D01*
X936719D01*
X937738Y1087123D01*
X941861D01*
X942881Y1086104D01*
X946879D01*
X947898Y1087123D01*
X952021D01*
X953041Y1086104D01*
X957039D01*
X958058Y1087123D01*
X1290320D01*
X1290925Y1087374D01*
X1292319D01*
X1293305Y1088360D01*
X1295370Y1089215D01*
X1297211Y1087374D01*
X1301209D01*
X1304036Y1090201D01*
Y1092805D01*
X1304686Y1093074D01*
X1310636Y1107440D01*
X1304686Y1121806D01*
X1303700Y1122214D01*
X1303948Y1123460D01*
X1393190D01*
Y753460D01*
D02*
G37*
G36*
X561340Y1088435D02*
X561037Y1088273D01*
X560609Y1088095D01*
X560582Y1088029D01*
X560519Y1087996D01*
X559713Y1087014D01*
X559692Y1086945D01*
X559632Y1086906D01*
X559542Y1086451D01*
X559408Y1086007D01*
X559441Y1085944D01*
X559427Y1085874D01*
X559557Y1085222D01*
X559711Y1084991D01*
Y1081880D01*
X559074Y1081243D01*
X558921Y1080873D01*
X558698Y1080539D01*
X558442Y1079253D01*
X558469Y1079115D01*
X558416Y1078985D01*
X558569Y1078614D01*
X558647Y1078221D01*
X558764Y1078143D01*
X558818Y1078013D01*
X559711Y1077120D01*
Y1074260D01*
X558303Y1072852D01*
X557900Y1071880D01*
X558303Y1070908D01*
X559711Y1069500D01*
Y1066640D01*
X558303Y1065232D01*
X557900Y1064260D01*
X558303Y1063288D01*
X559711Y1061880D01*
Y1059020D01*
X558303Y1057612D01*
X557900Y1056640D01*
X558303Y1055668D01*
X559711Y1054260D01*
Y1051400D01*
X557690Y1049379D01*
X554830D01*
X552945Y1051264D01*
X552743Y1051348D01*
X552602Y1051514D01*
X551809Y1051923D01*
X551690Y1051932D01*
X551599Y1052009D01*
X551180Y1051975D01*
X550761Y1052009D01*
X550670Y1051932D01*
X550551Y1051923D01*
X549758Y1051514D01*
X549617Y1051348D01*
X549415Y1051264D01*
X547530Y1049379D01*
X544670D01*
X542785Y1051264D01*
X542583Y1051348D01*
X542442Y1051514D01*
X541649Y1051923D01*
X541530Y1051932D01*
X541439Y1052009D01*
X541020Y1051975D01*
X540601Y1052009D01*
X540510Y1051932D01*
X540391Y1051923D01*
X539598Y1051514D01*
X539457Y1051348D01*
X539255Y1051264D01*
X537370Y1049379D01*
X534510D01*
X532625Y1051264D01*
X532423Y1051348D01*
X532282Y1051514D01*
X531489Y1051923D01*
X531370Y1051932D01*
X531279Y1052009D01*
X530860Y1051975D01*
X530441Y1052009D01*
X530350Y1051932D01*
X530231Y1051923D01*
X529438Y1051514D01*
X529297Y1051348D01*
X529095Y1051264D01*
X527210Y1049379D01*
X524350D01*
X522329Y1051400D01*
Y1054260D01*
X523737Y1055668D01*
X524140Y1056640D01*
X523737Y1057612D01*
X523737Y1057612D01*
X522122Y1059227D01*
X521150Y1059630D01*
X521150Y1059630D01*
X519430D01*
Y1127760D01*
X561340D01*
Y1088435D01*
D02*
G37*
G36*
X1393190Y752562D02*
Y617220D01*
X989788D01*
Y619300D01*
X989949D01*
X992450Y621801D01*
Y625339D01*
X990867Y626922D01*
X991393Y628192D01*
X1140789D01*
X1142909Y629070D01*
X1158539Y644700D01*
X1159316D01*
X1159706Y644310D01*
X1161826Y643432D01*
X1183153D01*
X1185273Y644310D01*
X1187030Y646067D01*
X1187908Y648187D01*
Y706743D01*
X1187030Y708863D01*
X1185273Y710620D01*
X1183153Y711498D01*
X1138070D01*
Y716270D01*
X1122530D01*
Y700730D01*
X1138070D01*
Y705502D01*
X1181911D01*
X1181912Y705501D01*
Y649429D01*
X1181911Y649428D01*
X1163068D01*
X1162839Y649658D01*
Y650739D01*
X1160338Y653240D01*
X1156800D01*
X1154299Y650739D01*
Y648940D01*
X1139547Y634188D01*
X787372D01*
X772620Y648940D01*
Y650739D01*
X770119Y653240D01*
X766581D01*
X764080Y650739D01*
Y647201D01*
X766581Y644700D01*
X768380D01*
X784010Y629070D01*
X786130Y628192D01*
X984967D01*
X985493Y626922D01*
X983910Y625339D01*
Y621801D01*
X983953Y621758D01*
X983792Y621368D01*
Y617220D01*
X617805D01*
X617235Y617790D01*
X613697D01*
X613408Y617501D01*
X612617Y617602D01*
X612134Y618915D01*
X613750Y620531D01*
Y624069D01*
X611249Y626570D01*
X607711D01*
X605210Y624069D01*
Y620531D01*
X605353Y620389D01*
X605332Y620338D01*
Y617220D01*
X598628D01*
Y640890D01*
X598669D01*
X601170Y643391D01*
Y646929D01*
X598669Y649430D01*
X595131D01*
X592630Y646929D01*
Y643391D01*
X592723Y643298D01*
X592632Y643078D01*
Y617220D01*
X520700D01*
X519430Y618490D01*
Y753110D01*
X561254Y753127D01*
X562152Y752229D01*
Y702811D01*
X560880Y701539D01*
Y698001D01*
X563381Y695500D01*
X566919D01*
X568190Y696772D01*
X595143D01*
X597263Y697650D01*
X599020Y699407D01*
X599898Y701527D01*
Y737160D01*
X600420Y737682D01*
Y740598D01*
X598358Y742660D01*
X595442D01*
X593380Y740598D01*
Y737682D01*
X593902Y737160D01*
Y702769D01*
X593901Y702768D01*
X568190D01*
X568148Y702811D01*
Y753130D01*
X594477Y753140D01*
X605704Y753145D01*
X606602Y752247D01*
Y742180D01*
X605330Y740909D01*
Y737371D01*
X607831Y734870D01*
X611369D01*
X613870Y737371D01*
Y740909D01*
X612598Y742180D01*
Y753147D01*
X1392292Y753460D01*
X1393190Y752562D01*
D02*
G37*
%LPC*%
G36*
X43740Y1094380D02*
X22700D01*
Y1073340D01*
X43740D01*
Y1094380D01*
D02*
G37*
G36*
X1095469Y1072896D02*
X1091471D01*
X1089183Y1070608D01*
X1088390Y1070200D01*
X1087597Y1070608D01*
X1085309Y1072896D01*
X1081311D01*
X1079023Y1070608D01*
X1078230Y1070200D01*
X1077437Y1070608D01*
X1075149Y1072896D01*
X1071151D01*
X1068863Y1070608D01*
X1068070Y1070200D01*
X1067277Y1070608D01*
X1064989Y1072896D01*
X1060991D01*
X1058703Y1070608D01*
X1057910Y1070200D01*
X1057117Y1070608D01*
X1054829Y1072896D01*
X1050831D01*
X1048543Y1070608D01*
X1047750Y1070200D01*
X1046957Y1070608D01*
X1044669Y1072896D01*
X1040671D01*
X1038383Y1070608D01*
X1037590Y1070200D01*
X1036797Y1070608D01*
X1034509Y1072896D01*
X1030511D01*
X1028223Y1070608D01*
X1027430Y1070200D01*
X1026637Y1070608D01*
X1024349Y1072896D01*
X1020351D01*
X1018063Y1070608D01*
X1017270Y1070200D01*
X1016477Y1070608D01*
X1014189Y1072896D01*
X1010191D01*
X1007903Y1070608D01*
X1007110Y1070200D01*
X1006317Y1070608D01*
X1004029Y1072896D01*
X1000031D01*
X997743Y1070608D01*
X996950Y1070200D01*
X996157Y1070608D01*
X993869Y1072896D01*
X989871D01*
X987583Y1070608D01*
X986790Y1070200D01*
X985997Y1070608D01*
X983709Y1072896D01*
X979711D01*
X977423Y1070608D01*
X976630Y1070200D01*
X975837Y1070608D01*
X973549Y1072896D01*
X969551D01*
X966724Y1070069D01*
Y1066071D01*
X969012Y1063783D01*
X969420Y1062990D01*
X969012Y1062197D01*
X966724Y1059909D01*
Y1055911D01*
X969012Y1053623D01*
X969420Y1052830D01*
X969012Y1052037D01*
X966724Y1049749D01*
Y1045751D01*
X969012Y1043463D01*
X969420Y1042670D01*
X969012Y1041877D01*
X966724Y1039589D01*
Y1035591D01*
X969012Y1033303D01*
X969420Y1032510D01*
X969012Y1031717D01*
X966724Y1029429D01*
Y1025431D01*
X969012Y1023143D01*
X969420Y1022350D01*
X969012Y1021557D01*
X966724Y1019269D01*
Y1015271D01*
X969012Y1012983D01*
X969420Y1012190D01*
X969012Y1011397D01*
X966724Y1009109D01*
Y1005111D01*
X969012Y1002823D01*
X969420Y1002030D01*
X969012Y1001237D01*
X966724Y998949D01*
Y994951D01*
X969012Y992663D01*
X969420Y991870D01*
X969012Y991077D01*
X966724Y988789D01*
Y984791D01*
X969012Y982503D01*
X969420Y981710D01*
X969012Y980917D01*
X966724Y978629D01*
Y974631D01*
X969012Y972343D01*
X969420Y971550D01*
X969012Y970757D01*
X966724Y968469D01*
Y964471D01*
X969012Y962183D01*
X969420Y961390D01*
X969012Y960597D01*
X966724Y958309D01*
Y954311D01*
X969012Y952023D01*
X969420Y951230D01*
X969012Y950437D01*
X966724Y948149D01*
Y944151D01*
X969012Y941863D01*
X969420Y941070D01*
X969012Y940277D01*
X966724Y937989D01*
Y933991D01*
X969012Y931703D01*
X969420Y930910D01*
X969012Y930117D01*
X966724Y927829D01*
Y923831D01*
X969012Y921543D01*
X969420Y920750D01*
X969012Y919957D01*
X966724Y917669D01*
Y913671D01*
X969012Y911383D01*
X969420Y910590D01*
X969012Y909797D01*
X966724Y907509D01*
Y903511D01*
X969551Y900684D01*
X973549D01*
X975837Y902972D01*
X976630Y903380D01*
X977423Y902972D01*
X979711Y900684D01*
X983709D01*
X985997Y902972D01*
X986790Y903380D01*
X987583Y902972D01*
X989871Y900684D01*
X993869D01*
X996157Y902972D01*
X996950Y903380D01*
X997743Y902972D01*
X1000031Y900684D01*
X1004029D01*
X1006317Y902972D01*
X1007110Y903380D01*
X1007903Y902972D01*
X1010191Y900684D01*
X1014189D01*
X1016477Y902972D01*
X1017270Y903380D01*
X1018063Y902972D01*
X1020351Y900684D01*
X1024349D01*
X1026637Y902972D01*
X1027430Y903380D01*
X1028223Y902972D01*
X1030511Y900684D01*
X1034509D01*
X1036797Y902972D01*
X1037590Y903380D01*
X1038383Y902972D01*
X1040671Y900684D01*
X1044669D01*
X1046957Y902972D01*
X1047750Y903380D01*
X1048543Y902972D01*
X1050831Y900684D01*
X1054829D01*
X1057117Y902972D01*
X1057910Y903380D01*
X1058703Y902972D01*
X1060991Y900684D01*
X1064989D01*
X1067277Y902972D01*
X1068070Y903380D01*
X1068863Y902972D01*
X1071151Y900684D01*
X1075149D01*
X1077437Y902972D01*
X1078230Y903380D01*
X1079023Y902972D01*
X1081311Y900684D01*
X1085309D01*
X1087597Y902972D01*
X1088390Y903380D01*
X1089183Y902972D01*
X1091471Y900684D01*
X1095469D01*
X1098296Y903511D01*
Y907509D01*
X1096008Y909797D01*
X1095600Y910590D01*
X1096008Y911383D01*
X1098296Y913671D01*
Y917669D01*
X1096008Y919957D01*
X1095600Y920750D01*
X1096008Y921543D01*
X1098296Y923831D01*
Y927829D01*
X1096008Y930117D01*
X1095600Y930910D01*
X1096008Y931703D01*
X1098296Y933991D01*
Y937989D01*
X1096008Y940277D01*
X1095600Y941070D01*
X1096008Y941863D01*
X1098296Y944151D01*
Y948149D01*
X1096008Y950437D01*
X1095600Y951230D01*
X1096008Y952023D01*
X1098296Y954311D01*
Y958309D01*
X1096008Y960597D01*
X1095600Y961390D01*
X1096008Y962183D01*
X1098296Y964471D01*
Y968469D01*
X1096008Y970757D01*
X1095600Y971550D01*
X1096008Y972343D01*
X1098296Y974631D01*
Y978629D01*
X1096008Y980917D01*
X1095600Y981710D01*
X1096008Y982503D01*
X1098296Y984791D01*
Y988789D01*
X1096008Y991077D01*
X1095600Y991870D01*
X1096008Y992663D01*
X1098296Y994951D01*
Y998949D01*
X1096008Y1001237D01*
X1095600Y1002030D01*
X1096008Y1002823D01*
X1098296Y1005111D01*
Y1009109D01*
X1096008Y1011397D01*
X1095600Y1012190D01*
X1096008Y1012983D01*
X1098296Y1015271D01*
Y1019269D01*
X1096008Y1021557D01*
X1095600Y1022350D01*
X1096008Y1023143D01*
X1098296Y1025431D01*
Y1029429D01*
X1096008Y1031717D01*
X1095600Y1032510D01*
X1096008Y1033303D01*
X1098296Y1035591D01*
Y1039589D01*
X1096008Y1041877D01*
X1095600Y1042670D01*
X1096008Y1043463D01*
X1098296Y1045751D01*
Y1049749D01*
X1096008Y1052037D01*
X1095600Y1052830D01*
X1096008Y1053623D01*
X1098296Y1055911D01*
Y1059909D01*
X1096008Y1062197D01*
X1095600Y1062990D01*
X1096008Y1063783D01*
X1098296Y1066071D01*
Y1070069D01*
X1095469Y1072896D01*
D02*
G37*
G36*
X836389D02*
X832391D01*
X830103Y1070608D01*
X829310Y1070200D01*
X828517Y1070608D01*
X826229Y1072896D01*
X822231D01*
X819943Y1070608D01*
X819150Y1070200D01*
X818357Y1070608D01*
X816069Y1072896D01*
X812071D01*
X809783Y1070608D01*
X808990Y1070200D01*
X808197Y1070608D01*
X805909Y1072896D01*
X801911D01*
X799623Y1070608D01*
X798830Y1070200D01*
X798037Y1070608D01*
X795749Y1072896D01*
X791751D01*
X789463Y1070608D01*
X788670Y1070200D01*
X787877Y1070608D01*
X785589Y1072896D01*
X781591D01*
X779303Y1070608D01*
X778510Y1070200D01*
X777717Y1070608D01*
X775429Y1072896D01*
X771431D01*
X769143Y1070608D01*
X768350Y1070200D01*
X767557Y1070608D01*
X765269Y1072896D01*
X761271D01*
X758983Y1070608D01*
X758190Y1070200D01*
X757397Y1070608D01*
X755109Y1072896D01*
X751111D01*
X748823Y1070608D01*
X748030Y1070200D01*
X747237Y1070608D01*
X744949Y1072896D01*
X740951D01*
X738663Y1070608D01*
X737870Y1070200D01*
X737077Y1070608D01*
X734789Y1072896D01*
X730791D01*
X728503Y1070608D01*
X727710Y1070200D01*
X726917Y1070608D01*
X724629Y1072896D01*
X720631D01*
X718343Y1070608D01*
X717550Y1070200D01*
X716757Y1070608D01*
X714469Y1072896D01*
X710471D01*
X707644Y1070069D01*
Y1066071D01*
X709932Y1063783D01*
X710340Y1062990D01*
X709932Y1062197D01*
X707644Y1059909D01*
Y1055911D01*
X709932Y1053623D01*
X710340Y1052830D01*
X709932Y1052037D01*
X707644Y1049749D01*
Y1045751D01*
X709932Y1043463D01*
X710340Y1042670D01*
X709932Y1041877D01*
X707644Y1039589D01*
Y1035591D01*
X709932Y1033303D01*
X710340Y1032510D01*
X709932Y1031717D01*
X707644Y1029429D01*
Y1025431D01*
X709932Y1023143D01*
X710340Y1022350D01*
X709932Y1021557D01*
X707644Y1019269D01*
Y1015271D01*
X709932Y1012983D01*
X710340Y1012190D01*
X709932Y1011397D01*
X707644Y1009109D01*
Y1005111D01*
X709932Y1002823D01*
X710340Y1002030D01*
X709932Y1001237D01*
X707644Y998949D01*
Y994951D01*
X709932Y992663D01*
X710340Y991870D01*
X709932Y991077D01*
X707644Y988789D01*
Y984791D01*
X709932Y982503D01*
X710340Y981710D01*
X709932Y980917D01*
X707644Y978629D01*
Y974631D01*
X709932Y972343D01*
X710340Y971550D01*
X709932Y970757D01*
X707644Y968469D01*
Y964471D01*
X709932Y962183D01*
X710340Y961390D01*
X709932Y960597D01*
X707644Y958309D01*
Y954311D01*
X709932Y952023D01*
X710340Y951230D01*
X709932Y950437D01*
X707644Y948149D01*
Y944151D01*
X709932Y941863D01*
X710340Y941070D01*
X709932Y940277D01*
X707644Y937989D01*
Y933991D01*
X709932Y931703D01*
X710340Y930910D01*
X709932Y930117D01*
X707644Y927829D01*
Y923831D01*
X709932Y921543D01*
X710340Y920750D01*
X709932Y919957D01*
X707644Y917669D01*
Y913671D01*
X709932Y911383D01*
X710340Y910590D01*
X709932Y909797D01*
X707644Y907509D01*
Y903511D01*
X710471Y900684D01*
X714469D01*
X716757Y902972D01*
X717550Y903380D01*
X718343Y902972D01*
X720631Y900684D01*
X724629D01*
X726917Y902972D01*
X727710Y903380D01*
X728503Y902972D01*
X730791Y900684D01*
X734789D01*
X737077Y902972D01*
X737870Y903380D01*
X738663Y902972D01*
X740951Y900684D01*
X744949D01*
X747237Y902972D01*
X748030Y903380D01*
X748823Y902972D01*
X751111Y900684D01*
X755109D01*
X757397Y902972D01*
X758190Y903380D01*
X758983Y902972D01*
X761271Y900684D01*
X765269D01*
X767557Y902972D01*
X768350Y903380D01*
X769143Y902972D01*
X771431Y900684D01*
X775429D01*
X777717Y902972D01*
X778510Y903380D01*
X779303Y902972D01*
X781591Y900684D01*
X785589D01*
X787877Y902972D01*
X788670Y903380D01*
X789463Y902972D01*
X791751Y900684D01*
X795749D01*
X798037Y902972D01*
X798830Y903380D01*
X799623Y902972D01*
X801911Y900684D01*
X805909D01*
X808197Y902972D01*
X808990Y903380D01*
X809783Y902972D01*
X812071Y900684D01*
X816069D01*
X818357Y902972D01*
X819150Y903380D01*
X819943Y902972D01*
X822231Y900684D01*
X826229D01*
X828517Y902972D01*
X829310Y903380D01*
X830103Y902972D01*
X832391Y900684D01*
X836389D01*
X839216Y903511D01*
Y907509D01*
X836928Y909797D01*
X836520Y910590D01*
X836928Y911383D01*
X839216Y913671D01*
Y917669D01*
X836928Y919957D01*
X836520Y920750D01*
X836928Y921543D01*
X839216Y923831D01*
Y927829D01*
X836928Y930117D01*
X836520Y930910D01*
X836928Y931703D01*
X839216Y933991D01*
Y937989D01*
X836928Y940277D01*
X836520Y941070D01*
X836928Y941863D01*
X839216Y944151D01*
Y948149D01*
X836928Y950437D01*
X836520Y951230D01*
X836928Y952023D01*
X839216Y954311D01*
Y958309D01*
X836928Y960597D01*
X836520Y961390D01*
X836928Y962183D01*
X839216Y964471D01*
Y968469D01*
X836928Y970757D01*
X836520Y971550D01*
X836928Y972343D01*
X839216Y974631D01*
Y978629D01*
X836928Y980917D01*
X836520Y981710D01*
X836928Y982503D01*
X839216Y984791D01*
Y988789D01*
X836928Y991077D01*
X836520Y991870D01*
X836928Y992663D01*
X839216Y994951D01*
Y998949D01*
X836928Y1001237D01*
X836520Y1002030D01*
X836928Y1002823D01*
X839216Y1005111D01*
Y1009109D01*
X836928Y1011397D01*
X836520Y1012190D01*
X836928Y1012983D01*
X839216Y1015271D01*
Y1019269D01*
X836928Y1021557D01*
X836520Y1022350D01*
X836928Y1023143D01*
X839216Y1025431D01*
Y1029429D01*
X836928Y1031717D01*
X836520Y1032510D01*
X836928Y1033303D01*
X839216Y1035591D01*
Y1039589D01*
X836928Y1041877D01*
X836520Y1042670D01*
X836928Y1043463D01*
X839216Y1045751D01*
Y1049749D01*
X836928Y1052037D01*
X836520Y1052830D01*
X836928Y1053623D01*
X839216Y1055911D01*
Y1059909D01*
X836928Y1062197D01*
X836520Y1062990D01*
X836928Y1063783D01*
X839216Y1066071D01*
Y1070069D01*
X836389Y1072896D01*
D02*
G37*
G36*
X694149D02*
X690151D01*
X687863Y1070608D01*
X687070Y1070200D01*
X686277Y1070608D01*
X683989Y1072896D01*
X679991D01*
X677703Y1070608D01*
X676910Y1070200D01*
X676117Y1070608D01*
X673829Y1072896D01*
X669831D01*
X667543Y1070608D01*
X666750Y1070200D01*
X665957Y1070608D01*
X663669Y1072896D01*
X659671D01*
X657383Y1070608D01*
X656590Y1070200D01*
X655797Y1070608D01*
X653509Y1072896D01*
X649511D01*
X647223Y1070608D01*
X646430Y1070200D01*
X645637Y1070608D01*
X643349Y1072896D01*
X639351D01*
X637063Y1070608D01*
X636270Y1070200D01*
X635477Y1070608D01*
X633189Y1072896D01*
X629191D01*
X626903Y1070608D01*
X626110Y1070200D01*
X625317Y1070608D01*
X623029Y1072896D01*
X619031D01*
X616743Y1070608D01*
X615950Y1070200D01*
X615157Y1070608D01*
X612869Y1072896D01*
X608871D01*
X606583Y1070608D01*
X605790Y1070200D01*
X604997Y1070608D01*
X602709Y1072896D01*
X598711D01*
X596423Y1070608D01*
X595630Y1070200D01*
X594837Y1070608D01*
X592549Y1072896D01*
X588551D01*
X586263Y1070608D01*
X585470Y1070200D01*
X584677Y1070608D01*
X582389Y1072896D01*
X578391D01*
X576103Y1070608D01*
X575310Y1070200D01*
X574517Y1070608D01*
X572229Y1072896D01*
X568231D01*
X565404Y1070069D01*
Y1066071D01*
X567692Y1063783D01*
X568100Y1062990D01*
X567692Y1062197D01*
X565404Y1059909D01*
Y1055911D01*
X567692Y1053623D01*
X568100Y1052830D01*
X567692Y1052037D01*
X565404Y1049749D01*
Y1045751D01*
X567692Y1043463D01*
X568100Y1042670D01*
X567692Y1041877D01*
X565404Y1039589D01*
Y1035591D01*
X567692Y1033303D01*
X568100Y1032510D01*
X567692Y1031717D01*
X565404Y1029429D01*
Y1025431D01*
X567692Y1023143D01*
X568100Y1022350D01*
X567692Y1021557D01*
X565404Y1019269D01*
Y1015271D01*
X567692Y1012983D01*
X568100Y1012190D01*
X567692Y1011397D01*
X565404Y1009109D01*
Y1005111D01*
X567692Y1002823D01*
X568100Y1002030D01*
X567692Y1001237D01*
X565404Y998949D01*
Y994951D01*
X567692Y992663D01*
X568100Y991870D01*
X567692Y991077D01*
X565404Y988789D01*
Y984791D01*
X567692Y982503D01*
X568100Y981710D01*
X567692Y980917D01*
X565404Y978629D01*
Y974631D01*
X567692Y972343D01*
X568100Y971550D01*
X567692Y970757D01*
X565404Y968469D01*
Y964471D01*
X567692Y962183D01*
X568100Y961390D01*
X567692Y960597D01*
X565404Y958309D01*
Y954311D01*
X567692Y952023D01*
X568100Y951230D01*
X567692Y950437D01*
X565404Y948149D01*
Y944151D01*
X567692Y941863D01*
X568100Y941070D01*
X567692Y940277D01*
X565404Y937989D01*
Y933991D01*
X567692Y931703D01*
X568100Y930910D01*
X567692Y930117D01*
X565404Y927829D01*
Y923831D01*
X567692Y921543D01*
X568100Y920750D01*
X567692Y919957D01*
X565404Y917669D01*
Y913671D01*
X567692Y911383D01*
X568100Y910590D01*
X567692Y909797D01*
X565404Y907509D01*
Y903511D01*
X568231Y900684D01*
X572229D01*
X574517Y902972D01*
X575310Y903380D01*
X576103Y902972D01*
X578391Y900684D01*
X582389D01*
X584677Y902972D01*
X585470Y903380D01*
X586263Y902972D01*
X588551Y900684D01*
X592549D01*
X594837Y902972D01*
X595630Y903380D01*
X596423Y902972D01*
X598711Y900684D01*
X602709D01*
X604997Y902972D01*
X605790Y903380D01*
X606583Y902972D01*
X608871Y900684D01*
X612869D01*
X615157Y902972D01*
X615950Y903380D01*
X616743Y902972D01*
X619031Y900684D01*
X623029D01*
X625317Y902972D01*
X626110Y903380D01*
X626903Y902972D01*
X629191Y900684D01*
X633189D01*
X635477Y902972D01*
X636270Y903380D01*
X637063Y902972D01*
X639351Y900684D01*
X643349D01*
X645637Y902972D01*
X646430Y903380D01*
X647223Y902972D01*
X649511Y900684D01*
X653509D01*
X655797Y902972D01*
X656590Y903380D01*
X657383Y902972D01*
X659671Y900684D01*
X663669D01*
X665957Y902972D01*
X666750Y903380D01*
X667543Y902972D01*
X669831Y900684D01*
X673829D01*
X676117Y902972D01*
X676910Y903380D01*
X677703Y902972D01*
X679991Y900684D01*
X683989D01*
X686277Y902972D01*
X687070Y903380D01*
X687863Y902972D01*
X690151Y900684D01*
X694149D01*
X696976Y903511D01*
Y907509D01*
X694688Y909797D01*
X694280Y910590D01*
X694688Y911383D01*
X696976Y913671D01*
Y917669D01*
X694688Y919957D01*
X694280Y920750D01*
X694688Y921543D01*
X696976Y923831D01*
Y927829D01*
X694688Y930117D01*
X694280Y930910D01*
X694688Y931703D01*
X696976Y933991D01*
Y937989D01*
X694688Y940277D01*
X694280Y941070D01*
X694688Y941863D01*
X696976Y944151D01*
Y948149D01*
X694688Y950437D01*
X694280Y951230D01*
X694688Y952023D01*
X696976Y954311D01*
Y958309D01*
X694688Y960597D01*
X694280Y961390D01*
X694688Y962183D01*
X696976Y964471D01*
Y968469D01*
X694688Y970757D01*
X694280Y971550D01*
X694688Y972343D01*
X696976Y974631D01*
Y978629D01*
X694688Y980917D01*
X694280Y981710D01*
X694688Y982503D01*
X696976Y984791D01*
Y988789D01*
X694688Y991077D01*
X694280Y991870D01*
X694688Y992663D01*
X696976Y994951D01*
Y998949D01*
X694688Y1001237D01*
X694280Y1002030D01*
X694688Y1002823D01*
X696976Y1005111D01*
Y1009109D01*
X694688Y1011397D01*
X694280Y1012190D01*
X694688Y1012983D01*
X696976Y1015271D01*
Y1019269D01*
X694688Y1021557D01*
X694280Y1022350D01*
X694688Y1023143D01*
X696976Y1025431D01*
Y1029429D01*
X694688Y1031717D01*
X694280Y1032510D01*
X694688Y1033303D01*
X696976Y1035591D01*
Y1039589D01*
X694688Y1041877D01*
X694280Y1042670D01*
X694688Y1043463D01*
X696976Y1045751D01*
Y1049749D01*
X694688Y1052037D01*
X694280Y1052830D01*
X694688Y1053623D01*
X696976Y1055911D01*
Y1059909D01*
X694688Y1062197D01*
X694280Y1062990D01*
X694688Y1063783D01*
X696976Y1066071D01*
Y1070069D01*
X694149Y1072896D01*
D02*
G37*
G36*
X1237709Y1072830D02*
X1233711D01*
X1231423Y1070542D01*
X1230630Y1070134D01*
X1229837Y1070542D01*
X1227549Y1072830D01*
X1223551D01*
X1221263Y1070542D01*
X1220470Y1070134D01*
X1219677Y1070542D01*
X1217389Y1072830D01*
X1213391D01*
X1211103Y1070542D01*
X1210310Y1070134D01*
X1209517Y1070542D01*
X1207229Y1072830D01*
X1203231D01*
X1200943Y1070542D01*
X1200150Y1070134D01*
X1199357Y1070542D01*
X1197069Y1072830D01*
X1193071D01*
X1190783Y1070542D01*
X1189990Y1070134D01*
X1189197Y1070542D01*
X1186909Y1072830D01*
X1182911D01*
X1180623Y1070542D01*
X1179830Y1070134D01*
X1179037Y1070542D01*
X1176749Y1072830D01*
X1172751D01*
X1170463Y1070542D01*
X1169670Y1070134D01*
X1168877Y1070542D01*
X1166589Y1072830D01*
X1162591D01*
X1160303Y1070542D01*
X1159510Y1070134D01*
X1158717Y1070542D01*
X1156429Y1072830D01*
X1152431D01*
X1150143Y1070542D01*
X1149350Y1070134D01*
X1148557Y1070542D01*
X1146269Y1072830D01*
X1142271D01*
X1139983Y1070542D01*
X1139190Y1070134D01*
X1138397Y1070542D01*
X1136109Y1072830D01*
X1132111D01*
X1129823Y1070542D01*
X1129030Y1070134D01*
X1128237Y1070542D01*
X1125949Y1072830D01*
X1121951D01*
X1119663Y1070542D01*
X1118870Y1070134D01*
X1118077Y1070542D01*
X1115789Y1072830D01*
X1111791D01*
X1108964Y1070003D01*
Y1066005D01*
X1111252Y1063717D01*
X1111660Y1062924D01*
X1111252Y1062131D01*
X1108964Y1059843D01*
Y1055845D01*
X1111252Y1053557D01*
X1111660Y1052764D01*
X1111252Y1051971D01*
X1108964Y1049683D01*
Y1045685D01*
X1111252Y1043397D01*
X1111660Y1042604D01*
X1111252Y1041811D01*
X1108964Y1039523D01*
Y1035525D01*
X1111252Y1033237D01*
X1111660Y1032444D01*
X1111252Y1031651D01*
X1108964Y1029363D01*
Y1025365D01*
X1111252Y1023077D01*
X1111660Y1022284D01*
X1111252Y1021491D01*
X1108964Y1019203D01*
Y1015205D01*
X1111252Y1012917D01*
X1111660Y1012124D01*
X1111252Y1011331D01*
X1108964Y1009043D01*
Y1005045D01*
X1111252Y1002757D01*
X1111660Y1001964D01*
X1111252Y1001171D01*
X1108964Y998883D01*
Y994885D01*
X1111252Y992597D01*
X1111660Y991804D01*
X1111252Y991011D01*
X1108964Y988723D01*
Y984725D01*
X1111252Y982437D01*
X1111660Y981644D01*
X1111252Y980851D01*
X1108964Y978563D01*
Y974565D01*
X1111252Y972277D01*
X1111660Y971484D01*
X1111252Y970691D01*
X1108964Y968403D01*
Y964405D01*
X1111252Y962117D01*
X1111660Y961324D01*
X1111252Y960531D01*
X1108964Y958243D01*
Y954245D01*
X1111252Y951957D01*
X1111660Y951164D01*
X1111252Y950371D01*
X1108964Y948083D01*
Y944085D01*
X1111252Y941797D01*
X1111660Y941004D01*
X1111252Y940211D01*
X1108964Y937923D01*
Y933925D01*
X1111252Y931637D01*
X1111660Y930844D01*
X1111252Y930051D01*
X1108964Y927763D01*
Y923765D01*
X1111252Y921477D01*
X1111660Y920684D01*
X1111252Y919891D01*
X1108964Y917603D01*
Y913605D01*
X1111252Y911317D01*
X1111660Y910524D01*
X1111252Y909731D01*
X1108964Y907443D01*
Y903445D01*
X1111791Y900618D01*
X1115789D01*
X1118077Y902906D01*
X1118870Y903314D01*
X1119663Y902906D01*
X1121951Y900618D01*
X1125949D01*
X1128237Y902906D01*
X1129030Y903314D01*
X1129823Y902906D01*
X1132111Y900618D01*
X1136109D01*
X1138397Y902906D01*
X1139190Y903314D01*
X1139983Y902906D01*
X1142271Y900618D01*
X1146269D01*
X1148557Y902906D01*
X1149350Y903314D01*
X1150143Y902906D01*
X1152431Y900618D01*
X1156429D01*
X1158717Y902906D01*
X1159510Y903314D01*
X1160303Y902906D01*
X1162591Y900618D01*
X1166589D01*
X1168877Y902906D01*
X1169670Y903314D01*
X1170463Y902906D01*
X1172751Y900618D01*
X1176749D01*
X1179037Y902906D01*
X1179830Y903314D01*
X1180623Y902906D01*
X1182911Y900618D01*
X1186909D01*
X1189197Y902906D01*
X1189990Y903314D01*
X1190783Y902906D01*
X1193071Y900618D01*
X1197069D01*
X1199357Y902906D01*
X1200150Y903314D01*
X1200943Y902906D01*
X1203231Y900618D01*
X1207229D01*
X1209517Y902906D01*
X1210310Y903314D01*
X1211103Y902906D01*
X1213391Y900618D01*
X1217389D01*
X1219677Y902906D01*
X1220470Y903314D01*
X1221263Y902906D01*
X1223551Y900618D01*
X1227549D01*
X1229837Y902906D01*
X1230630Y903314D01*
X1231423Y902906D01*
X1233711Y900618D01*
X1237709D01*
X1240536Y903445D01*
Y907443D01*
X1238248Y909731D01*
X1237840Y910524D01*
X1238248Y911317D01*
X1240536Y913605D01*
Y917603D01*
X1238248Y919891D01*
X1237840Y920684D01*
X1238248Y921477D01*
X1240536Y923765D01*
Y927763D01*
X1238248Y930051D01*
X1237840Y930844D01*
X1238248Y931637D01*
X1240536Y933925D01*
Y937923D01*
X1238248Y940211D01*
X1237840Y941004D01*
X1238248Y941797D01*
X1240536Y944085D01*
Y948083D01*
X1238248Y950371D01*
X1237840Y951164D01*
X1238248Y951957D01*
X1240536Y954245D01*
Y958243D01*
X1238248Y960531D01*
X1237840Y961324D01*
X1238248Y962117D01*
X1240536Y964405D01*
Y968403D01*
X1238248Y970691D01*
X1237840Y971484D01*
X1238248Y972277D01*
X1240536Y974565D01*
Y978563D01*
X1238248Y980851D01*
X1237840Y981644D01*
X1238248Y982437D01*
X1240536Y984725D01*
Y988723D01*
X1238248Y991011D01*
X1237840Y991804D01*
X1238248Y992597D01*
X1240536Y994885D01*
Y998883D01*
X1238248Y1001171D01*
X1237840Y1001964D01*
X1238248Y1002757D01*
X1240536Y1005045D01*
Y1009043D01*
X1238248Y1011331D01*
X1237840Y1012124D01*
X1238248Y1012917D01*
X1240536Y1015205D01*
Y1019203D01*
X1238248Y1021491D01*
X1237840Y1022284D01*
X1238248Y1023077D01*
X1240536Y1025365D01*
Y1029363D01*
X1238248Y1031651D01*
X1237840Y1032444D01*
X1238248Y1033237D01*
X1240536Y1035525D01*
Y1039523D01*
X1238248Y1041811D01*
X1237840Y1042604D01*
X1238248Y1043397D01*
X1240536Y1045685D01*
Y1049683D01*
X1238248Y1051971D01*
X1237840Y1052764D01*
X1238248Y1053557D01*
X1240536Y1055845D01*
Y1059843D01*
X1238248Y1062131D01*
X1237840Y1062924D01*
X1238248Y1063717D01*
X1240536Y1066005D01*
Y1070003D01*
X1237709Y1072830D01*
D02*
G37*
G36*
X145499Y1101310D02*
X132021D01*
X122490Y1091779D01*
Y1078301D01*
X132021Y1068770D01*
X145499D01*
X155030Y1078301D01*
Y1091779D01*
X145499Y1101310D01*
D02*
G37*
G36*
X94699D02*
X81221D01*
X71690Y1091779D01*
Y1078301D01*
X81221Y1068770D01*
X94699D01*
X104230Y1078301D01*
Y1091779D01*
X94699Y1101310D01*
D02*
G37*
G36*
X870449Y1042890D02*
X866911D01*
X864410Y1040389D01*
Y1036851D01*
X866618Y1034643D01*
Y1009697D01*
X864410Y1007489D01*
Y1003951D01*
X866911Y1001450D01*
X870449D01*
X872950Y1003951D01*
Y1007489D01*
X870742Y1009697D01*
Y1034643D01*
X872950Y1036851D01*
Y1040389D01*
X870449Y1042890D01*
D02*
G37*
G36*
X1274309Y1041860D02*
X1270771D01*
X1268270Y1039359D01*
Y1035821D01*
X1270478Y1033613D01*
Y1008547D01*
X1268270Y1006339D01*
Y1002801D01*
X1270771Y1000300D01*
X1274309D01*
X1276810Y1002801D01*
Y1006339D01*
X1274602Y1008547D01*
Y1033613D01*
X1276810Y1035821D01*
Y1039359D01*
X1274309Y1041860D01*
D02*
G37*
G36*
X497438Y975260D02*
X494522D01*
X494000Y974738D01*
X323067D01*
X320947Y973860D01*
X319190Y972103D01*
X318312Y969983D01*
Y904917D01*
X319190Y902797D01*
X320947Y901040D01*
X323067Y900162D01*
X331440D01*
X331962Y899640D01*
X334878D01*
X336940Y901702D01*
Y904618D01*
X334878Y906680D01*
X331962D01*
X331440Y906158D01*
X324309D01*
X324308Y906159D01*
Y968741D01*
X324309Y968742D01*
X494000D01*
X494522Y968220D01*
X497438D01*
X499500Y970282D01*
Y973198D01*
X497438Y975260D01*
D02*
G37*
G36*
X428858Y944780D02*
X425942D01*
X423880Y942718D01*
Y939802D01*
X425942Y937740D01*
X428858D01*
X429380Y938262D01*
X433291D01*
X433292Y938261D01*
Y893459D01*
X433291Y893458D01*
X426840D01*
X426318Y893980D01*
X423402D01*
X421340Y891918D01*
Y889002D01*
X423402Y886940D01*
X426318D01*
X426840Y887462D01*
X434533D01*
X436653Y888340D01*
X438410Y890097D01*
X439288Y892217D01*
Y939503D01*
X438410Y941623D01*
X436653Y943380D01*
X434533Y944258D01*
X429380D01*
X428858Y944780D01*
D02*
G37*
G36*
X401142Y1046615D02*
X294949D01*
X290151Y1044627D01*
X288393Y1042869D01*
X286405Y1038071D01*
Y869247D01*
X207220D01*
X202421Y867259D01*
X200433Y862460D01*
Y791007D01*
X202421Y786208D01*
X204648Y783981D01*
X209447Y781993D01*
X225787D01*
X235271Y772510D01*
X248749D01*
X258280Y782041D01*
Y795519D01*
X248749Y805050D01*
X235271D01*
X225787Y795567D01*
X214007D01*
Y855673D01*
X371309D01*
X381961Y845021D01*
X386760Y843033D01*
X387890D01*
X392689Y845021D01*
X394676Y849820D01*
X392689Y854619D01*
X390760Y855418D01*
X378919Y867259D01*
X374120Y869247D01*
X299979D01*
Y1033041D01*
X401142D01*
X405941Y1035029D01*
X407929Y1039828D01*
X405941Y1044627D01*
X401142Y1046615D01*
D02*
G37*
G36*
X1290819Y810720D02*
X1287281D01*
X1286010Y809448D01*
X980940D01*
X979669Y810720D01*
X976131D01*
X973630Y808219D01*
Y804681D01*
X976131Y802180D01*
X979669D01*
X980940Y803452D01*
X1286010D01*
X1287281Y802180D01*
X1290819D01*
X1293320Y804681D01*
Y808219D01*
X1290819Y810720D01*
D02*
G37*
G36*
X699958Y793460D02*
X697042D01*
X696520Y792938D01*
X584910D01*
X584388Y793460D01*
X581472D01*
X579410Y791398D01*
Y788482D01*
X581472Y786420D01*
X584388D01*
X584910Y786942D01*
X696520D01*
X697042Y786420D01*
X699958D01*
X702020Y788482D01*
Y791398D01*
X699958Y793460D01*
D02*
G37*
G36*
X1005069Y801830D02*
X1001531D01*
X999030Y799329D01*
Y795791D01*
X1001531Y793290D01*
X1005069D01*
X1006340Y794562D01*
X1250490D01*
Y794521D01*
X1252991Y792020D01*
X1256529D01*
X1259030Y794521D01*
Y798059D01*
X1256529Y800560D01*
X1252991D01*
X1252898Y800467D01*
X1252678Y800558D01*
X1006340D01*
X1005069Y801830D01*
D02*
G37*
G36*
X1115559Y787860D02*
X1112021D01*
X1110750Y786588D01*
X963160D01*
X961889Y787860D01*
X958351D01*
X955850Y785359D01*
Y781821D01*
X957433Y780238D01*
X956907Y778968D01*
X923791D01*
X922519Y780240D01*
X918981D01*
X916480Y777739D01*
Y774201D01*
X918981Y771700D01*
X922519D01*
X923791Y772972D01*
X927834D01*
X928320Y771798D01*
X927910Y771389D01*
Y767851D01*
X930411Y765350D01*
X933949D01*
X935220Y766622D01*
X1063760D01*
X1065031Y765350D01*
X1068569D01*
X1071070Y767851D01*
Y771389D01*
X1070660Y771798D01*
X1071146Y772972D01*
X1089159D01*
X1090431Y771700D01*
X1093969D01*
X1096470Y774201D01*
Y777739D01*
X1094887Y779322D01*
X1095413Y780592D01*
X1110750D01*
X1112021Y779320D01*
X1115559D01*
X1118060Y781821D01*
Y785359D01*
X1115559Y787860D01*
D02*
G37*
G36*
X32297Y801730D02*
X23582D01*
X17420Y795567D01*
Y786852D01*
X23582Y780690D01*
X32297D01*
X38460Y786852D01*
Y795567D01*
X32297Y801730D01*
D02*
G37*
G36*
X147149Y805050D02*
X133671D01*
X124140Y795519D01*
Y782108D01*
X114629Y772597D01*
X98095D01*
X97609Y773770D01*
X105880Y782041D01*
Y795519D01*
X96349Y805050D01*
X82871D01*
X73340Y795519D01*
Y782041D01*
X81611Y773770D01*
X81125Y772597D01*
X38460D01*
Y776330D01*
X17420D01*
Y766663D01*
X17067Y765810D01*
X17420Y764957D01*
Y755290D01*
X38460D01*
Y759023D01*
X117440D01*
X122239Y761011D01*
X133738Y772510D01*
X147149D01*
X156680Y782041D01*
Y795519D01*
X147149Y805050D01*
D02*
G37*
G36*
X299549D02*
X286071D01*
X276540Y795519D01*
Y782041D01*
X286071Y772510D01*
X299549D01*
X309080Y782041D01*
Y795519D01*
X299549Y805050D01*
D02*
G37*
%LPD*%
G36*
X1096921Y1069500D02*
Y1066640D01*
X1095036Y1064755D01*
X1094952Y1064553D01*
X1094786Y1064412D01*
X1094378Y1063619D01*
X1094368Y1063500D01*
X1094291Y1063409D01*
X1094325Y1062990D01*
X1094291Y1062571D01*
X1094368Y1062480D01*
X1094378Y1062361D01*
X1094786Y1061568D01*
X1094952Y1061427D01*
X1095036Y1061225D01*
X1096921Y1059340D01*
Y1056480D01*
X1095036Y1054595D01*
X1094952Y1054393D01*
X1094786Y1054252D01*
X1094378Y1053459D01*
X1094368Y1053340D01*
X1094291Y1053249D01*
X1094325Y1052830D01*
X1094291Y1052411D01*
X1094368Y1052320D01*
X1094378Y1052201D01*
X1094786Y1051408D01*
X1094952Y1051267D01*
X1095036Y1051065D01*
X1096921Y1049180D01*
Y1046320D01*
X1095036Y1044435D01*
X1094952Y1044233D01*
X1094786Y1044092D01*
X1094378Y1043299D01*
X1094368Y1043180D01*
X1094291Y1043089D01*
X1094325Y1042670D01*
X1094291Y1042251D01*
X1094368Y1042160D01*
X1094378Y1042041D01*
X1094786Y1041248D01*
X1094952Y1041107D01*
X1095036Y1040905D01*
X1096921Y1039020D01*
Y1036160D01*
X1095036Y1034275D01*
X1094952Y1034073D01*
X1094786Y1033932D01*
X1094378Y1033139D01*
X1094368Y1033020D01*
X1094291Y1032929D01*
X1094325Y1032510D01*
X1094291Y1032091D01*
X1094368Y1032000D01*
X1094378Y1031881D01*
X1094786Y1031088D01*
X1094952Y1030947D01*
X1095036Y1030745D01*
X1096921Y1028860D01*
Y1026000D01*
X1095036Y1024115D01*
X1094952Y1023913D01*
X1094786Y1023772D01*
X1094378Y1022979D01*
X1094368Y1022860D01*
X1094291Y1022769D01*
X1094325Y1022350D01*
X1094291Y1021931D01*
X1094368Y1021840D01*
X1094378Y1021721D01*
X1094786Y1020928D01*
X1094952Y1020787D01*
X1095036Y1020585D01*
X1096921Y1018700D01*
Y1015840D01*
X1095036Y1013955D01*
X1094952Y1013753D01*
X1094786Y1013612D01*
X1094378Y1012819D01*
X1094368Y1012700D01*
X1094291Y1012609D01*
X1094325Y1012190D01*
X1094291Y1011771D01*
X1094368Y1011680D01*
X1094378Y1011561D01*
X1094786Y1010768D01*
X1094952Y1010627D01*
X1095036Y1010425D01*
X1096921Y1008540D01*
Y1005680D01*
X1095036Y1003795D01*
X1094952Y1003593D01*
X1094786Y1003452D01*
X1094378Y1002659D01*
X1094368Y1002540D01*
X1094291Y1002449D01*
X1094325Y1002030D01*
X1094291Y1001611D01*
X1094368Y1001520D01*
X1094378Y1001401D01*
X1094786Y1000608D01*
X1094952Y1000467D01*
X1095036Y1000265D01*
X1096921Y998380D01*
Y995520D01*
X1095036Y993635D01*
X1094952Y993433D01*
X1094786Y993292D01*
X1094378Y992499D01*
X1094368Y992380D01*
X1094291Y992289D01*
X1094325Y991870D01*
X1094291Y991451D01*
X1094368Y991360D01*
X1094378Y991241D01*
X1094786Y990448D01*
X1094952Y990307D01*
X1095036Y990105D01*
X1096921Y988220D01*
Y985360D01*
X1095036Y983475D01*
X1094952Y983273D01*
X1094786Y983132D01*
X1094378Y982339D01*
X1094368Y982220D01*
X1094291Y982129D01*
X1094325Y981710D01*
X1094291Y981291D01*
X1094368Y981200D01*
X1094378Y981081D01*
X1094786Y980288D01*
X1094952Y980147D01*
X1095036Y979945D01*
X1096921Y978060D01*
Y975200D01*
X1095036Y973315D01*
X1094952Y973113D01*
X1094786Y972972D01*
X1094378Y972179D01*
X1094368Y972060D01*
X1094291Y971969D01*
X1094325Y971550D01*
X1094291Y971131D01*
X1094368Y971040D01*
X1094378Y970921D01*
X1094786Y970128D01*
X1094952Y969987D01*
X1095036Y969785D01*
X1096921Y967900D01*
Y965040D01*
X1095036Y963155D01*
X1094952Y962953D01*
X1094786Y962812D01*
X1094378Y962019D01*
X1094368Y961900D01*
X1094291Y961809D01*
X1094325Y961390D01*
X1094291Y960971D01*
X1094368Y960880D01*
X1094378Y960761D01*
X1094786Y959968D01*
X1094952Y959827D01*
X1095036Y959625D01*
X1096921Y957740D01*
Y954880D01*
X1095036Y952995D01*
X1094952Y952793D01*
X1094786Y952652D01*
X1094378Y951859D01*
X1094368Y951740D01*
X1094291Y951649D01*
X1094325Y951230D01*
X1094291Y950811D01*
X1094368Y950720D01*
X1094378Y950601D01*
X1094786Y949808D01*
X1094952Y949667D01*
X1095036Y949465D01*
X1096921Y947580D01*
Y944720D01*
X1095036Y942835D01*
X1094952Y942633D01*
X1094786Y942492D01*
X1094378Y941699D01*
X1094368Y941580D01*
X1094291Y941489D01*
X1094325Y941070D01*
X1094291Y940651D01*
X1094368Y940560D01*
X1094378Y940441D01*
X1094786Y939648D01*
X1094952Y939507D01*
X1095036Y939305D01*
X1096921Y937420D01*
Y934560D01*
X1095036Y932675D01*
X1094952Y932473D01*
X1094786Y932332D01*
X1094378Y931539D01*
X1094368Y931420D01*
X1094291Y931329D01*
X1094325Y930910D01*
X1094291Y930491D01*
X1094368Y930400D01*
X1094378Y930281D01*
X1094786Y929488D01*
X1094952Y929347D01*
X1095036Y929145D01*
X1096921Y927260D01*
Y924400D01*
X1095036Y922515D01*
X1094952Y922313D01*
X1094786Y922172D01*
X1094378Y921379D01*
X1094368Y921260D01*
X1094291Y921169D01*
X1094325Y920750D01*
X1094291Y920331D01*
X1094368Y920240D01*
X1094378Y920121D01*
X1094786Y919328D01*
X1094952Y919187D01*
X1095036Y918985D01*
X1096921Y917100D01*
Y914240D01*
X1095036Y912355D01*
X1094952Y912153D01*
X1094786Y912012D01*
X1094378Y911219D01*
X1094368Y911100D01*
X1094291Y911009D01*
X1094325Y910590D01*
X1094291Y910171D01*
X1094368Y910080D01*
X1094378Y909961D01*
X1094786Y909168D01*
X1094952Y909027D01*
X1095036Y908825D01*
X1096921Y906940D01*
Y904080D01*
X1094900Y902059D01*
X1092040D01*
X1090155Y903944D01*
X1089953Y904028D01*
X1089812Y904194D01*
X1089019Y904603D01*
X1088900Y904612D01*
X1088809Y904689D01*
X1088390Y904655D01*
X1087971Y904689D01*
X1087880Y904612D01*
X1087761Y904603D01*
X1086968Y904194D01*
X1086827Y904028D01*
X1086625Y903944D01*
X1084740Y902059D01*
X1081880D01*
X1079995Y903944D01*
X1079793Y904028D01*
X1079652Y904194D01*
X1078859Y904603D01*
X1078740Y904612D01*
X1078649Y904689D01*
X1078230Y904655D01*
X1077811Y904689D01*
X1077720Y904612D01*
X1077601Y904603D01*
X1076808Y904194D01*
X1076667Y904028D01*
X1076465Y903944D01*
X1074580Y902059D01*
X1071720D01*
X1069835Y903944D01*
X1069633Y904028D01*
X1069492Y904194D01*
X1068699Y904603D01*
X1068580Y904612D01*
X1068489Y904689D01*
X1068070Y904655D01*
X1067651Y904689D01*
X1067560Y904612D01*
X1067441Y904603D01*
X1066648Y904194D01*
X1066507Y904028D01*
X1066305Y903944D01*
X1064420Y902059D01*
X1061560D01*
X1059675Y903944D01*
X1059473Y904028D01*
X1059332Y904194D01*
X1058539Y904603D01*
X1058420Y904612D01*
X1058329Y904689D01*
X1057910Y904655D01*
X1057491Y904689D01*
X1057400Y904612D01*
X1057281Y904603D01*
X1056488Y904194D01*
X1056347Y904028D01*
X1056145Y903944D01*
X1054260Y902059D01*
X1051400D01*
X1049515Y903944D01*
X1049313Y904028D01*
X1049172Y904194D01*
X1048379Y904603D01*
X1048260Y904612D01*
X1048169Y904689D01*
X1047750Y904655D01*
X1047331Y904689D01*
X1047240Y904612D01*
X1047121Y904603D01*
X1046328Y904194D01*
X1046187Y904028D01*
X1045985Y903944D01*
X1044100Y902059D01*
X1041240D01*
X1039355Y903944D01*
X1039153Y904028D01*
X1039012Y904194D01*
X1038219Y904603D01*
X1038100Y904612D01*
X1038009Y904689D01*
X1037590Y904655D01*
X1037171Y904689D01*
X1037080Y904612D01*
X1036961Y904603D01*
X1036168Y904194D01*
X1036027Y904028D01*
X1035825Y903944D01*
X1033940Y902059D01*
X1031080D01*
X1029195Y903944D01*
X1028993Y904028D01*
X1028852Y904194D01*
X1028059Y904603D01*
X1027940Y904612D01*
X1027849Y904689D01*
X1027430Y904655D01*
X1027011Y904689D01*
X1026920Y904612D01*
X1026801Y904603D01*
X1026008Y904194D01*
X1025867Y904028D01*
X1025665Y903944D01*
X1023780Y902059D01*
X1020920D01*
X1019035Y903944D01*
X1018833Y904028D01*
X1018692Y904194D01*
X1017899Y904603D01*
X1017780Y904612D01*
X1017689Y904689D01*
X1017270Y904655D01*
X1016851Y904689D01*
X1016760Y904612D01*
X1016641Y904603D01*
X1015848Y904194D01*
X1015707Y904028D01*
X1015505Y903944D01*
X1013620Y902059D01*
X1010760D01*
X1008875Y903944D01*
X1008673Y904028D01*
X1008532Y904194D01*
X1007739Y904603D01*
X1007620Y904612D01*
X1007529Y904689D01*
X1007110Y904655D01*
X1006691Y904689D01*
X1006600Y904612D01*
X1006481Y904603D01*
X1005688Y904194D01*
X1005547Y904028D01*
X1005345Y903944D01*
X1003460Y902059D01*
X1000600D01*
X998715Y903944D01*
X998513Y904028D01*
X998372Y904194D01*
X997579Y904603D01*
X997460Y904612D01*
X997369Y904689D01*
X996950Y904655D01*
X996531Y904689D01*
X996440Y904612D01*
X996321Y904603D01*
X995528Y904194D01*
X995387Y904028D01*
X995185Y903944D01*
X993300Y902059D01*
X990440D01*
X988555Y903944D01*
X988353Y904028D01*
X988212Y904194D01*
X987419Y904603D01*
X987300Y904612D01*
X987209Y904689D01*
X986790Y904655D01*
X986371Y904689D01*
X986280Y904612D01*
X986161Y904603D01*
X985368Y904194D01*
X985227Y904028D01*
X985025Y903944D01*
X983140Y902059D01*
X980280D01*
X978395Y903944D01*
X978193Y904028D01*
X978052Y904194D01*
X977259Y904603D01*
X977140Y904612D01*
X977049Y904689D01*
X976630Y904655D01*
X976211Y904689D01*
X976120Y904612D01*
X976001Y904603D01*
X975208Y904194D01*
X975067Y904028D01*
X974865Y903944D01*
X972980Y902059D01*
X970120D01*
X968099Y904080D01*
Y906940D01*
X969984Y908825D01*
X970068Y909027D01*
X970234Y909168D01*
X970642Y909961D01*
X970652Y910080D01*
X970729Y910171D01*
X970695Y910590D01*
X970729Y911009D01*
X970652Y911100D01*
X970642Y911219D01*
X970234Y912012D01*
X970068Y912153D01*
X969984Y912355D01*
X968099Y914240D01*
Y917100D01*
X969984Y918985D01*
X970068Y919187D01*
X970234Y919328D01*
X970642Y920121D01*
X970652Y920240D01*
X970729Y920331D01*
X970695Y920750D01*
X970729Y921169D01*
X970652Y921260D01*
X970642Y921379D01*
X970234Y922172D01*
X970068Y922313D01*
X969984Y922515D01*
X968099Y924400D01*
Y927260D01*
X969984Y929145D01*
X970068Y929347D01*
X970234Y929488D01*
X970642Y930281D01*
X970652Y930400D01*
X970729Y930491D01*
X970695Y930910D01*
X970729Y931329D01*
X970652Y931420D01*
X970642Y931539D01*
X970234Y932332D01*
X970068Y932473D01*
X969984Y932675D01*
X968099Y934560D01*
Y937420D01*
X969984Y939305D01*
X970068Y939507D01*
X970234Y939648D01*
X970642Y940441D01*
X970652Y940560D01*
X970729Y940651D01*
X970695Y941070D01*
X970729Y941489D01*
X970652Y941580D01*
X970642Y941699D01*
X970234Y942492D01*
X970068Y942633D01*
X969984Y942835D01*
X968099Y944720D01*
Y947580D01*
X969984Y949465D01*
X970068Y949667D01*
X970234Y949808D01*
X970642Y950601D01*
X970652Y950720D01*
X970729Y950811D01*
X970695Y951230D01*
X970729Y951649D01*
X970652Y951740D01*
X970642Y951859D01*
X970234Y952652D01*
X970068Y952793D01*
X969984Y952995D01*
X968099Y954880D01*
Y957740D01*
X969984Y959625D01*
X970068Y959827D01*
X970234Y959968D01*
X970642Y960761D01*
X970652Y960880D01*
X970729Y960971D01*
X970695Y961390D01*
X970729Y961809D01*
X970652Y961900D01*
X970642Y962019D01*
X970234Y962812D01*
X970068Y962953D01*
X969984Y963155D01*
X968099Y965040D01*
Y967900D01*
X969984Y969785D01*
X970068Y969987D01*
X970234Y970128D01*
X970642Y970921D01*
X970652Y971040D01*
X970729Y971131D01*
X970695Y971550D01*
X970729Y971969D01*
X970652Y972060D01*
X970642Y972179D01*
X970234Y972972D01*
X970068Y973113D01*
X969984Y973315D01*
X968099Y975200D01*
Y978060D01*
X969984Y979945D01*
X970068Y980147D01*
X970234Y980288D01*
X970642Y981081D01*
X970652Y981200D01*
X970729Y981291D01*
X970695Y981710D01*
X970729Y982129D01*
X970652Y982220D01*
X970642Y982339D01*
X970234Y983132D01*
X970068Y983273D01*
X969984Y983475D01*
X968099Y985360D01*
Y988220D01*
X969984Y990105D01*
X970068Y990307D01*
X970234Y990448D01*
X970642Y991241D01*
X970652Y991360D01*
X970729Y991451D01*
X970695Y991870D01*
X970729Y992289D01*
X970652Y992380D01*
X970642Y992499D01*
X970234Y993292D01*
X970068Y993433D01*
X969984Y993635D01*
X968099Y995520D01*
Y998380D01*
X969984Y1000265D01*
X970068Y1000467D01*
X970234Y1000608D01*
X970642Y1001401D01*
X970652Y1001520D01*
X970729Y1001611D01*
X970695Y1002030D01*
X970729Y1002449D01*
X970652Y1002540D01*
X970642Y1002659D01*
X970234Y1003452D01*
X970068Y1003593D01*
X969984Y1003795D01*
X968099Y1005680D01*
Y1008540D01*
X969984Y1010425D01*
X970068Y1010627D01*
X970234Y1010768D01*
X970642Y1011561D01*
X970652Y1011680D01*
X970729Y1011771D01*
X970695Y1012190D01*
X970729Y1012609D01*
X970652Y1012700D01*
X970642Y1012819D01*
X970234Y1013612D01*
X970068Y1013753D01*
X969984Y1013955D01*
X968099Y1015840D01*
Y1018700D01*
X969984Y1020585D01*
X970068Y1020787D01*
X970234Y1020928D01*
X970642Y1021721D01*
X970652Y1021840D01*
X970729Y1021931D01*
X970695Y1022350D01*
X970729Y1022769D01*
X970652Y1022860D01*
X970642Y1022979D01*
X970234Y1023772D01*
X970068Y1023913D01*
X969984Y1024115D01*
X968099Y1026000D01*
Y1028860D01*
X969984Y1030745D01*
X970068Y1030947D01*
X970234Y1031088D01*
X970642Y1031881D01*
X970652Y1032000D01*
X970729Y1032091D01*
X970695Y1032510D01*
X970729Y1032929D01*
X970652Y1033020D01*
X970642Y1033139D01*
X970234Y1033932D01*
X970068Y1034073D01*
X969984Y1034275D01*
X968099Y1036160D01*
Y1039020D01*
X969984Y1040905D01*
X970068Y1041107D01*
X970234Y1041248D01*
X970642Y1042041D01*
X970652Y1042160D01*
X970729Y1042251D01*
X970695Y1042670D01*
X970729Y1043089D01*
X970652Y1043180D01*
X970642Y1043299D01*
X970234Y1044092D01*
X970068Y1044233D01*
X969984Y1044435D01*
X968099Y1046320D01*
Y1049180D01*
X969984Y1051065D01*
X970068Y1051267D01*
X970234Y1051408D01*
X970642Y1052201D01*
X970652Y1052320D01*
X970729Y1052411D01*
X970695Y1052830D01*
X970729Y1053249D01*
X970652Y1053340D01*
X970642Y1053459D01*
X970234Y1054252D01*
X970068Y1054393D01*
X969984Y1054595D01*
X968099Y1056480D01*
Y1059340D01*
X969984Y1061225D01*
X970068Y1061427D01*
X970234Y1061568D01*
X970642Y1062361D01*
X970652Y1062480D01*
X970729Y1062571D01*
X970695Y1062990D01*
X970729Y1063409D01*
X970652Y1063500D01*
X970642Y1063619D01*
X970234Y1064412D01*
X970068Y1064553D01*
X969984Y1064755D01*
X968099Y1066640D01*
Y1069500D01*
X970120Y1071521D01*
X972980D01*
X974865Y1069636D01*
X975067Y1069552D01*
X975208Y1069386D01*
X976001Y1068978D01*
X976120Y1068968D01*
X976211Y1068891D01*
X976630Y1068925D01*
X977049Y1068891D01*
X977140Y1068968D01*
X977259Y1068978D01*
X978052Y1069386D01*
X978193Y1069552D01*
X978395Y1069636D01*
X980280Y1071521D01*
X983140D01*
X985025Y1069636D01*
X985227Y1069552D01*
X985368Y1069386D01*
X986161Y1068978D01*
X986280Y1068968D01*
X986371Y1068891D01*
X986790Y1068925D01*
X987209Y1068891D01*
X987300Y1068968D01*
X987419Y1068978D01*
X988212Y1069386D01*
X988353Y1069552D01*
X988555Y1069636D01*
X990440Y1071521D01*
X993300D01*
X995185Y1069636D01*
X995387Y1069552D01*
X995528Y1069386D01*
X996321Y1068978D01*
X996440Y1068968D01*
X996531Y1068891D01*
X996950Y1068925D01*
X997369Y1068891D01*
X997460Y1068968D01*
X997579Y1068978D01*
X998372Y1069386D01*
X998513Y1069552D01*
X998715Y1069636D01*
X1000600Y1071521D01*
X1003460D01*
X1005345Y1069636D01*
X1005547Y1069552D01*
X1005688Y1069386D01*
X1006481Y1068978D01*
X1006600Y1068968D01*
X1006691Y1068891D01*
X1007110Y1068925D01*
X1007529Y1068891D01*
X1007620Y1068968D01*
X1007739Y1068978D01*
X1008532Y1069386D01*
X1008673Y1069552D01*
X1008875Y1069636D01*
X1010760Y1071521D01*
X1013620D01*
X1015505Y1069636D01*
X1015707Y1069552D01*
X1015848Y1069386D01*
X1016641Y1068978D01*
X1016760Y1068968D01*
X1016851Y1068891D01*
X1017270Y1068925D01*
X1017689Y1068891D01*
X1017780Y1068968D01*
X1017899Y1068978D01*
X1018692Y1069386D01*
X1018833Y1069552D01*
X1019035Y1069636D01*
X1020920Y1071521D01*
X1023780D01*
X1025665Y1069636D01*
X1025867Y1069552D01*
X1026008Y1069386D01*
X1026801Y1068978D01*
X1026920Y1068968D01*
X1027011Y1068891D01*
X1027430Y1068925D01*
X1027849Y1068891D01*
X1027940Y1068968D01*
X1028059Y1068978D01*
X1028852Y1069386D01*
X1028993Y1069552D01*
X1029195Y1069636D01*
X1031080Y1071521D01*
X1033940D01*
X1035825Y1069636D01*
X1036027Y1069552D01*
X1036168Y1069386D01*
X1036961Y1068978D01*
X1037080Y1068968D01*
X1037171Y1068891D01*
X1037590Y1068925D01*
X1038009Y1068891D01*
X1038100Y1068968D01*
X1038219Y1068978D01*
X1039012Y1069386D01*
X1039153Y1069552D01*
X1039355Y1069636D01*
X1041240Y1071521D01*
X1044100D01*
X1045985Y1069636D01*
X1046187Y1069552D01*
X1046328Y1069386D01*
X1047121Y1068978D01*
X1047240Y1068968D01*
X1047331Y1068891D01*
X1047750Y1068925D01*
X1048169Y1068891D01*
X1048260Y1068968D01*
X1048379Y1068978D01*
X1049172Y1069386D01*
X1049313Y1069552D01*
X1049515Y1069636D01*
X1051400Y1071521D01*
X1054260D01*
X1056145Y1069636D01*
X1056347Y1069552D01*
X1056488Y1069386D01*
X1057281Y1068978D01*
X1057400Y1068968D01*
X1057491Y1068891D01*
X1057910Y1068925D01*
X1058329Y1068891D01*
X1058420Y1068968D01*
X1058539Y1068978D01*
X1059332Y1069386D01*
X1059473Y1069552D01*
X1059675Y1069636D01*
X1061560Y1071521D01*
X1064420D01*
X1066305Y1069636D01*
X1066507Y1069552D01*
X1066648Y1069386D01*
X1067441Y1068978D01*
X1067560Y1068968D01*
X1067651Y1068891D01*
X1068070Y1068925D01*
X1068489Y1068891D01*
X1068580Y1068968D01*
X1068699Y1068978D01*
X1069492Y1069386D01*
X1069633Y1069552D01*
X1069835Y1069636D01*
X1071720Y1071521D01*
X1074580D01*
X1076465Y1069636D01*
X1076667Y1069552D01*
X1076808Y1069386D01*
X1077601Y1068978D01*
X1077720Y1068968D01*
X1077811Y1068891D01*
X1078230Y1068925D01*
X1078649Y1068891D01*
X1078740Y1068968D01*
X1078859Y1068978D01*
X1079652Y1069386D01*
X1079793Y1069552D01*
X1079995Y1069636D01*
X1081880Y1071521D01*
X1084740D01*
X1086625Y1069636D01*
X1086827Y1069552D01*
X1086968Y1069386D01*
X1087761Y1068978D01*
X1087880Y1068968D01*
X1087971Y1068891D01*
X1088390Y1068925D01*
X1088809Y1068891D01*
X1088900Y1068968D01*
X1089019Y1068978D01*
X1089812Y1069386D01*
X1089953Y1069552D01*
X1090155Y1069636D01*
X1092040Y1071521D01*
X1094900D01*
X1096921Y1069500D01*
D02*
G37*
G36*
X837841D02*
Y1066640D01*
X835956Y1064755D01*
X835872Y1064553D01*
X835706Y1064412D01*
X835297Y1063619D01*
X835288Y1063500D01*
X835211Y1063409D01*
X835245Y1062990D01*
X835211Y1062571D01*
X835288Y1062480D01*
X835297Y1062361D01*
X835706Y1061568D01*
X835872Y1061427D01*
X835956Y1061225D01*
X837841Y1059340D01*
Y1056480D01*
X835956Y1054595D01*
X835872Y1054393D01*
X835706Y1054252D01*
X835297Y1053459D01*
X835288Y1053340D01*
X835211Y1053249D01*
X835245Y1052830D01*
X835211Y1052411D01*
X835288Y1052320D01*
X835297Y1052201D01*
X835706Y1051408D01*
X835872Y1051267D01*
X835956Y1051065D01*
X837841Y1049180D01*
Y1046320D01*
X835956Y1044435D01*
X835872Y1044233D01*
X835706Y1044092D01*
X835297Y1043299D01*
X835288Y1043180D01*
X835211Y1043089D01*
X835245Y1042670D01*
X835211Y1042251D01*
X835288Y1042160D01*
X835297Y1042041D01*
X835706Y1041248D01*
X835872Y1041107D01*
X835956Y1040905D01*
X837841Y1039020D01*
Y1036160D01*
X835956Y1034275D01*
X835872Y1034073D01*
X835706Y1033932D01*
X835297Y1033139D01*
X835288Y1033020D01*
X835211Y1032929D01*
X835245Y1032510D01*
X835211Y1032091D01*
X835288Y1032000D01*
X835297Y1031881D01*
X835706Y1031088D01*
X835872Y1030947D01*
X835956Y1030745D01*
X837841Y1028860D01*
Y1026000D01*
X835956Y1024115D01*
X835872Y1023913D01*
X835706Y1023772D01*
X835297Y1022979D01*
X835288Y1022860D01*
X835211Y1022769D01*
X835245Y1022350D01*
X835211Y1021931D01*
X835288Y1021840D01*
X835297Y1021721D01*
X835706Y1020928D01*
X835872Y1020787D01*
X835956Y1020585D01*
X837841Y1018700D01*
Y1015840D01*
X835956Y1013955D01*
X835872Y1013753D01*
X835706Y1013612D01*
X835297Y1012819D01*
X835288Y1012700D01*
X835211Y1012609D01*
X835245Y1012190D01*
X835211Y1011771D01*
X835288Y1011680D01*
X835297Y1011561D01*
X835706Y1010768D01*
X835872Y1010627D01*
X835956Y1010425D01*
X837841Y1008540D01*
Y1005680D01*
X835956Y1003795D01*
X835872Y1003593D01*
X835706Y1003452D01*
X835297Y1002659D01*
X835288Y1002540D01*
X835211Y1002449D01*
X835245Y1002030D01*
X835211Y1001611D01*
X835288Y1001520D01*
X835297Y1001401D01*
X835706Y1000608D01*
X835872Y1000467D01*
X835956Y1000265D01*
X837841Y998380D01*
Y995520D01*
X835956Y993635D01*
X835872Y993433D01*
X835706Y993292D01*
X835297Y992499D01*
X835288Y992380D01*
X835211Y992289D01*
X835245Y991870D01*
X835211Y991451D01*
X835288Y991360D01*
X835297Y991241D01*
X835706Y990448D01*
X835872Y990307D01*
X835956Y990105D01*
X837841Y988220D01*
Y985360D01*
X835956Y983475D01*
X835872Y983273D01*
X835706Y983132D01*
X835297Y982339D01*
X835288Y982220D01*
X835211Y982129D01*
X835245Y981710D01*
X835211Y981291D01*
X835288Y981200D01*
X835297Y981081D01*
X835706Y980288D01*
X835872Y980147D01*
X835956Y979945D01*
X837841Y978060D01*
Y975200D01*
X835956Y973315D01*
X835872Y973113D01*
X835706Y972972D01*
X835297Y972179D01*
X835288Y972060D01*
X835211Y971969D01*
X835245Y971550D01*
X835211Y971131D01*
X835288Y971040D01*
X835297Y970921D01*
X835706Y970128D01*
X835872Y969987D01*
X835956Y969785D01*
X837841Y967900D01*
Y965040D01*
X835956Y963155D01*
X835872Y962953D01*
X835706Y962812D01*
X835297Y962019D01*
X835288Y961900D01*
X835211Y961809D01*
X835245Y961390D01*
X835211Y960971D01*
X835288Y960880D01*
X835297Y960761D01*
X835706Y959968D01*
X835872Y959827D01*
X835956Y959625D01*
X837841Y957740D01*
Y954880D01*
X835956Y952995D01*
X835872Y952793D01*
X835706Y952652D01*
X835297Y951859D01*
X835288Y951740D01*
X835211Y951649D01*
X835245Y951230D01*
X835211Y950811D01*
X835288Y950720D01*
X835297Y950601D01*
X835706Y949808D01*
X835872Y949667D01*
X835956Y949465D01*
X837841Y947580D01*
Y944720D01*
X835956Y942835D01*
X835872Y942633D01*
X835706Y942492D01*
X835297Y941699D01*
X835288Y941580D01*
X835211Y941489D01*
X835245Y941070D01*
X835211Y940651D01*
X835288Y940560D01*
X835297Y940441D01*
X835706Y939648D01*
X835872Y939507D01*
X835956Y939305D01*
X837841Y937420D01*
Y934560D01*
X835956Y932675D01*
X835872Y932473D01*
X835706Y932332D01*
X835297Y931539D01*
X835288Y931420D01*
X835211Y931329D01*
X835245Y930910D01*
X835211Y930491D01*
X835288Y930400D01*
X835297Y930281D01*
X835706Y929488D01*
X835872Y929347D01*
X835956Y929145D01*
X837841Y927260D01*
Y924400D01*
X835956Y922515D01*
X835872Y922313D01*
X835706Y922172D01*
X835297Y921379D01*
X835288Y921260D01*
X835211Y921169D01*
X835245Y920750D01*
X835211Y920331D01*
X835288Y920240D01*
X835297Y920121D01*
X835706Y919328D01*
X835872Y919187D01*
X835956Y918985D01*
X837841Y917100D01*
Y914240D01*
X835956Y912355D01*
X835872Y912153D01*
X835706Y912012D01*
X835297Y911219D01*
X835288Y911100D01*
X835211Y911009D01*
X835245Y910590D01*
X835211Y910171D01*
X835288Y910080D01*
X835297Y909961D01*
X835706Y909168D01*
X835872Y909027D01*
X835956Y908825D01*
X837841Y906940D01*
Y904080D01*
X835820Y902059D01*
X832960D01*
X831075Y903944D01*
X830873Y904028D01*
X830732Y904194D01*
X829939Y904603D01*
X829820Y904612D01*
X829729Y904689D01*
X829310Y904655D01*
X828891Y904689D01*
X828800Y904612D01*
X828681Y904603D01*
X827888Y904194D01*
X827747Y904028D01*
X827545Y903944D01*
X825660Y902059D01*
X822800D01*
X820915Y903944D01*
X820713Y904028D01*
X820572Y904194D01*
X819779Y904603D01*
X819660Y904612D01*
X819569Y904689D01*
X819150Y904655D01*
X818731Y904689D01*
X818640Y904612D01*
X818521Y904603D01*
X817728Y904194D01*
X817587Y904028D01*
X817385Y903944D01*
X815500Y902059D01*
X812640D01*
X810755Y903944D01*
X810553Y904028D01*
X810412Y904194D01*
X809619Y904603D01*
X809500Y904612D01*
X809409Y904689D01*
X808990Y904655D01*
X808571Y904689D01*
X808480Y904612D01*
X808361Y904603D01*
X807568Y904194D01*
X807427Y904028D01*
X807225Y903944D01*
X805340Y902059D01*
X802480D01*
X800595Y903944D01*
X800393Y904028D01*
X800252Y904194D01*
X799459Y904603D01*
X799340Y904612D01*
X799249Y904689D01*
X798830Y904655D01*
X798411Y904689D01*
X798320Y904612D01*
X798201Y904603D01*
X797408Y904194D01*
X797267Y904028D01*
X797065Y903944D01*
X795180Y902059D01*
X792320D01*
X790435Y903944D01*
X790233Y904028D01*
X790092Y904194D01*
X789299Y904603D01*
X789180Y904612D01*
X789089Y904689D01*
X788670Y904655D01*
X788251Y904689D01*
X788160Y904612D01*
X788041Y904603D01*
X787248Y904194D01*
X787107Y904028D01*
X786905Y903944D01*
X785020Y902059D01*
X782160D01*
X780275Y903944D01*
X780073Y904028D01*
X779932Y904194D01*
X779139Y904603D01*
X779020Y904612D01*
X778929Y904689D01*
X778510Y904655D01*
X778091Y904689D01*
X778000Y904612D01*
X777881Y904603D01*
X777088Y904194D01*
X776947Y904028D01*
X776745Y903944D01*
X774860Y902059D01*
X772000D01*
X770115Y903944D01*
X769913Y904028D01*
X769772Y904194D01*
X768979Y904603D01*
X768860Y904612D01*
X768769Y904689D01*
X768350Y904655D01*
X767931Y904689D01*
X767840Y904612D01*
X767721Y904603D01*
X766928Y904194D01*
X766787Y904028D01*
X766585Y903944D01*
X764700Y902059D01*
X761840D01*
X759955Y903944D01*
X759753Y904028D01*
X759612Y904194D01*
X758819Y904603D01*
X758700Y904612D01*
X758609Y904689D01*
X758190Y904655D01*
X757771Y904689D01*
X757680Y904612D01*
X757561Y904603D01*
X756768Y904194D01*
X756627Y904028D01*
X756425Y903944D01*
X754540Y902059D01*
X751680D01*
X749795Y903944D01*
X749593Y904028D01*
X749452Y904194D01*
X748659Y904603D01*
X748540Y904612D01*
X748449Y904689D01*
X748030Y904655D01*
X747611Y904689D01*
X747520Y904612D01*
X747401Y904603D01*
X746608Y904194D01*
X746467Y904028D01*
X746265Y903944D01*
X744380Y902059D01*
X741520D01*
X739635Y903944D01*
X739433Y904028D01*
X739292Y904194D01*
X738499Y904603D01*
X738380Y904612D01*
X738289Y904689D01*
X737870Y904655D01*
X737451Y904689D01*
X737360Y904612D01*
X737241Y904603D01*
X736448Y904194D01*
X736307Y904028D01*
X736105Y903944D01*
X734220Y902059D01*
X731360D01*
X729475Y903944D01*
X729273Y904028D01*
X729132Y904194D01*
X728339Y904603D01*
X728220Y904612D01*
X728129Y904689D01*
X727710Y904655D01*
X727291Y904689D01*
X727200Y904612D01*
X727081Y904603D01*
X726288Y904194D01*
X726147Y904028D01*
X725945Y903944D01*
X724060Y902059D01*
X721200D01*
X719315Y903944D01*
X719113Y904028D01*
X718972Y904194D01*
X718179Y904603D01*
X718060Y904612D01*
X717969Y904689D01*
X717550Y904655D01*
X717131Y904689D01*
X717040Y904612D01*
X716921Y904603D01*
X716128Y904194D01*
X715987Y904028D01*
X715785Y903944D01*
X713900Y902059D01*
X711040D01*
X709019Y904080D01*
Y906940D01*
X710904Y908825D01*
X710988Y909027D01*
X711154Y909168D01*
X711562Y909961D01*
X711572Y910080D01*
X711649Y910171D01*
X711615Y910590D01*
X711649Y911009D01*
X711572Y911100D01*
X711562Y911219D01*
X711154Y912012D01*
X710988Y912153D01*
X710904Y912355D01*
X709019Y914240D01*
Y917100D01*
X710904Y918985D01*
X710988Y919187D01*
X711154Y919328D01*
X711562Y920121D01*
X711572Y920240D01*
X711649Y920331D01*
X711615Y920750D01*
X711649Y921169D01*
X711572Y921260D01*
X711562Y921379D01*
X711154Y922172D01*
X710988Y922313D01*
X710904Y922515D01*
X709019Y924400D01*
Y927260D01*
X710904Y929145D01*
X710988Y929347D01*
X711154Y929488D01*
X711562Y930281D01*
X711572Y930400D01*
X711649Y930491D01*
X711615Y930910D01*
X711649Y931329D01*
X711572Y931420D01*
X711562Y931539D01*
X711154Y932332D01*
X710988Y932473D01*
X710904Y932675D01*
X709019Y934560D01*
Y937420D01*
X710904Y939305D01*
X710988Y939507D01*
X711154Y939648D01*
X711562Y940441D01*
X711572Y940560D01*
X711649Y940651D01*
X711615Y941070D01*
X711649Y941489D01*
X711572Y941580D01*
X711562Y941699D01*
X711154Y942492D01*
X710988Y942633D01*
X710904Y942835D01*
X709019Y944720D01*
Y947580D01*
X710904Y949465D01*
X710988Y949667D01*
X711154Y949808D01*
X711562Y950601D01*
X711572Y950720D01*
X711649Y950811D01*
X711615Y951230D01*
X711649Y951649D01*
X711572Y951740D01*
X711562Y951859D01*
X711154Y952652D01*
X710988Y952793D01*
X710904Y952995D01*
X709019Y954880D01*
Y957740D01*
X710904Y959625D01*
X710988Y959827D01*
X711154Y959968D01*
X711562Y960761D01*
X711572Y960880D01*
X711649Y960971D01*
X711615Y961390D01*
X711649Y961809D01*
X711572Y961900D01*
X711562Y962019D01*
X711154Y962812D01*
X710988Y962953D01*
X710904Y963155D01*
X709019Y965040D01*
Y967900D01*
X710904Y969785D01*
X710988Y969987D01*
X711154Y970128D01*
X711562Y970921D01*
X711572Y971040D01*
X711649Y971131D01*
X711615Y971550D01*
X711649Y971969D01*
X711572Y972060D01*
X711562Y972179D01*
X711154Y972972D01*
X710988Y973113D01*
X710904Y973315D01*
X709019Y975200D01*
Y978060D01*
X710904Y979945D01*
X710988Y980147D01*
X711154Y980288D01*
X711562Y981081D01*
X711572Y981200D01*
X711649Y981291D01*
X711615Y981710D01*
X711649Y982129D01*
X711572Y982220D01*
X711562Y982339D01*
X711154Y983132D01*
X710988Y983273D01*
X710904Y983475D01*
X709019Y985360D01*
Y988220D01*
X710904Y990105D01*
X710988Y990307D01*
X711154Y990448D01*
X711562Y991241D01*
X711572Y991360D01*
X711649Y991451D01*
X711615Y991870D01*
X711649Y992289D01*
X711572Y992380D01*
X711562Y992499D01*
X711154Y993292D01*
X710988Y993433D01*
X710904Y993635D01*
X709019Y995520D01*
Y998380D01*
X710904Y1000265D01*
X710988Y1000467D01*
X711154Y1000608D01*
X711562Y1001401D01*
X711572Y1001520D01*
X711649Y1001611D01*
X711615Y1002030D01*
X711649Y1002449D01*
X711572Y1002540D01*
X711562Y1002659D01*
X711154Y1003452D01*
X710988Y1003593D01*
X710904Y1003795D01*
X709019Y1005680D01*
Y1008540D01*
X710904Y1010425D01*
X710988Y1010627D01*
X711154Y1010768D01*
X711562Y1011561D01*
X711572Y1011680D01*
X711649Y1011771D01*
X711615Y1012190D01*
X711649Y1012609D01*
X711572Y1012700D01*
X711562Y1012819D01*
X711154Y1013612D01*
X710988Y1013753D01*
X710904Y1013955D01*
X709019Y1015840D01*
Y1018700D01*
X710904Y1020585D01*
X710988Y1020787D01*
X711154Y1020928D01*
X711562Y1021721D01*
X711572Y1021840D01*
X711649Y1021931D01*
X711615Y1022350D01*
X711649Y1022769D01*
X711572Y1022860D01*
X711562Y1022979D01*
X711154Y1023772D01*
X710988Y1023913D01*
X710904Y1024115D01*
X709019Y1026000D01*
Y1028860D01*
X710904Y1030745D01*
X710988Y1030947D01*
X711154Y1031088D01*
X711562Y1031881D01*
X711572Y1032000D01*
X711649Y1032091D01*
X711615Y1032510D01*
X711649Y1032929D01*
X711572Y1033020D01*
X711562Y1033139D01*
X711154Y1033932D01*
X710988Y1034073D01*
X710904Y1034275D01*
X709019Y1036160D01*
Y1039020D01*
X710904Y1040905D01*
X710988Y1041107D01*
X711154Y1041248D01*
X711562Y1042041D01*
X711572Y1042160D01*
X711649Y1042251D01*
X711615Y1042670D01*
X711649Y1043089D01*
X711572Y1043180D01*
X711562Y1043299D01*
X711154Y1044092D01*
X710988Y1044233D01*
X710904Y1044435D01*
X709019Y1046320D01*
Y1049180D01*
X710904Y1051065D01*
X710988Y1051267D01*
X711154Y1051408D01*
X711562Y1052201D01*
X711572Y1052320D01*
X711649Y1052411D01*
X711615Y1052830D01*
X711649Y1053249D01*
X711572Y1053340D01*
X711562Y1053459D01*
X711154Y1054252D01*
X710988Y1054393D01*
X710904Y1054595D01*
X709019Y1056480D01*
Y1059340D01*
X710904Y1061225D01*
X710988Y1061427D01*
X711154Y1061568D01*
X711562Y1062361D01*
X711572Y1062480D01*
X711649Y1062571D01*
X711615Y1062990D01*
X711649Y1063409D01*
X711572Y1063500D01*
X711562Y1063619D01*
X711154Y1064412D01*
X710988Y1064553D01*
X710904Y1064755D01*
X709019Y1066640D01*
Y1069500D01*
X711040Y1071521D01*
X713900D01*
X715785Y1069636D01*
X715987Y1069552D01*
X716128Y1069386D01*
X716921Y1068978D01*
X717040Y1068968D01*
X717131Y1068891D01*
X717550Y1068925D01*
X717969Y1068891D01*
X718060Y1068968D01*
X718179Y1068978D01*
X718972Y1069386D01*
X719113Y1069552D01*
X719315Y1069636D01*
X721200Y1071521D01*
X724060D01*
X725945Y1069636D01*
X726147Y1069552D01*
X726288Y1069386D01*
X727081Y1068978D01*
X727200Y1068968D01*
X727291Y1068891D01*
X727710Y1068925D01*
X728129Y1068891D01*
X728220Y1068968D01*
X728339Y1068978D01*
X729132Y1069386D01*
X729273Y1069552D01*
X729475Y1069636D01*
X731360Y1071521D01*
X734220D01*
X736105Y1069636D01*
X736307Y1069552D01*
X736448Y1069386D01*
X737241Y1068978D01*
X737360Y1068968D01*
X737451Y1068891D01*
X737870Y1068925D01*
X738289Y1068891D01*
X738380Y1068968D01*
X738499Y1068978D01*
X739292Y1069386D01*
X739433Y1069552D01*
X739635Y1069636D01*
X741520Y1071521D01*
X744380D01*
X746265Y1069636D01*
X746467Y1069552D01*
X746608Y1069386D01*
X747401Y1068978D01*
X747520Y1068968D01*
X747611Y1068891D01*
X748030Y1068925D01*
X748449Y1068891D01*
X748540Y1068968D01*
X748659Y1068978D01*
X749452Y1069386D01*
X749593Y1069552D01*
X749795Y1069636D01*
X751680Y1071521D01*
X754540D01*
X756425Y1069636D01*
X756627Y1069552D01*
X756768Y1069386D01*
X757561Y1068978D01*
X757680Y1068968D01*
X757771Y1068891D01*
X758190Y1068925D01*
X758609Y1068891D01*
X758700Y1068968D01*
X758819Y1068978D01*
X759612Y1069386D01*
X759753Y1069552D01*
X759955Y1069636D01*
X761840Y1071521D01*
X764700D01*
X766585Y1069636D01*
X766787Y1069552D01*
X766928Y1069386D01*
X767721Y1068978D01*
X767840Y1068968D01*
X767931Y1068891D01*
X768350Y1068925D01*
X768769Y1068891D01*
X768860Y1068968D01*
X768979Y1068978D01*
X769772Y1069386D01*
X769913Y1069552D01*
X770115Y1069636D01*
X772000Y1071521D01*
X774860D01*
X776745Y1069636D01*
X776947Y1069552D01*
X777088Y1069386D01*
X777881Y1068978D01*
X778000Y1068968D01*
X778091Y1068891D01*
X778510Y1068925D01*
X778929Y1068891D01*
X779020Y1068968D01*
X779139Y1068978D01*
X779932Y1069386D01*
X780073Y1069552D01*
X780275Y1069636D01*
X782160Y1071521D01*
X785020D01*
X786905Y1069636D01*
X787107Y1069552D01*
X787248Y1069386D01*
X788041Y1068978D01*
X788160Y1068968D01*
X788251Y1068891D01*
X788670Y1068925D01*
X789089Y1068891D01*
X789180Y1068968D01*
X789299Y1068978D01*
X790092Y1069386D01*
X790233Y1069552D01*
X790435Y1069636D01*
X792320Y1071521D01*
X795180D01*
X797065Y1069636D01*
X797267Y1069552D01*
X797408Y1069386D01*
X798201Y1068978D01*
X798320Y1068968D01*
X798411Y1068891D01*
X798830Y1068925D01*
X799249Y1068891D01*
X799340Y1068968D01*
X799459Y1068978D01*
X800252Y1069386D01*
X800393Y1069552D01*
X800595Y1069636D01*
X802480Y1071521D01*
X805340D01*
X807225Y1069636D01*
X807427Y1069552D01*
X807568Y1069386D01*
X808361Y1068978D01*
X808480Y1068968D01*
X808571Y1068891D01*
X808990Y1068925D01*
X809409Y1068891D01*
X809500Y1068968D01*
X809619Y1068978D01*
X810412Y1069386D01*
X810553Y1069552D01*
X810755Y1069636D01*
X812640Y1071521D01*
X815500D01*
X817385Y1069636D01*
X817587Y1069552D01*
X817728Y1069386D01*
X818521Y1068978D01*
X818640Y1068968D01*
X818731Y1068891D01*
X819150Y1068925D01*
X819569Y1068891D01*
X819660Y1068968D01*
X819779Y1068978D01*
X820572Y1069386D01*
X820713Y1069552D01*
X820915Y1069636D01*
X822800Y1071521D01*
X825660D01*
X827545Y1069636D01*
X827747Y1069552D01*
X827888Y1069386D01*
X828681Y1068978D01*
X828800Y1068968D01*
X828891Y1068891D01*
X829310Y1068925D01*
X829729Y1068891D01*
X829820Y1068968D01*
X829939Y1068978D01*
X830732Y1069386D01*
X830873Y1069552D01*
X831075Y1069636D01*
X832960Y1071521D01*
X835820D01*
X837841Y1069500D01*
D02*
G37*
G36*
X695601D02*
Y1066640D01*
X693716Y1064755D01*
X693632Y1064553D01*
X693466Y1064412D01*
X693057Y1063619D01*
X693048Y1063500D01*
X692971Y1063409D01*
X693005Y1062990D01*
X692971Y1062571D01*
X693048Y1062480D01*
X693057Y1062361D01*
X693466Y1061568D01*
X693632Y1061427D01*
X693716Y1061225D01*
X695601Y1059340D01*
Y1056480D01*
X693716Y1054595D01*
X693632Y1054393D01*
X693466Y1054252D01*
X693057Y1053459D01*
X693048Y1053340D01*
X692971Y1053249D01*
X693005Y1052830D01*
X692971Y1052411D01*
X693048Y1052320D01*
X693057Y1052201D01*
X693466Y1051408D01*
X693632Y1051267D01*
X693716Y1051065D01*
X695601Y1049180D01*
Y1046320D01*
X693716Y1044435D01*
X693632Y1044233D01*
X693466Y1044092D01*
X693057Y1043299D01*
X693048Y1043180D01*
X692971Y1043089D01*
X693005Y1042670D01*
X692971Y1042251D01*
X693048Y1042160D01*
X693057Y1042041D01*
X693466Y1041248D01*
X693632Y1041107D01*
X693716Y1040905D01*
X695601Y1039020D01*
Y1036160D01*
X693716Y1034275D01*
X693632Y1034073D01*
X693466Y1033932D01*
X693057Y1033139D01*
X693048Y1033020D01*
X692971Y1032929D01*
X693005Y1032510D01*
X692971Y1032091D01*
X693048Y1032000D01*
X693057Y1031881D01*
X693466Y1031088D01*
X693632Y1030947D01*
X693716Y1030745D01*
X695601Y1028860D01*
Y1026000D01*
X693716Y1024115D01*
X693632Y1023913D01*
X693466Y1023772D01*
X693057Y1022979D01*
X693048Y1022860D01*
X692971Y1022769D01*
X693005Y1022350D01*
X692971Y1021931D01*
X693048Y1021840D01*
X693057Y1021721D01*
X693466Y1020928D01*
X693632Y1020787D01*
X693716Y1020585D01*
X695601Y1018700D01*
Y1015840D01*
X693716Y1013955D01*
X693632Y1013753D01*
X693466Y1013612D01*
X693057Y1012819D01*
X693048Y1012700D01*
X692971Y1012609D01*
X693005Y1012190D01*
X692971Y1011771D01*
X693048Y1011680D01*
X693057Y1011561D01*
X693466Y1010768D01*
X693632Y1010627D01*
X693716Y1010425D01*
X695601Y1008540D01*
Y1005680D01*
X693716Y1003795D01*
X693632Y1003593D01*
X693466Y1003452D01*
X693057Y1002659D01*
X693048Y1002540D01*
X692971Y1002449D01*
X693005Y1002030D01*
X692971Y1001611D01*
X693048Y1001520D01*
X693057Y1001401D01*
X693466Y1000608D01*
X693632Y1000467D01*
X693716Y1000265D01*
X695601Y998380D01*
Y995520D01*
X693716Y993635D01*
X693632Y993433D01*
X693466Y993292D01*
X693057Y992499D01*
X693048Y992380D01*
X692971Y992289D01*
X693005Y991870D01*
X692971Y991451D01*
X693048Y991360D01*
X693057Y991241D01*
X693466Y990448D01*
X693632Y990307D01*
X693716Y990105D01*
X695601Y988220D01*
Y985360D01*
X693716Y983475D01*
X693632Y983273D01*
X693466Y983132D01*
X693057Y982339D01*
X693048Y982220D01*
X692971Y982129D01*
X693005Y981710D01*
X692971Y981291D01*
X693048Y981200D01*
X693057Y981081D01*
X693466Y980288D01*
X693632Y980147D01*
X693716Y979945D01*
X695601Y978060D01*
Y975200D01*
X693716Y973315D01*
X693632Y973113D01*
X693466Y972972D01*
X693057Y972179D01*
X693048Y972060D01*
X692971Y971969D01*
X693005Y971550D01*
X692971Y971131D01*
X693048Y971040D01*
X693057Y970921D01*
X693466Y970128D01*
X693632Y969987D01*
X693716Y969785D01*
X695601Y967900D01*
Y965040D01*
X693716Y963155D01*
X693632Y962953D01*
X693466Y962812D01*
X693057Y962019D01*
X693048Y961900D01*
X692971Y961809D01*
X693005Y961390D01*
X692971Y960971D01*
X693048Y960880D01*
X693057Y960761D01*
X693466Y959968D01*
X693632Y959827D01*
X693716Y959625D01*
X695601Y957740D01*
Y954880D01*
X693716Y952995D01*
X693632Y952793D01*
X693466Y952652D01*
X693057Y951859D01*
X693048Y951740D01*
X692971Y951649D01*
X693005Y951230D01*
X692971Y950811D01*
X693048Y950720D01*
X693057Y950601D01*
X693466Y949808D01*
X693632Y949667D01*
X693716Y949465D01*
X695601Y947580D01*
Y944720D01*
X693716Y942835D01*
X693632Y942633D01*
X693466Y942492D01*
X693057Y941699D01*
X693048Y941580D01*
X692971Y941489D01*
X693005Y941070D01*
X692971Y940651D01*
X693048Y940560D01*
X693057Y940441D01*
X693466Y939648D01*
X693632Y939507D01*
X693716Y939305D01*
X695601Y937420D01*
Y934560D01*
X693716Y932675D01*
X693632Y932473D01*
X693466Y932332D01*
X693057Y931539D01*
X693048Y931420D01*
X692971Y931329D01*
X693005Y930910D01*
X692971Y930491D01*
X693048Y930400D01*
X693057Y930281D01*
X693466Y929488D01*
X693632Y929347D01*
X693716Y929145D01*
X695601Y927260D01*
Y924400D01*
X693716Y922515D01*
X693632Y922313D01*
X693466Y922172D01*
X693057Y921379D01*
X693048Y921260D01*
X692971Y921169D01*
X693005Y920750D01*
X692971Y920331D01*
X693048Y920240D01*
X693057Y920121D01*
X693466Y919328D01*
X693632Y919187D01*
X693716Y918985D01*
X695601Y917100D01*
Y914240D01*
X693716Y912355D01*
X693632Y912153D01*
X693466Y912012D01*
X693057Y911219D01*
X693048Y911100D01*
X692971Y911009D01*
X693005Y910590D01*
X692971Y910171D01*
X693048Y910080D01*
X693057Y909961D01*
X693466Y909168D01*
X693632Y909027D01*
X693716Y908825D01*
X695601Y906940D01*
Y904080D01*
X693580Y902059D01*
X690720D01*
X688835Y903944D01*
X688633Y904028D01*
X688492Y904194D01*
X687699Y904603D01*
X687580Y904612D01*
X687489Y904689D01*
X687070Y904655D01*
X686651Y904689D01*
X686560Y904612D01*
X686441Y904603D01*
X685648Y904194D01*
X685507Y904028D01*
X685305Y903944D01*
X683420Y902059D01*
X680560D01*
X678675Y903944D01*
X678473Y904028D01*
X678332Y904194D01*
X677539Y904603D01*
X677420Y904612D01*
X677329Y904689D01*
X676910Y904655D01*
X676491Y904689D01*
X676400Y904612D01*
X676281Y904603D01*
X675488Y904194D01*
X675347Y904028D01*
X675145Y903944D01*
X673260Y902059D01*
X670400D01*
X668515Y903944D01*
X668313Y904028D01*
X668172Y904194D01*
X667379Y904603D01*
X667260Y904612D01*
X667169Y904689D01*
X666750Y904655D01*
X666331Y904689D01*
X666240Y904612D01*
X666121Y904603D01*
X665328Y904194D01*
X665187Y904028D01*
X664985Y903944D01*
X663100Y902059D01*
X660240D01*
X658355Y903944D01*
X658153Y904028D01*
X658012Y904194D01*
X657219Y904603D01*
X657100Y904612D01*
X657009Y904689D01*
X656590Y904655D01*
X656171Y904689D01*
X656080Y904612D01*
X655961Y904603D01*
X655168Y904194D01*
X655027Y904028D01*
X654825Y903944D01*
X652940Y902059D01*
X650080D01*
X648195Y903944D01*
X647993Y904028D01*
X647852Y904194D01*
X647059Y904603D01*
X646940Y904612D01*
X646849Y904689D01*
X646430Y904655D01*
X646011Y904689D01*
X645920Y904612D01*
X645801Y904603D01*
X645008Y904194D01*
X644867Y904028D01*
X644665Y903944D01*
X642780Y902059D01*
X639920D01*
X638035Y903944D01*
X637833Y904028D01*
X637692Y904194D01*
X636899Y904603D01*
X636780Y904612D01*
X636689Y904689D01*
X636270Y904655D01*
X635851Y904689D01*
X635760Y904612D01*
X635641Y904603D01*
X634848Y904194D01*
X634707Y904028D01*
X634505Y903944D01*
X632620Y902059D01*
X629760D01*
X627875Y903944D01*
X627673Y904028D01*
X627532Y904194D01*
X626739Y904603D01*
X626620Y904612D01*
X626529Y904689D01*
X626110Y904655D01*
X625691Y904689D01*
X625600Y904612D01*
X625481Y904603D01*
X624688Y904194D01*
X624547Y904028D01*
X624345Y903944D01*
X622460Y902059D01*
X619600D01*
X617715Y903944D01*
X617513Y904028D01*
X617372Y904194D01*
X616579Y904603D01*
X616460Y904612D01*
X616369Y904689D01*
X615950Y904655D01*
X615531Y904689D01*
X615440Y904612D01*
X615321Y904603D01*
X614528Y904194D01*
X614387Y904028D01*
X614185Y903944D01*
X612300Y902059D01*
X609440D01*
X607555Y903944D01*
X607353Y904028D01*
X607212Y904194D01*
X606419Y904603D01*
X606300Y904612D01*
X606209Y904689D01*
X605790Y904655D01*
X605371Y904689D01*
X605280Y904612D01*
X605161Y904603D01*
X604368Y904194D01*
X604227Y904028D01*
X604025Y903944D01*
X602140Y902059D01*
X599280D01*
X597395Y903944D01*
X597193Y904028D01*
X597052Y904194D01*
X596259Y904603D01*
X596140Y904612D01*
X596049Y904689D01*
X595630Y904655D01*
X595211Y904689D01*
X595120Y904612D01*
X595001Y904603D01*
X594208Y904194D01*
X594067Y904028D01*
X593865Y903944D01*
X591980Y902059D01*
X589120D01*
X587235Y903944D01*
X587033Y904028D01*
X586892Y904194D01*
X586099Y904603D01*
X585980Y904612D01*
X585889Y904689D01*
X585470Y904655D01*
X585051Y904689D01*
X584960Y904612D01*
X584841Y904603D01*
X584048Y904194D01*
X583907Y904028D01*
X583705Y903944D01*
X581820Y902059D01*
X578960D01*
X577075Y903944D01*
X576873Y904028D01*
X576732Y904194D01*
X575939Y904603D01*
X575820Y904612D01*
X575729Y904689D01*
X575310Y904655D01*
X574891Y904689D01*
X574800Y904612D01*
X574681Y904603D01*
X573888Y904194D01*
X573747Y904028D01*
X573545Y903944D01*
X571660Y902059D01*
X568800D01*
X566779Y904080D01*
Y906940D01*
X568664Y908825D01*
X568748Y909027D01*
X568914Y909168D01*
X569323Y909961D01*
X569332Y910080D01*
X569409Y910171D01*
X569375Y910590D01*
X569409Y911009D01*
X569332Y911100D01*
X569323Y911219D01*
X568914Y912012D01*
X568748Y912153D01*
X568664Y912355D01*
X566779Y914240D01*
Y917100D01*
X568664Y918985D01*
X568748Y919187D01*
X568914Y919328D01*
X569323Y920121D01*
X569332Y920240D01*
X569409Y920331D01*
X569375Y920750D01*
X569409Y921169D01*
X569332Y921260D01*
X569323Y921379D01*
X568914Y922172D01*
X568748Y922313D01*
X568664Y922515D01*
X566779Y924400D01*
Y927260D01*
X568664Y929145D01*
X568748Y929347D01*
X568914Y929488D01*
X569323Y930281D01*
X569332Y930400D01*
X569409Y930491D01*
X569375Y930910D01*
X569409Y931329D01*
X569332Y931420D01*
X569323Y931539D01*
X568914Y932332D01*
X568748Y932473D01*
X568664Y932675D01*
X566779Y934560D01*
Y937420D01*
X568664Y939305D01*
X568748Y939507D01*
X568914Y939648D01*
X569323Y940441D01*
X569332Y940560D01*
X569409Y940651D01*
X569375Y941070D01*
X569409Y941489D01*
X569332Y941580D01*
X569323Y941699D01*
X568914Y942492D01*
X568748Y942633D01*
X568664Y942835D01*
X566779Y944720D01*
Y947580D01*
X568664Y949465D01*
X568748Y949667D01*
X568914Y949808D01*
X569323Y950601D01*
X569332Y950720D01*
X569409Y950811D01*
X569375Y951230D01*
X569409Y951649D01*
X569332Y951740D01*
X569323Y951859D01*
X568914Y952652D01*
X568748Y952793D01*
X568664Y952995D01*
X566779Y954880D01*
Y957740D01*
X568664Y959625D01*
X568748Y959827D01*
X568914Y959968D01*
X569323Y960761D01*
X569332Y960880D01*
X569409Y960971D01*
X569375Y961390D01*
X569409Y961809D01*
X569332Y961900D01*
X569323Y962019D01*
X568914Y962812D01*
X568748Y962953D01*
X568664Y963155D01*
X566779Y965040D01*
Y967900D01*
X568664Y969785D01*
X568748Y969987D01*
X568914Y970128D01*
X569323Y970921D01*
X569332Y971040D01*
X569409Y971131D01*
X569375Y971550D01*
X569409Y971969D01*
X569332Y972060D01*
X569323Y972179D01*
X568914Y972972D01*
X568748Y973113D01*
X568664Y973315D01*
X566779Y975200D01*
Y978060D01*
X568664Y979945D01*
X568748Y980147D01*
X568914Y980288D01*
X569323Y981081D01*
X569332Y981200D01*
X569409Y981291D01*
X569375Y981710D01*
X569409Y982129D01*
X569332Y982220D01*
X569323Y982339D01*
X568914Y983132D01*
X568748Y983273D01*
X568664Y983475D01*
X566779Y985360D01*
Y988220D01*
X568664Y990105D01*
X568748Y990307D01*
X568914Y990448D01*
X569323Y991241D01*
X569332Y991360D01*
X569409Y991451D01*
X569375Y991870D01*
X569409Y992289D01*
X569332Y992380D01*
X569323Y992499D01*
X568914Y993292D01*
X568748Y993433D01*
X568664Y993635D01*
X566779Y995520D01*
Y998380D01*
X568664Y1000265D01*
X568748Y1000467D01*
X568914Y1000608D01*
X569323Y1001401D01*
X569332Y1001520D01*
X569409Y1001611D01*
X569375Y1002030D01*
X569409Y1002449D01*
X569332Y1002540D01*
X569323Y1002659D01*
X568914Y1003452D01*
X568748Y1003593D01*
X568664Y1003795D01*
X566779Y1005680D01*
Y1008540D01*
X568664Y1010425D01*
X568748Y1010627D01*
X568914Y1010768D01*
X569323Y1011561D01*
X569332Y1011680D01*
X569409Y1011771D01*
X569375Y1012190D01*
X569409Y1012609D01*
X569332Y1012700D01*
X569323Y1012819D01*
X568914Y1013612D01*
X568748Y1013753D01*
X568664Y1013955D01*
X566779Y1015840D01*
Y1018700D01*
X568664Y1020585D01*
X568748Y1020787D01*
X568914Y1020928D01*
X569323Y1021721D01*
X569332Y1021840D01*
X569409Y1021931D01*
X569375Y1022350D01*
X569409Y1022769D01*
X569332Y1022860D01*
X569323Y1022979D01*
X568914Y1023772D01*
X568748Y1023913D01*
X568664Y1024115D01*
X566779Y1026000D01*
Y1028860D01*
X568664Y1030745D01*
X568748Y1030947D01*
X568914Y1031088D01*
X569323Y1031881D01*
X569332Y1032000D01*
X569409Y1032091D01*
X569375Y1032510D01*
X569409Y1032929D01*
X569332Y1033020D01*
X569323Y1033139D01*
X568914Y1033932D01*
X568748Y1034073D01*
X568664Y1034275D01*
X566779Y1036160D01*
Y1039020D01*
X568664Y1040905D01*
X568748Y1041107D01*
X568914Y1041248D01*
X569323Y1042041D01*
X569332Y1042160D01*
X569409Y1042251D01*
X569375Y1042670D01*
X569409Y1043089D01*
X569332Y1043180D01*
X569323Y1043299D01*
X568914Y1044092D01*
X568748Y1044233D01*
X568664Y1044435D01*
X566779Y1046320D01*
Y1049180D01*
X568664Y1051065D01*
X568748Y1051267D01*
X568914Y1051408D01*
X569323Y1052201D01*
X569332Y1052320D01*
X569409Y1052411D01*
X569375Y1052830D01*
X569409Y1053249D01*
X569332Y1053340D01*
X569323Y1053459D01*
X568914Y1054252D01*
X568748Y1054393D01*
X568664Y1054595D01*
X566779Y1056480D01*
Y1059340D01*
X568664Y1061225D01*
X568748Y1061427D01*
X568914Y1061568D01*
X569323Y1062361D01*
X569332Y1062480D01*
X569409Y1062571D01*
X569375Y1062990D01*
X569409Y1063409D01*
X569332Y1063500D01*
X569323Y1063619D01*
X568914Y1064412D01*
X568748Y1064553D01*
X568664Y1064755D01*
X566779Y1066640D01*
Y1069500D01*
X568800Y1071521D01*
X571660D01*
X573545Y1069636D01*
X573747Y1069552D01*
X573888Y1069386D01*
X574681Y1068978D01*
X574800Y1068968D01*
X574891Y1068891D01*
X575310Y1068925D01*
X575729Y1068891D01*
X575820Y1068968D01*
X575939Y1068978D01*
X576732Y1069386D01*
X576873Y1069552D01*
X577075Y1069636D01*
X578960Y1071521D01*
X581820D01*
X583705Y1069636D01*
X583907Y1069552D01*
X584048Y1069386D01*
X584841Y1068978D01*
X584960Y1068968D01*
X585051Y1068891D01*
X585470Y1068925D01*
X585889Y1068891D01*
X585980Y1068968D01*
X586099Y1068978D01*
X586892Y1069386D01*
X587033Y1069552D01*
X587235Y1069636D01*
X589120Y1071521D01*
X591980D01*
X593865Y1069636D01*
X594067Y1069552D01*
X594208Y1069386D01*
X595001Y1068978D01*
X595120Y1068968D01*
X595211Y1068891D01*
X595630Y1068925D01*
X596049Y1068891D01*
X596140Y1068968D01*
X596259Y1068978D01*
X597052Y1069386D01*
X597193Y1069552D01*
X597395Y1069636D01*
X599280Y1071521D01*
X602140D01*
X604025Y1069636D01*
X604227Y1069552D01*
X604368Y1069386D01*
X605161Y1068978D01*
X605280Y1068968D01*
X605371Y1068891D01*
X605790Y1068925D01*
X606209Y1068891D01*
X606300Y1068968D01*
X606419Y1068978D01*
X607212Y1069386D01*
X607353Y1069552D01*
X607555Y1069636D01*
X609440Y1071521D01*
X612300D01*
X614185Y1069636D01*
X614387Y1069552D01*
X614528Y1069386D01*
X615321Y1068978D01*
X615440Y1068968D01*
X615531Y1068891D01*
X615950Y1068925D01*
X616369Y1068891D01*
X616460Y1068968D01*
X616579Y1068978D01*
X617372Y1069386D01*
X617513Y1069552D01*
X617715Y1069636D01*
X619600Y1071521D01*
X622460D01*
X624345Y1069636D01*
X624547Y1069552D01*
X624688Y1069386D01*
X625481Y1068978D01*
X625600Y1068968D01*
X625691Y1068891D01*
X626110Y1068925D01*
X626529Y1068891D01*
X626620Y1068968D01*
X626739Y1068978D01*
X627532Y1069386D01*
X627673Y1069552D01*
X627875Y1069636D01*
X629760Y1071521D01*
X632620D01*
X634505Y1069636D01*
X634707Y1069552D01*
X634848Y1069386D01*
X635641Y1068978D01*
X635760Y1068968D01*
X635851Y1068891D01*
X636270Y1068925D01*
X636689Y1068891D01*
X636780Y1068968D01*
X636899Y1068978D01*
X637692Y1069386D01*
X637833Y1069552D01*
X638035Y1069636D01*
X639920Y1071521D01*
X642780D01*
X644665Y1069636D01*
X644867Y1069552D01*
X645008Y1069386D01*
X645801Y1068978D01*
X645920Y1068968D01*
X646011Y1068891D01*
X646430Y1068925D01*
X646849Y1068891D01*
X646940Y1068968D01*
X647059Y1068978D01*
X647852Y1069386D01*
X647993Y1069552D01*
X648195Y1069636D01*
X650080Y1071521D01*
X652940D01*
X654825Y1069636D01*
X655027Y1069552D01*
X655168Y1069386D01*
X655961Y1068978D01*
X656080Y1068968D01*
X656171Y1068891D01*
X656590Y1068925D01*
X657009Y1068891D01*
X657100Y1068968D01*
X657219Y1068978D01*
X658012Y1069386D01*
X658153Y1069552D01*
X658355Y1069636D01*
X660240Y1071521D01*
X663100D01*
X664985Y1069636D01*
X665187Y1069552D01*
X665328Y1069386D01*
X666121Y1068978D01*
X666240Y1068968D01*
X666331Y1068891D01*
X666750Y1068925D01*
X667169Y1068891D01*
X667260Y1068968D01*
X667379Y1068978D01*
X668172Y1069386D01*
X668313Y1069552D01*
X668515Y1069636D01*
X670400Y1071521D01*
X673260D01*
X675145Y1069636D01*
X675347Y1069552D01*
X675488Y1069386D01*
X676281Y1068978D01*
X676400Y1068968D01*
X676491Y1068891D01*
X676910Y1068925D01*
X677329Y1068891D01*
X677420Y1068968D01*
X677539Y1068978D01*
X678332Y1069386D01*
X678473Y1069552D01*
X678675Y1069636D01*
X680560Y1071521D01*
X683420D01*
X685305Y1069636D01*
X685507Y1069552D01*
X685648Y1069386D01*
X686441Y1068978D01*
X686560Y1068968D01*
X686651Y1068891D01*
X687070Y1068925D01*
X687489Y1068891D01*
X687580Y1068968D01*
X687699Y1068978D01*
X688492Y1069386D01*
X688633Y1069552D01*
X688835Y1069636D01*
X690720Y1071521D01*
X693580D01*
X695601Y1069500D01*
D02*
G37*
G36*
X1239161Y1069433D02*
Y1066574D01*
X1237276Y1064689D01*
X1237192Y1064487D01*
X1237026Y1064346D01*
X1236618Y1063553D01*
X1236608Y1063434D01*
X1236531Y1063343D01*
X1236565Y1062924D01*
X1236531Y1062504D01*
X1236608Y1062413D01*
X1236618Y1062295D01*
X1237026Y1061502D01*
X1237192Y1061361D01*
X1237276Y1061159D01*
X1239161Y1059273D01*
Y1056414D01*
X1237276Y1054529D01*
X1237192Y1054327D01*
X1237026Y1054186D01*
X1236618Y1053393D01*
X1236608Y1053274D01*
X1236531Y1053183D01*
X1236565Y1052764D01*
X1236531Y1052344D01*
X1236608Y1052253D01*
X1236618Y1052135D01*
X1237026Y1051342D01*
X1237192Y1051201D01*
X1237276Y1050999D01*
X1239161Y1049113D01*
Y1046254D01*
X1237276Y1044369D01*
X1237192Y1044167D01*
X1237026Y1044026D01*
X1236618Y1043233D01*
X1236608Y1043114D01*
X1236531Y1043023D01*
X1236565Y1042604D01*
X1236531Y1042184D01*
X1236608Y1042094D01*
X1236618Y1041975D01*
X1237026Y1041182D01*
X1237192Y1041041D01*
X1237276Y1040839D01*
X1239161Y1038953D01*
Y1036094D01*
X1237276Y1034209D01*
X1237192Y1034007D01*
X1237026Y1033866D01*
X1236618Y1033073D01*
X1236608Y1032954D01*
X1236531Y1032863D01*
X1236565Y1032444D01*
X1236531Y1032024D01*
X1236608Y1031934D01*
X1236618Y1031815D01*
X1237026Y1031022D01*
X1237192Y1030881D01*
X1237276Y1030679D01*
X1239161Y1028793D01*
Y1025934D01*
X1237276Y1024049D01*
X1237192Y1023847D01*
X1237026Y1023706D01*
X1236618Y1022913D01*
X1236608Y1022794D01*
X1236531Y1022703D01*
X1236565Y1022284D01*
X1236531Y1021864D01*
X1236608Y1021774D01*
X1236618Y1021655D01*
X1237026Y1020862D01*
X1237192Y1020721D01*
X1237276Y1020519D01*
X1239161Y1018633D01*
Y1015774D01*
X1237276Y1013889D01*
X1237192Y1013687D01*
X1237026Y1013546D01*
X1236618Y1012753D01*
X1236608Y1012634D01*
X1236531Y1012543D01*
X1236565Y1012124D01*
X1236531Y1011704D01*
X1236608Y1011613D01*
X1236618Y1011495D01*
X1237026Y1010702D01*
X1237192Y1010561D01*
X1237276Y1010359D01*
X1239161Y1008473D01*
Y1005614D01*
X1237276Y1003729D01*
X1237192Y1003527D01*
X1237026Y1003386D01*
X1236618Y1002593D01*
X1236608Y1002474D01*
X1236531Y1002383D01*
X1236565Y1001964D01*
X1236531Y1001544D01*
X1236608Y1001453D01*
X1236618Y1001335D01*
X1237026Y1000542D01*
X1237192Y1000401D01*
X1237276Y1000199D01*
X1239161Y998313D01*
Y995454D01*
X1237276Y993569D01*
X1237192Y993367D01*
X1237026Y993226D01*
X1236618Y992433D01*
X1236608Y992314D01*
X1236531Y992223D01*
X1236565Y991804D01*
X1236531Y991384D01*
X1236608Y991293D01*
X1236618Y991175D01*
X1237026Y990382D01*
X1237192Y990241D01*
X1237276Y990039D01*
X1239161Y988153D01*
Y985294D01*
X1237276Y983409D01*
X1237192Y983207D01*
X1237026Y983066D01*
X1236618Y982273D01*
X1236608Y982154D01*
X1236531Y982063D01*
X1236565Y981644D01*
X1236531Y981224D01*
X1236608Y981133D01*
X1236618Y981015D01*
X1237026Y980222D01*
X1237192Y980081D01*
X1237276Y979879D01*
X1239161Y977993D01*
Y975134D01*
X1237276Y973249D01*
X1237192Y973047D01*
X1237026Y972906D01*
X1236618Y972113D01*
X1236608Y971994D01*
X1236531Y971903D01*
X1236565Y971484D01*
X1236531Y971064D01*
X1236608Y970974D01*
X1236618Y970855D01*
X1237026Y970062D01*
X1237192Y969921D01*
X1237276Y969719D01*
X1239161Y967833D01*
Y964974D01*
X1237276Y963089D01*
X1237192Y962887D01*
X1237026Y962746D01*
X1236618Y961953D01*
X1236608Y961834D01*
X1236531Y961743D01*
X1236565Y961324D01*
X1236531Y960904D01*
X1236608Y960814D01*
X1236618Y960695D01*
X1237026Y959902D01*
X1237192Y959761D01*
X1237276Y959559D01*
X1239161Y957673D01*
Y954814D01*
X1237276Y952929D01*
X1237192Y952727D01*
X1237026Y952586D01*
X1236618Y951793D01*
X1236608Y951674D01*
X1236531Y951583D01*
X1236565Y951164D01*
X1236531Y950744D01*
X1236608Y950654D01*
X1236618Y950535D01*
X1237026Y949742D01*
X1237192Y949601D01*
X1237276Y949399D01*
X1239161Y947513D01*
Y944654D01*
X1237276Y942769D01*
X1237192Y942567D01*
X1237026Y942426D01*
X1236618Y941633D01*
X1236608Y941514D01*
X1236531Y941423D01*
X1236565Y941004D01*
X1236531Y940584D01*
X1236608Y940493D01*
X1236618Y940375D01*
X1237026Y939582D01*
X1237192Y939441D01*
X1237276Y939239D01*
X1239161Y937353D01*
Y934494D01*
X1237276Y932609D01*
X1237192Y932407D01*
X1237026Y932266D01*
X1236618Y931473D01*
X1236608Y931354D01*
X1236531Y931263D01*
X1236565Y930844D01*
X1236531Y930424D01*
X1236608Y930333D01*
X1236618Y930215D01*
X1237026Y929422D01*
X1237192Y929281D01*
X1237276Y929079D01*
X1239161Y927193D01*
Y924334D01*
X1237276Y922449D01*
X1237192Y922247D01*
X1237026Y922106D01*
X1236618Y921313D01*
X1236608Y921194D01*
X1236531Y921103D01*
X1236565Y920684D01*
X1236531Y920264D01*
X1236608Y920173D01*
X1236618Y920055D01*
X1237026Y919262D01*
X1237192Y919121D01*
X1237276Y918919D01*
X1239161Y917033D01*
Y914174D01*
X1237276Y912289D01*
X1237192Y912087D01*
X1237026Y911946D01*
X1236618Y911153D01*
X1236608Y911034D01*
X1236531Y910943D01*
X1236565Y910524D01*
X1236531Y910104D01*
X1236608Y910014D01*
X1236618Y909895D01*
X1237026Y909102D01*
X1237192Y908961D01*
X1237276Y908759D01*
X1239161Y906873D01*
Y904014D01*
X1237140Y901992D01*
X1234280D01*
X1232395Y903878D01*
X1232193Y903962D01*
X1232052Y904128D01*
X1231259Y904536D01*
X1231140Y904546D01*
X1231049Y904623D01*
X1230630Y904588D01*
X1230211Y904623D01*
X1230120Y904546D01*
X1230001Y904536D01*
X1229208Y904128D01*
X1229067Y903962D01*
X1228865Y903878D01*
X1226980Y901992D01*
X1224120D01*
X1222235Y903878D01*
X1222033Y903962D01*
X1221892Y904128D01*
X1221099Y904536D01*
X1220980Y904546D01*
X1220889Y904623D01*
X1220470Y904588D01*
X1220051Y904623D01*
X1219960Y904546D01*
X1219841Y904536D01*
X1219048Y904128D01*
X1218907Y903962D01*
X1218705Y903878D01*
X1216820Y901992D01*
X1213960D01*
X1212075Y903878D01*
X1211873Y903962D01*
X1211732Y904128D01*
X1210939Y904536D01*
X1210820Y904546D01*
X1210729Y904623D01*
X1210310Y904588D01*
X1209891Y904623D01*
X1209800Y904546D01*
X1209681Y904536D01*
X1208888Y904128D01*
X1208747Y903962D01*
X1208545Y903878D01*
X1206660Y901992D01*
X1203800D01*
X1201915Y903878D01*
X1201713Y903962D01*
X1201572Y904128D01*
X1200779Y904536D01*
X1200660Y904546D01*
X1200569Y904623D01*
X1200150Y904588D01*
X1199731Y904623D01*
X1199640Y904546D01*
X1199521Y904536D01*
X1198728Y904128D01*
X1198587Y903962D01*
X1198385Y903878D01*
X1196500Y901992D01*
X1193640D01*
X1191755Y903878D01*
X1191553Y903962D01*
X1191412Y904128D01*
X1190619Y904536D01*
X1190500Y904546D01*
X1190409Y904623D01*
X1189990Y904588D01*
X1189571Y904623D01*
X1189480Y904546D01*
X1189361Y904536D01*
X1188568Y904128D01*
X1188427Y903962D01*
X1188225Y903878D01*
X1186340Y901992D01*
X1183480D01*
X1181595Y903878D01*
X1181393Y903962D01*
X1181252Y904128D01*
X1180459Y904536D01*
X1180340Y904546D01*
X1180249Y904623D01*
X1179830Y904588D01*
X1179411Y904623D01*
X1179320Y904546D01*
X1179201Y904536D01*
X1178408Y904128D01*
X1178267Y903962D01*
X1178065Y903878D01*
X1176180Y901992D01*
X1173320D01*
X1171435Y903878D01*
X1171233Y903962D01*
X1171092Y904128D01*
X1170299Y904536D01*
X1170180Y904546D01*
X1170089Y904623D01*
X1169670Y904588D01*
X1169251Y904623D01*
X1169160Y904546D01*
X1169041Y904536D01*
X1168248Y904128D01*
X1168107Y903962D01*
X1167905Y903878D01*
X1166020Y901992D01*
X1163160D01*
X1161275Y903878D01*
X1161073Y903962D01*
X1160932Y904128D01*
X1160139Y904536D01*
X1160020Y904546D01*
X1159929Y904623D01*
X1159510Y904588D01*
X1159091Y904623D01*
X1159000Y904546D01*
X1158881Y904536D01*
X1158088Y904128D01*
X1157947Y903962D01*
X1157745Y903878D01*
X1155860Y901992D01*
X1153000D01*
X1151115Y903878D01*
X1150913Y903962D01*
X1150772Y904128D01*
X1149979Y904536D01*
X1149860Y904546D01*
X1149769Y904623D01*
X1149350Y904588D01*
X1148931Y904623D01*
X1148840Y904546D01*
X1148721Y904536D01*
X1147928Y904128D01*
X1147787Y903962D01*
X1147585Y903878D01*
X1145700Y901992D01*
X1142840D01*
X1140955Y903878D01*
X1140753Y903962D01*
X1140612Y904128D01*
X1139819Y904536D01*
X1139700Y904546D01*
X1139609Y904623D01*
X1139190Y904588D01*
X1138771Y904623D01*
X1138680Y904546D01*
X1138561Y904536D01*
X1137768Y904128D01*
X1137627Y903962D01*
X1137425Y903878D01*
X1135540Y901992D01*
X1132680D01*
X1130795Y903878D01*
X1130593Y903962D01*
X1130452Y904128D01*
X1129659Y904536D01*
X1129540Y904546D01*
X1129449Y904623D01*
X1129030Y904588D01*
X1128611Y904623D01*
X1128520Y904546D01*
X1128401Y904536D01*
X1127608Y904128D01*
X1127467Y903962D01*
X1127265Y903878D01*
X1125380Y901992D01*
X1122520D01*
X1120635Y903878D01*
X1120433Y903962D01*
X1120292Y904128D01*
X1119499Y904536D01*
X1119380Y904546D01*
X1119289Y904623D01*
X1118870Y904588D01*
X1118451Y904623D01*
X1118360Y904546D01*
X1118241Y904536D01*
X1117448Y904128D01*
X1117307Y903962D01*
X1117105Y903878D01*
X1115220Y901992D01*
X1112360D01*
X1110339Y904014D01*
Y906873D01*
X1112224Y908759D01*
X1112308Y908961D01*
X1112474Y909102D01*
X1112883Y909895D01*
X1112892Y910014D01*
X1112969Y910104D01*
X1112935Y910524D01*
X1112969Y910943D01*
X1112892Y911034D01*
X1112883Y911153D01*
X1112474Y911946D01*
X1112308Y912087D01*
X1112224Y912289D01*
X1110339Y914174D01*
Y917033D01*
X1112224Y918919D01*
X1112308Y919121D01*
X1112474Y919262D01*
X1112883Y920055D01*
X1112892Y920173D01*
X1112969Y920264D01*
X1112935Y920684D01*
X1112969Y921103D01*
X1112892Y921194D01*
X1112883Y921313D01*
X1112474Y922106D01*
X1112308Y922247D01*
X1112224Y922449D01*
X1110339Y924334D01*
Y927194D01*
X1112224Y929079D01*
X1112308Y929281D01*
X1112474Y929422D01*
X1112883Y930215D01*
X1112892Y930333D01*
X1112969Y930424D01*
X1112935Y930844D01*
X1112969Y931263D01*
X1112892Y931354D01*
X1112883Y931473D01*
X1112474Y932266D01*
X1112308Y932407D01*
X1112224Y932609D01*
X1110339Y934494D01*
Y937354D01*
X1112224Y939239D01*
X1112308Y939441D01*
X1112474Y939582D01*
X1112883Y940375D01*
X1112892Y940493D01*
X1112969Y940584D01*
X1112935Y941004D01*
X1112969Y941423D01*
X1112892Y941514D01*
X1112883Y941633D01*
X1112474Y942426D01*
X1112308Y942567D01*
X1112224Y942769D01*
X1110339Y944654D01*
Y947514D01*
X1112224Y949399D01*
X1112308Y949601D01*
X1112474Y949742D01*
X1112883Y950535D01*
X1112892Y950654D01*
X1112969Y950744D01*
X1112935Y951164D01*
X1112969Y951583D01*
X1112892Y951674D01*
X1112883Y951793D01*
X1112474Y952586D01*
X1112308Y952727D01*
X1112224Y952929D01*
X1110339Y954814D01*
Y957673D01*
X1112224Y959559D01*
X1112308Y959761D01*
X1112474Y959902D01*
X1112883Y960695D01*
X1112892Y960814D01*
X1112969Y960904D01*
X1112935Y961324D01*
X1112969Y961743D01*
X1112892Y961834D01*
X1112883Y961953D01*
X1112474Y962746D01*
X1112308Y962887D01*
X1112224Y963089D01*
X1110339Y964974D01*
Y967833D01*
X1112224Y969719D01*
X1112308Y969921D01*
X1112474Y970062D01*
X1112883Y970855D01*
X1112892Y970974D01*
X1112969Y971064D01*
X1112935Y971484D01*
X1112969Y971903D01*
X1112892Y971994D01*
X1112883Y972113D01*
X1112474Y972906D01*
X1112308Y973047D01*
X1112224Y973249D01*
X1110339Y975134D01*
Y977993D01*
X1112224Y979879D01*
X1112308Y980081D01*
X1112474Y980222D01*
X1112883Y981015D01*
X1112892Y981133D01*
X1112969Y981224D01*
X1112935Y981644D01*
X1112969Y982063D01*
X1112892Y982154D01*
X1112883Y982273D01*
X1112474Y983066D01*
X1112308Y983207D01*
X1112224Y983409D01*
X1110339Y985294D01*
Y988154D01*
X1112224Y990039D01*
X1112308Y990241D01*
X1112474Y990382D01*
X1112883Y991175D01*
X1112892Y991293D01*
X1112969Y991384D01*
X1112935Y991804D01*
X1112969Y992223D01*
X1112892Y992314D01*
X1112883Y992433D01*
X1112474Y993226D01*
X1112308Y993367D01*
X1112224Y993569D01*
X1110339Y995454D01*
Y998314D01*
X1112224Y1000199D01*
X1112308Y1000401D01*
X1112474Y1000542D01*
X1112883Y1001335D01*
X1112892Y1001453D01*
X1112969Y1001544D01*
X1112935Y1001964D01*
X1112969Y1002383D01*
X1112892Y1002474D01*
X1112883Y1002593D01*
X1112474Y1003386D01*
X1112308Y1003527D01*
X1112224Y1003729D01*
X1110339Y1005614D01*
Y1008474D01*
X1112224Y1010359D01*
X1112308Y1010561D01*
X1112474Y1010702D01*
X1112883Y1011495D01*
X1112892Y1011613D01*
X1112969Y1011704D01*
X1112935Y1012124D01*
X1112969Y1012543D01*
X1112892Y1012634D01*
X1112883Y1012753D01*
X1112474Y1013546D01*
X1112308Y1013687D01*
X1112224Y1013889D01*
X1110339Y1015774D01*
Y1018633D01*
X1112224Y1020519D01*
X1112308Y1020721D01*
X1112474Y1020862D01*
X1112883Y1021655D01*
X1112892Y1021774D01*
X1112969Y1021864D01*
X1112935Y1022284D01*
X1112969Y1022703D01*
X1112892Y1022794D01*
X1112883Y1022913D01*
X1112474Y1023706D01*
X1112308Y1023847D01*
X1112224Y1024049D01*
X1110339Y1025934D01*
Y1028793D01*
X1112224Y1030679D01*
X1112308Y1030881D01*
X1112474Y1031022D01*
X1112883Y1031815D01*
X1112892Y1031934D01*
X1112969Y1032024D01*
X1112935Y1032444D01*
X1112969Y1032863D01*
X1112892Y1032954D01*
X1112883Y1033073D01*
X1112474Y1033866D01*
X1112308Y1034007D01*
X1112224Y1034209D01*
X1110339Y1036094D01*
Y1038953D01*
X1112224Y1040839D01*
X1112308Y1041041D01*
X1112474Y1041182D01*
X1112883Y1041975D01*
X1112892Y1042094D01*
X1112969Y1042184D01*
X1112935Y1042604D01*
X1112969Y1043023D01*
X1112892Y1043114D01*
X1112883Y1043233D01*
X1112474Y1044026D01*
X1112308Y1044167D01*
X1112224Y1044369D01*
X1110339Y1046254D01*
Y1049113D01*
X1112224Y1050999D01*
X1112308Y1051201D01*
X1112474Y1051342D01*
X1112883Y1052135D01*
X1112892Y1052253D01*
X1112969Y1052344D01*
X1112935Y1052764D01*
X1112969Y1053183D01*
X1112892Y1053274D01*
X1112883Y1053393D01*
X1112474Y1054186D01*
X1112308Y1054327D01*
X1112224Y1054529D01*
X1110339Y1056414D01*
Y1059274D01*
X1112224Y1061159D01*
X1112308Y1061361D01*
X1112474Y1061502D01*
X1112883Y1062295D01*
X1112892Y1062413D01*
X1112969Y1062504D01*
X1112935Y1062924D01*
X1112969Y1063343D01*
X1112892Y1063434D01*
X1112883Y1063553D01*
X1112474Y1064346D01*
X1112308Y1064487D01*
X1112224Y1064689D01*
X1110339Y1066574D01*
Y1069434D01*
X1112360Y1071455D01*
X1115220D01*
X1117105Y1069570D01*
X1117307Y1069486D01*
X1117448Y1069320D01*
X1118241Y1068911D01*
X1118360Y1068902D01*
X1118451Y1068824D01*
X1118870Y1068859D01*
X1119289Y1068824D01*
X1119380Y1068902D01*
X1119499Y1068911D01*
X1120292Y1069320D01*
X1120433Y1069486D01*
X1120635Y1069570D01*
X1122520Y1071455D01*
X1125380D01*
X1127265Y1069570D01*
X1127467Y1069486D01*
X1127608Y1069320D01*
X1128401Y1068911D01*
X1128520Y1068902D01*
X1128611Y1068824D01*
X1129030Y1068859D01*
X1129449Y1068824D01*
X1129540Y1068902D01*
X1129659Y1068911D01*
X1130452Y1069320D01*
X1130593Y1069486D01*
X1130795Y1069570D01*
X1132680Y1071455D01*
X1135540D01*
X1137425Y1069570D01*
X1137627Y1069486D01*
X1137768Y1069320D01*
X1138561Y1068911D01*
X1138680Y1068902D01*
X1138771Y1068824D01*
X1139190Y1068859D01*
X1139609Y1068824D01*
X1139700Y1068902D01*
X1139819Y1068911D01*
X1140612Y1069320D01*
X1140753Y1069486D01*
X1140955Y1069570D01*
X1142840Y1071455D01*
X1145700D01*
X1147585Y1069570D01*
X1147787Y1069486D01*
X1147928Y1069320D01*
X1148721Y1068911D01*
X1148840Y1068902D01*
X1148931Y1068824D01*
X1149350Y1068859D01*
X1149769Y1068824D01*
X1149860Y1068902D01*
X1149979Y1068911D01*
X1150772Y1069320D01*
X1150913Y1069486D01*
X1151115Y1069570D01*
X1153000Y1071455D01*
X1155860D01*
X1157745Y1069570D01*
X1157947Y1069486D01*
X1158088Y1069320D01*
X1158881Y1068911D01*
X1159000Y1068902D01*
X1159091Y1068824D01*
X1159510Y1068859D01*
X1159929Y1068824D01*
X1160020Y1068902D01*
X1160139Y1068911D01*
X1160932Y1069320D01*
X1161073Y1069486D01*
X1161275Y1069570D01*
X1163160Y1071455D01*
X1166020D01*
X1167905Y1069570D01*
X1168107Y1069486D01*
X1168248Y1069320D01*
X1169041Y1068911D01*
X1169160Y1068902D01*
X1169251Y1068824D01*
X1169670Y1068859D01*
X1170089Y1068824D01*
X1170180Y1068902D01*
X1170299Y1068911D01*
X1171092Y1069320D01*
X1171233Y1069486D01*
X1171435Y1069570D01*
X1173320Y1071455D01*
X1176180D01*
X1178065Y1069570D01*
X1178267Y1069486D01*
X1178408Y1069320D01*
X1179201Y1068911D01*
X1179320Y1068902D01*
X1179411Y1068824D01*
X1179830Y1068859D01*
X1180249Y1068824D01*
X1180340Y1068902D01*
X1180459Y1068911D01*
X1181252Y1069320D01*
X1181393Y1069486D01*
X1181595Y1069570D01*
X1183480Y1071455D01*
X1186340D01*
X1188225Y1069570D01*
X1188427Y1069486D01*
X1188568Y1069320D01*
X1189361Y1068911D01*
X1189480Y1068902D01*
X1189571Y1068824D01*
X1189990Y1068859D01*
X1190409Y1068824D01*
X1190500Y1068902D01*
X1190619Y1068911D01*
X1191412Y1069320D01*
X1191553Y1069486D01*
X1191755Y1069570D01*
X1193640Y1071455D01*
X1196500D01*
X1198385Y1069570D01*
X1198587Y1069486D01*
X1198728Y1069320D01*
X1199521Y1068911D01*
X1199640Y1068902D01*
X1199731Y1068824D01*
X1200150Y1068859D01*
X1200569Y1068824D01*
X1200660Y1068902D01*
X1200779Y1068911D01*
X1201572Y1069320D01*
X1201713Y1069486D01*
X1201915Y1069570D01*
X1203800Y1071455D01*
X1206660D01*
X1208545Y1069570D01*
X1208747Y1069486D01*
X1208888Y1069320D01*
X1209681Y1068911D01*
X1209800Y1068902D01*
X1209891Y1068824D01*
X1210310Y1068859D01*
X1210729Y1068824D01*
X1210820Y1068902D01*
X1210939Y1068911D01*
X1211732Y1069320D01*
X1211873Y1069486D01*
X1212075Y1069570D01*
X1213960Y1071455D01*
X1216820D01*
X1218705Y1069570D01*
X1218907Y1069486D01*
X1219048Y1069320D01*
X1219841Y1068911D01*
X1219960Y1068902D01*
X1220051Y1068824D01*
X1220470Y1068859D01*
X1220889Y1068824D01*
X1220980Y1068902D01*
X1221099Y1068911D01*
X1221892Y1069320D01*
X1222033Y1069486D01*
X1222235Y1069570D01*
X1224120Y1071455D01*
X1226980D01*
X1228865Y1069570D01*
X1229067Y1069486D01*
X1229208Y1069320D01*
X1230001Y1068911D01*
X1230120Y1068902D01*
X1230211Y1068824D01*
X1230630Y1068859D01*
X1231049Y1068824D01*
X1231140Y1068902D01*
X1231259Y1068911D01*
X1232052Y1069320D01*
X1232193Y1069486D01*
X1232395Y1069570D01*
X1234280Y1071455D01*
X1237140D01*
X1239161Y1069433D01*
D02*
G37*
%LPC*%
G36*
X1030469Y714200D02*
X1026931D01*
X1025264Y712532D01*
X937365D01*
X936489Y713408D01*
X932951D01*
X930450Y710907D01*
Y707369D01*
X932951Y704868D01*
X936489D01*
X938156Y706536D01*
X1026056D01*
X1026931Y705660D01*
X1030469D01*
X1032970Y708161D01*
Y711699D01*
X1030469Y714200D01*
D02*
G37*
G36*
X744370Y716270D02*
X728830D01*
Y700730D01*
X744370D01*
Y716270D01*
D02*
G37*
G36*
X716779Y731980D02*
X713241D01*
X710740Y729479D01*
Y725941D01*
X712012Y724669D01*
Y665480D01*
X712890Y663360D01*
X725980Y650270D01*
Y648471D01*
X728481Y645970D01*
X732019D01*
X734520Y648471D01*
Y652009D01*
X732019Y654510D01*
X730220D01*
X718008Y666722D01*
Y724669D01*
X719280Y725941D01*
Y729479D01*
X716779Y731980D01*
D02*
G37*
G36*
X1111749Y729440D02*
X1108211D01*
X1105710Y726939D01*
Y723401D01*
X1106982Y722130D01*
Y660878D01*
X1107860Y658758D01*
X1117618Y649000D01*
Y647201D01*
X1120119Y644700D01*
X1123657D01*
X1126158Y647201D01*
Y650739D01*
X1123657Y653240D01*
X1121858D01*
X1112978Y662120D01*
Y722130D01*
X1114250Y723401D01*
Y726939D01*
X1111749Y729440D01*
D02*
G37*
%LPD*%
D13*
X1272540Y1004570D02*
Y1037590D01*
X868680Y1005720D02*
Y1038620D01*
D79*
X32280Y71120D02*
D03*
X108280D02*
D03*
D95*
X409620Y742140D02*
Y750744D01*
X453390Y607750D02*
Y770890D01*
X584230Y777210D02*
X887700D01*
X887730Y777240D01*
X960120Y783590D02*
X1113790D01*
X1016000Y789940D02*
X1282700D01*
X977900Y806450D02*
X1289050D01*
X264748Y294640D02*
X279123Y309015D01*
X215900Y294640D02*
X264748D01*
X96798Y313690D02*
X97332D01*
X99292Y311730D01*
X193040D01*
X82550Y307340D02*
X188690D01*
X193770Y302260D01*
X160020Y226480D02*
Y300990D01*
X193770Y302260D02*
X194310D01*
X191749Y318074D02*
X193736D01*
X194310Y317500D01*
X191053Y318770D02*
X191749Y318074D01*
X121920Y324540D02*
X122150Y324310D01*
X193850D01*
X109220Y318770D02*
X191053D01*
X188690Y299720D02*
X191219Y297191D01*
X172720Y299720D02*
X188690D01*
X118440Y184900D02*
X160020Y226480D01*
X618928Y610870D02*
X977900D01*
X615466Y613520D02*
X616278D01*
X618928Y610870D01*
X483870Y553500D02*
Y618540D01*
X60960Y519430D02*
X85327Y495063D01*
X46990Y491490D02*
X184150Y354330D01*
X321310Y969983D02*
X323067Y971740D01*
X495980D01*
X321310Y904917D02*
Y969983D01*
X323067Y903160D02*
X333420D01*
X321310Y904917D02*
X323067Y903160D01*
X282097Y742140D02*
X410540D01*
X1228560Y28740D02*
X1228700Y28600D01*
X1228560Y28740D02*
Y342760D01*
X1228420Y342900D02*
X1228560Y342760D01*
X1343660Y393700D02*
X1389380D01*
X269788Y237753D02*
X406595D01*
X245597Y218440D02*
X408940D01*
X408563Y209173D02*
X408940Y209550D01*
X408128Y236220D02*
X408940D01*
X406595Y237753D02*
X408128Y236220D01*
X235437Y209173D02*
X408563D01*
X225277Y200660D02*
X408940D01*
X255757Y227330D02*
X408940D01*
X19050Y640080D02*
X31750Y652780D01*
X19050Y342900D02*
Y640080D01*
X44293Y303530D02*
X46050Y301773D01*
Y136033D02*
Y301773D01*
X33350Y303530D02*
X44293D01*
X11760Y73660D02*
Y308123D01*
X13517Y309880D02*
X44780D01*
X11760Y308123D02*
X13517Y309880D01*
X11760Y73660D02*
X14300Y71120D01*
X31750Y678180D02*
X45720D01*
X46990Y676910D01*
Y491490D02*
Y676910D01*
X85327Y492523D02*
Y495063D01*
X109120Y468730D02*
X185000D01*
X85327Y492523D02*
X109120Y468730D01*
X668583Y354893D02*
X670206Y356516D01*
X560475Y309015D02*
X607976Y356516D01*
X670206D01*
X671830Y358140D01*
X668350Y342900D02*
X668583Y343133D01*
Y354893D01*
X671830Y358140D02*
X903768D01*
X907347Y354920D02*
X908970Y353297D01*
Y352938D02*
X919008Y342900D01*
X908970Y352938D02*
Y353297D01*
X906988Y354920D02*
X907347D01*
X903768Y358140D02*
X906988Y354920D01*
X768251Y328930D02*
X782221Y342900D01*
X642950D02*
X643183Y342667D01*
X645160Y328930D02*
X768251D01*
X643183Y330907D02*
Y342667D01*
Y330907D02*
X645160Y328930D01*
X633407Y12700D02*
X756821D01*
X769521Y25400D01*
X623900D02*
X631650Y17650D01*
Y14457D02*
Y17650D01*
Y14457D02*
X633407Y12700D01*
X264160Y242570D02*
X264972D01*
X269788Y237753D01*
X254000Y229087D02*
Y242570D01*
Y229087D02*
X255757Y227330D01*
X243840Y220197D02*
Y242570D01*
Y220197D02*
X245597Y218440D01*
X233680Y210930D02*
Y242570D01*
Y210930D02*
X235437Y209173D01*
X223520Y202417D02*
Y242570D01*
Y202417D02*
X225277Y200660D01*
X208810Y139296D02*
Y498623D01*
X197044Y500380D02*
X207053D01*
X208810Y498623D01*
X191219Y197337D02*
Y297191D01*
X193850Y324310D02*
X194310Y324770D01*
X279123Y309015D02*
X560475D01*
X67310Y233670D02*
X67690Y233290D01*
X67310Y233670D02*
Y289560D01*
X138760Y195580D02*
X189462D01*
X191219Y197337D01*
X147320Y511810D02*
X205740D01*
X994410Y569310D02*
X1010000D01*
X1028700Y588010D01*
X608330Y563300D02*
Y620338D01*
X162102Y521970D02*
X205740D01*
X160832Y520700D02*
X162102Y521970D01*
X160020Y520700D02*
X160832D01*
X595630Y586740D02*
Y643078D01*
X986790Y553500D02*
Y621368D01*
X182880Y496630D02*
X193294D01*
X197044Y500380D01*
X134620Y518160D02*
X134705Y518245D01*
Y612068D01*
X134791Y612153D01*
X608330Y620338D02*
X609480Y621488D01*
Y622300D01*
X596900Y644348D02*
Y645160D01*
X595630Y643078D02*
X596900Y644348D01*
X410540Y383210D02*
Y742140D01*
Y383210D02*
X412750Y381000D01*
X773070Y688500D02*
X818370Y643200D01*
X1016000D01*
X786130Y631190D02*
X1140789D01*
X1129662Y709138D02*
X1130300Y708500D01*
X768350Y648970D02*
X786130Y631190D01*
X1140789D02*
X1158569Y648970D01*
X988180Y622758D02*
Y623570D01*
X986790Y621368D02*
X988180Y622758D01*
X706120Y544830D02*
Y603250D01*
X280340Y740383D02*
X282097Y742140D01*
X280340Y370840D02*
Y740383D01*
X1252678Y797560D02*
X1253948Y796290D01*
X1254760D01*
X1003300Y797560D02*
X1252678D01*
X934720Y709138D02*
X935116Y709534D01*
X1028304D01*
X1028700Y709930D01*
X932180Y769620D02*
X1066800D01*
X920750Y775970D02*
X1092200D01*
X1109980Y660878D02*
Y725170D01*
Y660878D02*
X1121888Y648970D01*
X1130300Y708500D02*
X1183153D01*
X1158569Y648970D02*
X1159286D01*
X1161826Y646430D01*
X1184910Y648187D02*
Y706743D01*
X1161826Y646430D02*
X1183153D01*
X1184910Y648187D01*
X1183153Y708500D02*
X1184910Y706743D01*
X624057Y756920D02*
X877570D01*
X622300Y739140D02*
Y755163D01*
X624057Y756920D01*
X611357Y764540D02*
X849630D01*
X609600Y739140D02*
Y762783D01*
X611357Y764540D01*
X584200Y777180D02*
X584230Y777210D01*
X565150Y770403D02*
X566907Y772160D01*
X722630D01*
X565150Y699770D02*
Y770403D01*
Y699770D02*
X595143D01*
X596900Y701527D01*
Y739140D01*
X722630Y772160D02*
X725170Y769620D01*
X582930Y789940D02*
X698500D01*
X715010Y665480D02*
Y727710D01*
Y665480D02*
X730250Y650240D01*
X347390Y1113560D02*
Y1122383D01*
X438830Y1039537D02*
Y1056520D01*
X437073Y1037780D02*
X438830Y1039537D01*
X426130Y1037780D02*
X437073D01*
X483971Y763359D02*
X484073Y763460D01*
X483971Y618591D02*
Y763359D01*
X483870Y618490D02*
X483971Y618591D01*
X412750Y381000D02*
X533400D01*
X782221Y342900D02*
X896950D01*
X623900Y25400D02*
Y323850D01*
X642950Y342900D01*
X895350Y44450D02*
X1136650D01*
X890600Y25400D02*
Y39700D01*
X895350Y44450D01*
X1136650D02*
X1152500Y28600D01*
X923830Y9670D02*
X930000Y3500D01*
X1180000Y5257D02*
Y340520D01*
X923830Y9670D02*
Y28530D01*
X769521Y25400D02*
X890600D01*
X919008Y342900D02*
X922350D01*
X940130Y325120D01*
X1175080Y342900D02*
X1177620D01*
X1157300Y325120D02*
X1175080Y342900D01*
X1178243Y3500D02*
X1180000Y5257D01*
X940130Y325120D02*
X1157300D01*
X930000Y3500D02*
X1178243D01*
X1177620Y342900D02*
X1180000Y340520D01*
X14300Y71120D02*
X32280D01*
X84534Y179956D02*
Y192486D01*
X48733Y133350D02*
X265760D01*
X46050Y136033D02*
X48733Y133350D01*
X202260Y406400D02*
Y436880D01*
X434533Y941260D02*
X436290Y939503D01*
X427400Y941260D02*
X434533D01*
X436290Y892217D02*
Y939503D01*
X434533Y890460D02*
X436290Y892217D01*
X424860Y890460D02*
X434533D01*
X347390Y1122383D02*
X349147Y1124140D01*
X499790D01*
D109*
X850900Y982980D02*
D03*
Y975159D02*
D03*
Y967740D02*
D03*
X954310Y981000D02*
D03*
Y987500D02*
D03*
Y994000D02*
D03*
X1113790Y783590D02*
D03*
X1282700Y789940D02*
D03*
X1289050Y806450D02*
D03*
X121920Y324540D02*
D03*
X615466Y613520D02*
D03*
X453390Y607750D02*
D03*
X60960Y519430D02*
D03*
X184150Y354330D02*
D03*
X372110Y840740D02*
D03*
X1389380Y393700D02*
D03*
X408940Y209550D02*
D03*
Y227330D02*
D03*
Y200660D02*
D03*
Y236220D02*
D03*
Y218440D02*
D03*
X19050Y342900D02*
D03*
X1261110Y969010D02*
D03*
X1253490Y971550D02*
D03*
Y979170D02*
D03*
Y986790D02*
D03*
X955040Y1000760D02*
D03*
X556260Y971550D02*
D03*
Y980440D02*
D03*
Y989330D02*
D03*
X223520Y242570D02*
D03*
X233680D02*
D03*
X243840D02*
D03*
X254000D02*
D03*
X264160D02*
D03*
X194310Y302260D02*
D03*
Y324770D02*
D03*
Y309880D02*
D03*
Y317500D02*
D03*
X82550Y307340D02*
D03*
X96520Y313690D02*
D03*
X109220Y318770D02*
D03*
X185000Y468730D02*
D03*
X147320Y511810D02*
D03*
X205740D02*
D03*
X1028700Y588010D02*
D03*
X994410Y569310D02*
D03*
X608330Y563300D02*
D03*
X160020Y520700D02*
D03*
X205740Y521970D02*
D03*
X483870Y553500D02*
D03*
X595630Y586740D02*
D03*
X986790Y553500D02*
D03*
X134620Y518160D02*
D03*
X134791Y612153D02*
D03*
X988180Y623570D02*
D03*
X773070Y688500D02*
D03*
X706120Y544830D02*
D03*
Y603250D02*
D03*
X596900Y645160D02*
D03*
X977900Y610870D02*
D03*
X1254760Y796290D02*
D03*
X977900Y806450D02*
D03*
X1016000Y789940D02*
D03*
X1003300Y797560D02*
D03*
X960120Y783590D02*
D03*
X1028700Y709930D02*
D03*
X932180Y769620D02*
D03*
X1066800D02*
D03*
X920750Y775970D02*
D03*
X1092200D02*
D03*
X1121888Y648970D02*
D03*
X1109980Y725170D02*
D03*
X1016000Y643200D02*
D03*
X1158569Y648970D02*
D03*
X1272540Y1037590D02*
D03*
Y1004570D02*
D03*
X868680Y1005720D02*
D03*
Y1038620D02*
D03*
X768350Y648970D02*
D03*
X934720Y709138D02*
D03*
X849630Y764540D02*
D03*
X609600Y739140D02*
D03*
X730250Y650240D02*
D03*
X715010Y727710D02*
D03*
X565150Y699770D02*
D03*
X609480Y622300D02*
D03*
D127*
X117440Y765810D02*
X140410Y788780D01*
X23853Y765810D02*
X117440D01*
X386760Y849820D02*
X387890D01*
X207220Y862460D02*
X293192D01*
X207220Y791007D02*
X209447Y788780D01*
X293192Y862460D02*
X374120D01*
X207220Y791007D02*
Y862460D01*
X209447Y788780D02*
X242010D01*
X294949Y1039828D02*
X401142D01*
X293192Y1038071D02*
X294949Y1039828D01*
X374120Y862460D02*
X386760Y849820D01*
X293192Y862460D02*
Y1038071D01*
D128*
X27940Y816610D02*
D03*
Y791210D02*
D03*
X31750Y678180D02*
D03*
Y703580D02*
D03*
X1343660Y393700D02*
D03*
Y419100D02*
D03*
X916000Y25400D02*
D03*
X1177900Y28600D02*
D03*
X1228700D02*
D03*
X649300Y25400D02*
D03*
X700100D02*
D03*
X966800D02*
D03*
X1177620Y342900D02*
D03*
X1228420D02*
D03*
X719150D02*
D03*
X668350D02*
D03*
X922350D02*
D03*
X973150D02*
D03*
X33220Y1058460D02*
D03*
D129*
X27940Y765810D02*
D03*
X31750Y652780D02*
D03*
X1343660Y368300D02*
D03*
X33220Y1083860D02*
D03*
D130*
X1350000Y1070000D02*
D03*
X1100000Y500000D02*
D03*
X350000Y680000D02*
D03*
Y50000D02*
D03*
X1350000D02*
D03*
X1365250Y175260D02*
D03*
Y193040D02*
D03*
Y212090D02*
D03*
Y229870D02*
D03*
Y247650D02*
D03*
D131*
X25890Y233290D02*
D03*
Y146890D02*
D03*
D132*
X67690Y233290D02*
D03*
Y146890D02*
D03*
D133*
X62690Y161190D02*
D03*
Y218990D02*
D03*
D134*
X280340Y294640D02*
D03*
Y320040D02*
D03*
Y345440D02*
D03*
D135*
Y370840D02*
D03*
D136*
X736600Y688500D02*
D03*
X1130300D02*
D03*
D137*
X736600Y708500D02*
D03*
X1130300D02*
D03*
D138*
X890600Y25400D02*
D03*
X1152500Y28600D02*
D03*
X1203300D02*
D03*
X623900Y25400D02*
D03*
X674700D02*
D03*
X941400D02*
D03*
X1152220Y342900D02*
D03*
X1203020D02*
D03*
X693750D02*
D03*
X642950D02*
D03*
X896950D02*
D03*
X947750D02*
D03*
D139*
X292810Y788780D02*
D03*
X242010D02*
D03*
X140410D02*
D03*
X89610D02*
D03*
X291160Y1085040D02*
D03*
X240360D02*
D03*
X138760D02*
D03*
X87960D02*
D03*
D140*
X409620Y750744D02*
D03*
X453390Y770890D02*
D03*
X887730Y777240D02*
D03*
X215900Y294640D02*
D03*
X160020Y300990D02*
D03*
X172720Y299720D02*
D03*
X483870Y618540D02*
D03*
X387890Y849820D02*
D03*
X33350Y303530D02*
D03*
X297180Y232410D02*
D03*
X67310Y289560D02*
D03*
X182880Y496630D02*
D03*
X584200Y777180D02*
D03*
X698500Y789940D02*
D03*
X877570Y756920D02*
D03*
X104820Y917000D02*
D03*
X84500D02*
D03*
X89580D02*
D03*
X99740D02*
D03*
X94660D02*
D03*
X99740Y928560D02*
D03*
X89580D02*
D03*
X94660D02*
D03*
X104820D02*
D03*
X84500D02*
D03*
X725170Y769620D02*
D03*
X622300Y739140D02*
D03*
X596900D02*
D03*
X438830Y1056520D02*
D03*
X347390Y1113560D02*
D03*
X484073Y763460D02*
D03*
X582930Y789940D02*
D03*
X533400Y381000D02*
D03*
X401142Y1039828D02*
D03*
X84410Y192610D02*
D03*
X84658Y179832D02*
D03*
X202260Y406400D02*
D03*
Y436880D02*
D03*
X44780Y309880D02*
D03*
X265760Y133350D02*
D03*
X118440Y184900D02*
D03*
X138760Y195580D02*
D03*
X208810Y139296D02*
D03*
X207220Y862460D02*
D03*
X499790Y1124140D02*
D03*
X495980Y971740D02*
D03*
X427400Y941260D02*
D03*
X424860Y890460D02*
D03*
X426130Y1037780D02*
D03*
X333420Y903160D02*
D03*
X104820Y891730D02*
D03*
X94660D02*
D03*
X89580D02*
D03*
X99740D02*
D03*
X84500D02*
D03*
X99740Y896810D02*
D03*
X89580D02*
D03*
X94660D02*
D03*
X84500D02*
D03*
X104820D02*
D03*
X84500Y912050D02*
D03*
X89580D02*
D03*
X94660D02*
D03*
X99740D02*
D03*
X104820D02*
D03*
X84500Y906970D02*
D03*
X89580D02*
D03*
X94660D02*
D03*
X99740D02*
D03*
X104820D02*
D03*
X84500Y901890D02*
D03*
X89580D02*
D03*
X94660D02*
D03*
X99740D02*
D03*
X104820D02*
D03*
X84500Y886650D02*
D03*
X89580D02*
D03*
X94660D02*
D03*
X99740D02*
D03*
X104820D02*
D03*
Y881570D02*
D03*
X99740D02*
D03*
X94660D02*
D03*
X89580D02*
D03*
X84500D02*
D03*
Y876490D02*
D03*
X89580D02*
D03*
X94660D02*
D03*
X99740D02*
D03*
X104820D02*
D03*
X79420Y871410D02*
D03*
X84500D02*
D03*
X89580D02*
D03*
X94660D02*
D03*
X99740D02*
D03*
X104820D02*
D03*
D141*
X971550Y905510D02*
D03*
Y915670D02*
D03*
X981710Y905510D02*
D03*
X991870D02*
D03*
X971550Y925830D02*
D03*
X981710Y915670D02*
D03*
X971550Y946150D02*
D03*
X981710Y935990D02*
D03*
X991870Y925830D02*
D03*
X1012190Y905510D02*
D03*
X991870Y915670D02*
D03*
X1002030Y905510D02*
D03*
Y915670D02*
D03*
X981710Y925830D02*
D03*
X971550Y935990D02*
D03*
X1002030Y946150D02*
D03*
Y935990D02*
D03*
X1012190Y925830D02*
D03*
X1032510Y915670D02*
D03*
Y905510D02*
D03*
X991870Y946150D02*
D03*
X1012190Y935990D02*
D03*
X1042670Y905510D02*
D03*
X1022350Y915670D02*
D03*
X981710Y946150D02*
D03*
X1022350Y925830D02*
D03*
X1012190Y915670D02*
D03*
X1002030Y925830D02*
D03*
X991870Y935990D02*
D03*
X1022350Y905510D02*
D03*
X1083310Y915670D02*
D03*
X1073150Y905510D02*
D03*
X1093470D02*
D03*
X1123950Y905444D02*
D03*
X1254760Y1115060D02*
D03*
Y1092200D02*
D03*
Y1099820D02*
D03*
Y1107440D02*
D03*
X1263650Y1115060D02*
D03*
Y1092200D02*
D03*
Y1099820D02*
D03*
Y1107440D02*
D03*
X1272540Y1115060D02*
D03*
Y1092200D02*
D03*
Y1099820D02*
D03*
Y1107440D02*
D03*
X1281430Y1115060D02*
D03*
Y1092200D02*
D03*
Y1099820D02*
D03*
Y1107440D02*
D03*
X1299210Y1115060D02*
D03*
Y1092200D02*
D03*
Y1099820D02*
D03*
Y1107440D02*
D03*
X955040Y1090930D02*
D03*
Y1099820D02*
D03*
Y1107440D02*
D03*
Y1115060D02*
D03*
X857250D02*
D03*
X847090D02*
D03*
X867410D02*
D03*
X886460D02*
D03*
X876300D02*
D03*
X915670D02*
D03*
X895350D02*
D03*
X905510D02*
D03*
X944880D02*
D03*
X924560D02*
D03*
X934720D02*
D03*
X857250Y1107440D02*
D03*
X847090D02*
D03*
X867410D02*
D03*
X886460D02*
D03*
X876300D02*
D03*
X915670D02*
D03*
X895350D02*
D03*
X905510D02*
D03*
X944880D02*
D03*
X924560D02*
D03*
X934720D02*
D03*
X857250Y1099820D02*
D03*
X847090D02*
D03*
X867410D02*
D03*
X886460D02*
D03*
X876300D02*
D03*
X915670D02*
D03*
X895350D02*
D03*
X905510D02*
D03*
X944880D02*
D03*
X924560D02*
D03*
X934720D02*
D03*
Y1090930D02*
D03*
X924560D02*
D03*
X944880D02*
D03*
X905510D02*
D03*
X895350D02*
D03*
X915670D02*
D03*
X1290320Y1107440D02*
D03*
Y1099820D02*
D03*
Y1092200D02*
D03*
Y1115060D02*
D03*
X876300Y1090930D02*
D03*
X886460D02*
D03*
X971550Y1027430D02*
D03*
X1235710Y915604D02*
D03*
Y1037524D02*
D03*
Y1057844D02*
D03*
Y1047684D02*
D03*
Y1027364D02*
D03*
X1174750Y1068004D02*
D03*
X1215390D02*
D03*
X1144270D02*
D03*
X1123950D02*
D03*
X1134110D02*
D03*
X1154430D02*
D03*
X1235710D02*
D03*
X1225550D02*
D03*
X1113790D02*
D03*
X1205230D02*
D03*
X1164590D02*
D03*
X1184910D02*
D03*
X1195070D02*
D03*
X1225550Y1057844D02*
D03*
X1215390D02*
D03*
X1205230D02*
D03*
X1195070D02*
D03*
X1184910D02*
D03*
X1174750D02*
D03*
X1164590D02*
D03*
X1154430D02*
D03*
X1144270D02*
D03*
X1134110D02*
D03*
X1123950D02*
D03*
X1113790D02*
D03*
X1225550Y1047684D02*
D03*
X1215390D02*
D03*
X1205230D02*
D03*
X1195070D02*
D03*
X1184910D02*
D03*
X1174750D02*
D03*
X1164590D02*
D03*
X1154430D02*
D03*
X1144270D02*
D03*
X1134110D02*
D03*
X1123950D02*
D03*
X1113790D02*
D03*
X1225550Y1037524D02*
D03*
X1215390D02*
D03*
X1205230D02*
D03*
X1195070D02*
D03*
X1184910D02*
D03*
X1174750D02*
D03*
X1164590D02*
D03*
X1154430D02*
D03*
X1144270D02*
D03*
X1134110D02*
D03*
X1123950D02*
D03*
X1113790D02*
D03*
X1225550Y1027364D02*
D03*
X1215390D02*
D03*
X1205230D02*
D03*
X1195070D02*
D03*
X1184910D02*
D03*
X1174750D02*
D03*
X1164590D02*
D03*
X1154430D02*
D03*
X1144270D02*
D03*
X1134110D02*
D03*
X1123950D02*
D03*
X1113790D02*
D03*
X1235710Y1017204D02*
D03*
X1225550D02*
D03*
X1215390D02*
D03*
X1205230D02*
D03*
X1195070D02*
D03*
X1184910D02*
D03*
X1174750D02*
D03*
X1164590D02*
D03*
X1154430D02*
D03*
X1144270D02*
D03*
X1134110D02*
D03*
X1123950D02*
D03*
X1113790D02*
D03*
X1235710Y1007044D02*
D03*
X1225550D02*
D03*
X1215390D02*
D03*
X1205230D02*
D03*
X1195070D02*
D03*
X1184910D02*
D03*
X1174750D02*
D03*
X1164590D02*
D03*
X1154430D02*
D03*
X1144270D02*
D03*
X1134110D02*
D03*
X1123950D02*
D03*
X1113790D02*
D03*
X1235710Y996884D02*
D03*
X1225550D02*
D03*
X1215390D02*
D03*
X1205230D02*
D03*
X1195070D02*
D03*
X1184910D02*
D03*
X1174750D02*
D03*
X1164590D02*
D03*
X1154430D02*
D03*
X1144270D02*
D03*
X1134110D02*
D03*
X1123950D02*
D03*
X1113790D02*
D03*
X1235710Y986724D02*
D03*
X1225550D02*
D03*
X1215390D02*
D03*
X1205230D02*
D03*
X1195070D02*
D03*
X1184910D02*
D03*
X1174750D02*
D03*
X1164590D02*
D03*
X1154430D02*
D03*
X1144270D02*
D03*
X1134110D02*
D03*
X1123950D02*
D03*
X1113790D02*
D03*
X1235710Y976564D02*
D03*
X1225550D02*
D03*
X1215390D02*
D03*
X1205230D02*
D03*
X1195070D02*
D03*
X1184910D02*
D03*
X1174750D02*
D03*
X1164590D02*
D03*
X1154430D02*
D03*
X1144270D02*
D03*
X1134110D02*
D03*
X1123950D02*
D03*
X1113790D02*
D03*
X1235710Y966404D02*
D03*
X1225550D02*
D03*
X1215390D02*
D03*
X1205230D02*
D03*
X1195070D02*
D03*
X1184910D02*
D03*
X1174750D02*
D03*
X1164590D02*
D03*
X1154430D02*
D03*
X1144270D02*
D03*
X1134110D02*
D03*
X1123950D02*
D03*
X1113790D02*
D03*
X1235710Y956244D02*
D03*
X1225550D02*
D03*
X1215390D02*
D03*
X1205230D02*
D03*
X1195070D02*
D03*
X1184910D02*
D03*
X1174750D02*
D03*
X1164590D02*
D03*
X1154430D02*
D03*
X1144270D02*
D03*
X1134110D02*
D03*
X1123950D02*
D03*
X1113790D02*
D03*
X1235710Y946084D02*
D03*
X1225550D02*
D03*
X1215390D02*
D03*
X1205230D02*
D03*
X1195070D02*
D03*
X1184910D02*
D03*
X1174750D02*
D03*
X1164590D02*
D03*
X1154430D02*
D03*
X1144270D02*
D03*
X1134110D02*
D03*
X1123950D02*
D03*
X1113790D02*
D03*
X1235710Y935924D02*
D03*
X1225550D02*
D03*
X1215390D02*
D03*
X1205230D02*
D03*
X1195070D02*
D03*
X1184910D02*
D03*
X1174750D02*
D03*
X1164590D02*
D03*
X1154430D02*
D03*
X1144270D02*
D03*
X1134110D02*
D03*
X1123950D02*
D03*
X1113790D02*
D03*
X1235710Y925764D02*
D03*
X1225550D02*
D03*
X1215390D02*
D03*
X1205230D02*
D03*
X1195070D02*
D03*
X1184910D02*
D03*
X1174750D02*
D03*
X1164590D02*
D03*
X1154430D02*
D03*
X1144270D02*
D03*
X1134110D02*
D03*
X1123950D02*
D03*
X1113790D02*
D03*
X1225550Y915604D02*
D03*
X1215390D02*
D03*
X1205230D02*
D03*
X1195070D02*
D03*
X1184910D02*
D03*
X1174750D02*
D03*
X1164590D02*
D03*
X1154430D02*
D03*
X1144270D02*
D03*
X1134110D02*
D03*
X1123950D02*
D03*
X1235710Y905444D02*
D03*
X1225550D02*
D03*
X1215390D02*
D03*
X1205230D02*
D03*
X1195070D02*
D03*
X1184910D02*
D03*
X1174750D02*
D03*
X1164590D02*
D03*
X1154430D02*
D03*
X1144270D02*
D03*
X1134110D02*
D03*
X1113790D02*
D03*
Y915604D02*
D03*
X1052830Y905510D02*
D03*
X1062990D02*
D03*
X1083310D02*
D03*
X1042670Y915670D02*
D03*
X1052830D02*
D03*
X1062990D02*
D03*
X1073150D02*
D03*
X1032510Y925830D02*
D03*
X1042670D02*
D03*
X1052830D02*
D03*
X1062990D02*
D03*
X1073150D02*
D03*
X1083310D02*
D03*
X1093470D02*
D03*
X1022350Y935990D02*
D03*
X1032510D02*
D03*
X1042670D02*
D03*
X1052830D02*
D03*
X1062990D02*
D03*
X1073150D02*
D03*
X1083310D02*
D03*
X1093470D02*
D03*
X1012190Y946150D02*
D03*
X1022350D02*
D03*
X1032510D02*
D03*
X1042670D02*
D03*
X1052830D02*
D03*
X1062990D02*
D03*
X1073150D02*
D03*
X1083310D02*
D03*
X1093470D02*
D03*
X971550Y956310D02*
D03*
X981710D02*
D03*
X991870D02*
D03*
X1002030D02*
D03*
X1012190D02*
D03*
X1022350D02*
D03*
X1032510D02*
D03*
X1042670D02*
D03*
X1052830D02*
D03*
X1062990D02*
D03*
X1073150D02*
D03*
X1083310D02*
D03*
X1093470D02*
D03*
X971550Y966470D02*
D03*
X981710D02*
D03*
X991870D02*
D03*
X1002030D02*
D03*
X1012190D02*
D03*
X1022350D02*
D03*
X1032510D02*
D03*
X1042670D02*
D03*
X1052830D02*
D03*
X1062990D02*
D03*
X1073150D02*
D03*
X1083310D02*
D03*
X1093470D02*
D03*
X971550Y976630D02*
D03*
X981710D02*
D03*
X991870D02*
D03*
X1002030D02*
D03*
X1012190D02*
D03*
X1022350D02*
D03*
X1032510D02*
D03*
X1042670D02*
D03*
X1052830D02*
D03*
X1062990D02*
D03*
X1073150D02*
D03*
X1083310D02*
D03*
X1093470D02*
D03*
X971550Y986790D02*
D03*
X981710D02*
D03*
X991870D02*
D03*
X1002030D02*
D03*
X1012190D02*
D03*
X1022350D02*
D03*
X1032510D02*
D03*
X1042670D02*
D03*
X1052830D02*
D03*
X1062990D02*
D03*
X1073150D02*
D03*
X1083310D02*
D03*
X1093470D02*
D03*
X971550Y996950D02*
D03*
X981710D02*
D03*
X991870D02*
D03*
X1002030D02*
D03*
X1012190D02*
D03*
X1022350D02*
D03*
X1032510D02*
D03*
X1042670D02*
D03*
X1052830D02*
D03*
X1062990D02*
D03*
X1073150D02*
D03*
X1083310D02*
D03*
X1093470D02*
D03*
X971550Y1007110D02*
D03*
X981710D02*
D03*
X991870D02*
D03*
X1002030D02*
D03*
X1012190D02*
D03*
X1022350D02*
D03*
X1032510D02*
D03*
X1042670D02*
D03*
X1052830D02*
D03*
X1062990D02*
D03*
X1073150D02*
D03*
X1083310D02*
D03*
X1093470D02*
D03*
X971550Y1017270D02*
D03*
X981710D02*
D03*
X991870D02*
D03*
X1002030D02*
D03*
X1012190D02*
D03*
X1022350D02*
D03*
X1032510D02*
D03*
X1042670D02*
D03*
X1052830D02*
D03*
X1062990D02*
D03*
X1073150D02*
D03*
X1083310D02*
D03*
X1093470D02*
D03*
X981710Y1027430D02*
D03*
X991870D02*
D03*
X1002030D02*
D03*
X1012190D02*
D03*
X1022350D02*
D03*
X1032510D02*
D03*
X1042670D02*
D03*
X1052830D02*
D03*
X1062990D02*
D03*
X1073150D02*
D03*
X1083310D02*
D03*
X971550Y1037590D02*
D03*
X981710D02*
D03*
X991870D02*
D03*
X1002030D02*
D03*
X1012190D02*
D03*
X1022350D02*
D03*
X1032510D02*
D03*
X1042670D02*
D03*
X1052830D02*
D03*
X1062990D02*
D03*
X1073150D02*
D03*
X1083310D02*
D03*
X971550Y1047750D02*
D03*
X981710D02*
D03*
X991870D02*
D03*
X1002030D02*
D03*
X1012190D02*
D03*
X1022350D02*
D03*
X1032510D02*
D03*
X1042670D02*
D03*
X1052830D02*
D03*
X1062990D02*
D03*
X1073150D02*
D03*
X1083310D02*
D03*
X971550Y1057910D02*
D03*
X981710D02*
D03*
X991870D02*
D03*
X1002030D02*
D03*
X1012190D02*
D03*
X1022350D02*
D03*
X1032510D02*
D03*
X1042670D02*
D03*
X1052830D02*
D03*
X1062990D02*
D03*
X1073150D02*
D03*
X1083310D02*
D03*
X1052830Y1068070D02*
D03*
X1042670D02*
D03*
X1022350D02*
D03*
X1062990D02*
D03*
X971550D02*
D03*
X1083310D02*
D03*
X1093470D02*
D03*
X1012190D02*
D03*
X991870D02*
D03*
X981710D02*
D03*
X1002030D02*
D03*
X1073150D02*
D03*
X1032510D02*
D03*
X1093470Y1027430D02*
D03*
Y1047750D02*
D03*
Y1057910D02*
D03*
Y1037590D02*
D03*
Y915670D02*
D03*
X834390D02*
D03*
X535940Y1068070D02*
D03*
X525780D02*
D03*
X546100D02*
D03*
X556260D02*
D03*
X535940Y1060450D02*
D03*
X525780D02*
D03*
X546100D02*
D03*
X556260D02*
D03*
X535940Y1052830D02*
D03*
X525780D02*
D03*
X546100D02*
D03*
X556260D02*
D03*
X535940Y1075690D02*
D03*
X556260D02*
D03*
X525780D02*
D03*
X546100D02*
D03*
X535940Y1098550D02*
D03*
X525780D02*
D03*
X546100D02*
D03*
X556260D02*
D03*
X535940Y1090930D02*
D03*
X525780D02*
D03*
X546100D02*
D03*
X556260D02*
D03*
X535940Y1083310D02*
D03*
X525780D02*
D03*
X546100D02*
D03*
X556260D02*
D03*
X535940Y1106170D02*
D03*
X556260D02*
D03*
X525780D02*
D03*
X546100D02*
D03*
X867410Y1090930D02*
D03*
X847090D02*
D03*
X857250D02*
D03*
X834390Y1037590D02*
D03*
Y1057910D02*
D03*
Y1047750D02*
D03*
Y1027430D02*
D03*
X773430Y1068070D02*
D03*
X814070D02*
D03*
X742950D02*
D03*
X722630D02*
D03*
X681990D02*
D03*
X671830D02*
D03*
X661670D02*
D03*
X732790D02*
D03*
X753110D02*
D03*
X834390D02*
D03*
X824230D02*
D03*
X641350D02*
D03*
X712470D02*
D03*
X692150D02*
D03*
X803910D02*
D03*
X763270D02*
D03*
X783590D02*
D03*
X651510D02*
D03*
X580390D02*
D03*
X600710D02*
D03*
X590550D02*
D03*
X570230D02*
D03*
X793750D02*
D03*
X610870D02*
D03*
X621030D02*
D03*
X631190D02*
D03*
X824230Y1057910D02*
D03*
X814070D02*
D03*
X803910D02*
D03*
X793750D02*
D03*
X783590D02*
D03*
X773430D02*
D03*
X763270D02*
D03*
X753110D02*
D03*
X742950D02*
D03*
X732790D02*
D03*
X722630D02*
D03*
X712470D02*
D03*
X824230Y1047750D02*
D03*
X814070D02*
D03*
X803910D02*
D03*
X793750D02*
D03*
X783590D02*
D03*
X773430D02*
D03*
X763270D02*
D03*
X753110D02*
D03*
X742950D02*
D03*
X732790D02*
D03*
X722630D02*
D03*
X712470D02*
D03*
X824230Y1037590D02*
D03*
X814070D02*
D03*
X803910D02*
D03*
X793750D02*
D03*
X783590D02*
D03*
X773430D02*
D03*
X763270D02*
D03*
X753110D02*
D03*
X742950D02*
D03*
X732790D02*
D03*
X722630D02*
D03*
X712470D02*
D03*
X824230Y1027430D02*
D03*
X814070D02*
D03*
X803910D02*
D03*
X793750D02*
D03*
X783590D02*
D03*
X773430D02*
D03*
X763270D02*
D03*
X753110D02*
D03*
X742950D02*
D03*
X732790D02*
D03*
X722630D02*
D03*
X712470D02*
D03*
X834390Y1017270D02*
D03*
X824230D02*
D03*
X814070D02*
D03*
X803910D02*
D03*
X793750D02*
D03*
X783590D02*
D03*
X773430D02*
D03*
X763270D02*
D03*
X753110D02*
D03*
X742950D02*
D03*
X732790D02*
D03*
X722630D02*
D03*
X712470D02*
D03*
X834390Y1007110D02*
D03*
X824230D02*
D03*
X814070D02*
D03*
X803910D02*
D03*
X793750D02*
D03*
X783590D02*
D03*
X773430D02*
D03*
X763270D02*
D03*
X753110D02*
D03*
X742950D02*
D03*
X732790D02*
D03*
X722630D02*
D03*
X712470D02*
D03*
X834390Y996950D02*
D03*
X824230D02*
D03*
X814070D02*
D03*
X803910D02*
D03*
X793750D02*
D03*
X783590D02*
D03*
X773430D02*
D03*
X763270D02*
D03*
X753110D02*
D03*
X742950D02*
D03*
X732790D02*
D03*
X722630D02*
D03*
X712470D02*
D03*
X834390Y986790D02*
D03*
X824230D02*
D03*
X814070D02*
D03*
X803910D02*
D03*
X793750D02*
D03*
X783590D02*
D03*
X773430D02*
D03*
X763270D02*
D03*
X753110D02*
D03*
X742950D02*
D03*
X732790D02*
D03*
X722630D02*
D03*
X712470D02*
D03*
X834390Y976630D02*
D03*
X824230D02*
D03*
X814070D02*
D03*
X803910D02*
D03*
X793750D02*
D03*
X783590D02*
D03*
X773430D02*
D03*
X763270D02*
D03*
X753110D02*
D03*
X742950D02*
D03*
X732790D02*
D03*
X722630D02*
D03*
X712470D02*
D03*
X834390Y966470D02*
D03*
X824230D02*
D03*
X814070D02*
D03*
X803910D02*
D03*
X793750D02*
D03*
X783590D02*
D03*
X773430D02*
D03*
X763270D02*
D03*
X753110D02*
D03*
X742950D02*
D03*
X732790D02*
D03*
X722630D02*
D03*
X712470D02*
D03*
X834390Y956310D02*
D03*
X824230D02*
D03*
X814070D02*
D03*
X803910D02*
D03*
X793750D02*
D03*
X783590D02*
D03*
X773430D02*
D03*
X763270D02*
D03*
X753110D02*
D03*
X742950D02*
D03*
X732790D02*
D03*
X722630D02*
D03*
X712470D02*
D03*
X834390Y946150D02*
D03*
X824230D02*
D03*
X814070D02*
D03*
X803910D02*
D03*
X793750D02*
D03*
X783590D02*
D03*
X773430D02*
D03*
X763270D02*
D03*
X753110D02*
D03*
X742950D02*
D03*
X732790D02*
D03*
X722630D02*
D03*
X712470D02*
D03*
X834390Y935990D02*
D03*
X824230D02*
D03*
X814070D02*
D03*
X803910D02*
D03*
X793750D02*
D03*
X783590D02*
D03*
X773430D02*
D03*
X763270D02*
D03*
X753110D02*
D03*
X742950D02*
D03*
X732790D02*
D03*
X722630D02*
D03*
X712470D02*
D03*
X834390Y925830D02*
D03*
X824230D02*
D03*
X814070D02*
D03*
X803910D02*
D03*
X793750D02*
D03*
X783590D02*
D03*
X773430D02*
D03*
X763270D02*
D03*
X753110D02*
D03*
X742950D02*
D03*
X732790D02*
D03*
X722630D02*
D03*
X712470D02*
D03*
X824230Y915670D02*
D03*
X814070D02*
D03*
X803910D02*
D03*
X793750D02*
D03*
X783590D02*
D03*
X773430D02*
D03*
X763270D02*
D03*
X753110D02*
D03*
X742950D02*
D03*
X732790D02*
D03*
X722630D02*
D03*
X712470D02*
D03*
X834390Y905510D02*
D03*
X824230D02*
D03*
X814070D02*
D03*
X803910D02*
D03*
X793750D02*
D03*
X783590D02*
D03*
X773430D02*
D03*
X763270D02*
D03*
X753110D02*
D03*
X742950D02*
D03*
X732790D02*
D03*
X722630D02*
D03*
X712470D02*
D03*
X570230D02*
D03*
X580390D02*
D03*
X590550D02*
D03*
X600710D02*
D03*
X610870D02*
D03*
X621030D02*
D03*
X631190D02*
D03*
X641350D02*
D03*
X651510D02*
D03*
X661670D02*
D03*
X671830D02*
D03*
X681990D02*
D03*
X692150D02*
D03*
X570230Y915670D02*
D03*
X580390D02*
D03*
X590550D02*
D03*
X600710D02*
D03*
X610870D02*
D03*
X621030D02*
D03*
X631190D02*
D03*
X641350D02*
D03*
X651510D02*
D03*
X661670D02*
D03*
X671830D02*
D03*
X681990D02*
D03*
X692150D02*
D03*
X570230Y925830D02*
D03*
X580390D02*
D03*
X590550D02*
D03*
X600710D02*
D03*
X610870D02*
D03*
X621030D02*
D03*
X631190D02*
D03*
X641350D02*
D03*
X651510D02*
D03*
X661670D02*
D03*
X671830D02*
D03*
X681990D02*
D03*
X692150D02*
D03*
X570230Y935990D02*
D03*
X580390D02*
D03*
X590550D02*
D03*
X600710D02*
D03*
X610870D02*
D03*
X621030D02*
D03*
X631190D02*
D03*
X641350D02*
D03*
X651510D02*
D03*
X661670D02*
D03*
X671830D02*
D03*
X681990D02*
D03*
X692150D02*
D03*
X570230Y946150D02*
D03*
X580390D02*
D03*
X590550D02*
D03*
X600710D02*
D03*
X610870D02*
D03*
X621030D02*
D03*
X631190D02*
D03*
X641350D02*
D03*
X651510D02*
D03*
X661670D02*
D03*
X671830D02*
D03*
X681990D02*
D03*
X692150D02*
D03*
X570230Y956310D02*
D03*
X580390D02*
D03*
X590550D02*
D03*
X600710D02*
D03*
X610870D02*
D03*
X621030D02*
D03*
X631190D02*
D03*
X641350D02*
D03*
X651510D02*
D03*
X661670D02*
D03*
X671830D02*
D03*
X681990D02*
D03*
X692150D02*
D03*
X570230Y966470D02*
D03*
X580390D02*
D03*
X590550D02*
D03*
X600710D02*
D03*
X610870D02*
D03*
X621030D02*
D03*
X631190D02*
D03*
X641350D02*
D03*
X651510D02*
D03*
X661670D02*
D03*
X671830D02*
D03*
X681990D02*
D03*
X692150D02*
D03*
X570230Y976630D02*
D03*
X580390D02*
D03*
X590550D02*
D03*
X600710D02*
D03*
X610870D02*
D03*
X621030D02*
D03*
X631190D02*
D03*
X641350D02*
D03*
X651510D02*
D03*
X661670D02*
D03*
X671830D02*
D03*
X681990D02*
D03*
X692150D02*
D03*
X570230Y986790D02*
D03*
X580390D02*
D03*
X590550D02*
D03*
X600710D02*
D03*
X610870D02*
D03*
X621030D02*
D03*
X631190D02*
D03*
X641350D02*
D03*
X651510D02*
D03*
X661670D02*
D03*
X671830D02*
D03*
X681990D02*
D03*
X692150D02*
D03*
X570230Y996950D02*
D03*
X580390D02*
D03*
X590550D02*
D03*
X600710D02*
D03*
X610870D02*
D03*
X621030D02*
D03*
X631190D02*
D03*
X641350D02*
D03*
X651510D02*
D03*
X661670D02*
D03*
X671830D02*
D03*
X681990D02*
D03*
X692150D02*
D03*
X570230Y1007110D02*
D03*
X580390D02*
D03*
X590550D02*
D03*
X600710D02*
D03*
X610870D02*
D03*
X621030D02*
D03*
X631190D02*
D03*
X641350D02*
D03*
X651510D02*
D03*
X661670D02*
D03*
X671830D02*
D03*
X681990D02*
D03*
X692150D02*
D03*
X570230Y1017270D02*
D03*
X580390D02*
D03*
X590550D02*
D03*
X600710D02*
D03*
X610870D02*
D03*
X621030D02*
D03*
X631190D02*
D03*
X641350D02*
D03*
X651510D02*
D03*
X661670D02*
D03*
X671830D02*
D03*
X681990D02*
D03*
X692150D02*
D03*
X570230Y1027430D02*
D03*
X580390D02*
D03*
X590550D02*
D03*
X600710D02*
D03*
X610870D02*
D03*
X621030D02*
D03*
X631190D02*
D03*
X641350D02*
D03*
X651510D02*
D03*
X661670D02*
D03*
X671830D02*
D03*
X681990D02*
D03*
X692150D02*
D03*
X570230Y1037590D02*
D03*
X580390D02*
D03*
X590550D02*
D03*
X600710D02*
D03*
X610870D02*
D03*
X621030D02*
D03*
X631190D02*
D03*
X641350D02*
D03*
X651510D02*
D03*
X661670D02*
D03*
X671830D02*
D03*
X681990D02*
D03*
X692150D02*
D03*
X570230Y1047750D02*
D03*
X580390D02*
D03*
X590550D02*
D03*
X600710D02*
D03*
X610870D02*
D03*
X621030D02*
D03*
X631190D02*
D03*
X641350D02*
D03*
X651510D02*
D03*
X661670D02*
D03*
X671830D02*
D03*
X681990D02*
D03*
X692150D02*
D03*
X570230Y1057910D02*
D03*
X580390D02*
D03*
X590550D02*
D03*
X600710D02*
D03*
X610870D02*
D03*
X621030D02*
D03*
X631190D02*
D03*
X641350D02*
D03*
X651510D02*
D03*
X661670D02*
D03*
X671830D02*
D03*
X681990D02*
D03*
X692150D02*
D03*
D142*
X556260Y1107440D02*
X886460D01*
X905510D01*
X1290320D01*
D143*
X525780Y1085040D02*
X534210D01*
X291160Y1085040D02*
X525780Y1085040D01*
X240360Y1085040D02*
X291160D01*
M02*
