G04*
G04 #@! TF.GenerationSoftware,Altium Limited,Altium Designer,23.6.0 (18)*
G04*
G04 Layer_Color=8421504*
%FSLAX44Y44*%
%MOMM*%
G71*
G04*
G04 #@! TF.SameCoordinates,7D80C46A-954E-43A3-A214-DA6A50CC5AA0*
G04*
G04*
G04 #@! TF.FilePolarity,Positive*
G04*
G01*
G75*
%ADD20R,1.1900X0.6400*%
%ADD21R,1.1900X0.3400*%
G04:AMPARAMS|DCode=22|XSize=0.79mm|YSize=0.39mm|CornerRadius=0.034mm|HoleSize=0mm|Usage=FLASHONLY|Rotation=0.000|XOffset=0mm|YOffset=0mm|HoleType=Round|Shape=RoundedRectangle|*
%AMROUNDEDRECTD22*
21,1,0.7900,0.3220,0,0,0.0*
21,1,0.7220,0.3900,0,0,0.0*
1,1,0.0680,0.3610,-0.1610*
1,1,0.0680,-0.3610,-0.1610*
1,1,0.0680,-0.3610,0.1610*
1,1,0.0680,0.3610,0.1610*
%
%ADD22ROUNDEDRECTD22*%
%ADD23R,0.6000X2.0000*%
%ADD24R,1.0400X0.8400*%
%ADD25R,0.6604X0.4318*%
%ADD26R,2.1804X1.6300*%
%ADD27R,1.6300X2.1804*%
%ADD28R,0.9900X0.9900*%
%ADD29R,0.8400X1.0400*%
G04:AMPARAMS|DCode=30|XSize=1.25mm|YSize=0.63mm|CornerRadius=0.1675mm|HoleSize=0mm|Usage=FLASHONLY|Rotation=90.000|XOffset=0mm|YOffset=0mm|HoleType=Round|Shape=RoundedRectangle|*
%AMROUNDEDRECTD30*
21,1,1.2500,0.2950,0,0,90.0*
21,1,0.9150,0.6300,0,0,90.0*
1,1,0.3350,0.1475,0.4575*
1,1,0.3350,0.1475,-0.4575*
1,1,0.3350,-0.1475,-0.4575*
1,1,0.3350,-0.1475,0.4575*
%
%ADD30ROUNDEDRECTD30*%
%ADD31R,0.9400X0.9400*%
%ADD32R,0.9400X1.5400*%
%ADD33R,1.5400X0.9400*%
%ADD34R,1.6000X1.0000*%
G04:AMPARAMS|DCode=35|XSize=1.35mm|YSize=0.97mm|CornerRadius=0.0898mm|HoleSize=0mm|Usage=FLASHONLY|Rotation=0.000|XOffset=0mm|YOffset=0mm|HoleType=Round|Shape=RoundedRectangle|*
%AMROUNDEDRECTD35*
21,1,1.3500,0.7905,0,0,0.0*
21,1,1.1705,0.9700,0,0,0.0*
1,1,0.1795,0.5853,-0.3953*
1,1,0.1795,-0.5853,-0.3953*
1,1,0.1795,-0.5853,0.3953*
1,1,0.1795,0.5853,0.3953*
%
%ADD35ROUNDEDRECTD35*%
G04:AMPARAMS|DCode=36|XSize=1.35mm|YSize=3.28mm|CornerRadius=0.1183mm|HoleSize=0mm|Usage=FLASHONLY|Rotation=0.000|XOffset=0mm|YOffset=0mm|HoleType=Round|Shape=RoundedRectangle|*
%AMROUNDEDRECTD36*
21,1,1.3500,3.0435,0,0,0.0*
21,1,1.1135,3.2800,0,0,0.0*
1,1,0.2365,0.5568,-1.5218*
1,1,0.2365,-0.5568,-1.5218*
1,1,0.2365,-0.5568,1.5218*
1,1,0.2365,0.5568,1.5218*
%
%ADD36ROUNDEDRECTD36*%
%ADD37R,0.8400X0.8400*%
%ADD38R,0.2794X0.6064*%
G04:AMPARAMS|DCode=39|XSize=0.59mm|YSize=0.54mm|CornerRadius=0.0825mm|HoleSize=0mm|Usage=FLASHONLY|Rotation=180.000|XOffset=0mm|YOffset=0mm|HoleType=Round|Shape=RoundedRectangle|*
%AMROUNDEDRECTD39*
21,1,0.5900,0.3750,0,0,180.0*
21,1,0.4250,0.5400,0,0,180.0*
1,1,0.1650,-0.2125,0.1875*
1,1,0.1650,0.2125,0.1875*
1,1,0.1650,0.2125,-0.1875*
1,1,0.1650,-0.2125,-0.1875*
%
%ADD39ROUNDEDRECTD39*%
%ADD40R,1.5900X5.6400*%
G04:AMPARAMS|DCode=41|XSize=0.8mm|YSize=0.7004mm|CornerRadius=0.1026mm|HoleSize=0mm|Usage=FLASHONLY|Rotation=270.000|XOffset=0mm|YOffset=0mm|HoleType=Round|Shape=RoundedRectangle|*
%AMROUNDEDRECTD41*
21,1,0.8000,0.4953,0,0,270.0*
21,1,0.5949,0.7004,0,0,270.0*
1,1,0.2051,-0.2477,-0.2975*
1,1,0.2051,-0.2477,0.2975*
1,1,0.2051,0.2477,0.2975*
1,1,0.2051,0.2477,-0.2975*
%
%ADD41ROUNDEDRECTD41*%
G04:AMPARAMS|DCode=42|XSize=1.34mm|YSize=0.8mm|CornerRadius=0.115mm|HoleSize=0mm|Usage=FLASHONLY|Rotation=90.000|XOffset=0mm|YOffset=0mm|HoleType=Round|Shape=RoundedRectangle|*
%AMROUNDEDRECTD42*
21,1,1.3400,0.5700,0,0,90.0*
21,1,1.1100,0.8000,0,0,90.0*
1,1,0.2300,0.2850,0.5550*
1,1,0.2300,0.2850,-0.5550*
1,1,0.2300,-0.2850,-0.5550*
1,1,0.2300,-0.2850,0.5550*
%
%ADD42ROUNDEDRECTD42*%
%ADD43R,3.5400X3.5900*%
%ADD44R,1.0400X1.1400*%
%ADD45R,1.4400X2.1400*%
%ADD46R,0.9900X0.9900*%
G04:AMPARAMS|DCode=47|XSize=1.34mm|YSize=0.8mm|CornerRadius=0.115mm|HoleSize=0mm|Usage=FLASHONLY|Rotation=0.000|XOffset=0mm|YOffset=0mm|HoleType=Round|Shape=RoundedRectangle|*
%AMROUNDEDRECTD47*
21,1,1.3400,0.5700,0,0,0.0*
21,1,1.1100,0.8000,0,0,0.0*
1,1,0.2300,0.5550,-0.2850*
1,1,0.2300,-0.5550,-0.2850*
1,1,0.2300,-0.5550,0.2850*
1,1,0.2300,0.5550,0.2850*
%
%ADD47ROUNDEDRECTD47*%
G04:AMPARAMS|DCode=48|XSize=0.8mm|YSize=0.7004mm|CornerRadius=0.1026mm|HoleSize=0mm|Usage=FLASHONLY|Rotation=0.000|XOffset=0mm|YOffset=0mm|HoleType=Round|Shape=RoundedRectangle|*
%AMROUNDEDRECTD48*
21,1,0.8000,0.4953,0,0,0.0*
21,1,0.5949,0.7004,0,0,0.0*
1,1,0.2051,0.2975,-0.2477*
1,1,0.2051,-0.2975,-0.2477*
1,1,0.2051,-0.2975,0.2477*
1,1,0.2051,0.2975,0.2477*
%
%ADD48ROUNDEDRECTD48*%
%ADD49R,1.0900X1.0400*%
G04:AMPARAMS|DCode=50|XSize=2.01mm|YSize=0.64mm|CornerRadius=0.17mm|HoleSize=0mm|Usage=FLASHONLY|Rotation=0.000|XOffset=0mm|YOffset=0mm|HoleType=Round|Shape=RoundedRectangle|*
%AMROUNDEDRECTD50*
21,1,2.0100,0.3000,0,0,0.0*
21,1,1.6700,0.6400,0,0,0.0*
1,1,0.3400,0.8350,-0.1500*
1,1,0.3400,-0.8350,-0.1500*
1,1,0.3400,-0.8350,0.1500*
1,1,0.3400,0.8350,0.1500*
%
%ADD50ROUNDEDRECTD50*%
%ADD51R,2.4500X3.1160*%
G36*
X568305Y983459D02*
Y988849D01*
X574005D01*
Y983459D01*
X589502Y983459D01*
Y979141D01*
X584802D01*
Y976959D01*
X589502D01*
Y972641D01*
X584802D01*
Y970459D01*
X589502D01*
Y966141D01*
X584802D01*
Y963959D01*
X589502D01*
Y959641D01*
X574005Y959641D01*
Y954251D01*
X568305D01*
Y959641D01*
X566505D01*
Y983459D01*
X568305D01*
D02*
G37*
G36*
Y1027909D02*
Y1033299D01*
X574005D01*
Y1027909D01*
X589502Y1027909D01*
Y1023591D01*
X584802D01*
Y1021409D01*
X589502D01*
Y1017091D01*
X584802D01*
Y1014909D01*
X589502D01*
Y1010591D01*
X584802D01*
Y1008409D01*
X589502D01*
Y1004091D01*
X574005Y1004091D01*
Y998701D01*
X568305D01*
Y1004091D01*
X566505D01*
Y1027909D01*
X568305D01*
D02*
G37*
G36*
X840125Y972341D02*
Y966951D01*
X834425D01*
Y972341D01*
X818928Y972341D01*
Y976659D01*
X823628D01*
Y978841D01*
X818928D01*
Y983159D01*
X823628D01*
Y985341D01*
X818928D01*
Y989659D01*
X823628D01*
Y991841D01*
X818928D01*
Y996159D01*
X834425Y996159D01*
Y1001549D01*
X840125D01*
Y996159D01*
X841925D01*
Y972341D01*
X840125D01*
D02*
G37*
G36*
Y1019331D02*
Y1013941D01*
X834425D01*
Y1019331D01*
X818928Y1019331D01*
Y1023649D01*
X823628D01*
Y1025831D01*
X818928D01*
Y1030149D01*
X823628D01*
Y1032331D01*
X818928D01*
Y1036649D01*
X823628D01*
Y1038831D01*
X818928D01*
Y1043149D01*
X834425Y1043149D01*
Y1048539D01*
X840125D01*
Y1043149D01*
X841925D01*
Y1019331D01*
X840125D01*
D02*
G37*
G36*
X965815Y996159D02*
Y1001549D01*
X971515D01*
Y996159D01*
X987012Y996159D01*
Y991841D01*
X982312D01*
Y989659D01*
X987012D01*
Y985341D01*
X982312D01*
Y983159D01*
X987012D01*
Y978841D01*
X982312D01*
Y976659D01*
X987012D01*
Y972341D01*
X971515Y972341D01*
Y966951D01*
X965815D01*
Y972341D01*
X964015D01*
Y996159D01*
X965815D01*
D02*
G37*
G36*
Y1041879D02*
Y1047269D01*
X971515D01*
Y1041879D01*
X987012Y1041879D01*
Y1037561D01*
X982312D01*
Y1035379D01*
X987012D01*
Y1031061D01*
X982312D01*
Y1028879D01*
X987012D01*
Y1024561D01*
X982312D01*
Y1022379D01*
X987012D01*
Y1018061D01*
X971515Y1018061D01*
Y1012671D01*
X965815D01*
Y1018061D01*
X964015D01*
Y1041879D01*
X965815D01*
D02*
G37*
G36*
X1241445Y972341D02*
Y966951D01*
X1235745D01*
Y972341D01*
X1220248Y972341D01*
Y976659D01*
X1224948D01*
Y978841D01*
X1220248D01*
Y983159D01*
X1224948D01*
Y985341D01*
X1220248D01*
Y989659D01*
X1224948D01*
Y991841D01*
X1220248D01*
Y996159D01*
X1235745Y996159D01*
Y1001549D01*
X1241445D01*
Y996159D01*
X1243245D01*
Y972341D01*
X1241445D01*
D02*
G37*
G36*
Y1018061D02*
Y1012671D01*
X1235745D01*
Y1018061D01*
X1220248Y1018061D01*
Y1022379D01*
X1224948D01*
Y1024561D01*
X1220248D01*
Y1028879D01*
X1224948D01*
Y1031061D01*
X1220248D01*
Y1035379D01*
X1224948D01*
Y1037561D01*
X1220248D01*
Y1041879D01*
X1235745Y1041879D01*
Y1047269D01*
X1241445D01*
Y1041879D01*
X1243245D01*
Y1018061D01*
X1241445D01*
D02*
G37*
D20*
X73440Y222090D02*
D03*
Y158090D02*
D03*
Y214090D02*
D03*
Y166090D02*
D03*
D21*
Y187590D02*
D03*
Y192590D02*
D03*
Y182590D02*
D03*
Y177590D02*
D03*
Y172590D02*
D03*
Y197590D02*
D03*
Y202590D02*
D03*
Y207590D02*
D03*
D22*
X95750Y195210D02*
D03*
Y190210D02*
D03*
Y185210D02*
D03*
X109550D02*
D03*
Y190210D02*
D03*
Y195210D02*
D03*
D23*
X977900Y643890D02*
D03*
X990600D02*
D03*
X1003300D02*
D03*
X1016000D02*
D03*
X1028700D02*
D03*
X1041400D02*
D03*
X1054100D02*
D03*
X1066800D02*
D03*
X1079500D02*
D03*
X1092200D02*
D03*
Y737890D02*
D03*
X1079500D02*
D03*
X1066800D02*
D03*
X1054100D02*
D03*
X1041400D02*
D03*
X1028700D02*
D03*
X1016000D02*
D03*
X1003300D02*
D03*
X990600D02*
D03*
X977900D02*
D03*
X584200Y645150D02*
D03*
X596900D02*
D03*
X609600D02*
D03*
X622300D02*
D03*
X635000D02*
D03*
X647700D02*
D03*
X660400D02*
D03*
X673100D02*
D03*
X685800D02*
D03*
X698500D02*
D03*
Y739150D02*
D03*
X685800D02*
D03*
X673100D02*
D03*
X660400D02*
D03*
X647700D02*
D03*
X635000D02*
D03*
X622300D02*
D03*
X609600D02*
D03*
X596900D02*
D03*
X584200D02*
D03*
D24*
X868680Y1023620D02*
D03*
Y1038620D02*
D03*
X952500Y943730D02*
D03*
Y958730D02*
D03*
X935990Y970280D02*
D03*
Y955280D02*
D03*
X1254760Y943730D02*
D03*
Y958730D02*
D03*
X868680Y972700D02*
D03*
Y957700D02*
D03*
X850900Y943730D02*
D03*
Y958730D02*
D03*
X868680Y990720D02*
D03*
Y1005720D02*
D03*
X1272540Y1037470D02*
D03*
Y1022470D02*
D03*
X935990Y1022470D02*
D03*
Y1037470D02*
D03*
X1272540Y1004450D02*
D03*
Y989450D02*
D03*
X935990Y989450D02*
D03*
Y1004450D02*
D03*
X1272540Y956430D02*
D03*
Y971430D02*
D03*
X539750Y1007350D02*
D03*
Y1022350D02*
D03*
Y975600D02*
D03*
Y990600D02*
D03*
Y945000D02*
D03*
Y960000D02*
D03*
X554990Y927220D02*
D03*
Y942220D02*
D03*
X25730Y530980D02*
D03*
Y545980D02*
D03*
X185420Y736600D02*
D03*
Y751600D02*
D03*
X413430Y1088700D02*
D03*
Y1103700D02*
D03*
X382950Y1088700D02*
D03*
Y1103700D02*
D03*
X347390Y1088700D02*
D03*
Y1103700D02*
D03*
X339770Y953840D02*
D03*
Y938840D02*
D03*
X375330Y956380D02*
D03*
Y941380D02*
D03*
X410890Y956380D02*
D03*
Y941380D02*
D03*
X25730Y564000D02*
D03*
Y579000D02*
D03*
D25*
X851630Y974500D02*
D03*
Y981000D02*
D03*
Y987500D02*
D03*
Y994000D02*
D03*
Y1021490D02*
D03*
Y1027990D02*
D03*
Y1034490D02*
D03*
Y1040990D02*
D03*
X1252950Y1039720D02*
D03*
Y1033220D02*
D03*
Y1026720D02*
D03*
Y1020220D02*
D03*
X954310D02*
D03*
Y1026720D02*
D03*
Y1033220D02*
D03*
Y1039720D02*
D03*
X1252950Y994000D02*
D03*
Y987500D02*
D03*
Y981000D02*
D03*
Y974500D02*
D03*
X954310D02*
D03*
Y981000D02*
D03*
Y987500D02*
D03*
Y994000D02*
D03*
X556800Y1006250D02*
D03*
Y1012750D02*
D03*
Y1019250D02*
D03*
Y1025750D02*
D03*
Y961800D02*
D03*
Y968300D02*
D03*
Y974800D02*
D03*
Y981300D02*
D03*
D26*
X1159032Y648970D02*
D03*
X1121888D02*
D03*
X768572Y650000D02*
D03*
X731428D02*
D03*
D27*
X934720Y709452D02*
D03*
Y672308D02*
D03*
X540000Y708572D02*
D03*
Y671428D02*
D03*
D28*
X773430Y688140D02*
D03*
Y675640D02*
D03*
X1109980Y725270D02*
D03*
Y737770D02*
D03*
X960120Y684630D02*
D03*
Y697130D02*
D03*
X1163320Y688240D02*
D03*
Y675740D02*
D03*
X715010Y727810D02*
D03*
Y740310D02*
D03*
X565150Y687170D02*
D03*
Y699670D02*
D03*
X426130Y927190D02*
D03*
Y914690D02*
D03*
X365170Y1089950D02*
D03*
Y1102450D02*
D03*
X393110Y955130D02*
D03*
Y942630D02*
D03*
X357550Y952590D02*
D03*
Y940090D02*
D03*
X428670Y1074510D02*
D03*
Y1062010D02*
D03*
X60020Y274320D02*
D03*
Y286820D02*
D03*
D29*
X1064140Y623570D02*
D03*
X1049140D02*
D03*
X1082040D02*
D03*
X1097040D02*
D03*
X988180D02*
D03*
X1003180D02*
D03*
X673100Y622300D02*
D03*
X688100D02*
D03*
X594480D02*
D03*
X609480D02*
D03*
X721240D02*
D03*
X706240D02*
D03*
X235040Y342900D02*
D03*
X220040D02*
D03*
X119590Y210820D02*
D03*
X104590D02*
D03*
X104590Y168910D02*
D03*
X119590D02*
D03*
X415850Y890460D02*
D03*
X400850D02*
D03*
X360210Y903160D02*
D03*
X375210D02*
D03*
X360210Y923480D02*
D03*
X375210D02*
D03*
X377630Y1070800D02*
D03*
X362630D02*
D03*
X377750Y1050480D02*
D03*
X362750D02*
D03*
X400850Y1037780D02*
D03*
X415850D02*
D03*
X253180Y186690D02*
D03*
X268180D02*
D03*
X179640Y143510D02*
D03*
X194640D02*
D03*
X155500Y893000D02*
D03*
X140500D02*
D03*
X147880Y862520D02*
D03*
X132880D02*
D03*
X99860D02*
D03*
X114860D02*
D03*
D30*
X1144500Y92550D02*
D03*
X1163500D02*
D03*
Y67450D02*
D03*
X1154000D02*
D03*
X1144500D02*
D03*
X614500D02*
D03*
X624000D02*
D03*
X633500D02*
D03*
Y92550D02*
D03*
X614500D02*
D03*
X884500Y67450D02*
D03*
X894000D02*
D03*
X903500D02*
D03*
Y92550D02*
D03*
X884500D02*
D03*
X1142720Y381150D02*
D03*
X1152220D02*
D03*
X1161720D02*
D03*
Y406250D02*
D03*
X1142720D02*
D03*
X639800Y406100D02*
D03*
X658800D02*
D03*
Y381000D02*
D03*
X649300D02*
D03*
X639800D02*
D03*
X890600Y406100D02*
D03*
X909600D02*
D03*
Y381000D02*
D03*
X900100D02*
D03*
X890600D02*
D03*
D31*
X70600Y410580D02*
D03*
X84600D02*
D03*
X98600D02*
D03*
Y396580D02*
D03*
Y382580D02*
D03*
X84600D02*
D03*
X70600D02*
D03*
Y396580D02*
D03*
X84600D02*
D03*
D32*
X7400Y499080D02*
D03*
X20100D02*
D03*
X32800D02*
D03*
X45500D02*
D03*
X58200D02*
D03*
X70900D02*
D03*
X83600D02*
D03*
X96300D02*
D03*
X109000D02*
D03*
X121700D02*
D03*
X134400D02*
D03*
X147100D02*
D03*
X159800D02*
D03*
X172500D02*
D03*
Y324080D02*
D03*
X159800D02*
D03*
X147100D02*
D03*
X134400D02*
D03*
X121700D02*
D03*
X109000D02*
D03*
X96300D02*
D03*
X83600D02*
D03*
X70900D02*
D03*
X58200D02*
D03*
X45500D02*
D03*
X32800D02*
D03*
X20100D02*
D03*
X7400D02*
D03*
D33*
X185000Y481430D02*
D03*
Y468730D02*
D03*
Y456030D02*
D03*
Y443330D02*
D03*
Y430630D02*
D03*
Y417930D02*
D03*
Y405230D02*
D03*
Y379830D02*
D03*
Y367130D02*
D03*
Y354430D02*
D03*
Y341730D02*
D03*
D34*
Y392530D02*
D03*
D35*
X105310Y292140D02*
D03*
Y269240D02*
D03*
Y246340D02*
D03*
D36*
X172210Y269240D02*
D03*
D37*
X10490Y530980D02*
D03*
Y545980D02*
D03*
X10491Y578999D02*
D03*
Y563999D02*
D03*
D38*
X395770Y908383D02*
D03*
X400770D02*
D03*
X405770D02*
D03*
X410770D02*
D03*
Y923337D02*
D03*
X405770D02*
D03*
X400770D02*
D03*
X395770D02*
D03*
Y1068117D02*
D03*
X400770D02*
D03*
X405770D02*
D03*
X410770D02*
D03*
Y1053163D02*
D03*
X405770D02*
D03*
X400770D02*
D03*
X395770D02*
D03*
D39*
X131140Y189920D02*
D03*
Y180920D02*
D03*
X398190Y1100700D02*
D03*
Y1091700D02*
D03*
D40*
X454140Y941260D02*
D03*
X494640D02*
D03*
X456680Y1083500D02*
D03*
X497180D02*
D03*
D41*
X400730Y875220D02*
D03*
X414730D02*
D03*
X400730Y862520D02*
D03*
X414730D02*
D03*
X400730Y849820D02*
D03*
X414730D02*
D03*
D42*
X467930Y867600D02*
D03*
X485830D02*
D03*
X467930Y849820D02*
D03*
X485830D02*
D03*
X470470Y1020000D02*
D03*
X488370D02*
D03*
X417350D02*
D03*
X399450D02*
D03*
X417350Y1002220D02*
D03*
X399450D02*
D03*
X470470D02*
D03*
X488370D02*
D03*
X95820Y974280D02*
D03*
X113720D02*
D03*
X95820Y938720D02*
D03*
X113720D02*
D03*
X95820Y956500D02*
D03*
X113720D02*
D03*
D43*
X175940Y1034270D02*
D03*
Y944770D02*
D03*
D44*
X253430Y166370D02*
D03*
X267930D02*
D03*
D45*
X252150Y24350D02*
D03*
Y115350D02*
D03*
X297150D02*
D03*
Y24350D02*
D03*
X163250D02*
D03*
Y115350D02*
D03*
X208250D02*
D03*
Y24350D02*
D03*
D46*
X253160Y147320D02*
D03*
X265660D02*
D03*
D47*
X77800Y271770D02*
D03*
Y289670D02*
D03*
X37160Y271660D02*
D03*
Y289560D02*
D03*
D48*
X87960Y261000D02*
D03*
Y247000D02*
D03*
X36240Y921560D02*
D03*
Y935560D02*
D03*
D49*
X140500Y910780D02*
D03*
X155500D02*
D03*
X81840Y862520D02*
D03*
X66840D02*
D03*
X69140Y933640D02*
D03*
X54140D02*
D03*
D50*
X69910Y917130D02*
D03*
Y904430D02*
D03*
Y891730D02*
D03*
Y879030D02*
D03*
X119410D02*
D03*
Y891730D02*
D03*
Y904430D02*
D03*
Y917130D02*
D03*
D51*
X94660Y898080D02*
D03*
M02*
