M48
;Layer_Color=9474304
;FILE_FORMAT=4:4
METRIC,LZ
;TYPE=PLATED
T1F00S00C0.2000
T3F00S00C0.7112
T4F00S00C0.8000
T5F00S00C0.8500
T6F00S00C0.8890
T7F00S00C1.3000
;TYPE=NON_PLATED
T8F00S00C0.6500
%
T01
X00084658Y00179832
X0008441Y0019261
X0011844Y001849
X0013876Y0019558
X0014986Y002286
X00127
X0015908Y00304249
X0017178
X0022352Y0030734
X0006604Y0029718
X0004478Y0030988
X0003335Y0030353
X0020881Y00139296
X0026576Y0013335
X0029751Y002286
X0035974Y0019558
X005334Y00381
X0041054Y0074214
X0018575Y0050038
X0020226Y0043688
Y004064
X0020722Y0086246
X0017975Y0092348
X0010482Y0092856
X0009974
X0009466
X0008958
X000845
Y0091713
X0008958
X0009466
X0009974
X0010482
Y0091205
X0009974
X0009466
X0008958
X000845
Y0090697
X0008958
X0009466
X0009974
X0010482
Y0090189
Y0089681
Y0089173
X0009974
X0009466
X0008958
X000845
Y0089681
X0008958
X0009466
X0009974
Y0090189
X0009466
X0008958
X000845
Y0088665
X0008958
X0009466
X0009974
X0010482
Y0088157
X0009974
X0009466
X0008958
X000845
Y0087649
X0008958
X0009466
X0009974
X0010482
Y0087141
X0009974
X0009466
X0008958
X000845
X0007942
X0006926Y0095015
X0033342Y0090316
X0042486Y0089046
X004274Y0094126
X0042613Y0103778
X00401142Y01039828
X0043883Y0108858
X0049979Y0112414
X0049598Y0097174
X00498932Y00822404
X004528Y0081961
X0038676Y0084982
X0034739Y0111144
T03
X004528Y0085998
T04
X0003228Y0007112
X0010828
T05
X006239Y000254
X006493
X006747
X0066835Y003429
X0064295
X0069375
X0071915
X0089695
X0092235
X0094775
X0097315
X009668Y000254
X009414
X00916
X008906
X007001
X011525Y000286
X011779
X012033
X012287
X0122842Y003429
X0120302
X0117762
X0115222
X000337Y0077616
Y0080156
X0003322Y0105846
Y0108386
T06
X0028034Y0029464
Y0032004
Y0034544
Y0037084
T07
X0008961Y0078878
X0014041
X0024201
X0029281
X0029116Y0108504
X0024036
X0013876
X0008796
T08
X0006269Y0016119
Y0021899
M30
