G04*
G04 #@! TF.GenerationSoftware,Altium Limited,Altium Designer,23.6.0 (18)*
G04*
G04 Layer_Color=8388736*
%FSLAX44Y44*%
%MOMM*%
G71*
G04*
G04 #@! TF.SameCoordinates,9D2C5EB8-6DC7-4F60-ACB2-A9AF8CB6E287*
G04*
G04*
G04 #@! TF.FilePolarity,Negative*
G04*
G01*
G75*
%ADD30R,0.2794X0.6064*%
G04:AMPARAMS|DCode=46|XSize=1.36mm|YSize=0.74mm|CornerRadius=0.2225mm|HoleSize=0mm|Usage=FLASHONLY|Rotation=90.000|XOffset=0mm|YOffset=0mm|HoleType=Round|Shape=RoundedRectangle|*
%AMROUNDEDRECTD46*
21,1,1.3600,0.2950,0,0,90.0*
21,1,0.9150,0.7400,0,0,90.0*
1,1,0.4450,0.1475,0.4575*
1,1,0.4450,0.1475,-0.4575*
1,1,0.4450,-0.1475,-0.4575*
1,1,0.4450,-0.1475,0.4575*
%
%ADD46ROUNDEDRECTD46*%
%ADD47R,1.0500X1.0500*%
%ADD48R,1.0500X1.6500*%
%ADD49R,1.6500X1.0500*%
G04:AMPARAMS|DCode=50|XSize=1.46mm|YSize=1.08mm|CornerRadius=0.1447mm|HoleSize=0mm|Usage=FLASHONLY|Rotation=0.000|XOffset=0mm|YOffset=0mm|HoleType=Round|Shape=RoundedRectangle|*
%AMROUNDEDRECTD50*
21,1,1.4600,0.7905,0,0,0.0*
21,1,1.1705,1.0800,0,0,0.0*
1,1,0.2895,0.5853,-0.3953*
1,1,0.2895,-0.5853,-0.3953*
1,1,0.2895,-0.5853,0.3953*
1,1,0.2895,0.5853,0.3953*
%
%ADD50ROUNDEDRECTD50*%
G04:AMPARAMS|DCode=51|XSize=1.46mm|YSize=3.39mm|CornerRadius=0.1733mm|HoleSize=0mm|Usage=FLASHONLY|Rotation=0.000|XOffset=0mm|YOffset=0mm|HoleType=Round|Shape=RoundedRectangle|*
%AMROUNDEDRECTD51*
21,1,1.4600,3.0435,0,0,0.0*
21,1,1.1135,3.3900,0,0,0.0*
1,1,0.3465,0.5568,-1.5218*
1,1,0.3465,-0.5568,-1.5218*
1,1,0.3465,-0.5568,1.5218*
1,1,0.3465,0.5568,1.5218*
%
%ADD51ROUNDEDRECTD51*%
%ADD52R,1.3000X0.4500*%
%ADD53R,1.3000X0.7500*%
%ADD54C,0.7500*%
%ADD55R,0.9500X1.1500*%
%ADD56R,0.9500X0.9500*%
%ADD57R,1.1500X0.9500*%
G04:AMPARAMS|DCode=58|XSize=0.9mm|YSize=0.5mm|CornerRadius=0.089mm|HoleSize=0mm|Usage=FLASHONLY|Rotation=0.000|XOffset=0mm|YOffset=0mm|HoleType=Round|Shape=RoundedRectangle|*
%AMROUNDEDRECTD58*
21,1,0.9000,0.3220,0,0,0.0*
21,1,0.7220,0.5000,0,0,0.0*
1,1,0.1780,0.3610,-0.1610*
1,1,0.1780,-0.3610,-0.1610*
1,1,0.1780,-0.3610,0.1610*
1,1,0.1780,0.3610,0.1610*
%
%ADD58ROUNDEDRECTD58*%
G04:AMPARAMS|DCode=59|XSize=0.7mm|YSize=0.65mm|CornerRadius=0.1375mm|HoleSize=0mm|Usage=FLASHONLY|Rotation=180.000|XOffset=0mm|YOffset=0mm|HoleType=Round|Shape=RoundedRectangle|*
%AMROUNDEDRECTD59*
21,1,0.7000,0.3750,0,0,180.0*
21,1,0.4250,0.6500,0,0,180.0*
1,1,0.2750,-0.2125,0.1875*
1,1,0.2750,0.2125,0.1875*
1,1,0.2750,0.2125,-0.1875*
1,1,0.2750,-0.2125,-0.1875*
%
%ADD59ROUNDEDRECTD59*%
%ADD60R,1.7000X5.7500*%
G04:AMPARAMS|DCode=61|XSize=0.91mm|YSize=0.8104mm|CornerRadius=0.1576mm|HoleSize=0mm|Usage=FLASHONLY|Rotation=270.000|XOffset=0mm|YOffset=0mm|HoleType=Round|Shape=RoundedRectangle|*
%AMROUNDEDRECTD61*
21,1,0.9100,0.4953,0,0,270.0*
21,1,0.5949,0.8104,0,0,270.0*
1,1,0.3151,-0.2477,-0.2975*
1,1,0.3151,-0.2477,0.2975*
1,1,0.3151,0.2477,0.2975*
1,1,0.3151,0.2477,-0.2975*
%
%ADD61ROUNDEDRECTD61*%
G04:AMPARAMS|DCode=62|XSize=1.45mm|YSize=0.91mm|CornerRadius=0.17mm|HoleSize=0mm|Usage=FLASHONLY|Rotation=90.000|XOffset=0mm|YOffset=0mm|HoleType=Round|Shape=RoundedRectangle|*
%AMROUNDEDRECTD62*
21,1,1.4500,0.5700,0,0,90.0*
21,1,1.1100,0.9100,0,0,90.0*
1,1,0.3400,0.2850,0.5550*
1,1,0.3400,0.2850,-0.5550*
1,1,0.3400,-0.2850,-0.5550*
1,1,0.3400,-0.2850,0.5550*
%
%ADD62ROUNDEDRECTD62*%
%ADD63R,1.1000X1.1000*%
%ADD64R,3.6500X3.7000*%
%ADD65R,1.1500X1.2500*%
%ADD66R,1.5500X2.2500*%
%ADD67R,1.1000X1.1000*%
G04:AMPARAMS|DCode=68|XSize=1.45mm|YSize=0.91mm|CornerRadius=0.17mm|HoleSize=0mm|Usage=FLASHONLY|Rotation=0.000|XOffset=0mm|YOffset=0mm|HoleType=Round|Shape=RoundedRectangle|*
%AMROUNDEDRECTD68*
21,1,1.4500,0.5700,0,0,0.0*
21,1,1.1100,0.9100,0,0,0.0*
1,1,0.3400,0.5550,-0.2850*
1,1,0.3400,-0.5550,-0.2850*
1,1,0.3400,-0.5550,0.2850*
1,1,0.3400,0.5550,0.2850*
%
%ADD68ROUNDEDRECTD68*%
G04:AMPARAMS|DCode=69|XSize=0.91mm|YSize=0.8104mm|CornerRadius=0.1576mm|HoleSize=0mm|Usage=FLASHONLY|Rotation=0.000|XOffset=0mm|YOffset=0mm|HoleType=Round|Shape=RoundedRectangle|*
%AMROUNDEDRECTD69*
21,1,0.9100,0.4953,0,0,0.0*
21,1,0.5949,0.8104,0,0,0.0*
1,1,0.3151,0.2975,-0.2477*
1,1,0.3151,-0.2975,-0.2477*
1,1,0.3151,-0.2975,0.2477*
1,1,0.3151,0.2975,0.2477*
%
%ADD69ROUNDEDRECTD69*%
%ADD70R,1.2000X1.1500*%
G04:AMPARAMS|DCode=71|XSize=2.12mm|YSize=0.75mm|CornerRadius=0.225mm|HoleSize=0mm|Usage=FLASHONLY|Rotation=0.000|XOffset=0mm|YOffset=0mm|HoleType=Round|Shape=RoundedRectangle|*
%AMROUNDEDRECTD71*
21,1,2.1200,0.3000,0,0,0.0*
21,1,1.6700,0.7500,0,0,0.0*
1,1,0.4500,0.8350,-0.1500*
1,1,0.4500,-0.8350,-0.1500*
1,1,0.4500,-0.8350,0.1500*
1,1,0.4500,0.8350,0.1500*
%
%ADD71ROUNDEDRECTD71*%
%ADD72R,2.5600X3.2260*%
%ADD73R,2.0000X2.0000*%
%ADD74C,2.0000*%
%ADD75C,0.8000*%
%ADD76O,2.2500X1.1500*%
G04:AMPARAMS|DCode=77|XSize=1.95mm|YSize=1.15mm|CornerRadius=0.325mm|HoleSize=0mm|Usage=FLASHONLY|Rotation=0.000|XOffset=0mm|YOffset=0mm|HoleType=Round|Shape=RoundedRectangle|*
%AMROUNDEDRECTD77*
21,1,1.9500,0.5000,0,0,0.0*
21,1,1.3000,1.1500,0,0,0.0*
1,1,0.6500,0.6500,-0.2500*
1,1,0.6500,-0.6500,-0.2500*
1,1,0.6500,-0.6500,0.2500*
1,1,0.6500,0.6500,0.2500*
%
%ADD77ROUNDEDRECTD77*%
%ADD78R,1.8010X1.8010*%
%ADD79C,1.8010*%
%ADD80C,2.1500*%
%ADD81R,2.0000X2.0000*%
%ADD82C,3.1500*%
%ADD83C,0.6000*%
%ADD84C,1.4200*%
D30*
X395770Y908383D02*
D03*
X400770D02*
D03*
X405770D02*
D03*
X410770D02*
D03*
Y923337D02*
D03*
X405770D02*
D03*
X400770D02*
D03*
X395770D02*
D03*
Y1068117D02*
D03*
X400770D02*
D03*
X405770D02*
D03*
X410770D02*
D03*
Y1053163D02*
D03*
X405770D02*
D03*
X400770D02*
D03*
X395770D02*
D03*
D46*
X1144500Y92550D02*
D03*
X1163500D02*
D03*
Y67450D02*
D03*
X1154000D02*
D03*
X1144500D02*
D03*
X614500D02*
D03*
X624000D02*
D03*
X633500D02*
D03*
Y92550D02*
D03*
X614500D02*
D03*
X884500Y67450D02*
D03*
X894000D02*
D03*
X903500D02*
D03*
Y92550D02*
D03*
X884500D02*
D03*
X1142720Y381150D02*
D03*
X1152220D02*
D03*
X1161720D02*
D03*
Y406250D02*
D03*
X1142720D02*
D03*
X639800Y406100D02*
D03*
X658800D02*
D03*
Y381000D02*
D03*
X649300D02*
D03*
X639800D02*
D03*
X890600Y406100D02*
D03*
X909600D02*
D03*
Y381000D02*
D03*
X900100D02*
D03*
X890600D02*
D03*
D47*
X70600Y410580D02*
D03*
X84600D02*
D03*
X98600D02*
D03*
Y396580D02*
D03*
Y382580D02*
D03*
X84600D02*
D03*
X70600D02*
D03*
Y396580D02*
D03*
X84600D02*
D03*
D48*
X7400Y499080D02*
D03*
X20100D02*
D03*
X32800D02*
D03*
X45500D02*
D03*
X58200D02*
D03*
X70900D02*
D03*
X83600D02*
D03*
X96300D02*
D03*
X109000D02*
D03*
X121700D02*
D03*
X134400D02*
D03*
X147100D02*
D03*
X159800D02*
D03*
X172500D02*
D03*
Y324080D02*
D03*
X159800D02*
D03*
X147100D02*
D03*
X134400D02*
D03*
X121700D02*
D03*
X109000D02*
D03*
X96300D02*
D03*
X83600D02*
D03*
X70900D02*
D03*
X58200D02*
D03*
X45500D02*
D03*
X32800D02*
D03*
X20100D02*
D03*
X7400D02*
D03*
D49*
X185000Y481430D02*
D03*
Y468730D02*
D03*
Y456030D02*
D03*
Y443330D02*
D03*
Y430630D02*
D03*
Y417930D02*
D03*
Y405230D02*
D03*
Y392530D02*
D03*
Y379830D02*
D03*
Y367130D02*
D03*
Y354430D02*
D03*
Y341730D02*
D03*
D50*
X105310Y292140D02*
D03*
Y269240D02*
D03*
Y246340D02*
D03*
D51*
X172210Y269240D02*
D03*
D52*
X73440Y207590D02*
D03*
Y202590D02*
D03*
Y197590D02*
D03*
Y172590D02*
D03*
Y177590D02*
D03*
Y182590D02*
D03*
Y192590D02*
D03*
Y187590D02*
D03*
D53*
Y166090D02*
D03*
Y214090D02*
D03*
Y158090D02*
D03*
Y222090D02*
D03*
D54*
X384220Y763460D02*
D03*
X409620D02*
D03*
X357454Y763476D02*
D03*
X435020Y763460D02*
D03*
D55*
X235040Y342900D02*
D03*
X220040D02*
D03*
X509600Y823420D02*
D03*
X524600D02*
D03*
X119590Y210820D02*
D03*
X104590D02*
D03*
X104590Y168910D02*
D03*
X119590D02*
D03*
X415850Y890460D02*
D03*
X400850D02*
D03*
X360210Y903160D02*
D03*
X375210D02*
D03*
X360210Y923480D02*
D03*
X375210D02*
D03*
X377630Y1070800D02*
D03*
X362630D02*
D03*
X377750Y1050480D02*
D03*
X362750D02*
D03*
X400850Y1037780D02*
D03*
X415850D02*
D03*
X253180Y186690D02*
D03*
X268180D02*
D03*
X179640Y143510D02*
D03*
X194640D02*
D03*
X155500Y893000D02*
D03*
X140500D02*
D03*
X147880Y862520D02*
D03*
X132880D02*
D03*
X99860D02*
D03*
X114860D02*
D03*
D56*
X10490Y530980D02*
D03*
Y545980D02*
D03*
X10491Y578999D02*
D03*
Y563999D02*
D03*
D57*
X25730Y530980D02*
D03*
Y545980D02*
D03*
X67640Y742260D02*
D03*
Y757260D02*
D03*
X413430Y1088700D02*
D03*
Y1103700D02*
D03*
X382950Y1088700D02*
D03*
Y1103700D02*
D03*
X347390Y1088700D02*
D03*
Y1103700D02*
D03*
X339770Y953840D02*
D03*
Y938840D02*
D03*
X375330Y956380D02*
D03*
Y941380D02*
D03*
X410890Y956380D02*
D03*
Y941380D02*
D03*
X25730Y564000D02*
D03*
Y579000D02*
D03*
D58*
X95750Y195210D02*
D03*
Y190210D02*
D03*
Y185210D02*
D03*
X109550D02*
D03*
Y190210D02*
D03*
Y195210D02*
D03*
D59*
X131140Y189920D02*
D03*
Y180920D02*
D03*
X398190Y1100700D02*
D03*
Y1091700D02*
D03*
D60*
X454140Y941260D02*
D03*
X494640D02*
D03*
X456680Y1083500D02*
D03*
X497180D02*
D03*
D61*
X400730Y875220D02*
D03*
X414730D02*
D03*
X400730Y862520D02*
D03*
X414730D02*
D03*
X400730Y849820D02*
D03*
X414730D02*
D03*
D62*
X467930Y867600D02*
D03*
X485830D02*
D03*
X467930Y849820D02*
D03*
X485830D02*
D03*
X470470Y1020000D02*
D03*
X488370D02*
D03*
X417350D02*
D03*
X399450D02*
D03*
X417350Y1002220D02*
D03*
X399450D02*
D03*
X470470D02*
D03*
X488370D02*
D03*
X95820Y974280D02*
D03*
X113720D02*
D03*
X95820Y938720D02*
D03*
X113720D02*
D03*
X95820Y956500D02*
D03*
X113720D02*
D03*
D63*
X426130Y927190D02*
D03*
Y914690D02*
D03*
X365170Y1089950D02*
D03*
Y1102450D02*
D03*
X393110Y955130D02*
D03*
Y942630D02*
D03*
X357550Y952590D02*
D03*
Y940090D02*
D03*
X428670Y1074510D02*
D03*
Y1062010D02*
D03*
X60020Y274320D02*
D03*
Y286820D02*
D03*
D64*
X175940Y1034270D02*
D03*
Y944770D02*
D03*
D65*
X253430Y166370D02*
D03*
X267930D02*
D03*
D66*
X252150Y24350D02*
D03*
Y115350D02*
D03*
X297150D02*
D03*
Y24350D02*
D03*
X163250D02*
D03*
Y115350D02*
D03*
X208250D02*
D03*
Y24350D02*
D03*
D67*
X253160Y147320D02*
D03*
X265660D02*
D03*
D68*
X77800Y271770D02*
D03*
Y289670D02*
D03*
X37160Y271660D02*
D03*
Y289560D02*
D03*
D69*
X87960Y261000D02*
D03*
Y247000D02*
D03*
X36240Y921560D02*
D03*
Y935560D02*
D03*
D70*
X140500Y910780D02*
D03*
X155500D02*
D03*
X81840Y862520D02*
D03*
X66840D02*
D03*
X69140Y933640D02*
D03*
X54140D02*
D03*
D71*
X69910Y917130D02*
D03*
Y904430D02*
D03*
Y891730D02*
D03*
Y879030D02*
D03*
X119410D02*
D03*
Y891730D02*
D03*
Y904430D02*
D03*
Y917130D02*
D03*
D72*
X94660Y898080D02*
D03*
D73*
X890600Y25400D02*
D03*
X1152500Y28600D02*
D03*
X1203300D02*
D03*
X623900Y25400D02*
D03*
X674700D02*
D03*
X941400D02*
D03*
X1152220Y342900D02*
D03*
X1203020D02*
D03*
X693750D02*
D03*
X642950D02*
D03*
X896950D02*
D03*
X947750D02*
D03*
D74*
X916000Y25400D02*
D03*
X1177900Y28600D02*
D03*
X1228700D02*
D03*
X649300Y25400D02*
D03*
X700100D02*
D03*
X966800D02*
D03*
X1177620Y342900D02*
D03*
X1228420D02*
D03*
X719150D02*
D03*
X668350D02*
D03*
X922350D02*
D03*
X973150D02*
D03*
X33700Y801560D02*
D03*
X33220Y1058460D02*
D03*
D75*
X62690Y218990D02*
D03*
Y161190D02*
D03*
D76*
X67690Y146890D02*
D03*
Y233290D02*
D03*
D77*
X25890Y146890D02*
D03*
Y233290D02*
D03*
D78*
X280340Y370840D02*
D03*
D79*
Y345440D02*
D03*
Y320040D02*
D03*
Y294640D02*
D03*
D80*
X32280Y71120D02*
D03*
X108280D02*
D03*
D81*
X33700Y776160D02*
D03*
X33220Y1083860D02*
D03*
D82*
X292810Y788780D02*
D03*
X242010D02*
D03*
X140410D02*
D03*
X89610D02*
D03*
X291160Y1085040D02*
D03*
X240360D02*
D03*
X138760D02*
D03*
X87960D02*
D03*
D83*
X533400Y381000D02*
D03*
X66040Y297180D02*
D03*
X149860Y228600D02*
D03*
X127000D02*
D03*
X223520Y307340D02*
D03*
X401142Y1039828D02*
D03*
X498932Y822404D02*
D03*
X452800Y819610D02*
D03*
X84410Y192610D02*
D03*
X84658Y179832D02*
D03*
X202260Y406400D02*
D03*
Y436880D02*
D03*
X44780Y309880D02*
D03*
X171780Y304249D02*
D03*
X159080D02*
D03*
X359740Y195580D02*
D03*
X297510Y228600D02*
D03*
X265760Y133350D02*
D03*
X118440Y184900D02*
D03*
X138760Y195580D02*
D03*
X410540Y742140D02*
D03*
X33350Y303530D02*
D03*
X208810Y139296D02*
D03*
X185750Y500380D02*
D03*
X207220Y862460D02*
D03*
X499790Y1124140D02*
D03*
X495980Y971740D02*
D03*
X427400Y941260D02*
D03*
X424860Y890460D02*
D03*
X426130Y1037780D02*
D03*
X438830Y1088580D02*
D03*
X347390Y1111440D02*
D03*
X386760Y849820D02*
D03*
X333420Y903160D02*
D03*
X104820Y891730D02*
D03*
X94660D02*
D03*
X89580D02*
D03*
X99740D02*
D03*
X84500D02*
D03*
X99740Y896810D02*
D03*
X89580D02*
D03*
X94660D02*
D03*
X84500D02*
D03*
X104820D02*
D03*
X84500Y928560D02*
D03*
X89580D02*
D03*
X94660D02*
D03*
X99740D02*
D03*
X104820D02*
D03*
X84500Y917130D02*
D03*
X89580D02*
D03*
X94660D02*
D03*
X99740D02*
D03*
X104820D02*
D03*
X84500Y912050D02*
D03*
X89580D02*
D03*
X94660D02*
D03*
X99740D02*
D03*
X104820D02*
D03*
X84500Y906970D02*
D03*
X89580D02*
D03*
X94660D02*
D03*
X99740D02*
D03*
X104820D02*
D03*
X84500Y901890D02*
D03*
X89580D02*
D03*
X94660D02*
D03*
X99740D02*
D03*
X104820D02*
D03*
X84500Y886650D02*
D03*
X89580D02*
D03*
X94660D02*
D03*
X99740D02*
D03*
X104820D02*
D03*
Y881570D02*
D03*
X99740D02*
D03*
X94660D02*
D03*
X89580D02*
D03*
X84500D02*
D03*
Y876490D02*
D03*
X89580D02*
D03*
X94660D02*
D03*
X99740D02*
D03*
X104820D02*
D03*
X79420Y871410D02*
D03*
X84500D02*
D03*
X89580D02*
D03*
X94660D02*
D03*
X99740D02*
D03*
X104820D02*
D03*
X179750Y923480D02*
D03*
X69260Y950150D02*
D03*
D84*
X452800Y859980D02*
D03*
M02*
