G04*
G04 #@! TF.GenerationSoftware,Altium Limited,Altium Designer,23.6.0 (18)*
G04*
G04 Layer_Physical_Order=1*
G04 Layer_Color=255*
%FSLAX44Y44*%
%MOMM*%
G71*
G04*
G04 #@! TF.SameCoordinates,9D2C5EB8-6DC7-4F60-ACB2-A9AF8CB6E287*
G04*
G04*
G04 #@! TF.FilePolarity,Positive*
G04*
G01*
G75*
G04:AMPARAMS|DCode=19|XSize=1.21mm|YSize=0.59mm|CornerRadius=0.1475mm|HoleSize=0mm|Usage=FLASHONLY|Rotation=90.000|XOffset=0mm|YOffset=0mm|HoleType=Round|Shape=RoundedRectangle|*
%AMROUNDEDRECTD19*
21,1,1.2100,0.2950,0,0,90.0*
21,1,0.9150,0.5900,0,0,90.0*
1,1,0.2950,0.1475,0.4575*
1,1,0.2950,0.1475,-0.4575*
1,1,0.2950,-0.1475,-0.4575*
1,1,0.2950,-0.1475,0.4575*
%
%ADD19ROUNDEDRECTD19*%
%ADD20R,0.9000X0.9000*%
%ADD21R,0.9000X1.5000*%
%ADD22R,1.5000X0.9000*%
G04:AMPARAMS|DCode=23|XSize=1.31mm|YSize=0.93mm|CornerRadius=0.0698mm|HoleSize=0mm|Usage=FLASHONLY|Rotation=0.000|XOffset=0mm|YOffset=0mm|HoleType=Round|Shape=RoundedRectangle|*
%AMROUNDEDRECTD23*
21,1,1.3100,0.7905,0,0,0.0*
21,1,1.1705,0.9300,0,0,0.0*
1,1,0.1395,0.5853,-0.3953*
1,1,0.1395,-0.5853,-0.3953*
1,1,0.1395,-0.5853,0.3953*
1,1,0.1395,0.5853,0.3953*
%
%ADD23ROUNDEDRECTD23*%
G04:AMPARAMS|DCode=24|XSize=1.31mm|YSize=3.24mm|CornerRadius=0.0983mm|HoleSize=0mm|Usage=FLASHONLY|Rotation=0.000|XOffset=0mm|YOffset=0mm|HoleType=Round|Shape=RoundedRectangle|*
%AMROUNDEDRECTD24*
21,1,1.3100,3.0435,0,0,0.0*
21,1,1.1135,3.2400,0,0,0.0*
1,1,0.1965,0.5568,-1.5218*
1,1,0.1965,-0.5568,-1.5218*
1,1,0.1965,-0.5568,1.5218*
1,1,0.1965,0.5568,1.5218*
%
%ADD24ROUNDEDRECTD24*%
%ADD25R,1.1500X0.3000*%
%ADD26R,1.1500X0.6000*%
%ADD27R,0.8000X1.0000*%
%ADD28R,0.8000X0.8000*%
%ADD29R,1.0000X0.8000*%
%ADD30R,0.2794X0.6064*%
G04:AMPARAMS|DCode=31|XSize=0.75mm|YSize=0.35mm|CornerRadius=0.014mm|HoleSize=0mm|Usage=FLASHONLY|Rotation=0.000|XOffset=0mm|YOffset=0mm|HoleType=Round|Shape=RoundedRectangle|*
%AMROUNDEDRECTD31*
21,1,0.7500,0.3220,0,0,0.0*
21,1,0.7220,0.3500,0,0,0.0*
1,1,0.0280,0.3610,-0.1610*
1,1,0.0280,-0.3610,-0.1610*
1,1,0.0280,-0.3610,0.1610*
1,1,0.0280,0.3610,0.1610*
%
%ADD31ROUNDEDRECTD31*%
G04:AMPARAMS|DCode=32|XSize=0.55mm|YSize=0.5mm|CornerRadius=0.0625mm|HoleSize=0mm|Usage=FLASHONLY|Rotation=180.000|XOffset=0mm|YOffset=0mm|HoleType=Round|Shape=RoundedRectangle|*
%AMROUNDEDRECTD32*
21,1,0.5500,0.3750,0,0,180.0*
21,1,0.4250,0.5000,0,0,180.0*
1,1,0.1250,-0.2125,0.1875*
1,1,0.1250,0.2125,0.1875*
1,1,0.1250,0.2125,-0.1875*
1,1,0.1250,-0.2125,-0.1875*
%
%ADD32ROUNDEDRECTD32*%
%ADD33R,1.5500X5.6000*%
G04:AMPARAMS|DCode=34|XSize=0.76mm|YSize=0.6604mm|CornerRadius=0.0825mm|HoleSize=0mm|Usage=FLASHONLY|Rotation=270.000|XOffset=0mm|YOffset=0mm|HoleType=Round|Shape=RoundedRectangle|*
%AMROUNDEDRECTD34*
21,1,0.7600,0.4953,0,0,270.0*
21,1,0.5949,0.6604,0,0,270.0*
1,1,0.1651,-0.2477,-0.2975*
1,1,0.1651,-0.2477,0.2975*
1,1,0.1651,0.2477,0.2975*
1,1,0.1651,0.2477,-0.2975*
%
%ADD34ROUNDEDRECTD34*%
G04:AMPARAMS|DCode=35|XSize=1.3mm|YSize=0.76mm|CornerRadius=0.095mm|HoleSize=0mm|Usage=FLASHONLY|Rotation=90.000|XOffset=0mm|YOffset=0mm|HoleType=Round|Shape=RoundedRectangle|*
%AMROUNDEDRECTD35*
21,1,1.3000,0.5700,0,0,90.0*
21,1,1.1100,0.7600,0,0,90.0*
1,1,0.1900,0.2850,0.5550*
1,1,0.1900,0.2850,-0.5550*
1,1,0.1900,-0.2850,-0.5550*
1,1,0.1900,-0.2850,0.5550*
%
%ADD35ROUNDEDRECTD35*%
%ADD36R,0.9500X0.9500*%
%ADD37R,3.5000X3.5500*%
%ADD38R,1.0000X1.1000*%
%ADD39R,1.4000X2.1000*%
%ADD40R,0.9500X0.9500*%
G04:AMPARAMS|DCode=41|XSize=1.3mm|YSize=0.76mm|CornerRadius=0.095mm|HoleSize=0mm|Usage=FLASHONLY|Rotation=0.000|XOffset=0mm|YOffset=0mm|HoleType=Round|Shape=RoundedRectangle|*
%AMROUNDEDRECTD41*
21,1,1.3000,0.5700,0,0,0.0*
21,1,1.1100,0.7600,0,0,0.0*
1,1,0.1900,0.5550,-0.2850*
1,1,0.1900,-0.5550,-0.2850*
1,1,0.1900,-0.5550,0.2850*
1,1,0.1900,0.5550,0.2850*
%
%ADD41ROUNDEDRECTD41*%
G04:AMPARAMS|DCode=42|XSize=0.76mm|YSize=0.6604mm|CornerRadius=0.0825mm|HoleSize=0mm|Usage=FLASHONLY|Rotation=0.000|XOffset=0mm|YOffset=0mm|HoleType=Round|Shape=RoundedRectangle|*
%AMROUNDEDRECTD42*
21,1,0.7600,0.4953,0,0,0.0*
21,1,0.5949,0.6604,0,0,0.0*
1,1,0.1651,0.2975,-0.2477*
1,1,0.1651,-0.2975,-0.2477*
1,1,0.1651,-0.2975,0.2477*
1,1,0.1651,0.2975,0.2477*
%
%ADD42ROUNDEDRECTD42*%
%ADD43R,1.0500X1.0000*%
G04:AMPARAMS|DCode=44|XSize=1.97mm|YSize=0.6mm|CornerRadius=0.15mm|HoleSize=0mm|Usage=FLASHONLY|Rotation=0.000|XOffset=0mm|YOffset=0mm|HoleType=Round|Shape=RoundedRectangle|*
%AMROUNDEDRECTD44*
21,1,1.9700,0.3000,0,0,0.0*
21,1,1.6700,0.6000,0,0,0.0*
1,1,0.3000,0.8350,-0.1500*
1,1,0.3000,-0.8350,-0.1500*
1,1,0.3000,-0.8350,0.1500*
1,1,0.3000,0.8350,0.1500*
%
%ADD44ROUNDEDRECTD44*%
%ADD45R,2.4100X3.0760*%
%ADD74C,2.0000*%
%ADD85C,0.6000*%
%ADD86C,0.1020*%
%ADD87C,0.3000*%
%ADD88R,1.8500X1.8500*%
%ADD89C,1.8500*%
%ADD90C,0.6500*%
%ADD91O,2.1000X1.0000*%
G04:AMPARAMS|DCode=92|XSize=1.8mm|YSize=1mm|CornerRadius=0.25mm|HoleSize=0mm|Usage=FLASHONLY|Rotation=0.000|XOffset=0mm|YOffset=0mm|HoleType=Round|Shape=RoundedRectangle|*
%AMROUNDEDRECTD92*
21,1,1.8000,0.5000,0,0,0.0*
21,1,1.3000,1.0000,0,0,0.0*
1,1,0.5000,0.6500,-0.2500*
1,1,0.5000,-0.6500,-0.2500*
1,1,0.5000,-0.6500,0.2500*
1,1,0.5000,0.6500,0.2500*
%
%ADD92ROUNDEDRECTD92*%
%ADD93R,1.6510X1.6510*%
%ADD94C,1.6510*%
%ADD95R,1.8500X1.8500*%
%ADD96C,3.0000*%
%ADD97C,0.4500*%
%ADD98C,1.2700*%
G36*
X423590Y1096200D02*
X391670D01*
X391348Y1096978D01*
X390570Y1097300D01*
X373890D01*
Y1113955D01*
X380130D01*
X380385Y1113700D01*
Y1103700D01*
X380580Y1102718D01*
X381136Y1101886D01*
X381968Y1101330D01*
X382950Y1101135D01*
X383932Y1101330D01*
X384764Y1101886D01*
X385320Y1102718D01*
X385515Y1103700D01*
Y1113980D01*
X423590D01*
Y1096200D01*
D02*
G37*
G36*
X372790Y1097300D02*
X343085D01*
X342514Y1098570D01*
X342643Y1098715D01*
X344970D01*
X345952Y1098910D01*
X346784Y1099466D01*
X349204Y1101886D01*
X349760Y1102718D01*
X349955Y1103700D01*
Y1111440D01*
X349760Y1112422D01*
X349584Y1112685D01*
X350263Y1113955D01*
X372790D01*
Y1097300D01*
D02*
G37*
G36*
X421050Y1091205D02*
X413732D01*
X413430Y1091265D01*
X412448Y1091070D01*
X411616Y1090514D01*
X411060Y1089682D01*
X410865Y1088700D01*
X411060Y1087718D01*
X411616Y1086886D01*
X411676Y1086826D01*
X412508Y1086270D01*
X413490Y1086075D01*
X421050D01*
Y1083500D01*
X409715Y1072165D01*
X408357D01*
Y1070807D01*
X408350Y1070800D01*
Y1068847D01*
X408205Y1068117D01*
X408350Y1067387D01*
Y1064280D01*
X403270D01*
Y1067789D01*
X403335Y1068117D01*
Y1078833D01*
X403270Y1079161D01*
Y1093660D01*
X421050D01*
Y1091205D01*
D02*
G37*
G36*
X515030Y1004457D02*
X514316Y1004161D01*
X513760Y1004057D01*
X512962Y1004590D01*
X511980Y1004785D01*
X488370D01*
X487388Y1004590D01*
X486556Y1004034D01*
X486000Y1003202D01*
X485805Y1002220D01*
X486000Y1001238D01*
X486556Y1000406D01*
X487388Y999850D01*
X488370Y999655D01*
X510917D01*
X513655Y996917D01*
Y992060D01*
X482010D01*
Y1116520D01*
X497225D01*
Y1087173D01*
X495366Y1085314D01*
X494810Y1084482D01*
X494615Y1083500D01*
X494810Y1082518D01*
X495366Y1081686D01*
X496198Y1081130D01*
X497180Y1080935D01*
X498162Y1081130D01*
X498994Y1081686D01*
X501604Y1084296D01*
X502160Y1085128D01*
X502355Y1086110D01*
Y1116520D01*
X515030D01*
Y1004457D01*
D02*
G37*
G36*
X159080Y1064720D02*
X58830D01*
X53075Y1070475D01*
X50210Y1073340D01*
X18460D01*
Y1100010D01*
X159080D01*
Y1064720D01*
D02*
G37*
G36*
X390570Y1078420D02*
X370250D01*
Y1063180D01*
X355035D01*
Y1066503D01*
X354840Y1067484D01*
X354284Y1068317D01*
X352527Y1070074D01*
X351694Y1070630D01*
X350713Y1070825D01*
X341526D01*
X341271Y1071080D01*
Y1096200D01*
X390570D01*
Y1078420D01*
D02*
G37*
G36*
X476930Y1050480D02*
X418510D01*
Y1058100D01*
X408350D01*
Y1050480D01*
X404385D01*
X404370Y1050516D01*
Y1058100D01*
X404048Y1058878D01*
X403270Y1059200D01*
Y1063180D01*
X415970D01*
X421050Y1068260D01*
X438830D01*
X443910Y1073340D01*
Y1116520D01*
X476930D01*
Y1050480D01*
D02*
G37*
G36*
X413430Y1047940D02*
X443910D01*
Y1030160D01*
X479470D01*
Y992060D01*
X414398D01*
X413872Y993330D01*
X415234Y994691D01*
X416032Y994850D01*
X416864Y995406D01*
X419164Y997706D01*
X419720Y998538D01*
X419915Y999520D01*
Y1002220D01*
X419720Y1003202D01*
X419164Y1004034D01*
X418332Y1004590D01*
X417350Y1004785D01*
X416368Y1004590D01*
X415536Y1004034D01*
X414980Y1003202D01*
X414785Y1002220D01*
Y1000583D01*
X413951Y999749D01*
X413153Y999590D01*
X412321Y999034D01*
X412063Y998777D01*
X410890Y999263D01*
Y1030160D01*
X423590D01*
Y1033683D01*
X424860Y1034496D01*
X425430Y1034260D01*
X426830D01*
X428124Y1034796D01*
X429114Y1035786D01*
X429650Y1037080D01*
Y1038480D01*
X429114Y1039774D01*
X428124Y1040764D01*
X426830Y1041300D01*
X425430D01*
X424860Y1041064D01*
X423590Y1041877D01*
Y1045400D01*
X408350D01*
Y1049380D01*
X409128Y1049702D01*
X409450Y1050480D01*
Y1057000D01*
X413430D01*
Y1047940D01*
D02*
G37*
G36*
X200070Y1033995D02*
X179843D01*
X177754Y1036084D01*
X176922Y1036640D01*
X175940Y1036835D01*
X174958Y1036640D01*
X174126Y1036084D01*
X173570Y1035252D01*
X173375Y1034270D01*
X173570Y1033288D01*
X174126Y1032456D01*
X176966Y1029616D01*
X177798Y1029060D01*
X178780Y1028865D01*
X200070D01*
Y974280D01*
X192450Y966660D01*
X122600D01*
Y926020D01*
X111170D01*
X108340Y928850D01*
Y929260D01*
X107804Y930554D01*
X107360Y930998D01*
Y1045400D01*
X145460D01*
X154350Y1054290D01*
X200070D01*
Y1033995D01*
D02*
G37*
G36*
X403270Y1050480D02*
X403357Y1050306D01*
Y1049115D01*
X403952D01*
X408350Y1040320D01*
Y994625D01*
X393110D01*
Y1040320D01*
X398190Y1047940D01*
Y1051004D01*
X398335Y1051734D01*
Y1053163D01*
X398190Y1053893D01*
Y1058100D01*
X403270D01*
Y1050480D01*
D02*
G37*
G36*
X421050Y948880D02*
X366440D01*
Y962168D01*
X374760D01*
X375014Y961914D01*
Y956380D01*
X375210Y955398D01*
X375766Y954566D01*
X376598Y954010D01*
X377580Y953815D01*
X378561Y954010D01*
X379394Y954566D01*
X379950Y955398D01*
X380145Y956380D01*
Y962976D01*
X379950Y963958D01*
X379394Y964790D01*
X378794Y965390D01*
X379320Y966660D01*
X408325D01*
Y956380D01*
X408520Y955398D01*
X409076Y954566D01*
X409908Y954010D01*
X410890Y953815D01*
X411872Y954010D01*
X412704Y954566D01*
X413260Y955398D01*
X413455Y956380D01*
Y966660D01*
X421050D01*
Y948880D01*
D02*
G37*
G36*
X365170Y946775D02*
X364127Y945792D01*
X363316Y945856D01*
Y945856D01*
X351784D01*
Y945070D01*
X334715D01*
Y948520D01*
X334970Y948775D01*
X337270D01*
X338252Y948970D01*
X339084Y949526D01*
X341584Y952026D01*
X342140Y952858D01*
X342335Y953840D01*
X342140Y954822D01*
X341584Y955654D01*
X340752Y956210D01*
X339770Y956405D01*
X338788Y956210D01*
X337956Y955654D01*
X336207Y953905D01*
X333907D01*
X333420Y953808D01*
X332150Y954603D01*
Y960310D01*
X365170D01*
Y946775D01*
D02*
G37*
G36*
X385490Y933640D02*
X366440D01*
Y917130D01*
X349930D01*
X334715Y932345D01*
Y943970D01*
X351784D01*
X352562Y944292D01*
X352754Y944756D01*
X363273D01*
X364041Y944696D01*
X364068Y944705D01*
X364094Y944693D01*
X364465Y944834D01*
X364841Y944956D01*
X364854Y944982D01*
X364881Y944992D01*
X365924Y945975D01*
X365931Y945991D01*
X365948Y945998D01*
X366103Y946373D01*
X366269Y946743D01*
X367074Y947610D01*
X385490D01*
Y933640D01*
D02*
G37*
G36*
X512490Y840930D02*
X488395D01*
Y849820D01*
X488200Y850802D01*
X487644Y851634D01*
X486812Y852190D01*
X485830Y852385D01*
X484848Y852190D01*
X484016Y851634D01*
X483460Y850802D01*
X483265Y849820D01*
Y840930D01*
X479470D01*
Y975550D01*
X495352D01*
X495545Y974280D01*
X495105Y974143D01*
X494998Y974110D01*
X494975Y974094D01*
X494166Y973554D01*
X493610Y972722D01*
X493415Y971740D01*
Y943663D01*
X492826Y943074D01*
X492270Y942242D01*
X492075Y941260D01*
X492270Y940278D01*
X492826Y939446D01*
X493658Y938890D01*
X494640Y938695D01*
X495622Y938890D01*
X496454Y939446D01*
X497794Y940786D01*
X498350Y941618D01*
X498545Y942600D01*
Y971740D01*
X498350Y972722D01*
X497794Y973554D01*
X497016Y974073D01*
X496962Y974110D01*
X496867Y974140D01*
X496415Y974280D01*
X496608Y975550D01*
X512490D01*
Y840930D01*
D02*
G37*
G36*
X200070Y920940D02*
X132760D01*
X130220Y918400D01*
Y911880D01*
X109888D01*
X108630Y914395D01*
Y920940D01*
X121330Y920940D01*
X122666Y924948D01*
X123378Y925242D01*
X123700Y926020D01*
Y928049D01*
X125140Y932370D01*
Y965390D01*
X200070D01*
Y920940D01*
D02*
G37*
G36*
X471850Y904430D02*
X414700D01*
Y912050D01*
X413430Y913320D01*
X408350D01*
Y904430D01*
X404540D01*
X404540Y919289D01*
X407087D01*
X408183Y919289D01*
Y919289D01*
X408357D01*
Y919289D01*
X413183D01*
Y919460D01*
X433750D01*
Y975550D01*
X471850D01*
Y904430D01*
D02*
G37*
G36*
X61640Y924750D02*
X64180Y922210D01*
X80690D01*
Y912050D01*
X52750D01*
X45130Y919670D01*
Y942530D01*
X61640D01*
Y924750D01*
D02*
G37*
G36*
X163240Y917130D02*
Y886650D01*
X148000D01*
Y898250D01*
X148778Y898572D01*
X149100Y899350D01*
Y917130D01*
X148911Y917586D01*
X150540Y918400D01*
X160700D01*
X163240Y917130D01*
D02*
G37*
G36*
X146900Y886650D02*
X108630D01*
Y895540D01*
X108757Y895710D01*
X131490D01*
X132268Y896032D01*
X134486Y898250D01*
X146900D01*
Y886650D01*
D02*
G37*
G36*
X43860Y918400D02*
X52750Y909510D01*
X80690D01*
Y885380D01*
X24835D01*
Y896634D01*
X38054Y909853D01*
X38610Y910685D01*
X38805Y911666D01*
Y921560D01*
X38610Y922542D01*
X38054Y923374D01*
X37222Y923930D01*
X36240Y924125D01*
X35258Y923930D01*
X34426Y923374D01*
X33870Y922542D01*
X33675Y921560D01*
Y912729D01*
X20456Y899510D01*
X19900Y898678D01*
X19730Y897824D01*
X18460Y897949D01*
Y926020D01*
X43860D01*
Y918400D01*
D02*
G37*
G36*
X140380Y854900D02*
X108630D01*
Y884110D01*
X140380D01*
Y854900D01*
D02*
G37*
G36*
X48940Y1047940D02*
X51480Y1045400D01*
X104820D01*
Y1035240D01*
Y928560D01*
X107360Y926020D01*
Y914476D01*
X109208Y910780D01*
X131490D01*
Y917130D01*
X148000D01*
Y899350D01*
X134030D01*
X131490Y896810D01*
X107360D01*
Y859980D01*
X102280Y854900D01*
X74340D01*
Y870140D01*
X79598Y875398D01*
X80074Y875716D01*
X80392Y876192D01*
X81960Y877760D01*
Y936180D01*
X74340Y943800D01*
X71825D01*
Y947737D01*
X72244Y948156D01*
X72780Y949450D01*
Y950850D01*
X72244Y952144D01*
X71254Y953134D01*
X69960Y953670D01*
X68560D01*
X67266Y953134D01*
X66276Y952144D01*
X65740Y950850D01*
Y949450D01*
X66276Y948156D01*
X66695Y947737D01*
Y943800D01*
X43860D01*
Y928560D01*
X18460D01*
Y1070800D01*
X48940D01*
Y1047940D01*
D02*
G37*
G36*
X79420Y877760D02*
X77450Y874806D01*
X73562Y870918D01*
X73240Y870140D01*
Y856340D01*
X71800Y854900D01*
X56560D01*
Y882840D01*
X79420D01*
Y877760D01*
D02*
G37*
G36*
X403270Y901890D02*
X404540Y900620D01*
X407080Y898080D01*
Y843470D01*
X394380D01*
Y847255D01*
X400730D01*
X401712Y847450D01*
X402544Y848006D01*
X403100Y848838D01*
X403295Y849820D01*
X403100Y850802D01*
X402544Y851634D01*
X401712Y852190D01*
X400730Y852385D01*
X394380D01*
Y898080D01*
X398190Y901890D01*
Y906224D01*
X398335Y906954D01*
Y908383D01*
X398190Y909113D01*
Y913320D01*
X403270D01*
Y901890D01*
D02*
G37*
G36*
X413430Y911765D02*
Y903160D01*
X435020D01*
Y882840D01*
X476930D01*
Y840930D01*
X455365D01*
Y859980D01*
X455170Y860962D01*
X454614Y861794D01*
X453782Y862350D01*
X452800Y862545D01*
X451818Y862350D01*
X450986Y861794D01*
X450430Y860962D01*
X450235Y859980D01*
Y840930D01*
X417071D01*
X415995Y842031D01*
Y850576D01*
X415800Y851557D01*
X415244Y852390D01*
X414412Y852946D01*
X413430Y853141D01*
X412448Y852946D01*
X411616Y852390D01*
X411060Y851557D01*
X410865Y850576D01*
Y843094D01*
X410610Y842839D01*
X408350D01*
Y882840D01*
X427400D01*
Y888022D01*
X427844Y888466D01*
X428380Y889760D01*
Y891160D01*
X427844Y892454D01*
X427400Y892898D01*
Y900620D01*
X408350D01*
Y903330D01*
X409128Y903652D01*
X409450Y904430D01*
Y912220D01*
X412975D01*
X413430Y911765D01*
D02*
G37*
G36*
X513080Y610166D02*
X512680Y610000D01*
X1390000D01*
Y10000D01*
X905887D01*
X905401Y11173D01*
X910785Y16557D01*
X912038Y15834D01*
X914649Y15134D01*
X917352D01*
X919962Y15834D01*
X922303Y17185D01*
X924215Y19096D01*
X925566Y21437D01*
X926266Y24049D01*
Y26751D01*
X925579Y29315D01*
X925567Y29364D01*
X926327Y30585D01*
X931134D01*
Y15134D01*
X951666D01*
Y35666D01*
X933898D01*
X933650Y35715D01*
X926263D01*
X898015Y63963D01*
Y72025D01*
X897821Y72997D01*
X897271Y73821D01*
X896447Y74372D01*
X895475Y74565D01*
X892525D01*
X891553Y74372D01*
X890729Y73821D01*
X890179Y72997D01*
X889985Y72025D01*
Y62875D01*
X890179Y61903D01*
X890729Y61079D01*
X891553Y60528D01*
X892525Y60335D01*
X894387D01*
X917975Y36747D01*
X917535Y35983D01*
X917260Y35666D01*
X914649D01*
X912038Y34966D01*
X909697Y33615D01*
X907785Y31704D01*
X906434Y29362D01*
X905734Y26751D01*
Y24049D01*
X906434Y21437D01*
X907157Y20185D01*
X902136Y15164D01*
X900866Y15690D01*
X900866Y16174D01*
Y35666D01*
X880334D01*
Y15134D01*
X899763D01*
X900310Y15134D01*
X900836Y13864D01*
X899495Y12522D01*
X651865D01*
Y15459D01*
X653262Y15834D01*
X655603Y17185D01*
X657515Y19096D01*
X658866Y21437D01*
X659566Y24049D01*
Y26751D01*
X658879Y29315D01*
X658867Y29364D01*
X659627Y30585D01*
X664434D01*
Y15134D01*
X684966D01*
Y34563D01*
X684966Y35110D01*
X686236Y35636D01*
X698286Y23586D01*
X699118Y23030D01*
X700100Y22835D01*
X701082Y23030D01*
X701914Y23586D01*
X702470Y24418D01*
X702665Y25400D01*
X702470Y26382D01*
X701914Y27214D01*
X662939Y66189D01*
X662107Y66745D01*
X661125Y66940D01*
X636065D01*
Y67450D01*
X635870Y68432D01*
X635314Y69264D01*
X634482Y69820D01*
X633500Y70015D01*
X632518Y69820D01*
X631686Y69264D01*
X631130Y68432D01*
X630935Y67450D01*
Y65825D01*
X631130Y64843D01*
X631686Y64011D01*
X633136Y62561D01*
X633968Y62005D01*
X634950Y61810D01*
X660062D01*
X684936Y36936D01*
X684410Y35666D01*
X683926Y35666D01*
X667198D01*
X666950Y35715D01*
X659252D01*
X645128Y49839D01*
X644296Y50395D01*
X643315Y50590D01*
X641388D01*
X628015Y63963D01*
Y72025D01*
X627822Y72997D01*
X627271Y73821D01*
X626447Y74372D01*
X625475Y74565D01*
X622525D01*
X621553Y74372D01*
X620729Y73821D01*
X620178Y72997D01*
X619985Y72025D01*
Y62875D01*
X620178Y61903D01*
X620729Y61079D01*
X621553Y60528D01*
X622525Y60335D01*
X624387D01*
X638511Y46211D01*
X639343Y45655D01*
X640325Y45460D01*
X642252D01*
X650863Y36848D01*
X650250Y35666D01*
X647949D01*
X645338Y34966D01*
X642997Y33615D01*
X641085Y31704D01*
X639734Y29362D01*
X639034Y26751D01*
Y24049D01*
X639734Y21437D01*
X641085Y19096D01*
X642997Y17185D01*
X645338Y15834D01*
X646735Y15459D01*
Y10000D01*
X246587D01*
X246101Y11173D01*
X253964Y19036D01*
X254520Y19868D01*
X254715Y20850D01*
Y24350D01*
Y114287D01*
X254974Y114546D01*
X255530Y115378D01*
X255725Y116360D01*
Y147320D01*
Y165277D01*
X255800Y165388D01*
X255995Y166370D01*
X255800Y167352D01*
X255244Y168184D01*
X254412Y168740D01*
X253430Y168935D01*
X252448Y168740D01*
X251616Y168184D01*
X251346Y167914D01*
X250790Y167082D01*
X250595Y166100D01*
Y147320D01*
Y117423D01*
X250336Y117164D01*
X249780Y116332D01*
X249585Y115350D01*
Y24350D01*
Y21913D01*
X241571Y13899D01*
X216266D01*
Y35866D01*
X210815D01*
Y103834D01*
X216266D01*
Y126866D01*
X211375D01*
Y136883D01*
X211794Y137302D01*
X212330Y138595D01*
Y139996D01*
X211794Y141289D01*
X210804Y142280D01*
X209510Y142816D01*
X208512D01*
X206003Y145324D01*
X205171Y145880D01*
X204190Y146075D01*
X199656D01*
Y149526D01*
X189624D01*
Y137494D01*
X199656D01*
Y140945D01*
X203127D01*
X205290Y138782D01*
Y138595D01*
X205826Y137302D01*
X206245Y136883D01*
Y126866D01*
X200234D01*
Y103834D01*
X205685D01*
Y35866D01*
X200234D01*
Y13899D01*
X173829D01*
X165815Y21913D01*
Y24350D01*
Y115350D01*
X165620Y116332D01*
X165064Y117164D01*
X164232Y117720D01*
X163250Y117915D01*
X119735D01*
Y160729D01*
Y165427D01*
X121404Y167096D01*
X121960Y167928D01*
X122155Y168910D01*
Y177315D01*
X128133D01*
X128334Y177355D01*
X130140D01*
X131122Y177550D01*
X131954Y178106D01*
X132954Y179106D01*
X133510Y179938D01*
X133705Y180920D01*
X133510Y181902D01*
X132954Y182734D01*
X132122Y183290D01*
X131140Y183485D01*
X130158Y183290D01*
X129326Y182734D01*
X129077Y182485D01*
X128173D01*
X127971Y182445D01*
X122608D01*
X121759Y183715D01*
X121960Y184200D01*
Y185600D01*
X121759Y186085D01*
X122608Y187355D01*
X127309D01*
X127421Y187280D01*
X127573Y187250D01*
X127832Y186862D01*
X128375Y186499D01*
X129015Y186372D01*
X133265D01*
X133905Y186499D01*
X134448Y186862D01*
X134811Y187405D01*
X134938Y188045D01*
Y191795D01*
X135468Y192333D01*
X136766Y192596D01*
X138060Y192060D01*
X139460D01*
X140754Y192596D01*
X141744Y193586D01*
X142280Y194880D01*
Y196280D01*
X141744Y197574D01*
X140754Y198564D01*
X139460Y199100D01*
X138060D01*
X136766Y198564D01*
X136162Y197960D01*
X120557D01*
X120031Y199230D01*
X121404Y200603D01*
X121960Y201436D01*
X122155Y202417D01*
Y210820D01*
Y220333D01*
X121960Y221314D01*
X121404Y222147D01*
X119647Y223904D01*
X118814Y224460D01*
X117833Y224655D01*
X71755D01*
Y231790D01*
X71560Y232772D01*
X71004Y233604D01*
X69504Y235104D01*
X68672Y235660D01*
X67690Y235855D01*
X25890D01*
X24908Y235660D01*
X24076Y235104D01*
X23520Y234272D01*
X23325Y233290D01*
X23520Y232308D01*
X24076Y231476D01*
X24908Y230920D01*
X25890Y230725D01*
X66625D01*
Y224854D01*
X66616Y224841D01*
X65355Y224110D01*
X63834Y224740D01*
X61546D01*
X59433Y223865D01*
X57815Y222247D01*
X56940Y220134D01*
Y217846D01*
X57815Y215733D01*
X59433Y214115D01*
X61546Y213240D01*
X62858D01*
X63384Y211970D01*
X59344Y207930D01*
X58788Y207098D01*
X58593Y206116D01*
Y174064D01*
X58788Y173082D01*
X59344Y172250D01*
X63384Y168210D01*
X62858Y166940D01*
X61546D01*
X59433Y166065D01*
X57815Y164447D01*
X56940Y162334D01*
Y160046D01*
X57815Y157933D01*
X59433Y156315D01*
X61546Y155440D01*
X63834D01*
X65355Y156070D01*
X66616Y155339D01*
X66625Y155326D01*
Y149455D01*
X25890D01*
X24908Y149260D01*
X24076Y148704D01*
X23520Y147872D01*
X23325Y146890D01*
X23520Y145908D01*
X24076Y145076D01*
X24908Y144520D01*
X25890Y144325D01*
X67690D01*
X68672Y144520D01*
X69504Y145076D01*
X71004Y146576D01*
X71560Y147408D01*
X71755Y148390D01*
Y155525D01*
X73440D01*
X74422Y155720D01*
X75254Y156276D01*
X76003Y157025D01*
X114605D01*
Y117915D01*
X110037D01*
X109056Y117720D01*
X108223Y117164D01*
X106466Y115407D01*
X105910Y114574D01*
X105715Y113593D01*
Y71120D01*
X105910Y70138D01*
X106466Y69306D01*
X107298Y68750D01*
X108280Y68555D01*
X109262Y68750D01*
X110094Y69306D01*
X110650Y70138D01*
X110845Y71120D01*
Y112530D01*
X111100Y112785D01*
X160685D01*
Y24350D01*
Y20850D01*
X160880Y19868D01*
X161436Y19036D01*
X169299Y11173D01*
X168813Y10000D01*
X10000D01*
Y525964D01*
X15506D01*
Y532368D01*
X18444Y535306D01*
X19714Y534780D01*
Y525964D01*
X20075D01*
Y507596D01*
X14584D01*
Y490564D01*
X25616D01*
Y507596D01*
X25205D01*
Y525964D01*
X30681D01*
Y507596D01*
X27284D01*
Y490564D01*
X38316D01*
Y507596D01*
X35811D01*
Y551022D01*
X35616Y552004D01*
X35060Y552836D01*
X32821Y555075D01*
X31989Y555631D01*
X31007Y555826D01*
X29032D01*
X28295Y556563D01*
Y558984D01*
X31746D01*
Y569016D01*
X19714D01*
Y558984D01*
X23165D01*
Y555500D01*
X23360Y554518D01*
X23916Y553686D01*
X25336Y552266D01*
X24810Y550996D01*
X19714D01*
Y543832D01*
X11878Y535996D01*
X10000D01*
Y573983D01*
X15507D01*
Y576434D01*
X19714D01*
Y573984D01*
X31746D01*
Y584016D01*
X19714D01*
Y581565D01*
X15507D01*
Y584015D01*
X10000D01*
Y610000D01*
Y744060D01*
X10160Y744220D01*
X406588D01*
X407068Y742955D01*
X407020Y742840D01*
Y741440D01*
X407556Y740146D01*
X408546Y739156D01*
X409840Y738620D01*
X411240D01*
X412534Y739156D01*
X413524Y740146D01*
X414060Y741440D01*
Y742840D01*
X414015Y742950D01*
X414863Y744220D01*
X513080D01*
Y610166D01*
D02*
G37*
G36*
X70690Y219525D02*
X116770D01*
X117025Y219270D01*
Y210820D01*
Y203480D01*
X116770Y203225D01*
X104756D01*
X103774Y203030D01*
X102942Y202474D01*
X100202Y199734D01*
X99646Y198902D01*
X99495Y198143D01*
X99360Y198071D01*
X92140D01*
X91426Y197775D01*
X87030D01*
X86048Y197580D01*
X85216Y197024D01*
X84322Y196130D01*
X83710D01*
X82416Y195594D01*
X81977Y195155D01*
X80206D01*
Y200025D01*
X83540D01*
X84522Y200220D01*
X85354Y200776D01*
X92560Y207982D01*
X99574D01*
Y204804D01*
X109606D01*
Y216836D01*
X99574D01*
Y213113D01*
X91497D01*
X90516Y212917D01*
X89683Y212361D01*
X82477Y205155D01*
X80206D01*
Y218106D01*
X69386D01*
X69259Y218609D01*
X70320Y219598D01*
X70690Y219525D01*
D02*
G37*
G36*
X92140Y182349D02*
X99360D01*
X99451Y181766D01*
Y181637D01*
X99646Y180656D01*
X100202Y179823D01*
X101959Y178066D01*
X102792Y177510D01*
X103773Y177315D01*
X117025D01*
Y169973D01*
X115356Y168304D01*
X114800Y167472D01*
X114605Y166490D01*
Y162155D01*
X110570D01*
X109606Y162894D01*
Y174926D01*
X99574D01*
Y171475D01*
X92793D01*
X89864Y174404D01*
X89032Y174960D01*
X88050Y175155D01*
X85884D01*
X85632Y176425D01*
X86652Y176848D01*
X87642Y177838D01*
X88178Y179132D01*
Y180532D01*
X87829Y181375D01*
X88483Y182645D01*
X91426D01*
X92140Y182349D01*
D02*
G37*
%LPC*%
G36*
X178016Y507596D02*
X166984D01*
Y490564D01*
X178016D01*
Y497815D01*
X183337D01*
X183756Y497396D01*
X185050Y496860D01*
X186450D01*
X187744Y497396D01*
X188734Y498386D01*
X189270Y499680D01*
Y501080D01*
X188734Y502374D01*
X187744Y503364D01*
X186450Y503900D01*
X185050D01*
X183756Y503364D01*
X183337Y502945D01*
X178016D01*
Y507596D01*
D02*
G37*
G36*
X165316D02*
X154284D01*
Y490564D01*
X165316D01*
Y507596D01*
D02*
G37*
G36*
X152616D02*
X141584D01*
Y490564D01*
X152616D01*
Y507596D01*
D02*
G37*
G36*
X139916D02*
X128884D01*
Y490564D01*
X139916D01*
Y507596D01*
D02*
G37*
G36*
X127216D02*
X116184D01*
Y490564D01*
X127216D01*
Y507596D01*
D02*
G37*
G36*
X114516D02*
X103484D01*
Y490564D01*
X114516D01*
Y507596D01*
D02*
G37*
G36*
X101816D02*
X90784D01*
Y490564D01*
X101816D01*
Y507596D01*
D02*
G37*
G36*
X89116D02*
X78084D01*
Y490564D01*
X89116D01*
Y507596D01*
D02*
G37*
G36*
X76416D02*
X65384D01*
Y490564D01*
X76416D01*
Y507596D01*
D02*
G37*
G36*
X63716D02*
X52684D01*
Y490564D01*
X63716D01*
Y507596D01*
D02*
G37*
G36*
X51016D02*
X39984D01*
Y490564D01*
X51016D01*
Y507596D01*
D02*
G37*
G36*
X193516Y486946D02*
X176484D01*
Y475914D01*
X193516D01*
Y486946D01*
D02*
G37*
G36*
Y474246D02*
X176484D01*
Y463214D01*
X193516D01*
Y474246D01*
D02*
G37*
G36*
Y461546D02*
X176484D01*
Y450514D01*
X193516D01*
Y461546D01*
D02*
G37*
G36*
Y448846D02*
X176484D01*
Y437814D01*
X193516D01*
Y448846D01*
D02*
G37*
G36*
X202960Y440400D02*
X201560D01*
X200266Y439864D01*
X199276Y438874D01*
X198740Y437580D01*
Y436180D01*
X199276Y434886D01*
X200266Y433896D01*
X201560Y433360D01*
X202960D01*
X204254Y433896D01*
X204673Y434315D01*
X1158900D01*
X1159155Y434060D01*
Y413092D01*
X1158449Y412621D01*
X1157898Y411797D01*
X1157705Y410825D01*
Y401675D01*
X1157898Y400703D01*
X1158449Y399879D01*
X1159273Y399328D01*
X1160245Y399135D01*
X1163195D01*
X1164167Y399328D01*
X1164991Y399879D01*
X1165542Y400703D01*
X1165735Y401675D01*
Y410825D01*
X1165542Y411797D01*
X1164991Y412621D01*
X1164285Y413092D01*
Y435123D01*
X1164090Y436104D01*
X1163534Y436937D01*
X1161777Y438694D01*
X1160944Y439250D01*
X1159963Y439445D01*
X204673D01*
X204254Y439864D01*
X202960Y440400D01*
D02*
G37*
G36*
X193516Y423446D02*
X176484D01*
Y412414D01*
X193516D01*
Y415365D01*
X649007D01*
X654785Y409587D01*
Y401525D01*
X654978Y400553D01*
X655529Y399729D01*
X656353Y399179D01*
X657325Y398985D01*
X660275D01*
X661247Y399179D01*
X662071Y399729D01*
X662622Y400553D01*
X662815Y401525D01*
Y410675D01*
X662622Y411647D01*
X662071Y412471D01*
X661247Y413021D01*
X660275Y413215D01*
X658413D01*
X651884Y419744D01*
X651052Y420300D01*
X650070Y420495D01*
X193516D01*
Y423446D01*
D02*
G37*
G36*
Y436146D02*
X176484D01*
Y425114D01*
X187752D01*
X188000Y425065D01*
X879702D01*
X890378Y414388D01*
X889892Y413215D01*
X889125D01*
X888153Y413021D01*
X887329Y412471D01*
X886778Y411647D01*
X886585Y410675D01*
Y401525D01*
X886778Y400553D01*
X886920Y400341D01*
X886780Y400130D01*
X886585Y399149D01*
Y396520D01*
X886330Y396265D01*
X644013D01*
X643665Y396613D01*
Y400774D01*
X643815Y401525D01*
Y410675D01*
X643621Y411647D01*
X643071Y412471D01*
X642247Y413021D01*
X641275Y413215D01*
X638325D01*
X637353Y413021D01*
X636529Y412471D01*
X635979Y411647D01*
X635785Y410675D01*
Y408665D01*
X583366D01*
X582384Y408470D01*
X581552Y407914D01*
X580063Y406425D01*
X390893D01*
X389911Y406230D01*
X389079Y405674D01*
X386020Y402615D01*
X205249D01*
X204723Y403885D01*
X205244Y404406D01*
X205780Y405700D01*
Y407100D01*
X205244Y408394D01*
X204254Y409384D01*
X202960Y409920D01*
X201560D01*
X200266Y409384D01*
X199276Y408394D01*
X199028Y407795D01*
X193516D01*
Y410746D01*
X176484D01*
Y400208D01*
X170777D01*
X169610Y399724D01*
X169012Y399127D01*
X168528Y397958D01*
Y342012D01*
X20698D01*
X19530Y341528D01*
X18932Y340930D01*
X18448Y339762D01*
Y332596D01*
X14584D01*
Y315564D01*
X17535D01*
Y288720D01*
X17730Y287738D01*
X18286Y286906D01*
X29595Y275597D01*
Y273960D01*
X29606Y273906D01*
Y268810D01*
X29758Y268043D01*
X30193Y267393D01*
X30843Y266958D01*
X31610Y266805D01*
X42710D01*
X43477Y266958D01*
X44127Y267393D01*
X44562Y268043D01*
X44714Y268810D01*
Y269095D01*
X54254D01*
Y268554D01*
X65786D01*
Y271755D01*
X70245D01*
Y268920D01*
X70398Y268153D01*
X70833Y267503D01*
X71483Y267068D01*
X72250Y266915D01*
X75235D01*
Y259080D01*
X75430Y258098D01*
X75986Y257266D01*
X81560Y251692D01*
X82365Y251154D01*
X82400Y251127D01*
X82523Y250993D01*
X83153Y249700D01*
X83108Y249477D01*
Y244524D01*
X83251Y243805D01*
X83658Y243196D01*
X84267Y242789D01*
X84986Y242646D01*
X85395D01*
Y228600D01*
X85590Y227618D01*
X86146Y226786D01*
X86978Y226230D01*
X87960Y226035D01*
X124587D01*
X125006Y225616D01*
X126300Y225080D01*
X127700D01*
X128994Y225616D01*
X129984Y226606D01*
X130520Y227900D01*
Y229300D01*
X129984Y230594D01*
X130884Y231488D01*
X177075Y185297D01*
Y149526D01*
X174624D01*
Y137494D01*
X184656D01*
Y149526D01*
X182205D01*
Y184125D01*
X248164D01*
Y180674D01*
X258196D01*
Y192706D01*
X259338Y193015D01*
X262022D01*
X263164Y192706D01*
X263164Y191745D01*
Y180674D01*
X265615D01*
Y172886D01*
X261914D01*
Y159854D01*
X265615D01*
Y153086D01*
X259894D01*
Y141554D01*
X263195D01*
Y135763D01*
X262776Y135344D01*
X262240Y134050D01*
Y132650D01*
X262776Y131356D01*
X263766Y130366D01*
X265060Y129830D01*
X266460D01*
X267754Y130366D01*
X267886Y130498D01*
X292924D01*
X294585Y128837D01*
Y126866D01*
X289134D01*
Y103834D01*
X294585D01*
Y35866D01*
X289134D01*
Y12834D01*
X305166D01*
Y35866D01*
X299715D01*
Y103834D01*
X305166D01*
Y126866D01*
X299715D01*
Y129900D01*
X299520Y130882D01*
X298964Y131714D01*
X295801Y134877D01*
X294969Y135433D01*
X293987Y135628D01*
X268460D01*
X268325Y135763D01*
Y141554D01*
X271426D01*
Y153086D01*
X270745D01*
Y159854D01*
X273946D01*
Y172886D01*
X270745D01*
Y180674D01*
X273196D01*
X273196Y192706D01*
X274338Y193015D01*
X353597D01*
X357935Y188677D01*
Y92550D01*
X358130Y91568D01*
X358686Y90736D01*
X359518Y90180D01*
X360500Y89985D01*
X610485D01*
Y87975D01*
X610678Y87003D01*
X611229Y86179D01*
X612053Y85628D01*
X613025Y85435D01*
X613385D01*
Y84307D01*
X613580Y83326D01*
X614136Y82493D01*
X615893Y80736D01*
X616726Y80180D01*
X617707Y79985D01*
X889000D01*
X889503Y80085D01*
X1144500D01*
X1145482Y80280D01*
X1146314Y80836D01*
X1146870Y81668D01*
X1147065Y82650D01*
Y85708D01*
X1147771Y86179D01*
X1148322Y87003D01*
X1148515Y87975D01*
Y97125D01*
X1148322Y98097D01*
X1147771Y98921D01*
X1146947Y99472D01*
X1145975Y99665D01*
X1143025D01*
X1142053Y99472D01*
X1141229Y98921D01*
X1140678Y98097D01*
X1140485Y97125D01*
Y87975D01*
X1140678Y87003D01*
X1141024Y86485D01*
X1140643Y85442D01*
X1140462Y85215D01*
X907538D01*
X907357Y85442D01*
X906975Y86485D01*
X907321Y87003D01*
X907515Y87975D01*
Y97125D01*
X907321Y98097D01*
X906771Y98921D01*
X905947Y99472D01*
X904975Y99665D01*
X903113D01*
X895832Y106946D01*
X895000Y107502D01*
X894018Y107697D01*
X396355D01*
X396101Y107952D01*
Y386757D01*
X395905Y387738D01*
X395349Y388571D01*
X395128Y388791D01*
X395614Y389965D01*
X397680D01*
X397935Y389710D01*
Y118477D01*
X398130Y117496D01*
X398686Y116663D01*
X405403Y109946D01*
X406236Y109390D01*
X407217Y109195D01*
X1160680D01*
X1160935Y108940D01*
Y99392D01*
X1160229Y98921D01*
X1159679Y98097D01*
X1159485Y97125D01*
Y87975D01*
X1159679Y87003D01*
X1160229Y86179D01*
X1161053Y85628D01*
X1162025Y85435D01*
X1164975D01*
X1165947Y85628D01*
X1166771Y86179D01*
X1167321Y87003D01*
X1167515Y87975D01*
Y97125D01*
X1167321Y98097D01*
X1166771Y98921D01*
X1166065Y99392D01*
Y110003D01*
X1165870Y110984D01*
X1165314Y111817D01*
X1163557Y113574D01*
X1162724Y114130D01*
X1161743Y114325D01*
X408280D01*
X403065Y119540D01*
Y390773D01*
X402870Y391754D01*
X402314Y392587D01*
X400557Y394344D01*
X399724Y394900D01*
X398743Y395095D01*
X193516D01*
Y396904D01*
X195356D01*
X196524Y397388D01*
X196659Y397523D01*
X196850Y397485D01*
X387083D01*
X388065Y397680D01*
X388897Y398236D01*
X391955Y401295D01*
X581126D01*
X582108Y401490D01*
X582940Y402046D01*
X584428Y403535D01*
X635785D01*
Y401525D01*
X635979Y400553D01*
X636529Y399729D01*
X637353Y399179D01*
X638325Y398985D01*
X638535D01*
Y395550D01*
X638730Y394568D01*
X639286Y393736D01*
X641136Y391886D01*
X641968Y391330D01*
X642950Y391135D01*
X887393D01*
X888374Y391330D01*
X889207Y391886D01*
X890823Y393502D01*
X891135Y393643D01*
X892486Y393635D01*
X894235Y391886D01*
X895067Y391330D01*
X896049Y391135D01*
X1137790D01*
X1138772Y391330D01*
X1139497Y391815D01*
X1141270D01*
X1142252Y392010D01*
X1143084Y392566D01*
X1144534Y394016D01*
X1145090Y394848D01*
X1145285Y395830D01*
Y399408D01*
X1145991Y399879D01*
X1146541Y400703D01*
X1146735Y401675D01*
Y410825D01*
X1146541Y411797D01*
X1145991Y412621D01*
X1145167Y413172D01*
X1144195Y413365D01*
X1141245D01*
X1140273Y413172D01*
X1139449Y412621D01*
X1138898Y411797D01*
X1138705Y410825D01*
Y401675D01*
X1138898Y400703D01*
X1139449Y399879D01*
X1140155Y399408D01*
Y396945D01*
X1138470D01*
X1137488Y396750D01*
X1136763Y396265D01*
X897111D01*
X893851Y399526D01*
X893871Y399729D01*
X894421Y400553D01*
X894615Y401525D01*
Y408125D01*
X894808Y408257D01*
X896125Y408497D01*
X900336Y404286D01*
X901168Y403730D01*
X902150Y403535D01*
X905585D01*
Y401525D01*
X905779Y400553D01*
X906329Y399729D01*
X907153Y399179D01*
X908125Y398985D01*
X911075D01*
X912047Y399179D01*
X912871Y399729D01*
X913421Y400553D01*
X913615Y401525D01*
Y410675D01*
X913421Y411647D01*
X912871Y412471D01*
X912047Y413021D01*
X911075Y413215D01*
X908125D01*
X907153Y413021D01*
X906329Y412471D01*
X905779Y411647D01*
X905585Y410675D01*
Y408665D01*
X903213D01*
X900043Y411835D01*
X899753Y412269D01*
X882578Y429444D01*
X881746Y430000D01*
X880764Y430195D01*
X193516D01*
Y436146D01*
D02*
G37*
G36*
X1144195Y388265D02*
X1141245D01*
X1140273Y388072D01*
X1139449Y387521D01*
X1138898Y386697D01*
X1138705Y385725D01*
Y376575D01*
X1138898Y375603D01*
X1139449Y374779D01*
X1140273Y374229D01*
X1141245Y374035D01*
X1144195D01*
X1145167Y374229D01*
X1145991Y374779D01*
X1146541Y375603D01*
X1146735Y376575D01*
Y385725D01*
X1146541Y386697D01*
X1145991Y387521D01*
X1145167Y388072D01*
X1144195Y388265D01*
D02*
G37*
G36*
X892075Y388115D02*
X889125D01*
X888153Y387921D01*
X887329Y387371D01*
X886778Y386547D01*
X886585Y385575D01*
Y376425D01*
X886778Y375453D01*
X887329Y374629D01*
X888153Y374078D01*
X889125Y373885D01*
X892075D01*
X893047Y374078D01*
X893871Y374629D01*
X894421Y375453D01*
X894615Y376425D01*
Y385575D01*
X894421Y386547D01*
X893871Y387371D01*
X893047Y387921D01*
X892075Y388115D01*
D02*
G37*
G36*
X641275D02*
X638325D01*
X637353Y387921D01*
X636529Y387371D01*
X635979Y386547D01*
X635785Y385575D01*
Y376425D01*
X635979Y375453D01*
X636529Y374629D01*
X637353Y374078D01*
X638325Y373885D01*
X641275D01*
X642247Y374078D01*
X643071Y374629D01*
X643621Y375453D01*
X643815Y376425D01*
Y385575D01*
X643621Y386547D01*
X643071Y387371D01*
X642247Y387921D01*
X641275Y388115D01*
D02*
G37*
G36*
X650775D02*
X647825D01*
X646853Y387921D01*
X646029Y387371D01*
X645479Y386547D01*
X645285Y385575D01*
Y376425D01*
X645479Y375453D01*
X646029Y374629D01*
X646853Y374078D01*
X647825Y373885D01*
X649687D01*
X661836Y361736D01*
X662668Y361180D01*
X663650Y360985D01*
X672037D01*
X683484Y349538D01*
Y332634D01*
X704016D01*
Y352063D01*
X704016Y352610D01*
X705286Y353136D01*
X717336Y341086D01*
X718168Y340530D01*
X719150Y340335D01*
X720132Y340530D01*
X720964Y341086D01*
X721520Y341918D01*
X721715Y342900D01*
X721520Y343882D01*
X720964Y344714D01*
X682864Y382814D01*
X682032Y383370D01*
X681050Y383565D01*
X658800D01*
X657818Y383370D01*
X656986Y382814D01*
X656430Y381982D01*
X656235Y381000D01*
X656430Y380018D01*
X656986Y379186D01*
X657818Y378630D01*
X658800Y378435D01*
X679987D01*
X703986Y354436D01*
X703460Y353166D01*
X702976Y353166D01*
X687112D01*
X674914Y365364D01*
X674082Y365920D01*
X673100Y366115D01*
X664713D01*
X653315Y377513D01*
Y385575D01*
X653121Y386547D01*
X652571Y387371D01*
X651747Y387921D01*
X650775Y388115D01*
D02*
G37*
G36*
X901575D02*
X898625D01*
X897653Y387921D01*
X896829Y387371D01*
X896279Y386547D01*
X896085Y385575D01*
Y376425D01*
X896279Y375453D01*
X896829Y374629D01*
X897653Y374078D01*
X898625Y373885D01*
X900487D01*
X912636Y361736D01*
X913468Y361180D01*
X914450Y360985D01*
X926037D01*
X937484Y349538D01*
Y333699D01*
X929340D01*
X928938Y334969D01*
X930565Y336596D01*
X931916Y338937D01*
X932616Y341549D01*
Y344252D01*
X931916Y346862D01*
X930565Y349203D01*
X928653Y351115D01*
X926312Y352466D01*
X923701Y353166D01*
X920999D01*
X918388Y352466D01*
X916047Y351115D01*
X914135Y349203D01*
X912784Y346862D01*
X912084Y344252D01*
Y341549D01*
X912771Y338985D01*
X912783Y338936D01*
X912023Y337715D01*
X907216D01*
Y353166D01*
X886684D01*
Y332634D01*
X904452D01*
X904700Y332585D01*
X912398D01*
X915662Y329320D01*
X916495Y328764D01*
X917476Y328569D01*
X1025090D01*
X1026072Y328764D01*
X1026904Y329320D01*
X1037919Y340335D01*
X1141954D01*
Y332634D01*
X1162486D01*
Y353166D01*
X1141954D01*
Y345465D01*
X1036856D01*
X1035874Y345270D01*
X1035042Y344714D01*
X1024028Y333699D01*
X958016D01*
Y353166D01*
X941112D01*
X928914Y365364D01*
X928082Y365920D01*
X927100Y366115D01*
X915513D01*
X904115Y377513D01*
Y385575D01*
X903922Y386547D01*
X903371Y387371D01*
X902547Y387921D01*
X901575Y388115D01*
D02*
G37*
G36*
X1153695Y388265D02*
X1150745D01*
X1149773Y388072D01*
X1148949Y387521D01*
X1148399Y386697D01*
X1148205Y385725D01*
Y376575D01*
X1148399Y375603D01*
X1148949Y374779D01*
X1149655Y374308D01*
Y370430D01*
X1149850Y369448D01*
X1150406Y368616D01*
X1161021Y358001D01*
X1161853Y357445D01*
X1162835Y357250D01*
X1176282D01*
X1179184Y354348D01*
X1178570Y353166D01*
X1176268D01*
X1173658Y352466D01*
X1171317Y351115D01*
X1169405Y349203D01*
X1168054Y346862D01*
X1167354Y344252D01*
Y341549D01*
X1168054Y338937D01*
X1169405Y336596D01*
X1171317Y334685D01*
X1173658Y333334D01*
X1176268Y332634D01*
X1178971D01*
X1181582Y333334D01*
X1183923Y334685D01*
X1185835Y336596D01*
X1187186Y338937D01*
X1187886Y341549D01*
Y344252D01*
X1187199Y346815D01*
X1187187Y346864D01*
X1187947Y348085D01*
X1192754D01*
Y332634D01*
X1213286D01*
Y353166D01*
X1195518D01*
X1195270Y353215D01*
X1187572D01*
X1179158Y361629D01*
X1178326Y362185D01*
X1177345Y362380D01*
X1163898D01*
X1154785Y371493D01*
Y374308D01*
X1155491Y374779D01*
X1156041Y375603D01*
X1156235Y376575D01*
Y385725D01*
X1156041Y386697D01*
X1155491Y387521D01*
X1154667Y388072D01*
X1153695Y388265D01*
D02*
G37*
G36*
X669702Y353166D02*
X666999D01*
X664388Y352466D01*
X662047Y351115D01*
X660135Y349203D01*
X658784Y346862D01*
X658084Y344252D01*
Y341549D01*
X658784Y338937D01*
X660135Y336596D01*
X662047Y334685D01*
X664388Y333334D01*
X666999Y332634D01*
X669702D01*
X672312Y333334D01*
X674653Y334685D01*
X676565Y336596D01*
X677916Y338937D01*
X678616Y341549D01*
Y344252D01*
X677916Y346862D01*
X676565Y349203D01*
X674653Y351115D01*
X672312Y352466D01*
X669702Y353166D01*
D02*
G37*
G36*
X534100Y384520D02*
X532700D01*
X531406Y383984D01*
X530416Y382994D01*
X529880Y381700D01*
Y380300D01*
X530416Y379006D01*
X531406Y378016D01*
X532700Y377480D01*
X534100D01*
X535394Y378016D01*
X535813Y378435D01*
X603787D01*
X632684Y349538D01*
Y332634D01*
X653216D01*
Y353166D01*
X636312D01*
X606664Y382814D01*
X605832Y383370D01*
X604850Y383565D01*
X535813D01*
X535394Y383984D01*
X534100Y384520D01*
D02*
G37*
G36*
X885975Y74565D02*
X883025D01*
X882053Y74372D01*
X881229Y73821D01*
X880678Y72997D01*
X880485Y72025D01*
Y62875D01*
X880678Y61903D01*
X881229Y61079D01*
X882053Y60528D01*
X883025Y60335D01*
X885975D01*
X886947Y60528D01*
X887771Y61079D01*
X888321Y61903D01*
X888515Y62875D01*
Y72025D01*
X888321Y72997D01*
X887771Y73821D01*
X886947Y74372D01*
X885975Y74565D01*
D02*
G37*
G36*
X615975D02*
X613025D01*
X612053Y74372D01*
X611229Y73821D01*
X610678Y72997D01*
X610485Y72025D01*
Y62875D01*
X610678Y61903D01*
X611229Y61079D01*
X612053Y60528D01*
X613025Y60335D01*
X615975D01*
X616947Y60528D01*
X617771Y61079D01*
X618321Y61903D01*
X618515Y62875D01*
Y72025D01*
X618321Y72997D01*
X617771Y73821D01*
X616947Y74372D01*
X615975Y74565D01*
D02*
G37*
G36*
X33730Y82136D02*
X30830D01*
X28028Y81385D01*
X25516Y79935D01*
X23465Y77884D01*
X22015Y75372D01*
X21264Y72570D01*
Y69670D01*
X22015Y66868D01*
X23465Y64356D01*
X25516Y62305D01*
X28028Y60855D01*
X30830Y60104D01*
X33730D01*
X36532Y60855D01*
X39044Y62305D01*
X41095Y64356D01*
X42545Y66868D01*
X43296Y69670D01*
Y72570D01*
X42545Y75372D01*
X41095Y77884D01*
X39044Y79935D01*
X36532Y81385D01*
X33730Y82136D01*
D02*
G37*
G36*
X1158034Y78581D02*
X966800D01*
X965818Y78386D01*
X964986Y77830D01*
X964430Y76998D01*
X964235Y76016D01*
Y67543D01*
X906047D01*
X905870Y68432D01*
X905314Y69264D01*
X904482Y69820D01*
X903500Y70015D01*
X902518Y69820D01*
X901686Y69264D01*
X901130Y68432D01*
X900935Y67450D01*
Y66427D01*
X901130Y65446D01*
X901686Y64613D01*
X903136Y63163D01*
X903968Y62607D01*
X904950Y62412D01*
X964235D01*
Y25400D01*
X964430Y24418D01*
X964986Y23586D01*
X965818Y23030D01*
X966800Y22835D01*
X967782Y23030D01*
X968614Y23586D01*
X969170Y24418D01*
X969365Y25400D01*
Y64977D01*
Y73451D01*
X1139571D01*
X1140516Y72181D01*
X1140485Y72025D01*
Y62875D01*
X1140678Y61903D01*
X1141229Y61079D01*
X1142053Y60528D01*
X1143025Y60335D01*
X1145975D01*
X1146947Y60528D01*
X1147771Y61079D01*
X1148322Y61903D01*
X1148515Y62875D01*
Y72025D01*
X1149030Y72164D01*
X1149985Y71128D01*
Y62875D01*
X1150179Y61903D01*
X1150729Y61079D01*
X1151553Y60528D01*
X1152525Y60335D01*
X1154387D01*
X1166911Y47811D01*
X1167743Y47255D01*
X1168725Y47060D01*
X1181212D01*
X1193034Y35238D01*
Y18334D01*
X1213566D01*
Y37763D01*
X1213566Y38310D01*
X1214836Y38836D01*
X1226886Y26786D01*
X1227718Y26230D01*
X1228700Y26035D01*
X1229682Y26230D01*
X1230514Y26786D01*
X1231070Y27618D01*
X1231265Y28600D01*
X1231070Y29582D01*
X1230514Y30414D01*
X1191664Y69264D01*
X1190832Y69820D01*
X1189850Y70015D01*
X1166065D01*
Y70550D01*
X1165870Y71532D01*
X1165314Y72364D01*
X1159848Y77830D01*
X1159016Y78386D01*
X1158034Y78581D01*
D02*
G37*
G36*
X1179251Y38866D02*
X1176548D01*
X1173938Y38166D01*
X1171597Y36815D01*
X1169685Y34904D01*
X1168334Y32562D01*
X1167634Y29952D01*
Y27248D01*
X1168334Y24637D01*
X1169685Y22297D01*
X1171597Y20385D01*
X1173938Y19034D01*
X1176548Y18334D01*
X1179251D01*
X1181862Y19034D01*
X1184203Y20385D01*
X1186115Y22297D01*
X1187466Y24637D01*
X1188166Y27248D01*
Y29952D01*
X1187466Y32562D01*
X1186115Y34904D01*
X1184203Y36815D01*
X1181862Y38166D01*
X1179251Y38866D01*
D02*
G37*
G36*
X1162766D02*
X1142234D01*
Y18334D01*
X1162766D01*
Y38866D01*
D02*
G37*
G36*
X634166Y35666D02*
X613634D01*
Y15134D01*
X634166D01*
Y35666D01*
D02*
G37*
%LPD*%
G36*
X176484Y387014D02*
X193516D01*
Y389965D01*
X243099D01*
X243585Y388791D01*
X237189Y382395D01*
X193516D01*
Y385346D01*
X176484D01*
Y374314D01*
X193516D01*
Y377265D01*
X238252D01*
X239234Y377460D01*
X240066Y378016D01*
X247998Y385949D01*
X390715D01*
X390970Y385694D01*
Y106889D01*
X391165Y105908D01*
X391721Y105075D01*
X391942Y104855D01*
X391456Y103681D01*
X382547D01*
X382065Y104163D01*
Y379854D01*
X381870Y380835D01*
X381314Y381668D01*
X379557Y383425D01*
X378724Y383981D01*
X377743Y384176D01*
X265694D01*
X264713Y383981D01*
X263880Y383425D01*
X256326Y375871D01*
X255770Y375038D01*
X255575Y374057D01*
Y369950D01*
X255320Y369695D01*
X193516D01*
Y372646D01*
X176484D01*
Y361614D01*
X193516D01*
Y364565D01*
X256383D01*
X257364Y364760D01*
X258197Y365316D01*
X259954Y367073D01*
X260510Y367906D01*
X260705Y368887D01*
Y372994D01*
X266757Y379046D01*
X271069D01*
Y361569D01*
X289611D01*
Y368275D01*
X293420D01*
X294945Y366750D01*
Y231165D01*
X152273D01*
X151854Y231584D01*
X150560Y232120D01*
X149160D01*
X147866Y231584D01*
X146876Y230594D01*
X146340Y229300D01*
Y227900D01*
X146876Y226606D01*
X147866Y225616D01*
X149160Y225080D01*
X150560D01*
X151854Y225616D01*
X152273Y226035D01*
X295097D01*
X295516Y225616D01*
X296810Y225080D01*
X298210D01*
X299504Y225616D01*
X300494Y226606D01*
X301030Y227900D01*
Y229300D01*
X300494Y230594D01*
X300075Y231013D01*
Y367813D01*
X299880Y368794D01*
X299324Y369627D01*
X296297Y372654D01*
X295464Y373210D01*
X294483Y373405D01*
X289611D01*
Y379046D01*
X376680D01*
X376935Y378791D01*
Y103100D01*
X377130Y102118D01*
X377686Y101286D01*
X379670Y99302D01*
X380502Y98746D01*
X381484Y98551D01*
X609571D01*
X610516Y97281D01*
X610485Y97125D01*
Y95115D01*
X363065D01*
Y189740D01*
X362870Y190722D01*
X362592Y191137D01*
Y193454D01*
X362724Y193586D01*
X363260Y194880D01*
Y196280D01*
X362724Y197574D01*
X361734Y198564D01*
X360440Y199100D01*
X359040D01*
X357746Y198564D01*
X357423Y198241D01*
X356698Y197594D01*
X355642Y197950D01*
X354660Y198145D01*
X257169D01*
X256187Y197950D01*
X255355Y197394D01*
X253597Y195637D01*
X253041Y194804D01*
X252846Y193823D01*
Y192706D01*
X248164D01*
Y189255D01*
X180372D01*
X114307Y255320D01*
X113475Y255876D01*
X112494Y256071D01*
X84437D01*
X80365Y260143D01*
Y266915D01*
X83350D01*
X84117Y267068D01*
X84767Y267503D01*
X85202Y268153D01*
X85354Y268920D01*
Y269205D01*
X97277D01*
X97710Y268772D01*
Y265287D01*
X97800Y264835D01*
X97371Y264015D01*
X97020Y263565D01*
X87960D01*
X86978Y263370D01*
X86146Y262814D01*
X85590Y261982D01*
X85395Y261000D01*
X85590Y260018D01*
X86146Y259186D01*
X86978Y258630D01*
X87960Y258435D01*
X111420D01*
X112401Y258630D01*
X113233Y259186D01*
X116190Y262143D01*
X116746Y262975D01*
X116941Y263956D01*
Y274524D01*
X116746Y275505D01*
X116190Y276338D01*
X107875Y284652D01*
Y290825D01*
X279090D01*
X280072Y291020D01*
X280904Y291576D01*
X282154Y292826D01*
X282710Y293658D01*
X282905Y294640D01*
X282710Y295622D01*
X282154Y296454D01*
X281322Y297010D01*
X280340Y297205D01*
X279358Y297010D01*
X278526Y296454D01*
X278027Y295955D01*
X217324D01*
X216939Y297225D01*
X217223Y297415D01*
X223628Y303820D01*
X224220D01*
X225514Y304356D01*
X226504Y305346D01*
X227040Y306640D01*
Y308040D01*
X226504Y309334D01*
X225514Y310324D01*
X224220Y310860D01*
X222820D01*
X221526Y310324D01*
X220536Y309334D01*
X220000Y308040D01*
Y307448D01*
X214346Y301794D01*
X175948D01*
X175099Y303064D01*
X175300Y303549D01*
Y304949D01*
X175065Y305516D01*
Y315564D01*
X178016D01*
Y332596D01*
X166984D01*
Y315564D01*
X169935D01*
Y307295D01*
X169786Y307233D01*
X168796Y306243D01*
X168260Y304949D01*
Y303549D01*
X168461Y303064D01*
X167612Y301794D01*
X163248D01*
X162399Y303064D01*
X162600Y303549D01*
Y304949D01*
X162064Y306243D01*
X161645Y306662D01*
Y315564D01*
X165316D01*
Y332596D01*
X154284D01*
Y315564D01*
X156515D01*
Y306662D01*
X156096Y306243D01*
X155560Y304949D01*
Y303549D01*
X155761Y303064D01*
X154912Y301794D01*
X127265D01*
X126878Y301871D01*
X81037D01*
X68517Y314391D01*
X69003Y315564D01*
X76416D01*
Y332596D01*
X65384D01*
Y320205D01*
X64114Y319566D01*
X63716Y319862D01*
Y332596D01*
X52684D01*
Y315564D01*
X60088D01*
X78160Y297492D01*
X78992Y296936D01*
X79974Y296741D01*
X104760D01*
X105145Y295471D01*
X104746Y295204D01*
X103012Y293470D01*
X79035D01*
X78053Y293275D01*
X77221Y292719D01*
X76737Y292235D01*
X66925D01*
X66399Y293505D01*
X67854Y294960D01*
X68410Y295792D01*
X68605Y296774D01*
Y297180D01*
X68410Y298162D01*
X67854Y298994D01*
X67022Y299550D01*
X66040Y299745D01*
X65058Y299550D01*
X64226Y298994D01*
X63670Y298162D01*
X63638Y298000D01*
X61456Y295818D01*
X60900Y294986D01*
X60705Y294004D01*
Y291559D01*
X59505Y290963D01*
X59094Y291374D01*
X58262Y291930D01*
X57280Y292125D01*
X37160D01*
X36178Y291930D01*
X35346Y291374D01*
X34790Y290542D01*
X34595Y289560D01*
X34790Y288578D01*
X35346Y287746D01*
X36178Y287190D01*
X37160Y286995D01*
X56217D01*
X58206Y285006D01*
X59038Y284450D01*
X60020Y284255D01*
X61002Y284450D01*
X61834Y285006D01*
X63933Y287105D01*
X77800D01*
X78782Y287300D01*
X79614Y287856D01*
X80098Y288340D01*
X102745D01*
Y283590D01*
X102940Y282608D01*
X103496Y281776D01*
X109159Y276113D01*
X108673Y274940D01*
X99458D01*
X98789Y274807D01*
X98222Y274428D01*
X98160Y274335D01*
X85354D01*
Y274620D01*
X85202Y275387D01*
X84767Y276037D01*
X84117Y276472D01*
X83350Y276625D01*
X73630D01*
X73532Y276690D01*
X72550Y276885D01*
X65786D01*
Y280086D01*
X54254D01*
Y274225D01*
X44714D01*
Y274510D01*
X44562Y275277D01*
X44127Y275927D01*
X43477Y276362D01*
X42710Y276514D01*
X34725D01*
Y276660D01*
X34530Y277642D01*
X33974Y278474D01*
X22665Y289783D01*
Y315564D01*
X25616D01*
Y332596D01*
X21752D01*
Y338708D01*
X169583D01*
X170750Y339192D01*
X171348Y339790D01*
X171832Y340957D01*
Y396904D01*
X176484D01*
Y387014D01*
D02*
G37*
%LPC*%
G36*
X193516Y359946D02*
X176484D01*
Y348914D01*
X193516D01*
Y359946D01*
D02*
G37*
G36*
X281560Y354711D02*
X279119D01*
X276761Y354079D01*
X274648Y352859D01*
X272921Y351133D01*
X271701Y349019D01*
X271429Y348005D01*
X240056D01*
Y348916D01*
X230024D01*
Y336884D01*
X240056D01*
Y342875D01*
X271429D01*
X271701Y341861D01*
X272921Y339748D01*
X274648Y338021D01*
X276761Y336801D01*
X279119Y336169D01*
X281560D01*
X283918Y336801D01*
X286033Y338021D01*
X287759Y339748D01*
X288979Y341861D01*
X289611Y344220D01*
Y346660D01*
X288979Y349019D01*
X287759Y351133D01*
X286033Y352859D01*
X283918Y354079D01*
X281560Y354711D01*
D02*
G37*
G36*
X225056Y348916D02*
X215024D01*
Y345465D01*
X193516D01*
Y347246D01*
X176484D01*
Y336214D01*
X193516D01*
Y340335D01*
X215024D01*
Y336884D01*
X225056D01*
Y348916D01*
D02*
G37*
G36*
X152616Y332596D02*
X141584D01*
Y315564D01*
X152616D01*
Y332596D01*
D02*
G37*
G36*
X139916D02*
X128884D01*
Y315564D01*
X139916D01*
Y332596D01*
D02*
G37*
G36*
X127216D02*
X116184D01*
Y315564D01*
X127216D01*
Y332596D01*
D02*
G37*
G36*
X114516D02*
X103484D01*
Y315564D01*
X114516D01*
Y332596D01*
D02*
G37*
G36*
X101816D02*
X90784D01*
Y315564D01*
X101816D01*
Y332596D01*
D02*
G37*
G36*
X89116D02*
X78084D01*
Y315564D01*
X89116D01*
Y332596D01*
D02*
G37*
G36*
X281560Y329311D02*
X279119D01*
X276761Y328679D01*
X274648Y327459D01*
X272921Y325732D01*
X271701Y323619D01*
X271069Y321260D01*
Y318820D01*
X271701Y316462D01*
X272921Y314347D01*
X274648Y312621D01*
X276761Y311401D01*
X279119Y310769D01*
X281560D01*
X283918Y311401D01*
X286033Y312621D01*
X287759Y314347D01*
X288979Y316462D01*
X289611Y318820D01*
Y321260D01*
X288979Y323619D01*
X287759Y325732D01*
X286033Y327459D01*
X283918Y328679D01*
X281560Y329311D01*
D02*
G37*
G36*
X51016Y332596D02*
X39984D01*
Y315564D01*
X42935D01*
Y312926D01*
X42786Y312864D01*
X41796Y311874D01*
X41260Y310580D01*
Y309180D01*
X41796Y307886D01*
X42786Y306896D01*
X44080Y306360D01*
X45480D01*
X46774Y306896D01*
X47764Y307886D01*
X48300Y309180D01*
Y310580D01*
X48065Y311147D01*
Y315564D01*
X51016D01*
Y332596D01*
D02*
G37*
G36*
X38316D02*
X27284D01*
Y315564D01*
X30235D01*
Y305207D01*
X29830Y304230D01*
Y302830D01*
X30366Y301536D01*
X31356Y300546D01*
X32650Y300010D01*
X34050D01*
X35344Y300546D01*
X36334Y301536D01*
X36870Y302830D01*
Y304230D01*
X36334Y305524D01*
X35365Y306493D01*
Y315564D01*
X38316D01*
Y332596D01*
D02*
G37*
G36*
X177778Y286495D02*
X166642D01*
X165863Y286340D01*
X165202Y285898D01*
X164760Y285237D01*
X164605Y284457D01*
Y254023D01*
X164760Y253243D01*
X165202Y252582D01*
X165863Y252140D01*
X166642Y251985D01*
X177778D01*
X178557Y252140D01*
X179218Y252582D01*
X179660Y253243D01*
X179815Y254023D01*
Y284457D01*
X179660Y285237D01*
X179218Y285898D01*
X178557Y286340D01*
X177778Y286495D01*
D02*
G37*
%LPD*%
G36*
X1160935Y69487D02*
Y67450D01*
X1161130Y66468D01*
X1161686Y65636D01*
X1162518Y65080D01*
X1163500Y64885D01*
X1188787D01*
X1213536Y40136D01*
X1213010Y38866D01*
X1212526Y38866D01*
X1196662D01*
X1184089Y51439D01*
X1183257Y51995D01*
X1182275Y52190D01*
X1169788D01*
X1158015Y63963D01*
Y70611D01*
X1159285Y71137D01*
X1160935Y69487D01*
D02*
G37*
D19*
X1144500Y92550D02*
D03*
X1163500D02*
D03*
Y67450D02*
D03*
X1154000D02*
D03*
X1144500D02*
D03*
X614500D02*
D03*
X624000D02*
D03*
X633500D02*
D03*
Y92550D02*
D03*
X614500D02*
D03*
X884500Y67450D02*
D03*
X894000D02*
D03*
X903500D02*
D03*
Y92550D02*
D03*
X884500D02*
D03*
X1142720Y381150D02*
D03*
X1152220D02*
D03*
X1161720D02*
D03*
Y406250D02*
D03*
X1142720D02*
D03*
X639800Y406100D02*
D03*
X658800D02*
D03*
Y381000D02*
D03*
X649300D02*
D03*
X639800D02*
D03*
X890600Y406100D02*
D03*
X909600D02*
D03*
Y381000D02*
D03*
X900100D02*
D03*
X890600D02*
D03*
D20*
X70600Y410580D02*
D03*
X84600D02*
D03*
X98600D02*
D03*
Y396580D02*
D03*
Y382580D02*
D03*
X84600D02*
D03*
X70600D02*
D03*
Y396580D02*
D03*
X84600D02*
D03*
D21*
X7400Y499080D02*
D03*
X20100D02*
D03*
X32800D02*
D03*
X45500D02*
D03*
X58200D02*
D03*
X70900D02*
D03*
X83600D02*
D03*
X96300D02*
D03*
X109000D02*
D03*
X121700D02*
D03*
X134400D02*
D03*
X147100D02*
D03*
X159800D02*
D03*
X172500D02*
D03*
Y324080D02*
D03*
X159800D02*
D03*
X147100D02*
D03*
X134400D02*
D03*
X121700D02*
D03*
X109000D02*
D03*
X96300D02*
D03*
X83600D02*
D03*
X70900D02*
D03*
X58200D02*
D03*
X45500D02*
D03*
X32800D02*
D03*
X20100D02*
D03*
X7400D02*
D03*
D22*
X185000Y481430D02*
D03*
Y468730D02*
D03*
Y456030D02*
D03*
Y443330D02*
D03*
Y430630D02*
D03*
Y417930D02*
D03*
Y405230D02*
D03*
Y392530D02*
D03*
Y379830D02*
D03*
Y367130D02*
D03*
Y354430D02*
D03*
Y341730D02*
D03*
D23*
X105310Y292140D02*
D03*
Y269240D02*
D03*
Y246340D02*
D03*
D24*
X172210Y269240D02*
D03*
D25*
X73440Y207590D02*
D03*
Y202590D02*
D03*
Y197590D02*
D03*
Y172590D02*
D03*
Y177590D02*
D03*
Y182590D02*
D03*
Y192590D02*
D03*
Y187590D02*
D03*
D26*
Y166090D02*
D03*
Y214090D02*
D03*
Y158090D02*
D03*
Y222090D02*
D03*
D27*
X235040Y342900D02*
D03*
X220040D02*
D03*
X509600Y823420D02*
D03*
X524600D02*
D03*
X119590Y210820D02*
D03*
X104590D02*
D03*
X104590Y168910D02*
D03*
X119590D02*
D03*
X415850Y890460D02*
D03*
X400850D02*
D03*
X360210Y903160D02*
D03*
X375210D02*
D03*
X360210Y923480D02*
D03*
X375210D02*
D03*
X377630Y1070800D02*
D03*
X362630D02*
D03*
X377750Y1050480D02*
D03*
X362750D02*
D03*
X400850Y1037780D02*
D03*
X415850D02*
D03*
X253180Y186690D02*
D03*
X268180D02*
D03*
X179640Y143510D02*
D03*
X194640D02*
D03*
X155500Y893000D02*
D03*
X140500D02*
D03*
X147880Y862520D02*
D03*
X132880D02*
D03*
X99860D02*
D03*
X114860D02*
D03*
D28*
X10490Y530980D02*
D03*
Y545980D02*
D03*
X10491Y578999D02*
D03*
Y563999D02*
D03*
D29*
X25730Y530980D02*
D03*
Y545980D02*
D03*
X67640Y742260D02*
D03*
Y757260D02*
D03*
X413430Y1088700D02*
D03*
Y1103700D02*
D03*
X382950Y1088700D02*
D03*
Y1103700D02*
D03*
X347390Y1088700D02*
D03*
Y1103700D02*
D03*
X339770Y953840D02*
D03*
Y938840D02*
D03*
X375330Y956380D02*
D03*
Y941380D02*
D03*
X410890Y956380D02*
D03*
Y941380D02*
D03*
X25730Y564000D02*
D03*
Y579000D02*
D03*
D30*
X395770Y908383D02*
D03*
X400770D02*
D03*
X405770D02*
D03*
X410770D02*
D03*
Y923337D02*
D03*
X405770D02*
D03*
X400770D02*
D03*
X395770D02*
D03*
Y1068117D02*
D03*
X400770D02*
D03*
X405770D02*
D03*
X410770D02*
D03*
Y1053163D02*
D03*
X405770D02*
D03*
X400770D02*
D03*
X395770D02*
D03*
D31*
X95750Y195210D02*
D03*
Y190210D02*
D03*
Y185210D02*
D03*
X109550D02*
D03*
Y190210D02*
D03*
Y195210D02*
D03*
D32*
X131140Y189920D02*
D03*
Y180920D02*
D03*
X398190Y1100700D02*
D03*
Y1091700D02*
D03*
D33*
X454140Y941260D02*
D03*
X494640D02*
D03*
X456680Y1083500D02*
D03*
X497180D02*
D03*
D34*
X400730Y875220D02*
D03*
X414730D02*
D03*
X400730Y862520D02*
D03*
X414730D02*
D03*
X400730Y849820D02*
D03*
X414730D02*
D03*
D35*
X467930Y867600D02*
D03*
X485830D02*
D03*
X467930Y849820D02*
D03*
X485830D02*
D03*
X470470Y1020000D02*
D03*
X488370D02*
D03*
X417350D02*
D03*
X399450D02*
D03*
X417350Y1002220D02*
D03*
X399450D02*
D03*
X470470D02*
D03*
X488370D02*
D03*
X95820Y974280D02*
D03*
X113720D02*
D03*
X95820Y938720D02*
D03*
X113720D02*
D03*
X95820Y956500D02*
D03*
X113720D02*
D03*
D36*
X426130Y927190D02*
D03*
Y914690D02*
D03*
X365170Y1089950D02*
D03*
Y1102450D02*
D03*
X393110Y955130D02*
D03*
Y942630D02*
D03*
X357550Y952590D02*
D03*
Y940090D02*
D03*
X428670Y1074510D02*
D03*
Y1062010D02*
D03*
X60020Y274320D02*
D03*
Y286820D02*
D03*
D37*
X175940Y1034270D02*
D03*
Y944770D02*
D03*
D38*
X253430Y166370D02*
D03*
X267930D02*
D03*
D39*
X252150Y24350D02*
D03*
Y115350D02*
D03*
X297150D02*
D03*
Y24350D02*
D03*
X163250D02*
D03*
Y115350D02*
D03*
X208250D02*
D03*
Y24350D02*
D03*
D40*
X253160Y147320D02*
D03*
X265660D02*
D03*
D41*
X77800Y271770D02*
D03*
Y289670D02*
D03*
X37160Y271660D02*
D03*
Y289560D02*
D03*
D42*
X87960Y261000D02*
D03*
Y247000D02*
D03*
X36240Y921560D02*
D03*
Y935560D02*
D03*
D43*
X140500Y910780D02*
D03*
X155500D02*
D03*
X81840Y862520D02*
D03*
X66840D02*
D03*
X69140Y933640D02*
D03*
X54140D02*
D03*
D44*
X69910Y917130D02*
D03*
Y904430D02*
D03*
Y891730D02*
D03*
Y879030D02*
D03*
X119410D02*
D03*
Y891730D02*
D03*
Y904430D02*
D03*
Y917130D02*
D03*
D45*
X94660Y898080D02*
D03*
D74*
X32280Y71120D02*
D03*
X108280D02*
D03*
D85*
X384220Y763460D02*
D03*
X409620D02*
D03*
X357454Y763476D02*
D03*
X435020Y763460D02*
D03*
D86*
X170777Y398556D02*
X195356D01*
X196850Y400050D01*
X20100Y339762D02*
X20698Y340360D01*
X169583D01*
X20100Y324080D02*
Y339762D01*
X169583Y340360D02*
X170180Y340957D01*
Y397958D01*
X170777Y398556D01*
D87*
X390893Y403860D02*
X581126D01*
X196850Y400050D02*
X387083D01*
X390893Y403860D01*
X604850Y381000D02*
X642950Y342900D01*
X533400Y381000D02*
X604850D01*
X379500Y103100D02*
Y379854D01*
X381484Y101116D02*
X619703D01*
X379500Y103100D02*
X381484Y101116D01*
X400500Y118477D02*
X407217Y111760D01*
X966800Y25400D02*
Y64977D01*
Y64977D02*
Y76016D01*
X904950Y64977D02*
X966800D01*
X903500Y66427D02*
X904950Y64977D01*
X966800Y76016D02*
X1158034D01*
X903500Y66427D02*
Y67450D01*
X884250Y82550D02*
X889000D01*
X617707D02*
X884250D01*
X889100Y82650D02*
X1144500D01*
X889000Y82550D02*
X889100Y82650D01*
X407217Y111760D02*
X1161743D01*
X900557Y9957D02*
X916000Y25400D01*
X649300Y9957D02*
X900557D01*
X360500Y92550D02*
X614500D01*
X619703Y101116D02*
X625194Y95625D01*
X632050D02*
X633500Y94175D01*
X903500Y92550D02*
Y95650D01*
X395293Y105132D02*
X894018D01*
X393535Y106889D02*
X395293Y105132D01*
X633500Y92550D02*
Y94175D01*
X393535Y106889D02*
Y386757D01*
X625194Y95625D02*
X632050D01*
X894018Y105132D02*
X903500Y95650D01*
X1182275Y49625D02*
X1203300Y28600D01*
X1189850Y67450D02*
X1228700Y28600D01*
X1168725Y49625D02*
X1182275D01*
X1154000Y64350D02*
X1168725Y49625D01*
X1154000Y64350D02*
Y67450D01*
X1163500D02*
X1189850D01*
X1163500D02*
Y70550D01*
X1158034Y76016D02*
X1163500Y70550D01*
X1144500Y82650D02*
Y92550D01*
X1163500D02*
Y110003D01*
X1161743Y111760D02*
X1163500Y110003D01*
X62870Y289670D02*
X63270Y290070D01*
X60020Y286820D02*
X62870Y289670D01*
X63270Y290070D02*
Y294004D01*
X66040Y296774D01*
Y297180D01*
X185000Y392530D02*
X398743D01*
X238252Y379830D02*
X246936Y388514D01*
X265694Y381611D02*
X377743D01*
X398743Y392530D02*
X400500Y390773D01*
X391778Y388514D02*
X393535Y386757D01*
X377743Y381611D02*
X379500Y379854D01*
X258140Y374057D02*
X265694Y381611D01*
X246936Y388514D02*
X391778D01*
X185000Y367130D02*
X256383D01*
X185000Y379830D02*
X238252D01*
X256383Y367130D02*
X258140Y368887D01*
Y374057D01*
X409620Y757380D02*
Y763460D01*
X409620Y757380D02*
X511140D01*
X409620Y757380D02*
X409620Y757380D01*
X409620Y743466D02*
Y757380D01*
X400500Y118477D02*
Y390773D01*
X149860Y228600D02*
X297510D01*
X127000Y228600D02*
X127000Y228600D01*
X87960Y228600D02*
X127000D01*
X83374Y253506D02*
X112494D01*
X179640Y186360D01*
X215409Y299229D02*
X223520Y307340D01*
X126878Y299306D02*
X126955Y299229D01*
X79974Y299306D02*
X126878D01*
X57480Y321800D02*
X79974Y299306D01*
X126955Y299229D02*
X215409D01*
X57480Y321800D02*
Y323360D01*
X917476Y331134D02*
X1025090D01*
X904700Y335150D02*
X913460D01*
X1025090Y331134D02*
X1036856Y342900D01*
X896950D02*
X904700Y335150D01*
X913460D02*
X917476Y331134D01*
X1036856Y342900D02*
X1152220D01*
X1161720Y406250D02*
Y435123D01*
X202260Y436880D02*
X1159963D01*
X1161720Y435123D01*
X1142720Y395830D02*
Y406250D01*
X1152220Y370430D02*
Y381150D01*
X452800Y770776D02*
Y819610D01*
X508584Y822404D02*
X509600Y823420D01*
X498932Y822404D02*
X508584D01*
X452800Y819610D02*
Y859980D01*
X485830Y765217D02*
Y849820D01*
X484073Y763460D02*
X485830Y765217D01*
X516220Y762460D02*
Y997980D01*
X511140Y757380D02*
X516220Y762460D01*
X511980Y1002220D02*
X516220Y997980D01*
X84420Y192600D02*
X87030Y195210D01*
X73440Y192590D02*
X84410D01*
X69190Y187590D02*
X73440D01*
X84405D02*
X86785Y185210D01*
X73440Y187590D02*
X84405D01*
X86785Y185210D02*
X95750D01*
X73440Y182590D02*
X81494D01*
X84252Y179832D01*
X84658D01*
X61158Y174064D02*
Y206116D01*
X66648Y188574D02*
X68206D01*
X69190Y187590D01*
X65174Y190048D02*
Y195132D01*
X67632Y197590D01*
X65174Y190048D02*
X66648Y188574D01*
X102016Y181637D02*
Y187920D01*
Y181637D02*
X103773Y179880D01*
X119590D01*
X99976Y189960D02*
X102016Y187920D01*
X71940Y212590D02*
X73440Y214090D01*
X67632Y212590D02*
X71940D01*
X61158Y174064D02*
X67632Y167590D01*
Y197590D02*
X73440D01*
X61158Y206116D02*
X67632Y212590D01*
X71940Y167590D02*
X73440Y166090D01*
X67632Y167590D02*
X71940D01*
X1186510Y350650D02*
X1195270D01*
X1177345Y359815D02*
X1186510Y350650D01*
X1195270D02*
X1203020Y342900D01*
X1162835Y359815D02*
X1177345D01*
X185000Y405230D02*
X200684D01*
X201854Y406400D01*
X202260D01*
X1138470Y394380D02*
X1141270D01*
X896049Y393700D02*
X1137790D01*
X1141270Y394380D02*
X1142720Y395830D01*
X1137790Y393700D02*
X1138470Y394380D01*
X185000Y417930D02*
X650070D01*
X890600Y399149D02*
X896049Y393700D01*
X650070Y417930D02*
X658800Y409200D01*
X897939Y410311D02*
X902150Y406100D01*
X897939Y410311D02*
Y410455D01*
X880764Y427630D02*
X897939Y410455D01*
X188000Y427630D02*
X880764D01*
X889150Y395457D02*
Y399149D01*
X887393Y393700D02*
X889150Y395457D01*
X642950Y393700D02*
X887393D01*
X890600Y399149D02*
Y406100D01*
X1152220Y370430D02*
X1162835Y359815D01*
X615950Y84307D02*
X617707Y82550D01*
X615950Y84307D02*
Y91100D01*
X614500Y92550D02*
X615950Y91100D01*
X360500Y92550D02*
Y189740D01*
X649300Y9957D02*
Y25400D01*
X666950Y33150D02*
X674700Y25400D01*
X658190Y33150D02*
X666950D01*
X643315Y48025D02*
X658190Y33150D01*
X661125Y64375D02*
X700100Y25400D01*
X640325Y48025D02*
X643315D01*
X624000Y64350D02*
X640325Y48025D01*
X634950Y64375D02*
X661125D01*
X633500Y65825D02*
X634950Y64375D01*
X624000Y64350D02*
Y67450D01*
X633500Y65825D02*
Y67450D01*
X884250Y82550D02*
X884500Y82800D01*
Y92550D01*
X933650Y33150D02*
X941400Y25400D01*
X925200Y33150D02*
X933650D01*
X894000Y64350D02*
X925200Y33150D01*
X894000Y64350D02*
Y67450D01*
X45500Y311006D02*
Y324080D01*
X44780Y310286D02*
X45500Y311006D01*
X44780Y309880D02*
Y310286D01*
X172500Y305375D02*
Y324080D01*
X159080Y304249D02*
Y323360D01*
X171780Y304655D02*
X172500Y305375D01*
X171780Y304249D02*
Y304655D01*
X57480Y323360D02*
X58200Y324080D01*
X354660Y195580D02*
X360027Y190213D01*
X583366Y406100D02*
X639800D01*
X581126Y403860D02*
X583366Y406100D01*
X359740Y195580D02*
X360027Y195293D01*
Y190213D02*
Y195293D01*
Y190213D02*
X360500Y189740D01*
X20100Y288720D02*
Y324080D01*
X257169Y195580D02*
X354660D01*
X253180Y186690D02*
X255411Y188921D01*
Y193823D01*
X257169Y195580D01*
X658800Y406100D02*
Y409200D01*
X185000Y430630D02*
X188000Y427630D01*
X902150Y406100D02*
X909600D01*
X297510Y228600D02*
Y367813D01*
X294483Y370840D02*
X297510Y367813D01*
X66640Y757260D02*
X67640D01*
X59506Y764394D02*
X66640Y757260D01*
X23408Y764394D02*
X59506D01*
X21934Y765868D02*
Y789794D01*
Y765868D02*
X23408Y764394D01*
X21934Y789794D02*
X33700Y801560D01*
X639800Y406100D02*
X641100Y404800D01*
Y395550D02*
Y404800D01*
Y395550D02*
X642950Y393700D01*
X900100Y377900D02*
Y381000D01*
Y377900D02*
X914450Y363550D01*
X927100D01*
X947750Y342900D01*
X658800Y381000D02*
X681050D01*
X719150Y342900D01*
X649300Y377900D02*
Y381000D01*
Y377900D02*
X663650Y363550D01*
X673100D01*
X693750Y342900D01*
X280340Y370840D02*
X294483D01*
X279090Y293390D02*
X280340Y294640D01*
X106560Y293390D02*
X279090D01*
X105310Y292140D02*
X106560Y293390D01*
X117170Y166490D02*
X119590Y168910D01*
X116031Y159590D02*
X117170Y160729D01*
Y115350D02*
X163250D01*
X110037D02*
X117170D01*
Y160729D02*
Y166490D01*
Y115350D02*
Y160729D01*
X108280Y71120D02*
Y113593D01*
X110037Y115350D01*
X25730Y555500D02*
Y564000D01*
Y555500D02*
X27969Y553261D01*
X10490Y530980D02*
X22230Y542720D01*
X24730Y545980D02*
X25730D01*
X33246Y501174D02*
Y551022D01*
X31007Y553261D02*
X33246Y551022D01*
X27969Y553261D02*
X31007D01*
X30706Y501174D02*
X32800Y499080D01*
X22230Y543480D02*
X24730Y545980D01*
X22230Y542720D02*
Y543480D01*
X22640Y499080D02*
Y528480D01*
X25140Y530980D01*
X25730D01*
X10491Y578999D02*
X10491Y579000D01*
X25730D01*
X25730Y579000D01*
X268180Y149840D02*
Y186690D01*
X265660Y147320D02*
X268180Y149840D01*
X253160Y147320D02*
Y166100D01*
X253430Y166370D01*
X179970Y186690D02*
X253180D01*
X179640Y186360D02*
X179970Y186690D01*
X265660Y147320D02*
X265760Y147220D01*
Y133350D02*
Y147220D01*
X266047Y133063D02*
X293987D01*
X265760Y133350D02*
X266047Y133063D01*
X253160Y116360D02*
Y147320D01*
X252150Y115350D02*
X253160Y116360D01*
X77800Y259080D02*
Y271770D01*
Y259080D02*
X83374Y253506D01*
X77800Y271770D02*
X98340D01*
X179640Y143510D02*
Y186360D01*
X194640Y143510D02*
X204190D01*
X208404Y139296D01*
X208810D01*
X73440Y202590D02*
X83540D01*
X91497Y210547D02*
X104317D01*
X83540Y202590D02*
X91497Y210547D01*
X104317D02*
X104590Y210820D01*
X119590D02*
Y220333D01*
X102016Y197920D02*
X104756Y200660D01*
X117833D02*
X119590Y202417D01*
X104756Y200660D02*
X117833D01*
X119590Y202417D02*
Y210820D01*
X70690Y222090D02*
X117833D01*
X119590Y220333D01*
X91730Y168910D02*
X104590D01*
X88050Y172590D02*
X91730Y168910D01*
X73440Y172590D02*
X88050D01*
X119590Y179880D02*
X128133D01*
X119590Y168910D02*
Y179880D01*
X74940Y159590D02*
X116031D01*
X128133Y179880D02*
X128173Y179920D01*
X130140D01*
X131140Y180920D01*
X113097Y189960D02*
X113137Y189920D01*
X109800Y189960D02*
X113097D01*
X113137Y189920D02*
X128133D01*
X109550Y190210D02*
X109800Y189960D01*
X128133Y189920D02*
X128403Y189650D01*
X109550Y185210D02*
X109705Y185055D01*
X128403Y189650D02*
X131140D01*
X109705Y185055D02*
X118285D01*
X118440Y184900D01*
X109550Y195210D02*
X109735Y195395D01*
X138575D01*
X138760Y195580D01*
X159080Y323360D02*
X159800Y324080D01*
X186170Y342900D02*
X220040D01*
X185000Y341730D02*
X186170Y342900D01*
X87960Y247000D02*
X88290Y246670D01*
X104980D01*
X105310Y246340D01*
X87960Y228600D02*
Y247000D01*
X409620Y743466D02*
X410540Y742546D01*
Y742140D02*
Y742546D01*
X235040Y342900D02*
Y342940D01*
X237540Y345440D01*
X280340D01*
X105310Y283590D02*
Y292140D01*
X34460Y271660D02*
X37160D01*
X32160Y273960D02*
X34460Y271660D01*
X32160Y273960D02*
Y276660D01*
X20100Y288720D02*
X32160Y276660D01*
X37160Y289560D02*
X57280D01*
X60020Y286820D01*
Y274320D02*
X72550D01*
X75100Y271770D01*
X77800D01*
X37160Y271660D02*
X57360D01*
X60020Y274320D01*
X62870Y289670D02*
X77800D01*
X104075Y290905D02*
X105310Y292140D01*
X79035Y290905D02*
X104075D01*
X77800Y289670D02*
X79035Y290905D01*
X87960Y261000D02*
X111420D01*
X114376Y263956D01*
Y274524D01*
X105310Y283590D02*
X114376Y274524D01*
X7400Y324080D02*
Y327080D01*
X25890Y233290D02*
X67690D01*
X293987Y133063D02*
X297150Y129900D01*
Y24350D02*
Y129900D01*
X32800Y304486D02*
Y324080D01*
Y304486D02*
X33350Y303936D01*
Y303530D02*
Y303936D01*
X208250Y115350D02*
X208810Y115910D01*
Y139296D01*
X172500Y499080D02*
X173800Y500380D01*
X185750D01*
X102016Y192500D02*
Y197920D01*
X242634Y11334D02*
X252150Y20850D01*
X172766Y11334D02*
X242634D01*
X252150Y20850D02*
Y24350D01*
X163250Y20850D02*
X172766Y11334D01*
X163250Y20850D02*
Y24350D01*
X252150D02*
Y115350D01*
X163250Y24350D02*
Y115350D01*
X208250Y24350D02*
Y115350D01*
X69190Y223590D02*
X70690Y222090D01*
X69190Y223590D02*
Y231790D01*
X67690Y233290D02*
X69190Y231790D01*
X67690Y146890D02*
X69190Y148390D01*
Y156590D01*
X70690Y158090D01*
X73440D01*
X25890Y146890D02*
X67690D01*
X329290Y752300D02*
X376250D01*
X383646Y759696D01*
Y762886D02*
X384220Y763460D01*
X383646Y759696D02*
Y762886D01*
X292810Y788780D02*
X329290Y752300D01*
X98340Y271770D02*
X103410Y266700D01*
X105310D01*
X357454Y763476D02*
X362997Y769019D01*
X451043D01*
X452800Y770776D01*
X377580Y956380D02*
Y962976D01*
X413430Y842031D02*
Y850576D01*
X240360Y1085040D02*
X291160D01*
X240360Y846497D02*
Y1085040D01*
X24027Y844740D02*
X238603D01*
X240360Y846497D01*
X488370Y1002220D02*
X511980D01*
X332150Y904836D02*
Y949583D01*
Y904836D02*
X333826Y903160D01*
X334113D01*
X333420D02*
X360210D01*
X207160Y862520D02*
X207220Y862460D01*
X147880Y862520D02*
X207160D01*
X95750Y190210D02*
X96000Y189960D01*
X99976D01*
X73440Y158090D02*
X74940Y159590D01*
X99976Y190460D02*
X102016Y192500D01*
X87030Y195210D02*
X95750D01*
X435020Y763460D02*
X484073D01*
X242010Y788780D02*
X292810D01*
X89610D02*
X140410D01*
X33700Y776160D02*
X74653D01*
X87273Y788780D01*
X89610D01*
X207690Y862520D02*
Y1029673D01*
X438770Y1088640D02*
X438830Y1088580D01*
X413490Y1088640D02*
X438770D01*
X425420Y1071260D02*
X428670Y1074510D01*
X415850Y1037780D02*
X426130D01*
X393110Y942630D02*
X400770Y934970D01*
Y923337D02*
Y934970D01*
X375210Y923480D02*
X395667D01*
X395770Y923377D01*
X375822Y964734D02*
X377580Y962976D01*
X395770Y923337D02*
Y923377D01*
X422277Y923337D02*
X426130Y927190D01*
X410770Y923337D02*
X422277D01*
X410890Y932880D02*
Y941380D01*
X405873Y927863D02*
X410890Y932880D01*
X405873Y923440D02*
Y927863D01*
X405770Y923337D02*
X405873Y923440D01*
X413430Y1088700D02*
X413490Y1088640D01*
X497180Y1083500D02*
X499790Y1086110D01*
Y1124140D01*
X420016Y1071260D02*
X425420D01*
X416873Y1068117D02*
X420016Y1071260D01*
X415050Y997220D02*
X417350Y999520D01*
X414134Y997220D02*
X415050D01*
X410890Y993976D02*
X414134Y997220D01*
X410890Y956380D02*
Y992060D01*
Y993976D01*
X417350Y999520D02*
Y1002220D01*
X385490Y992060D02*
Y1032700D01*
X410770Y1068117D02*
X416873D01*
X385490Y992060D02*
X410890D01*
X345633Y1060640D02*
X347390Y1058883D01*
X338706Y1070017D02*
X340463Y1068260D01*
X338706Y1070017D02*
Y1099523D01*
X334690Y1060640D02*
Y1114763D01*
Y1060640D02*
X345633D01*
X334690Y1114763D02*
X336447Y1116520D01*
X340463Y1068260D02*
X350713D01*
X349147Y1037780D02*
X380410D01*
X347390Y1039537D02*
X349147Y1037780D01*
X380410D02*
X385490Y1032700D01*
X398190Y1081413D02*
X400770Y1078833D01*
X336447Y1116520D02*
X381193D01*
X338706Y1099523D02*
X340463Y1101280D01*
X344970D02*
X347390Y1103700D01*
X340463Y1101280D02*
X344970D01*
X347390Y1103700D02*
Y1111440D01*
X382950Y1103700D02*
Y1114763D01*
X381193Y1116520D02*
X382950Y1114763D01*
X398190Y1081413D02*
Y1091700D01*
X347390Y1039537D02*
Y1058883D01*
X394516Y1050480D02*
X395770Y1051734D01*
Y1053163D01*
X400770Y1068117D02*
Y1078833D01*
X395770Y1068117D02*
Y1069546D01*
X394516Y1070800D02*
X395770Y1069546D01*
X354227Y1050480D02*
X362750D01*
X350713Y1068260D02*
X352470Y1066503D01*
Y1052237D02*
X354227Y1050480D01*
X352470Y1052237D02*
Y1066503D01*
X377630Y1070800D02*
X394516D01*
X410890Y941380D02*
X410950Y941320D01*
X337270Y951340D02*
X339770Y953840D01*
X395770Y906954D02*
Y908383D01*
X386760Y849820D02*
X400730D01*
X378362Y890460D02*
X380120Y888703D01*
X391976Y903160D02*
X395770Y906954D01*
X427340Y941320D02*
X427400Y941260D01*
X410950Y941320D02*
X427340D01*
X375210Y903160D02*
X391976D01*
X377750Y1050480D02*
X394516D01*
X411673Y840274D02*
X413430Y842031D01*
X380120D02*
Y888703D01*
X381877Y840274D02*
X411673D01*
X380120Y842031D02*
X381877Y840274D01*
X495980Y942600D02*
Y971740D01*
X494640Y941260D02*
X495980Y942600D01*
X415850Y890460D02*
X424860D01*
X329891D02*
X378362D01*
X175940Y1034270D02*
X178780Y1031430D01*
X205933D01*
X207690Y1029673D01*
X328134Y892217D02*
Y960624D01*
Y892217D02*
X329891Y890460D01*
X332150Y949583D02*
X333907Y951340D01*
X337270D01*
X328134Y960624D02*
X332244Y964734D01*
X375822D01*
X22270Y846497D02*
Y897696D01*
Y846497D02*
X24027Y844740D01*
X36240Y911666D02*
Y921560D01*
X22270Y897696D02*
X36240Y911666D01*
X69140Y933640D02*
X69260Y933760D01*
Y950150D01*
D88*
X890600Y25400D02*
D03*
X1152500Y28600D02*
D03*
X1203300D02*
D03*
X623900Y25400D02*
D03*
X674700D02*
D03*
X941400D02*
D03*
X1152220Y342900D02*
D03*
X1203020D02*
D03*
X693750D02*
D03*
X642950D02*
D03*
X896950D02*
D03*
X947750D02*
D03*
D89*
X916000Y25400D02*
D03*
X1177900Y28600D02*
D03*
X1228700D02*
D03*
X649300Y25400D02*
D03*
X700100D02*
D03*
X966800D02*
D03*
X1177620Y342900D02*
D03*
X1228420D02*
D03*
X719150D02*
D03*
X668350D02*
D03*
X922350D02*
D03*
X973150D02*
D03*
X33700Y801560D02*
D03*
X33220Y1058460D02*
D03*
D90*
X62690Y218990D02*
D03*
Y161190D02*
D03*
D91*
X67690Y146890D02*
D03*
Y233290D02*
D03*
D92*
X25890Y146890D02*
D03*
Y233290D02*
D03*
D93*
X280340Y370840D02*
D03*
D94*
Y345440D02*
D03*
Y320040D02*
D03*
Y294640D02*
D03*
D95*
X33700Y776160D02*
D03*
X33220Y1083860D02*
D03*
D96*
X292810Y788780D02*
D03*
X242010D02*
D03*
X140410D02*
D03*
X89610D02*
D03*
X291160Y1085040D02*
D03*
X240360D02*
D03*
X138760D02*
D03*
X87960D02*
D03*
D97*
X533400Y381000D02*
D03*
X66040Y297180D02*
D03*
X149860Y228600D02*
D03*
X127000D02*
D03*
X223520Y307340D02*
D03*
X401142Y1039828D02*
D03*
X498932Y822404D02*
D03*
X452800Y819610D02*
D03*
X84410Y192610D02*
D03*
X84658Y179832D02*
D03*
X202260Y406400D02*
D03*
Y436880D02*
D03*
X44780Y309880D02*
D03*
X171780Y304249D02*
D03*
X159080D02*
D03*
X359740Y195580D02*
D03*
X297510Y228600D02*
D03*
X265760Y133350D02*
D03*
X118440Y184900D02*
D03*
X138760Y195580D02*
D03*
X410540Y742140D02*
D03*
X33350Y303530D02*
D03*
X208810Y139296D02*
D03*
X185750Y500380D02*
D03*
X207220Y862460D02*
D03*
X499790Y1124140D02*
D03*
X495980Y971740D02*
D03*
X427400Y941260D02*
D03*
X424860Y890460D02*
D03*
X426130Y1037780D02*
D03*
X438830Y1088580D02*
D03*
X347390Y1111440D02*
D03*
X386760Y849820D02*
D03*
X333420Y903160D02*
D03*
X104820Y891730D02*
D03*
X94660D02*
D03*
X89580D02*
D03*
X99740D02*
D03*
X84500D02*
D03*
X99740Y896810D02*
D03*
X89580D02*
D03*
X94660D02*
D03*
X84500D02*
D03*
X104820D02*
D03*
X84500Y928560D02*
D03*
X89580D02*
D03*
X94660D02*
D03*
X99740D02*
D03*
X104820D02*
D03*
X84500Y917130D02*
D03*
X89580D02*
D03*
X94660D02*
D03*
X99740D02*
D03*
X104820D02*
D03*
X84500Y912050D02*
D03*
X89580D02*
D03*
X94660D02*
D03*
X99740D02*
D03*
X104820D02*
D03*
X84500Y906970D02*
D03*
X89580D02*
D03*
X94660D02*
D03*
X99740D02*
D03*
X104820D02*
D03*
X84500Y901890D02*
D03*
X89580D02*
D03*
X94660D02*
D03*
X99740D02*
D03*
X104820D02*
D03*
X84500Y886650D02*
D03*
X89580D02*
D03*
X94660D02*
D03*
X99740D02*
D03*
X104820D02*
D03*
Y881570D02*
D03*
X99740D02*
D03*
X94660D02*
D03*
X89580D02*
D03*
X84500D02*
D03*
Y876490D02*
D03*
X89580D02*
D03*
X94660D02*
D03*
X99740D02*
D03*
X104820D02*
D03*
X79420Y871410D02*
D03*
X84500D02*
D03*
X89580D02*
D03*
X94660D02*
D03*
X99740D02*
D03*
X104820D02*
D03*
X179750Y923480D02*
D03*
X69260Y950150D02*
D03*
D98*
X452800Y859980D02*
D03*
M02*
