M48
;Layer_Color=9474304
;FILE_FORMAT=4:4
METRIC,LZ
;TYPE=PLATED
T1F00S00C0.2000
T2F00S00C0.3000
T4F00S00C0.7620
T5F00S00C0.8000
T6F00S00C0.8500
T7F00S00C0.8890
T8F00S00C1.3000
T9F00S00C3.1500
%
T01
X00084658Y00179832
X0008441Y0019261
X0011844Y001849
X0013876Y0019558
X0020881Y00139296
X0026576Y0013335
X002159Y0029464
X0017272Y0029972
X0016002Y0030099
X0006731Y0028956
X0004478Y0030988
X0003335Y0030353
X0029718Y0023241
X005334Y00381
X006985Y0078994
X0072517Y0076962
X0087757Y0075692
X0088773Y0077724
X006223Y0073914
X005969
X005842Y0077718
X0058293Y0078994
X00484073Y0076346
X0045339Y0077089
X0040962Y00750744
X0048387Y0061854
X0018288Y0049663
X0020226Y0043688
Y004064
X0020722Y0086246
X0010482Y0087141
Y0087649
Y0088157
Y0088665
Y0089173
X0009974
X0009466
X0008958
X000845
Y0089681
X0008958
X0009466
X0009974
X0010482
Y0090189
Y0090697
Y0091205
Y00917
X0009974
Y0091205
X0009466
Y00917
X0008958
Y0091205
X000845
Y00917
Y0090697
X0008958
X0009466
X0009974
Y0090189
X0009466
X0008958
X000845
Y0088665
X0008958
X0009466
X0009974
Y0088157
X0009466
X0008958
X000845
Y0087649
X0008958
X0009466
X0009974
Y0087141
X0009466
X0008958
X000845
X0007942
X000845Y0092856
X0008958
X0009466
X0009974
X0010482
X0033342Y0090316
X0042486Y0089046
X004274Y0094126
X0042613Y0103778
X00401142Y01039828
X0043883Y0105652
X0052578Y0105283
Y0106045
Y0106807
Y0107569
Y0108331
Y0109093
Y0109855
Y0110617
X0053594
Y0109855
Y0109093
Y0108331
Y0107569
Y0106807
Y0106045
Y0105283
X005461
Y0106045
Y0106807
Y0107569
Y0108331
Y0109093
Y0109855
Y0110617
X0055626
Y0109855
Y0109093
Y0108331
Y0107569
Y0106807
Y0106045
Y0105283
X0057023Y0104775
Y0103759
Y0102743
Y0101727
Y0100711
Y0099695
Y0098679
Y0097663
Y0096647
Y0095631
Y0094615
Y0093599
Y0092583
Y0091567
Y0090551
X0058039
X0059055
X0060071
X0061087
X0062103
X0063119
X0064135
X0065151
X0066167
X0067183
X0068199
X0069215
Y0091567
X0068199
X0067183
X0066167
X0065151
X0064135
X0063119
X0062103
X0061087
X0060071
X0059055
X0058039
Y0092583
X0059055
X0060071
X0061087
X0062103
X0063119
X0064135
X0065151
X0066167
X0067183
X0068199
X0069215
Y0093599
X0068199
X0067183
X0066167
X0065151
X0064135
X0063119
X0062103
X0061087
X0060071
X0059055
X0058039
Y0094615
X0059055
X0060071
X0061087
X0062103
X0063119
X0064135
X0065151
X0066167
X0067183
X0068199
X0069215
Y0095631
X0068199
X0067183
X0066167
X0065151
X0064135
X0063119
X0062103
X0061087
X0060071
X0059055
X0058039
Y0096647
X0059055
X0060071
X0061087
X0062103
X0063119
X0064135
X0065151
X0066167
X0067183
X0068199
X0069215
Y0097663
X0068199
X0067183
X0066167
X0065151
X0064135
X0063119
X0062103
X0061087
X0060071
X0059055
X0058039
Y0098679
X0059055
X0060071
X0061087
X0062103
X0063119
X0064135
X0065151
X0066167
X0067183
X0068199
X0069215
Y0099695
X0068199
X0067183
X0066167
X0065151
X0064135
X0063119
X0062103
X0061087
X0060071
X0059055
X0058039
Y0100711
X0059055
X0060071
X0061087
X0062103
X0063119
X0064135
X0065151
X0066167
X0067183
X0068199
X0069215
Y0101727
X0068199
X0067183
X0066167
X0065151
X0064135
X0063119
X0062103
X0061087
X0060071
X0059055
X0058039
Y0102743
X0059055
X0060071
X0061087
X0062103
X0063119
X0064135
X0065151
X0066167
X0067183
X0068199
X0069215
Y0103759
X0068199
X0067183
X0066167
X0065151
X0064135
X0063119
X0062103
X0061087
X0060071
X0059055
X0058039
Y0104775
X0059055
X0060071
X0061087
X0062103
X0063119
X0064135
X0065151
X0066167
X0067183
X0068199
X0069215
Y0105791
Y0106807
X0068199
X0067183
X0066167
X0065151
X0064135
X0063119
X0062103
X0061087
X0060071
X0059055
X0058039
X0057023
Y0105791
X0058039
X0059055
X0060071
X0061087
X0062103
X0063119
X0064135
X0065151
X0066167
X0067183
X0068199
X0049979Y0112414
X0049598Y0097174
X0038789Y0084982
X0034739Y0111356
X0071247Y0106807
X0072263
X0073279
X0074295
X0075311
X0076327
X0077343
X0078359
X0079375
X0080391
X0081407
X0082423
X0083439
Y0105791
Y0104775
Y0103759
Y0102743
X0082423
Y0103759
Y0104775
Y0105791
X0081407
X0080391
X0079375
X0078359
X0077343
X0076327
X0075311
X0074295
X0073279
X0072263
X0071247
Y0104775
X0072263
X0073279
X0074295
X0075311
X0076327
X0077343
X0078359
X0079375
X0080391
X0081407
Y0103759
X0080391
X0079375
X0078359
X0077343
X0076327
X0075311
X0074295
X0073279
X0072263
X0071247
Y0102743
X0072263
X0073279
X0074295
X0075311
X0076327
X0077343
X0078359
X0079375
X0080391
X0081407
Y0101727
X0082423
X0083439
Y0100711
X0082423
X0081407
X0080391
Y0101727
X0079375
X0078359
X0077343
X0076327
X0075311
X0074295
X0073279
X0072263
X0071247
Y0100711
X0072263
X0073279
X0074295
X0075311
X0076327
X0077343
X0078359
X0079375
Y0099695
X0080391
X0081407
X0082423
X0083439
Y0098679
X0082423
X0081407
X0080391
X0079375
X0078359
Y0099695
X0077343
X0076327
X0075311
X0074295
X0073279
X0072263
X0071247
Y0098679
X0072263
X0073279
X0074295
X0075311
X0076327
X0077343
Y0097663
X0078359
X0079375
X0080391
X0081407
X0082423
X0083439
Y0096647
X0082423
X0081407
X0080391
X0079375
X0078359
X0077343
X0076327
Y0097663
X0075311
X0074295
X0073279
X0072263
X0071247
Y0096647
X0072263
X0073279
X0074295
X0075311
Y0095631
X0076327
X0077343
X0078359
X0079375
X0080391
X0081407
X0082423
X0083439
Y0094615
X0082423
X0081407
X0080391
X0079375
X0078359
X0077343
X0076327
X0075311
X0074295
Y0095631
X0073279
X0072263
X0071247
Y0094615
X0072263
X0073279
Y0093599
X0074295
X0075311
X0076327
X0077343
X0078359
X0079375
X0080391
X0081407
X0082423
X0083439
Y0092583
Y0091567
X0082423
Y0092583
X0081407
X0080391
X0079375
X0078359
X0077343
X0076327
X0075311
X0074295
X0073279
X0072263
Y0093599
X0071247
Y0092583
Y0091567
X0072263
X0073279
X0074295
X0075311
X0076327
X0077343
X0078359
X0079375
X0080391
X0081407
Y0090551
X0082423
X0083439
X0080391
X0079375
X0078359
X0077343
X0076327
X0075311
X0074295
X0073279
X0072263
X0071247
X0097155
Y0091567
Y0092583
X0098171
Y0091567
Y0090551
X0099187
Y0091567
Y0092583
X0100203
Y0091567
Y0090551
X0101219
Y0091567
Y0092583
Y0093599
X0100203
Y0094615
X0099187
X0098171
X0097155
Y0093599
X0098171
X0099187
Y0095631
X0098171
X0097155
Y0096647
X0098171
X0099187
X0100203
Y0095631
X0101219
Y0094615
X0102235
Y0093599
Y0092583
Y0091567
X0103251
Y0090551
X0104267
X0105283
X0106299
X0107315
X0108331
Y0091567
X0107315
X0106299
X0105283
X0104267
Y0092583
X0103251
Y0093599
X0104267
X0105283
Y0092583
X0106299
X0107315
X0108331
Y0093599
X0107315
X0106299
Y0094615
X0105283
X0104267
X0103251
Y0095631
X0102235
Y0096647
X0101219
Y0097663
X0100203
X0099187
X0098171
X0097155
Y0098679
X0098171
X0099187
X0100203
X0101219
X0102235
Y0097663
X0103251
Y0096647
X0104267
Y0095631
X0105283
X0106299
X0107315
Y0094615
X0108331
Y0095631
Y0096647
X0107315
X0106299
X0105283
Y0097663
X0104267
Y0098679
X0103251
Y0099695
X0102235
X0101219
X0100203
X0099187
X0098171
X0097155
Y0100711
X0098171
X0099187
X0100203
X0101219
X0102235
X0103251
X0104267
Y0099695
X0105283
Y0098679
X0106299
Y0097663
X0107315
X0108331
Y0098679
X0107315
Y0099695
X0106299
Y0100711
X0105283
Y0101727
X0104267
X0103251
X0102235
X0101219
X0100203
X0099187
X0098171
X0097155
Y0102743
X0098171
X0099187
X0100203
X0101219
X0102235
X0103251
X0104267
X0105283
X0106299
Y0101727
X0107315
Y0100711
X0108331
Y0099695
Y0101727
Y0102743
X0107315
Y0103759
X0106299
X0105283
X0104267
X0103251
X0102235
X0101219
X0100203
X0099187
X0098171
X0097155
Y0104775
X0098171
X0099187
X0100203
X0101219
X0102235
X0103251
X0104267
X0105283
X0106299
X0107315
X0108331
Y0103759
Y0105791
X0107315
X0106299
X0105283
X0104267
X0103251
X0102235
X0101219
X0100203
X0099187
X0098171
X0097155
Y0106807
X0098171
X0099187
X0100203
X0101219
X0102235
X0103251
X0104267
X0105283
X0106299
X0107315
X0108331
X0095504Y0109093
Y0109982
Y0110744
Y0111506
X0094488
Y0110744
Y0109982
Y0109093
X0093472
Y0109982
Y0110744
Y0111506
X0092456
Y0110744
Y0109982
X0091567
Y0110744
Y0111506
X0090551
Y0110744
Y0109982
Y0109093
X0089535
Y0109982
Y0110744
Y0111506
X0088646
Y0110744
Y0109982
Y0109093
X008763
Y0109982
Y0110744
Y0111506
X0086741
Y0110744
Y0109982
Y0109093
X0085725
Y0109982
Y0110744
Y0111506
X0084709
Y0110744
Y0109982
Y0109093
X0091567
X0092456
X0102235Y0090551
X0109347
Y0091567
Y0092583
Y0093599
Y0094615
Y0095631
Y0096647
Y0097663
Y0098679
Y0099695
Y0100711
Y0101727
Y0102743
Y0103759
Y0104775
Y0105791
Y0106807
X0111379Y01068004
X0112395
X0113411
X0114427
X0115443
X0116459
X0117475
X0118491
X0119507
X0120523
X0121539
X0122555
X0123571
Y01057844
Y01047684
Y01037524
Y01027364
X0122555
Y01037524
Y01047684
Y01057844
X0121539
X0120523
X0119507
X0118491
X0117475
X0116459
X0115443
X0114427
X0113411
X0112395
X0111379
Y01047684
X0112395
X0113411
X0114427
X0115443
X0116459
X0117475
X0118491
X0119507
X0120523
X0121539
Y01037524
X0120523
X0119507
X0118491
X0117475
X0116459
X0115443
X0114427
X0113411
X0112395
X0111379
Y01027364
X0112395
X0113411
X0114427
X0115443
X0116459
X0117475
X0118491
X0119507
X0120523
X0121539
Y01017204
X0122555
X0123571
Y01007044
X0122555
X0121539
X0120523
Y01017204
X0119507
X0118491
X0117475
X0116459
X0115443
X0114427
X0113411
X0112395
X0111379
Y01007044
X0112395
X0113411
X0114427
X0115443
X0116459
X0117475
X0118491
X0119507
Y00996884
X0120523
X0121539
X0122555
X0123571
Y00986724
X0122555
X0121539
X0120523
X0119507
X0118491
Y00996884
X0117475
X0116459
X0115443
X0114427
X0113411
X0112395
X0111379
Y00986724
X0112395
X0113411
X0114427
X0115443
X0116459
X0117475
Y00976564
X0118491
X0119507
X0120523
X0121539
X0122555
X0123571
Y00966404
X0122555
X0121539
X0120523
X0119507
X0118491
X0117475
X0116459
Y00976564
X0115443
X0114427
X0113411
X0112395
X0111379
Y00966404
X0112395
X0113411
X0114427
X0115443
Y00956244
X0116459
X0117475
X0118491
X0119507
X0120523
X0121539
X0122555
X0123571
Y00946084
X0122555
X0121539
X0120523
X0119507
X0118491
X0117475
X0116459
X0115443
X0114427
Y00956244
X0113411
X0112395
X0111379
Y00946084
X0112395
X0113411
Y00935924
X0114427
X0115443
X0116459
X0117475
X0118491
X0119507
X0120523
X0121539
X0122555
X0123571
Y00925764
Y00915604
X0122555
Y00925764
X0121539
X0120523
X0119507
X0118491
X0117475
X0116459
X0115443
X0114427
X0113411
X0112395
Y00935924
X0111379
Y00925764
Y00915604
X0112395
Y00905444
X0113411
Y00915604
X0114427
X0115443
X0116459
X0117475
X0118491
X0119507
X0120523
X0121539
Y00905444
X0122555
X0123571
X0120523
X0119507
X0118491
X0117475
X0116459
X0115443
X0114427
X0111379
X0125476Y010922
Y0109982
Y0110744
Y0111506
X0126365
Y0110744
Y0109982
Y010922
X0127254
Y0109982
Y0110744
Y0111506
X0128143
Y0110744
Y0109982
Y010922
X0129032
Y0109982
Y0110744
Y0111506
X0129921
Y0110744
Y0109982
Y010922
T02
X0001905Y003429
X0008255Y0030734
X0009652Y0031369
X0010922Y0031877
X0012192Y0032454
X0019431Y0032477
Y003175
Y0030988
Y0030226
X0018415Y0035433
X0022352Y0024257
X0023368
X0024384
X00254
X0026416
X0040894Y0023622
Y0022733
Y0021844
Y0020955
Y0020066
X0138938Y003937
X01158569Y0064897
X01121888
X0110998Y0072517
X0111379Y0078359
X010922Y0077597
X012827Y0078994
X010668Y0076962
X01016Y0078994
X0096012Y0078359
X0093218Y0076962
X0092075Y0077597
X0093472Y00709138
X010287Y0070993
X01016Y006432
X0098818Y0062357
X009779Y0061087
X0099441Y0056931
X0098679Y005535
X010287Y0058801
X0076835Y0064897
X0073025Y0065024
X0070612Y0060325
Y0054483
X0071501Y0072771
X0077307Y006885
X0084963Y0076454
X006096Y0073914
X0056515Y0069977
X005969Y0064516
X0060948Y006223
X00615466Y0061352
X0059563Y0058674
X0060833Y005633
X0048387Y005535
X0045339Y0060775
X00134791Y00612153
X0013462Y0051816
X0014732Y0051181
X0016002Y005207
X0020574Y0052197
Y0051181
X00185Y0046873
X0006096Y0051943
X0037211Y0084074
X0055626Y0097155
Y0098044
Y0098933
X008509Y0098298
Y00975159
Y0096774
X0086868Y0100572
Y0103862
X0095504Y0100076
X0095431Y00994
Y009875
Y00981
X009779Y0080645
X010033Y0079756
X0125476Y0079629
X0128905Y0080645
X0126111Y0096901
X0125349Y0097155
Y0097917
Y0098679
X0127254Y0100457
Y0103759
T04
X0136525Y0017526
Y0019304
Y0021209
Y0022987
Y0024765
T05
X0003228Y0007112
X0010828
X011303Y006885
Y007085
X007366
Y006885
T06
X006239Y000254
X006493
X006747
X0066835Y003429
X0064295
X0069375
X0071915
X0089695
X0092235
X0094775
X0097315
X009668Y000254
X009414
X00916
X008906
X007001
X011525Y000286
X011779
X012033
X012287
X0122842Y003429
X0120302
X0117762
X0115222
X0134366Y003683
Y003937
Y004191
X0003175Y0065278
Y0067818
Y0070358
X0002794Y0076581
Y0079121
Y0081661
X0003322Y0105846
Y0108386
T07
X0028034Y0029464
Y0032004
Y0034544
Y0037084
T08
X0008961Y0078878
X0014041
X0024201
X0029281
X0029116Y0108504
X0024036
X0013876
X0008796
T09
X0035Y0005
X0135
X011Y005
X0035Y0068
X0135Y0107
M30
